M48
METRIC,TZ
T1C0.300
T2C0.500
T3C0.600
T4C1.000
%
G90
G05
T1
X141930Y-106990
X141930Y-109530
X141930Y-112070
X141930Y-115880
X141930Y-118420
X143200Y-108260
X143200Y-110800
X143200Y-117150
X144405Y-109530
X144470Y-106990
X144470Y-112070
X144470Y-115880
X144470Y-118420
X145740Y-108260
X145740Y-110800
X145740Y-117150
X146248Y-100640
X147010Y-115880
X148280Y-117150
X149296Y-104704
X149296Y-105466
X149296Y-106228
X149296Y-112832
X149296Y-113594
X149296Y-114356
X149550Y-115880
X150820Y-117150
X151785Y-109561
X152090Y-108260
X152090Y-110800
X152852Y-109136
X152852Y-109986
X154376Y-104577
X155392Y-102418
X155392Y-112578
X155900Y-106990
X156916Y-112197
X157170Y-101092
X157170Y-108260
X157424Y-104958
X158047Y-106863
X158440Y-103180
X158948Y-109022
X160980Y-103180
X161482Y-109530
X161488Y-112578
X161488Y-113278
X161488Y-114102
X161488Y-114864
X161488Y-115626
X161488Y-116450
X161488Y-117212
X162250Y-112578
X162250Y-113278
X162250Y-114102
X162250Y-114864
X162250Y-115626
X162250Y-116450
X162250Y-117212
X163012Y-115626
X163012Y-116450
X163012Y-117212
X163774Y-108768
X165044Y-108768
X165172Y-102003
X166568Y-109022
X168092Y-114102
X169616Y-109022
X171648Y-102418
X171648Y-104958
X171648Y-107498
X172410Y-105720
X172410Y-108260
X172410Y-118420
X173680Y-104450
X173680Y-106990
X173680Y-109530
X173680Y-116134
X174950Y-105720
X174950Y-108260
X174950Y-110800
X174950Y-113340
X174950Y-115880
X174950Y-118420
T2
X164977Y-105538
X169204Y-103714
T4
X147010Y-99370
X147015Y-119690
X149550Y-99370
X149555Y-119690
X152090Y-99370
X152095Y-119690
X154630Y-99370
X154635Y-119690
X157170Y-99370
X157175Y-119690
X159710Y-99370
X159715Y-119690
X162250Y-99370
X162255Y-119690
X164790Y-99370
X164795Y-119690
X167330Y-99370
X167335Y-119690
X169870Y-99370
X169875Y-119690
T3
G00X143730Y-105210
M15
G01X142930Y-105210
M16
G05
G00X143730Y-113850
M15
G01X142930Y-113850
M16
G05
G00X148060Y-105210
M15
G01X146960Y-105210
M16
G05
G00X148060Y-113850
M15
G01X146960Y-113850
M16
G05
M30
