%TF.GenerationSoftware,KiCad,Pcbnew,8.0.2*%
%TF.CreationDate,2025-03-04T21:54:34+01:00*%
%TF.ProjectId,USB-C_PD_Module,5553422d-435f-4504-945f-4d6f64756c65,rev?*%
%TF.SameCoordinates,Original*%
%TF.FileFunction,Legend,Top*%
%TF.FilePolarity,Positive*%
%FSLAX46Y46*%
G04 Gerber Fmt 4.6, Leading zero omitted, Abs format (unit mm)*
G04 Created by KiCad (PCBNEW 8.0.2) date 2025-03-04 21:54:34*
%MOMM*%
%LPD*%
G01*
G04 APERTURE LIST*
%ADD10C,0.150000*%
%ADD11C,0.120000*%
%ADD12C,0.350000*%
%ADD13O,1.700000X0.600000*%
%ADD14O,1.400000X0.600000*%
G04 APERTURE END LIST*
D10*
G36*
X144684254Y-100578864D02*
G01*
X144734045Y-100627430D01*
X144762737Y-100738000D01*
X144763996Y-100969344D01*
X144735694Y-101086994D01*
X144688861Y-101135009D01*
X144643212Y-101158710D01*
X144535713Y-101159694D01*
X144491171Y-101138265D01*
X144441379Y-101089699D01*
X144412688Y-100979129D01*
X144411429Y-100747784D01*
X144439731Y-100630135D01*
X144486564Y-100582120D01*
X144532213Y-100558419D01*
X144639711Y-100557435D01*
X144684254Y-100578864D01*
G37*
G36*
X143363089Y-100578991D02*
G01*
X143382420Y-100597485D01*
X143405758Y-100642435D01*
X143406609Y-100714320D01*
X143385142Y-100758941D01*
X143366646Y-100778275D01*
X143321917Y-100801497D01*
X143231723Y-100801930D01*
X143228944Y-100801440D01*
X143226619Y-100801955D01*
X143126185Y-100802436D01*
X143125725Y-100558211D01*
X143317977Y-100557288D01*
X143363089Y-100578991D01*
G37*
G36*
X141755946Y-100578991D02*
G01*
X141775277Y-100597485D01*
X141798615Y-100642435D01*
X141799466Y-100714320D01*
X141777999Y-100758941D01*
X141759503Y-100778275D01*
X141714774Y-100801497D01*
X141519042Y-100802436D01*
X141518582Y-100558211D01*
X141710834Y-100557288D01*
X141755946Y-100578991D01*
G37*
G36*
X145745934Y-101391898D02*
G01*
X141286522Y-101391898D01*
X141286522Y-100483565D01*
X141369855Y-100483565D01*
X141371296Y-101248197D01*
X141382495Y-101275233D01*
X141403187Y-101295925D01*
X141430223Y-101307124D01*
X141459487Y-101307124D01*
X141486523Y-101295925D01*
X141507215Y-101275233D01*
X141518414Y-101248197D01*
X141519855Y-101233565D01*
X141519322Y-100951064D01*
X141719009Y-100950106D01*
X141721188Y-100950833D01*
X141732308Y-100950042D01*
X141745201Y-100949981D01*
X141747690Y-100948949D01*
X141750378Y-100948759D01*
X141764110Y-100943504D01*
X141835383Y-100906499D01*
X141843667Y-100903068D01*
X141846550Y-100900701D01*
X141847982Y-100899958D01*
X141849280Y-100898460D01*
X141855032Y-100893740D01*
X141890978Y-100856165D01*
X141896962Y-100850977D01*
X141898921Y-100847863D01*
X141900073Y-100846660D01*
X141900830Y-100844830D01*
X141904794Y-100838534D01*
X141934747Y-100776271D01*
X141935786Y-100775233D01*
X141939125Y-100767171D01*
X141945763Y-100753374D01*
X141945953Y-100750686D01*
X141946985Y-100748197D01*
X141948426Y-100733565D01*
X141947288Y-100637448D01*
X141947837Y-100635803D01*
X141947155Y-100626213D01*
X141946985Y-100611790D01*
X141945953Y-100609300D01*
X141945763Y-100606613D01*
X141940508Y-100592882D01*
X141903502Y-100521605D01*
X141900072Y-100513325D01*
X141897706Y-100510442D01*
X141896962Y-100509009D01*
X141895463Y-100507709D01*
X141890745Y-100501960D01*
X141874449Y-100486369D01*
X142048478Y-100486369D01*
X142050466Y-100500937D01*
X142229615Y-101247281D01*
X142231007Y-101257758D01*
X142232924Y-101261070D01*
X142233829Y-101264837D01*
X142240211Y-101273657D01*
X142245669Y-101283083D01*
X142248726Y-101285423D01*
X142250985Y-101288544D01*
X142260263Y-101294253D01*
X142268907Y-101300870D01*
X142272625Y-101301861D01*
X142275907Y-101303881D01*
X142286667Y-101305605D01*
X142297183Y-101308410D01*
X142300997Y-101307903D01*
X142304802Y-101308513D01*
X142315400Y-101305989D01*
X142326191Y-101304556D01*
X142329522Y-101302627D01*
X142333270Y-101301735D01*
X142342094Y-101295348D01*
X142351516Y-101289894D01*
X142353856Y-101286836D01*
X142356977Y-101284578D01*
X142362684Y-101275302D01*
X142369303Y-101266656D01*
X142371328Y-101261256D01*
X142372313Y-101259656D01*
X142372600Y-101257864D01*
X142374466Y-101252890D01*
X142444858Y-100986205D01*
X142515743Y-101249345D01*
X142517397Y-101259656D01*
X142519396Y-101262905D01*
X142520407Y-101266656D01*
X142527023Y-101275300D01*
X142532733Y-101284578D01*
X142535855Y-101286837D01*
X142538194Y-101289893D01*
X142547608Y-101295343D01*
X142556440Y-101301735D01*
X142560190Y-101302627D01*
X142563519Y-101304555D01*
X142574303Y-101305988D01*
X142584908Y-101308513D01*
X142588712Y-101307903D01*
X142592527Y-101308410D01*
X142603048Y-101305604D01*
X142613803Y-101303880D01*
X142617082Y-101301862D01*
X142620803Y-101300870D01*
X142629449Y-101294251D01*
X142638725Y-101288544D01*
X142640983Y-101285423D01*
X142644041Y-101283083D01*
X142649495Y-101273661D01*
X142655882Y-101264837D01*
X142657760Y-101259386D01*
X142658703Y-101257758D01*
X142658942Y-101255956D01*
X142660672Y-101250937D01*
X142841232Y-100486368D01*
X142840783Y-100483565D01*
X142976998Y-100483565D01*
X142978439Y-101248197D01*
X142989638Y-101275233D01*
X143010330Y-101295925D01*
X143037366Y-101307124D01*
X143066630Y-101307124D01*
X143093666Y-101295925D01*
X143114358Y-101275233D01*
X143125557Y-101248197D01*
X143126998Y-101233565D01*
X143126465Y-100951064D01*
X143191202Y-100950754D01*
X143428698Y-101287736D01*
X143453377Y-101303462D01*
X143482195Y-101308548D01*
X143510766Y-101302218D01*
X143534740Y-101285436D01*
X143550466Y-101260758D01*
X143555552Y-101231940D01*
X143549222Y-101203369D01*
X143542012Y-101190556D01*
X143368608Y-100944515D01*
X143371253Y-100943504D01*
X143442526Y-100906499D01*
X143450810Y-100903068D01*
X143453693Y-100900701D01*
X143455125Y-100899958D01*
X143456423Y-100898460D01*
X143462175Y-100893740D01*
X143498121Y-100856165D01*
X143504105Y-100850977D01*
X143506064Y-100847863D01*
X143507216Y-100846660D01*
X143507973Y-100844830D01*
X143511937Y-100838534D01*
X143541890Y-100776271D01*
X143542929Y-100775233D01*
X143546268Y-100767171D01*
X143552906Y-100753374D01*
X143553096Y-100750686D01*
X143554128Y-100748197D01*
X143555569Y-100733565D01*
X144262713Y-100733565D01*
X144264048Y-100978832D01*
X144262802Y-100987210D01*
X144264143Y-100996286D01*
X144264154Y-100998197D01*
X144264577Y-100999218D01*
X144264952Y-101001755D01*
X144299868Y-101136317D01*
X144299868Y-101141053D01*
X144303157Y-101148994D01*
X144305613Y-101158458D01*
X144308933Y-101162939D01*
X144311067Y-101168090D01*
X144320394Y-101179455D01*
X144392687Y-101249970D01*
X144398872Y-101257101D01*
X144402048Y-101259100D01*
X144403188Y-101260212D01*
X144405020Y-101260970D01*
X144411315Y-101264933D01*
X144473577Y-101294886D01*
X144474616Y-101295925D01*
X144482677Y-101299264D01*
X144496475Y-101305902D01*
X144499162Y-101306092D01*
X144501652Y-101307124D01*
X144516284Y-101308565D01*
X144647913Y-101307360D01*
X144649760Y-101307976D01*
X144659974Y-101307250D01*
X144673773Y-101307124D01*
X144676262Y-101306092D01*
X144678950Y-101305902D01*
X144692682Y-101300647D01*
X144763958Y-101263640D01*
X144772238Y-101260211D01*
X144775120Y-101257845D01*
X144776554Y-101257101D01*
X144777853Y-101255602D01*
X144783603Y-101250884D01*
X144848602Y-101184243D01*
X144852390Y-101181971D01*
X144857355Y-101175268D01*
X144864359Y-101168089D01*
X144866492Y-101162938D01*
X144869812Y-101158458D01*
X144874759Y-101144613D01*
X144908195Y-101005624D01*
X144911272Y-100998197D01*
X144912166Y-100989118D01*
X144912625Y-100987211D01*
X144912461Y-100986114D01*
X144912713Y-100983565D01*
X144911377Y-100738301D01*
X144912625Y-100729919D01*
X144911282Y-100720840D01*
X144911272Y-100718933D01*
X144910849Y-100717912D01*
X144910474Y-100715375D01*
X144875557Y-100580812D01*
X144875557Y-100576077D01*
X144872267Y-100568134D01*
X144869812Y-100558672D01*
X144866492Y-100554191D01*
X144864359Y-100549041D01*
X144855031Y-100537675D01*
X144799556Y-100483565D01*
X145084141Y-100483565D01*
X145085582Y-101248197D01*
X145096781Y-101275233D01*
X145117473Y-101295925D01*
X145144509Y-101307124D01*
X145173773Y-101307124D01*
X145200809Y-101295925D01*
X145221501Y-101275233D01*
X145232700Y-101248197D01*
X145234141Y-101233565D01*
X145233594Y-100943648D01*
X145258238Y-100918889D01*
X145537644Y-101289406D01*
X145562824Y-101304315D01*
X145591793Y-101308453D01*
X145620141Y-101301191D01*
X145643553Y-101283633D01*
X145658462Y-101258452D01*
X145662601Y-101229483D01*
X145655338Y-101201135D01*
X145647712Y-101188565D01*
X145364128Y-100812507D01*
X145650073Y-100525233D01*
X145661271Y-100498196D01*
X145661271Y-100468933D01*
X145650073Y-100441897D01*
X145629380Y-100421204D01*
X145602344Y-100410006D01*
X145573081Y-100410006D01*
X145546044Y-100421204D01*
X145534679Y-100430532D01*
X145233198Y-100733415D01*
X145232700Y-100468933D01*
X145221501Y-100441897D01*
X145200809Y-100421205D01*
X145173773Y-100410006D01*
X145144509Y-100410006D01*
X145117473Y-100421205D01*
X145096781Y-100441897D01*
X145085582Y-100468933D01*
X145084141Y-100483565D01*
X144799556Y-100483565D01*
X144782743Y-100467166D01*
X144776554Y-100460029D01*
X144773375Y-100458028D01*
X144772238Y-100456919D01*
X144770410Y-100456161D01*
X144764111Y-100452197D01*
X144701847Y-100422243D01*
X144700809Y-100421205D01*
X144692748Y-100417866D01*
X144678950Y-100411228D01*
X144676262Y-100411037D01*
X144673773Y-100410006D01*
X144659141Y-100408565D01*
X144527511Y-100409769D01*
X144525665Y-100409154D01*
X144515450Y-100409879D01*
X144501652Y-100410006D01*
X144499162Y-100411037D01*
X144496475Y-100411228D01*
X144482743Y-100416483D01*
X144411472Y-100453486D01*
X144403188Y-100456918D01*
X144400302Y-100459286D01*
X144398872Y-100460029D01*
X144397573Y-100461525D01*
X144391823Y-100466246D01*
X144326823Y-100532886D01*
X144323035Y-100535159D01*
X144318068Y-100541861D01*
X144311067Y-100549040D01*
X144308933Y-100554190D01*
X144305613Y-100558672D01*
X144300666Y-100572518D01*
X144267233Y-100711499D01*
X144264154Y-100718933D01*
X144263259Y-100728019D01*
X144262802Y-100729920D01*
X144262964Y-100731011D01*
X144262713Y-100733565D01*
X143555569Y-100733565D01*
X143554431Y-100637448D01*
X143554980Y-100635803D01*
X143554298Y-100626213D01*
X143554128Y-100611790D01*
X143553096Y-100609300D01*
X143552906Y-100606613D01*
X143547651Y-100592882D01*
X143510645Y-100521605D01*
X143507215Y-100513325D01*
X143504849Y-100510442D01*
X143504105Y-100509009D01*
X143502606Y-100507709D01*
X143497888Y-100501960D01*
X143460315Y-100466013D01*
X143455125Y-100460029D01*
X143452010Y-100458068D01*
X143450809Y-100456919D01*
X143448981Y-100456161D01*
X143442682Y-100452197D01*
X143380418Y-100422243D01*
X143379380Y-100421205D01*
X143371319Y-100417866D01*
X143357521Y-100411228D01*
X143354833Y-100411037D01*
X143352344Y-100410006D01*
X143337712Y-100408565D01*
X143037366Y-100410006D01*
X143010330Y-100421205D01*
X142989638Y-100441897D01*
X142978439Y-100468933D01*
X142976998Y-100483565D01*
X142840783Y-100483565D01*
X142836599Y-100457474D01*
X142821263Y-100432552D01*
X142797556Y-100415395D01*
X142769088Y-100408617D01*
X142740193Y-100413249D01*
X142715271Y-100428586D01*
X142698115Y-100452293D01*
X142693324Y-100466193D01*
X142583706Y-100930358D01*
X142517100Y-100683099D01*
X142515846Y-100673658D01*
X142513435Y-100669494D01*
X142512160Y-100664760D01*
X142506144Y-100656900D01*
X142501184Y-100648333D01*
X142497326Y-100645379D01*
X142494373Y-100641522D01*
X142485805Y-100636561D01*
X142477946Y-100630546D01*
X142473253Y-100629294D01*
X142469048Y-100626860D01*
X142459232Y-100625555D01*
X142449670Y-100623006D01*
X142444855Y-100623645D01*
X142440040Y-100623006D01*
X142430472Y-100625557D01*
X142420662Y-100626861D01*
X142416459Y-100629293D01*
X142411764Y-100630546D01*
X142403899Y-100636565D01*
X142395337Y-100641523D01*
X142392385Y-100645378D01*
X142388526Y-100648333D01*
X142383564Y-100656902D01*
X142377550Y-100664760D01*
X142374854Y-100671946D01*
X142373864Y-100673658D01*
X142373672Y-100675099D01*
X142372387Y-100678527D01*
X142306141Y-100929498D01*
X142191596Y-100452293D01*
X142174439Y-100428586D01*
X142149517Y-100413250D01*
X142120622Y-100408617D01*
X142092154Y-100415395D01*
X142068447Y-100432552D01*
X142053111Y-100457474D01*
X142048478Y-100486369D01*
X141874449Y-100486369D01*
X141853172Y-100466013D01*
X141847982Y-100460029D01*
X141844867Y-100458068D01*
X141843666Y-100456919D01*
X141841838Y-100456161D01*
X141835539Y-100452197D01*
X141773275Y-100422243D01*
X141772237Y-100421205D01*
X141764176Y-100417866D01*
X141750378Y-100411228D01*
X141747690Y-100411037D01*
X141745201Y-100410006D01*
X141730569Y-100408565D01*
X141430223Y-100410006D01*
X141403187Y-100421205D01*
X141382495Y-100441897D01*
X141371296Y-100468933D01*
X141369855Y-100483565D01*
X141286522Y-100483565D01*
X141286522Y-100325232D01*
X145745934Y-100325232D01*
X145745934Y-101391898D01*
G37*
D11*
%TO.C,C1*%
X169160848Y-106763401D02*
X169683352Y-106763401D01*
X169160848Y-108233401D02*
X169683352Y-108233401D01*
%TO.C,U4*%
X162812100Y-103483401D02*
X163287100Y-103483401D01*
X162812100Y-103958401D02*
X162812100Y-103483401D01*
X162812100Y-107228401D02*
X162812100Y-107703401D01*
X162812100Y-107703401D02*
X163287100Y-107703401D01*
X166557100Y-103483401D02*
X166792100Y-103483401D01*
X167032100Y-103958401D02*
X167032100Y-103783401D01*
X167032100Y-107228401D02*
X167032100Y-107703401D01*
X167032100Y-107703401D02*
X166557100Y-107703401D01*
X167362100Y-103723401D02*
X167032100Y-103483401D01*
X167362100Y-103243401D01*
X167362100Y-103723401D01*
G36*
X167362100Y-103723401D02*
G01*
X167032100Y-103483401D01*
X167362100Y-103243401D01*
X167362100Y-103723401D01*
G37*
%TO.C,J1*%
X144504600Y-104860401D02*
X146204600Y-104860401D01*
X144504600Y-114200401D02*
X146204600Y-114200401D01*
%TO.C,C3*%
X169160848Y-104223401D02*
X169683352Y-104223401D01*
X169160848Y-105693401D02*
X169683352Y-105693401D01*
%TO.C,JP1*%
X148253100Y-102718401D02*
X148253100Y-102118401D01*
X148953100Y-101418401D02*
X150353100Y-101418401D01*
X150353100Y-103418401D02*
X148953100Y-103418401D01*
X151053100Y-102118401D02*
X151053100Y-102718401D01*
X148253100Y-102118401D02*
G75*
G02*
X148953100Y-101418401I699999J1D01*
G01*
X148953100Y-103418401D02*
G75*
G02*
X148253100Y-102718401I-1J699999D01*
G01*
X150353100Y-101418401D02*
G75*
G02*
X151053100Y-102118401I0J-700000D01*
G01*
X151053100Y-102718401D02*
G75*
G02*
X150353100Y-103418401I-700000J0D01*
G01*
%TO.C,D1*%
X166583600Y-116843401D02*
X166583600Y-112833401D01*
X166583600Y-116843401D02*
X168583600Y-116843401D01*
X168583600Y-116843401D02*
X168583600Y-112833401D01*
%TO.C,R2*%
X145870036Y-101683401D02*
X146324164Y-101683401D01*
X145870036Y-103153401D02*
X146324164Y-103153401D01*
%TO.C,C4*%
X160793352Y-106128401D02*
X160270848Y-106128401D01*
X160793352Y-107598401D02*
X160270848Y-107598401D01*
%TO.C,C2*%
X169160848Y-101683401D02*
X169683352Y-101683401D01*
X169160848Y-103153401D02*
X169683352Y-103153401D01*
%TO.C,Q1*%
X162503600Y-111923401D02*
X160553600Y-111923401D01*
X162503600Y-111923401D02*
X164453600Y-111923401D01*
X162503600Y-117043401D02*
X160553600Y-117043401D01*
X162503600Y-117043401D02*
X164453600Y-117043401D01*
X165443600Y-117278401D02*
X164963600Y-117278401D01*
X165203600Y-116948401D01*
X165443600Y-117278401D01*
G36*
X165443600Y-117278401D02*
G01*
X164963600Y-117278401D01*
X165203600Y-116948401D01*
X165443600Y-117278401D01*
G37*
%TO.C,R6*%
X171293600Y-114891337D02*
X171293600Y-115345465D01*
X172763600Y-114891337D02*
X172763600Y-115345465D01*
%TO.C,U2*%
X149709600Y-113928401D02*
X149709600Y-111928401D01*
X151929600Y-113928401D02*
X151929600Y-111928401D01*
X149809600Y-114448401D02*
X149529600Y-114168401D01*
X149809600Y-114168401D01*
X149809600Y-114448401D01*
G36*
X149809600Y-114448401D02*
G01*
X149529600Y-114168401D01*
X149809600Y-114168401D01*
X149809600Y-114448401D01*
G37*
%TO.C,D2*%
X141310100Y-101683401D02*
X141310100Y-103153401D01*
X141310100Y-103153401D02*
X143595100Y-103153401D01*
X143595100Y-101683401D02*
X141310100Y-101683401D01*
%TO.C,R3*%
X154910600Y-114964465D02*
X154910600Y-114510337D01*
X156380600Y-114964465D02*
X156380600Y-114510337D01*
%TO.C,C5*%
X156942600Y-114998653D02*
X156942600Y-114476149D01*
X158412600Y-114998653D02*
X158412600Y-114476149D01*
%TO.C,R5*%
X170531536Y-111208401D02*
X170985664Y-111208401D01*
X170531536Y-112678401D02*
X170985664Y-112678401D01*
%TO.C,U1*%
X151069600Y-108150401D02*
X150279600Y-108150401D01*
X151069600Y-110970401D02*
X150069600Y-110970401D01*
X149949600Y-108150401D02*
X149669600Y-108150401D01*
X149949600Y-107870401D01*
X149949600Y-108150401D01*
G36*
X149949600Y-108150401D02*
G01*
X149669600Y-108150401D01*
X149949600Y-107870401D01*
X149949600Y-108150401D01*
G37*
%TO.C,R1*%
X153332664Y-101683401D02*
X152878536Y-101683401D01*
X153332664Y-103153401D02*
X152878536Y-103153401D01*
%TO.C,R4*%
X169388600Y-115345465D02*
X169388600Y-114891337D01*
X170858600Y-115345465D02*
X170858600Y-114891337D01*
%TO.C,U3*%
X149709600Y-105101401D02*
X149709600Y-107101401D01*
X151929600Y-105101401D02*
X151929600Y-107101401D01*
X152109600Y-104861401D02*
X151829600Y-104861401D01*
X151829600Y-104581401D01*
X152109600Y-104861401D01*
G36*
X152109600Y-104861401D02*
G01*
X151829600Y-104861401D01*
X151829600Y-104581401D01*
X152109600Y-104861401D01*
G37*
%TD*%
D12*
X147009600Y-99370401D03*
X149549600Y-99370401D03*
X152089600Y-99370401D03*
X154629600Y-99370401D03*
X157169600Y-99370401D03*
X159709600Y-99370401D03*
X162249600Y-99370401D03*
X164789600Y-99370401D03*
X167329600Y-99370401D03*
X169869600Y-99370401D03*
X147009600Y-106640401D03*
X147009600Y-112420401D03*
D13*
X147509600Y-105210401D03*
D14*
X143329600Y-105210401D03*
D13*
X147509600Y-113850401D03*
D14*
X143329600Y-113850401D03*
D12*
X147014600Y-119690401D03*
X149554600Y-119690401D03*
X152094600Y-119690401D03*
X154634600Y-119690401D03*
X157174600Y-119690401D03*
X159714600Y-119690401D03*
X162254600Y-119690401D03*
X164794600Y-119690401D03*
X167334600Y-119690401D03*
X169874600Y-119690401D03*
M02*
