%TF.GenerationSoftware,KiCad,Pcbnew,8.0.2*%
%TF.CreationDate,2025-03-04T21:54:34+01:00*%
%TF.ProjectId,USB-C_PD_Module,5553422d-435f-4504-945f-4d6f64756c65,rev?*%
%TF.SameCoordinates,Original*%
%TF.FileFunction,Paste,Top*%
%TF.FilePolarity,Positive*%
%FSLAX46Y46*%
G04 Gerber Fmt 4.6, Leading zero omitted, Abs format (unit mm)*
G04 Created by KiCad (PCBNEW 8.0.2) date 2025-03-04 21:54:34*
%MOMM*%
%LPD*%
G01*
G04 APERTURE LIST*
G04 Aperture macros list*
%AMRoundRect*
0 Rectangle with rounded corners*
0 $1 Rounding radius*
0 $2 $3 $4 $5 $6 $7 $8 $9 X,Y pos of 4 corners*
0 Add a 4 corners polygon primitive as box body*
4,1,4,$2,$3,$4,$5,$6,$7,$8,$9,$2,$3,0*
0 Add four circle primitives for the rounded corners*
1,1,$1+$1,$2,$3*
1,1,$1+$1,$4,$5*
1,1,$1+$1,$6,$7*
1,1,$1+$1,$8,$9*
0 Add four rect primitives between the rounded corners*
20,1,$1+$1,$2,$3,$4,$5,0*
20,1,$1+$1,$4,$5,$6,$7,0*
20,1,$1+$1,$6,$7,$8,$9,0*
20,1,$1+$1,$8,$9,$2,$3,0*%
G04 Aperture macros list end*
%ADD10RoundRect,0.250000X-0.250000X-0.475000X0.250000X-0.475000X0.250000X0.475000X-0.250000X0.475000X0*%
%ADD11RoundRect,0.250000X-0.305000X0.305000X-0.305000X-0.305000X0.305000X-0.305000X0.305000X0.305000X0*%
%ADD12RoundRect,0.062500X-0.062500X0.337500X-0.062500X-0.337500X0.062500X-0.337500X0.062500X0.337500X0*%
%ADD13RoundRect,0.062500X-0.337500X0.062500X-0.337500X-0.062500X0.337500X-0.062500X0.337500X0.062500X0*%
%ADD14RoundRect,0.150000X-0.425000X0.150000X-0.425000X-0.150000X0.425000X-0.150000X0.425000X0.150000X0*%
%ADD15RoundRect,0.075000X-0.500000X0.075000X-0.500000X-0.075000X0.500000X-0.075000X0.500000X0.075000X0*%
%ADD16O,2.100000X1.000000*%
%ADD17O,1.800000X1.000000*%
%ADD18RoundRect,0.225000X0.375000X-0.225000X0.375000X0.225000X-0.375000X0.225000X-0.375000X-0.225000X0*%
%ADD19RoundRect,0.250000X-0.262500X-0.450000X0.262500X-0.450000X0.262500X0.450000X-0.262500X0.450000X0*%
%ADD20RoundRect,0.250000X0.250000X0.475000X-0.250000X0.475000X-0.250000X-0.475000X0.250000X-0.475000X0*%
%ADD21RoundRect,0.150000X0.725000X0.150000X-0.725000X0.150000X-0.725000X-0.150000X0.725000X-0.150000X0*%
%ADD22RoundRect,0.250000X-0.450000X0.262500X-0.450000X-0.262500X0.450000X-0.262500X0.450000X0.262500X0*%
%ADD23RoundRect,0.160000X0.160000X-0.245000X0.160000X0.245000X-0.160000X0.245000X-0.160000X-0.245000X0*%
%ADD24RoundRect,0.093750X0.106250X-0.093750X0.106250X0.093750X-0.106250X0.093750X-0.106250X-0.093750X0*%
%ADD25RoundRect,0.218750X-0.218750X-0.256250X0.218750X-0.256250X0.218750X0.256250X-0.218750X0.256250X0*%
%ADD26RoundRect,0.250000X0.450000X-0.262500X0.450000X0.262500X-0.450000X0.262500X-0.450000X-0.262500X0*%
%ADD27RoundRect,0.250000X0.475000X-0.250000X0.475000X0.250000X-0.475000X0.250000X-0.475000X-0.250000X0*%
%ADD28RoundRect,0.075000X-0.200000X0.075000X-0.200000X-0.075000X0.200000X-0.075000X0.200000X0.075000X0*%
%ADD29RoundRect,0.250000X0.262500X0.450000X-0.262500X0.450000X-0.262500X-0.450000X0.262500X-0.450000X0*%
%ADD30RoundRect,0.160000X-0.160000X0.245000X-0.160000X-0.245000X0.160000X-0.245000X0.160000X0.245000X0*%
%ADD31RoundRect,0.093750X-0.106250X0.093750X-0.106250X-0.093750X0.106250X-0.093750X0.106250X0.093750X0*%
G04 APERTURE END LIST*
D10*
%TO.C,C1*%
X168472100Y-107498401D03*
X170372100Y-107498401D03*
%TD*%
D11*
%TO.C,U4*%
X165612100Y-104903401D03*
X164232100Y-104903401D03*
X165612100Y-106283401D03*
X164232100Y-106283401D03*
D12*
X166172100Y-103618401D03*
X165672100Y-103618401D03*
X165172100Y-103618401D03*
X164672100Y-103618401D03*
X164172100Y-103618401D03*
X163672100Y-103618401D03*
D13*
X162947100Y-104343401D03*
X162947100Y-104843401D03*
X162947100Y-105343401D03*
X162947100Y-105843401D03*
X162947100Y-106343401D03*
X162947100Y-106843401D03*
D12*
X163672100Y-107568401D03*
X164172100Y-107568401D03*
X164672100Y-107568401D03*
X165172100Y-107568401D03*
X165672100Y-107568401D03*
X166172100Y-107568401D03*
D13*
X166897100Y-106843401D03*
X166897100Y-106343401D03*
X166897100Y-105843401D03*
X166897100Y-105343401D03*
X166897100Y-104843401D03*
X166897100Y-104343401D03*
%TD*%
D14*
%TO.C,J1*%
X148084600Y-106330401D03*
X148084600Y-107130401D03*
D15*
X148084600Y-108280401D03*
X148084600Y-109280401D03*
X148084600Y-109780401D03*
X148084600Y-110780401D03*
D14*
X148084600Y-111930401D03*
X148084600Y-112730401D03*
X148084600Y-112730401D03*
X148084600Y-111930401D03*
D15*
X148084600Y-111280401D03*
X148084600Y-110280401D03*
X148084600Y-108780401D03*
X148084600Y-107780401D03*
D14*
X148084600Y-107130401D03*
X148084600Y-106330401D03*
D16*
X147509600Y-105210401D03*
D17*
X143329600Y-105210401D03*
D16*
X147509600Y-113850401D03*
D17*
X143329600Y-113850401D03*
%TD*%
D10*
%TO.C,C3*%
X168472100Y-104958401D03*
X170372100Y-104958401D03*
%TD*%
D18*
%TO.C,D1*%
X167583600Y-116133401D03*
X167583600Y-112833401D03*
%TD*%
D19*
%TO.C,R2*%
X145184600Y-102418401D03*
X147009600Y-102418401D03*
%TD*%
D20*
%TO.C,C4*%
X161482100Y-106863401D03*
X159582100Y-106863401D03*
%TD*%
D10*
%TO.C,C2*%
X168472100Y-102418401D03*
X170372100Y-102418401D03*
%TD*%
D21*
%TO.C,Q1*%
X165078600Y-116388401D03*
X165078600Y-115118401D03*
X165078600Y-113848401D03*
X165078600Y-112578401D03*
X159928600Y-112578401D03*
X159928600Y-113848401D03*
X159928600Y-115118401D03*
X159928600Y-116388401D03*
%TD*%
D22*
%TO.C,R6*%
X172028600Y-114205901D03*
X172028600Y-116030901D03*
%TD*%
D23*
%TO.C,U2*%
X150419600Y-112928401D03*
X151219600Y-112928401D03*
D24*
X150169600Y-113815901D03*
X150819600Y-113815901D03*
X151469600Y-113815901D03*
X151469600Y-112040901D03*
X150819600Y-112040901D03*
X150169600Y-112040901D03*
%TD*%
D25*
%TO.C,D2*%
X142007600Y-102418401D03*
X143582600Y-102418401D03*
%TD*%
D26*
%TO.C,R3*%
X155645600Y-115649901D03*
X155645600Y-113824901D03*
%TD*%
D27*
%TO.C,C5*%
X157677600Y-115687401D03*
X157677600Y-113787401D03*
%TD*%
D19*
%TO.C,R5*%
X169846100Y-111943401D03*
X171671100Y-111943401D03*
%TD*%
D28*
%TO.C,U1*%
X150184600Y-108560401D03*
X150184600Y-109060401D03*
X150184600Y-109560401D03*
X150184600Y-110060401D03*
X150184600Y-110560401D03*
X150954600Y-110560401D03*
X150954600Y-110060401D03*
X150954600Y-109560401D03*
X150954600Y-109060401D03*
X150954600Y-108560401D03*
%TD*%
D29*
%TO.C,R1*%
X154018100Y-102418401D03*
X152193100Y-102418401D03*
%TD*%
D26*
%TO.C,R4*%
X170123600Y-116030901D03*
X170123600Y-114205901D03*
%TD*%
D30*
%TO.C,U3*%
X151219600Y-106101401D03*
X150419600Y-106101401D03*
D31*
X151469600Y-105213901D03*
X150819600Y-105213901D03*
X150169600Y-105213901D03*
X150169600Y-106988901D03*
X150819600Y-106988901D03*
X151469600Y-106988901D03*
%TD*%
M02*
