M48
; DRILL file {KiCad 8.0.2} date 2025-03-04T21:54:34+0100
; FORMAT={-:-/ absolute / metric / decimal}
; #@! TF.CreationDate,2025-03-04T21:54:34+01:00
; #@! TF.GenerationSoftware,Kicad,Pcbnew,8.0.2
; #@! TF.FileFunction,Plated,1,4,PTH
FMAT,2
METRIC
; #@! TA.AperFunction,Plated,PTH,ViaDrill
T1C0.300
; #@! TA.AperFunction,Plated,PTH,ViaDrill
T2C0.500
; #@! TA.AperFunction,Plated,PTH,ComponentDrill
T3C0.600
; #@! TA.AperFunction,Plated,PTH,ComponentDrill
T4C1.000
%
G90
G05
T1
X141.93Y-106.99
X141.93Y-109.53
X141.93Y-112.07
X141.93Y-115.88
X141.93Y-118.42
X143.2Y-108.26
X143.2Y-110.8
X143.2Y-117.15
X144.405Y-109.53
X144.47Y-106.99
X144.47Y-112.07
X144.47Y-115.88
X144.47Y-118.42
X145.74Y-108.26
X145.74Y-110.8
X145.74Y-117.15
X146.248Y-100.64
X147.01Y-115.88
X148.28Y-117.15
X149.296Y-104.704
X149.296Y-105.466
X149.296Y-106.228
X149.296Y-112.832
X149.296Y-113.594
X149.296Y-114.356
X149.55Y-115.88
X150.82Y-117.15
X151.785Y-109.561
X152.09Y-108.26
X152.09Y-110.8
X152.852Y-109.136
X152.852Y-109.986
X154.376Y-104.577
X155.392Y-102.418
X155.392Y-112.578
X155.9Y-106.99
X156.916Y-112.197
X157.17Y-101.092
X157.17Y-108.26
X157.424Y-104.958
X158.047Y-106.863
X158.44Y-103.18
X158.948Y-109.022
X160.98Y-103.18
X161.482Y-109.53
X161.488Y-112.578
X161.488Y-113.278
X161.488Y-114.102
X161.488Y-114.864
X161.488Y-115.626
X161.488Y-116.45
X161.488Y-117.212
X162.25Y-112.578
X162.25Y-113.278
X162.25Y-114.102
X162.25Y-114.864
X162.25Y-115.626
X162.25Y-116.45
X162.25Y-117.212
X163.012Y-115.626
X163.012Y-116.45
X163.012Y-117.212
X163.774Y-108.768
X165.044Y-108.768
X165.172Y-102.003
X166.568Y-109.022
X168.092Y-114.102
X169.616Y-109.022
X171.648Y-102.418
X171.648Y-104.958
X171.648Y-107.498
X172.41Y-105.72
X172.41Y-108.26
X172.41Y-118.42
X173.68Y-104.45
X173.68Y-106.99
X173.68Y-109.53
X173.68Y-116.134
X174.95Y-105.72
X174.95Y-108.26
X174.95Y-110.8
X174.95Y-113.34
X174.95Y-115.88
X174.95Y-118.42
T2
X164.977Y-105.538
X169.204Y-103.714
T4
X147.01Y-99.37
X147.015Y-119.69
X149.55Y-99.37
X149.555Y-119.69
X152.09Y-99.37
X152.095Y-119.69
X154.63Y-99.37
X154.635Y-119.69
X157.17Y-99.37
X157.175Y-119.69
X159.71Y-99.37
X159.715Y-119.69
X162.25Y-99.37
X162.255Y-119.69
X164.79Y-99.37
X164.795Y-119.69
X167.33Y-99.37
X167.335Y-119.69
X169.87Y-99.37
X169.875Y-119.69
T3
G00X143.73Y-105.21
M15
G01X142.93Y-105.21
M16
G05
G00X143.73Y-113.85
M15
G01X142.93Y-113.85
M16
G05
G00X148.06Y-105.21
M15
G01X146.96Y-105.21
M16
G05
G00X148.06Y-113.85
M15
G01X146.96Y-113.85
M16
G05
M30
