%TF.GenerationSoftware,KiCad,Pcbnew,8.0.2*%
%TF.CreationDate,2025-03-04T21:54:34+01:00*%
%TF.ProjectId,USB-C_PD_Module,5553422d-435f-4504-945f-4d6f64756c65,rev?*%
%TF.SameCoordinates,Original*%
%TF.FileFunction,Copper,L2,Inr*%
%TF.FilePolarity,Positive*%
%FSLAX46Y46*%
G04 Gerber Fmt 4.6, Leading zero omitted, Abs format (unit mm)*
G04 Created by KiCad (PCBNEW 8.0.2) date 2025-03-04 21:54:34*
%MOMM*%
%LPD*%
G01*
G04 APERTURE LIST*
%TA.AperFunction,ComponentPad*%
%ADD10C,1.700000*%
%TD*%
%TA.AperFunction,ComponentPad*%
%ADD11O,1.700000X1.700000*%
%TD*%
%TA.AperFunction,ComponentPad*%
%ADD12O,2.100000X1.000000*%
%TD*%
%TA.AperFunction,ComponentPad*%
%ADD13O,1.800000X1.000000*%
%TD*%
%TA.AperFunction,ViaPad*%
%ADD14C,0.600000*%
%TD*%
%TA.AperFunction,ViaPad*%
%ADD15C,1.000000*%
%TD*%
%ADD16C,0.300000*%
%ADD17C,0.350000*%
%ADD18O,1.700000X0.600000*%
%ADD19O,1.400000X0.600000*%
G04 APERTURE END LIST*
D10*
%TO.N,/Connector/FAULT*%
%TO.C,J3*%
X147009600Y-99370401D03*
D11*
%TO.N,/Connector/FLIP*%
X149549600Y-99370401D03*
%TO.N,/D-*%
X152089600Y-99370401D03*
%TO.N,/D+*%
X154629600Y-99370401D03*
%TO.N,+3V3*%
X157169600Y-99370401D03*
%TO.N,GND*%
X159709600Y-99370401D03*
%TO.N,/Connector/ISNK_FINE*%
X162249600Y-99370401D03*
%TO.N,/Connector/ISNK_COARSE*%
X164789600Y-99370401D03*
%TO.N,/Connector/VBUS_MAX*%
X167329600Y-99370401D03*
%TO.N,/Connector/VBUS_MIN*%
X169869600Y-99370401D03*
%TD*%
D12*
%TO.N,unconnected-(J1-SHIELD-PadS1)_0*%
%TO.C,J1*%
X147509600Y-105210401D03*
D13*
%TO.N,unconnected-(J1-SHIELD-PadS1)*%
X143329600Y-105210401D03*
D12*
%TO.N,unconnected-(J1-SHIELD-PadS1)_2*%
X147509600Y-113850401D03*
D13*
%TO.N,unconnected-(J1-SHIELD-PadS1)_1*%
X143329600Y-113850401D03*
%TD*%
D10*
%TO.N,GND*%
%TO.C,J2*%
X147014600Y-119690401D03*
D11*
X149554600Y-119690401D03*
X152094600Y-119690401D03*
X154634600Y-119690401D03*
X157174600Y-119690401D03*
%TO.N,VBUSOUT*%
X159714600Y-119690401D03*
X162254600Y-119690401D03*
X164794600Y-119690401D03*
X167334600Y-119690401D03*
X169874600Y-119690401D03*
%TD*%
D14*
%TO.N,/USB-C Connector and Protection/CC1*%
X165043600Y-108768401D03*
X152089600Y-108260401D03*
%TO.N,GND*%
X141929600Y-118420401D03*
X144469600Y-115880401D03*
X174949600Y-108260401D03*
X148279600Y-117150401D03*
X141929600Y-112070401D03*
X157169600Y-108260401D03*
X149295600Y-114356401D03*
X149295600Y-113594401D03*
X141929600Y-109530401D03*
X149549600Y-115880401D03*
X174949600Y-110800401D03*
X149295600Y-112832401D03*
X173679600Y-104450401D03*
X144404600Y-109530401D03*
X143199600Y-110800401D03*
X171647600Y-104958401D03*
X146247600Y-100640401D03*
X158947600Y-109022401D03*
X143199600Y-117150401D03*
X141929600Y-115880401D03*
X145739600Y-108260401D03*
X173679600Y-106990401D03*
X158047142Y-106863401D03*
X144469600Y-112070401D03*
X174949600Y-115880401D03*
X155899600Y-106990401D03*
X141929600Y-106990401D03*
X169615600Y-109022401D03*
X171647600Y-107498401D03*
X149295600Y-106228401D03*
X172409600Y-108260401D03*
X174949600Y-105720401D03*
X144469600Y-106990401D03*
X166567600Y-109022401D03*
X149295600Y-104704401D03*
X149295600Y-105466401D03*
X174949600Y-113340401D03*
X160979600Y-103180401D03*
X143199600Y-108260401D03*
X158439600Y-103180401D03*
X155391600Y-112578401D03*
X150819600Y-117150401D03*
X147009600Y-115880401D03*
X171647600Y-102418401D03*
X174949600Y-118420401D03*
X144469600Y-118420401D03*
D15*
X164977100Y-105538401D03*
D14*
X172409600Y-118420401D03*
X172409600Y-105720401D03*
X151784800Y-109561318D03*
X145739600Y-110800401D03*
X173679600Y-109530401D03*
X156915600Y-112197401D03*
X145739600Y-117150401D03*
X168091600Y-114102401D03*
%TO.N,/D-*%
X152851600Y-109136398D03*
%TO.N,/USB-C Connector and Protection/CC2*%
X163773600Y-108768389D03*
X152089600Y-110800401D03*
%TO.N,/D+*%
X152851600Y-109986398D03*
%TO.N,VBUSOUT*%
X161487600Y-113278404D03*
X161487600Y-114864401D03*
X161487600Y-112578401D03*
X162249600Y-114864401D03*
X162249600Y-116450398D03*
X162249600Y-117212398D03*
X161487600Y-116450398D03*
X162249600Y-115626401D03*
X163011600Y-115626401D03*
X161487600Y-117212398D03*
X163011600Y-117212398D03*
X161487600Y-114102401D03*
X162249600Y-114102401D03*
X162249600Y-113278404D03*
X161487600Y-115626401D03*
X162249600Y-112578401D03*
X161482100Y-109530395D03*
X163011600Y-116450398D03*
%TO.N,+3V3*%
X155391600Y-102418401D03*
D15*
X169203921Y-103713988D03*
D14*
X157169593Y-101091994D03*
%TO.N,/Main Sheet/VBUS_FET_EN*%
X165172100Y-102003201D03*
X173679600Y-116134401D03*
%TO.N,/Connector/FAULT*%
X157423580Y-104958401D03*
X154375600Y-104577401D03*
%TD*%
%TA.AperFunction,Conductor*%
%TO.N,GND*%
G36*
X145908669Y-99390086D02*
G01*
X145954424Y-99442890D01*
X145965033Y-99482247D01*
X145974299Y-99576333D01*
X145974300Y-99576335D01*
X146034368Y-99774355D01*
X146131915Y-99956851D01*
X146131917Y-99956853D01*
X146263189Y-100116811D01*
X146359809Y-100196103D01*
X146423150Y-100248086D01*
X146605646Y-100345633D01*
X146803666Y-100405701D01*
X146803665Y-100405701D01*
X146806153Y-100405946D01*
X147009600Y-100425984D01*
X147215534Y-100405701D01*
X147413554Y-100345633D01*
X147596050Y-100248086D01*
X147756010Y-100116811D01*
X147887285Y-99956851D01*
X147984832Y-99774355D01*
X148044900Y-99576335D01*
X148054167Y-99482247D01*
X148080328Y-99417460D01*
X148137362Y-99377101D01*
X148177570Y-99370401D01*
X148381630Y-99370401D01*
X148448669Y-99390086D01*
X148494424Y-99442890D01*
X148505033Y-99482247D01*
X148514299Y-99576333D01*
X148514300Y-99576335D01*
X148574368Y-99774355D01*
X148671915Y-99956851D01*
X148671917Y-99956853D01*
X148803189Y-100116811D01*
X148899809Y-100196103D01*
X148963150Y-100248086D01*
X149145646Y-100345633D01*
X149343666Y-100405701D01*
X149343665Y-100405701D01*
X149346153Y-100405946D01*
X149549600Y-100425984D01*
X149755534Y-100405701D01*
X149953554Y-100345633D01*
X150136050Y-100248086D01*
X150296010Y-100116811D01*
X150427285Y-99956851D01*
X150524832Y-99774355D01*
X150584900Y-99576335D01*
X150594167Y-99482247D01*
X150620328Y-99417460D01*
X150677362Y-99377101D01*
X150717570Y-99370401D01*
X150921630Y-99370401D01*
X150988669Y-99390086D01*
X151034424Y-99442890D01*
X151045033Y-99482247D01*
X151054299Y-99576333D01*
X151054300Y-99576335D01*
X151114368Y-99774355D01*
X151211915Y-99956851D01*
X151211917Y-99956853D01*
X151343189Y-100116811D01*
X151439809Y-100196103D01*
X151503150Y-100248086D01*
X151685646Y-100345633D01*
X151883666Y-100405701D01*
X151883665Y-100405701D01*
X151886153Y-100405946D01*
X152089600Y-100425984D01*
X152295534Y-100405701D01*
X152493554Y-100345633D01*
X152676050Y-100248086D01*
X152836010Y-100116811D01*
X152967285Y-99956851D01*
X153064832Y-99774355D01*
X153124900Y-99576335D01*
X153134167Y-99482247D01*
X153160328Y-99417460D01*
X153217362Y-99377101D01*
X153257570Y-99370401D01*
X153461630Y-99370401D01*
X153528669Y-99390086D01*
X153574424Y-99442890D01*
X153585033Y-99482247D01*
X153594299Y-99576333D01*
X153594300Y-99576335D01*
X153654368Y-99774355D01*
X153751915Y-99956851D01*
X153751917Y-99956853D01*
X153883189Y-100116811D01*
X153979809Y-100196103D01*
X154043150Y-100248086D01*
X154225646Y-100345633D01*
X154423666Y-100405701D01*
X154423665Y-100405701D01*
X154426153Y-100405946D01*
X154629600Y-100425984D01*
X154835534Y-100405701D01*
X155033554Y-100345633D01*
X155216050Y-100248086D01*
X155376010Y-100116811D01*
X155507285Y-99956851D01*
X155604832Y-99774355D01*
X155664900Y-99576335D01*
X155674167Y-99482247D01*
X155700328Y-99417460D01*
X155757362Y-99377101D01*
X155797570Y-99370401D01*
X156001630Y-99370401D01*
X156068669Y-99390086D01*
X156114424Y-99442890D01*
X156125033Y-99482247D01*
X156134299Y-99576333D01*
X156134300Y-99576335D01*
X156194368Y-99774355D01*
X156291915Y-99956851D01*
X156291917Y-99956853D01*
X156423189Y-100116811D01*
X156519809Y-100196103D01*
X156583150Y-100248086D01*
X156765646Y-100345633D01*
X156945134Y-100400079D01*
X157003571Y-100438375D01*
X157032027Y-100502187D01*
X157021467Y-100571255D01*
X156975243Y-100623648D01*
X156960663Y-100631527D01*
X156959546Y-100632037D01*
X156838466Y-100709850D01*
X156744216Y-100818620D01*
X156744215Y-100818622D01*
X156684427Y-100949537D01*
X156663946Y-101091994D01*
X156684427Y-101234450D01*
X156744215Y-101365365D01*
X156744216Y-101365367D01*
X156838465Y-101474137D01*
X156959540Y-101551947D01*
X156959543Y-101551948D01*
X156959542Y-101551948D01*
X157097629Y-101592493D01*
X157097631Y-101592494D01*
X157097632Y-101592494D01*
X157241555Y-101592494D01*
X157241555Y-101592493D01*
X157379646Y-101551947D01*
X157500721Y-101474137D01*
X157594970Y-101365367D01*
X157654758Y-101234451D01*
X157675240Y-101091994D01*
X157654758Y-100949537D01*
X157594970Y-100818621D01*
X157500721Y-100709851D01*
X157452381Y-100678785D01*
X157379642Y-100632038D01*
X157378539Y-100631535D01*
X157377622Y-100630740D01*
X157372186Y-100627247D01*
X157372688Y-100626465D01*
X157325736Y-100585779D01*
X157306053Y-100518739D01*
X157325739Y-100451700D01*
X157378544Y-100405946D01*
X157394046Y-100400085D01*
X157573554Y-100345633D01*
X157756050Y-100248086D01*
X157916010Y-100116811D01*
X158047285Y-99956851D01*
X158144832Y-99774355D01*
X158204900Y-99576335D01*
X158214167Y-99482247D01*
X158240328Y-99417460D01*
X158297362Y-99377101D01*
X158337570Y-99370401D01*
X161081630Y-99370401D01*
X161148669Y-99390086D01*
X161194424Y-99442890D01*
X161205033Y-99482247D01*
X161214299Y-99576333D01*
X161214300Y-99576335D01*
X161274368Y-99774355D01*
X161371915Y-99956851D01*
X161371917Y-99956853D01*
X161503189Y-100116811D01*
X161599809Y-100196103D01*
X161663150Y-100248086D01*
X161845646Y-100345633D01*
X162043666Y-100405701D01*
X162043665Y-100405701D01*
X162046153Y-100405946D01*
X162249600Y-100425984D01*
X162455534Y-100405701D01*
X162653554Y-100345633D01*
X162836050Y-100248086D01*
X162996010Y-100116811D01*
X163127285Y-99956851D01*
X163224832Y-99774355D01*
X163284900Y-99576335D01*
X163294167Y-99482247D01*
X163320328Y-99417460D01*
X163377362Y-99377101D01*
X163417570Y-99370401D01*
X163621630Y-99370401D01*
X163688669Y-99390086D01*
X163734424Y-99442890D01*
X163745033Y-99482247D01*
X163754299Y-99576333D01*
X163754300Y-99576335D01*
X163814368Y-99774355D01*
X163911915Y-99956851D01*
X163911917Y-99956853D01*
X164043189Y-100116811D01*
X164139809Y-100196103D01*
X164203150Y-100248086D01*
X164385646Y-100345633D01*
X164583666Y-100405701D01*
X164583665Y-100405701D01*
X164586153Y-100405946D01*
X164789600Y-100425984D01*
X164995534Y-100405701D01*
X165193554Y-100345633D01*
X165376050Y-100248086D01*
X165536010Y-100116811D01*
X165667285Y-99956851D01*
X165764832Y-99774355D01*
X165824900Y-99576335D01*
X165834167Y-99482247D01*
X165860328Y-99417460D01*
X165917362Y-99377101D01*
X165957570Y-99370401D01*
X166161630Y-99370401D01*
X166228669Y-99390086D01*
X166274424Y-99442890D01*
X166285033Y-99482247D01*
X166294299Y-99576333D01*
X166294300Y-99576335D01*
X166354368Y-99774355D01*
X166451915Y-99956851D01*
X166451917Y-99956853D01*
X166583189Y-100116811D01*
X166679809Y-100196103D01*
X166743150Y-100248086D01*
X166925646Y-100345633D01*
X167123666Y-100405701D01*
X167123665Y-100405701D01*
X167126153Y-100405946D01*
X167329600Y-100425984D01*
X167535534Y-100405701D01*
X167733554Y-100345633D01*
X167916050Y-100248086D01*
X168076010Y-100116811D01*
X168207285Y-99956851D01*
X168304832Y-99774355D01*
X168364900Y-99576335D01*
X168374167Y-99482247D01*
X168400328Y-99417460D01*
X168457362Y-99377101D01*
X168497570Y-99370401D01*
X168701630Y-99370401D01*
X168768669Y-99390086D01*
X168814424Y-99442890D01*
X168825033Y-99482247D01*
X168834299Y-99576333D01*
X168834300Y-99576335D01*
X168894368Y-99774355D01*
X168991915Y-99956851D01*
X168991917Y-99956853D01*
X169123189Y-100116811D01*
X169219809Y-100196103D01*
X169283150Y-100248086D01*
X169465646Y-100345633D01*
X169663666Y-100405701D01*
X169663665Y-100405701D01*
X169666153Y-100405946D01*
X169869600Y-100425984D01*
X170075534Y-100405701D01*
X170273554Y-100345633D01*
X170456050Y-100248086D01*
X170616010Y-100116811D01*
X170747285Y-99956851D01*
X170844832Y-99774355D01*
X170904900Y-99576335D01*
X170914167Y-99482247D01*
X170940328Y-99417460D01*
X170997362Y-99377101D01*
X171037570Y-99370401D01*
X171088238Y-99370401D01*
X171155277Y-99390086D01*
X171175919Y-99406720D01*
X171774600Y-100005401D01*
X175460600Y-100005401D01*
X175527639Y-100025086D01*
X175573394Y-100077890D01*
X175584600Y-100129401D01*
X175584600Y-118931401D01*
X175564915Y-118998440D01*
X175512111Y-119044195D01*
X175460600Y-119055401D01*
X171774599Y-119055401D01*
X171175919Y-119654082D01*
X171114596Y-119687567D01*
X171088238Y-119690401D01*
X171042570Y-119690401D01*
X170975531Y-119670716D01*
X170929776Y-119617912D01*
X170919167Y-119578555D01*
X170909900Y-119484468D01*
X170909900Y-119484467D01*
X170849832Y-119286447D01*
X170752285Y-119103951D01*
X170665695Y-118998440D01*
X170621010Y-118943990D01*
X170461052Y-118812718D01*
X170461053Y-118812718D01*
X170461050Y-118812716D01*
X170278554Y-118715169D01*
X170080534Y-118655101D01*
X170080532Y-118655100D01*
X170080534Y-118655100D01*
X169874600Y-118634818D01*
X169668667Y-118655100D01*
X169470643Y-118715170D01*
X169360498Y-118774044D01*
X169288150Y-118812716D01*
X169288148Y-118812717D01*
X169288147Y-118812718D01*
X169128189Y-118943990D01*
X168996917Y-119103948D01*
X168899369Y-119286444D01*
X168839299Y-119484468D01*
X168830033Y-119578555D01*
X168803872Y-119643342D01*
X168746838Y-119683701D01*
X168706630Y-119690401D01*
X168502570Y-119690401D01*
X168435531Y-119670716D01*
X168389776Y-119617912D01*
X168379167Y-119578555D01*
X168369900Y-119484468D01*
X168369900Y-119484467D01*
X168309832Y-119286447D01*
X168212285Y-119103951D01*
X168125695Y-118998440D01*
X168081010Y-118943990D01*
X167921052Y-118812718D01*
X167921053Y-118812718D01*
X167921050Y-118812716D01*
X167738554Y-118715169D01*
X167540534Y-118655101D01*
X167540532Y-118655100D01*
X167540534Y-118655100D01*
X167334600Y-118634818D01*
X167128667Y-118655100D01*
X166930643Y-118715170D01*
X166820498Y-118774044D01*
X166748150Y-118812716D01*
X166748148Y-118812717D01*
X166748147Y-118812718D01*
X166588189Y-118943990D01*
X166456917Y-119103948D01*
X166359369Y-119286444D01*
X166299299Y-119484468D01*
X166290033Y-119578555D01*
X166263872Y-119643342D01*
X166206838Y-119683701D01*
X166166630Y-119690401D01*
X165962570Y-119690401D01*
X165895531Y-119670716D01*
X165849776Y-119617912D01*
X165839167Y-119578555D01*
X165829900Y-119484468D01*
X165829900Y-119484467D01*
X165769832Y-119286447D01*
X165672285Y-119103951D01*
X165585695Y-118998440D01*
X165541010Y-118943990D01*
X165381052Y-118812718D01*
X165381053Y-118812718D01*
X165381050Y-118812716D01*
X165198554Y-118715169D01*
X165000534Y-118655101D01*
X165000532Y-118655100D01*
X165000534Y-118655100D01*
X164794600Y-118634818D01*
X164588667Y-118655100D01*
X164390643Y-118715170D01*
X164280498Y-118774044D01*
X164208150Y-118812716D01*
X164208148Y-118812717D01*
X164208147Y-118812718D01*
X164048189Y-118943990D01*
X163916917Y-119103948D01*
X163819369Y-119286444D01*
X163759299Y-119484468D01*
X163750033Y-119578555D01*
X163723872Y-119643342D01*
X163666838Y-119683701D01*
X163626630Y-119690401D01*
X163422570Y-119690401D01*
X163355531Y-119670716D01*
X163309776Y-119617912D01*
X163299167Y-119578555D01*
X163289900Y-119484468D01*
X163289900Y-119484467D01*
X163229832Y-119286447D01*
X163132285Y-119103951D01*
X163045695Y-118998440D01*
X163001010Y-118943990D01*
X162841052Y-118812718D01*
X162841053Y-118812718D01*
X162841050Y-118812716D01*
X162658554Y-118715169D01*
X162460534Y-118655101D01*
X162460532Y-118655100D01*
X162460534Y-118655100D01*
X162254600Y-118634818D01*
X162048667Y-118655100D01*
X161850643Y-118715170D01*
X161740498Y-118774044D01*
X161668150Y-118812716D01*
X161668148Y-118812717D01*
X161668147Y-118812718D01*
X161508189Y-118943990D01*
X161376917Y-119103948D01*
X161279369Y-119286444D01*
X161219299Y-119484468D01*
X161210033Y-119578555D01*
X161183872Y-119643342D01*
X161126838Y-119683701D01*
X161086630Y-119690401D01*
X160882570Y-119690401D01*
X160815531Y-119670716D01*
X160769776Y-119617912D01*
X160759167Y-119578555D01*
X160749900Y-119484468D01*
X160749900Y-119484467D01*
X160689832Y-119286447D01*
X160592285Y-119103951D01*
X160505695Y-118998440D01*
X160461010Y-118943990D01*
X160301052Y-118812718D01*
X160301053Y-118812718D01*
X160301050Y-118812716D01*
X160118554Y-118715169D01*
X159920534Y-118655101D01*
X159920532Y-118655100D01*
X159920534Y-118655100D01*
X159714600Y-118634818D01*
X159508667Y-118655100D01*
X159310643Y-118715170D01*
X159200498Y-118774044D01*
X159128150Y-118812716D01*
X159128148Y-118812717D01*
X159128147Y-118812718D01*
X158968189Y-118943990D01*
X158836917Y-119103948D01*
X158739369Y-119286444D01*
X158679299Y-119484468D01*
X158670033Y-119578555D01*
X158643872Y-119643342D01*
X158586838Y-119683701D01*
X158546630Y-119690401D01*
X145790962Y-119690401D01*
X145723923Y-119670716D01*
X145703281Y-119654082D01*
X145104600Y-119055401D01*
X141418600Y-119055401D01*
X141351561Y-119035716D01*
X141305806Y-118982912D01*
X141294600Y-118931401D01*
X141294600Y-113919396D01*
X142229099Y-113919396D01*
X142256018Y-114054723D01*
X142256021Y-114054733D01*
X142308821Y-114182205D01*
X142308828Y-114182218D01*
X142385485Y-114296942D01*
X142385488Y-114296946D01*
X142483054Y-114394512D01*
X142483058Y-114394515D01*
X142597782Y-114471172D01*
X142597795Y-114471179D01*
X142725267Y-114523979D01*
X142725272Y-114523981D01*
X142725276Y-114523981D01*
X142725277Y-114523982D01*
X142860604Y-114550901D01*
X142860607Y-114550901D01*
X143798595Y-114550901D01*
X143889641Y-114532790D01*
X143933928Y-114523981D01*
X144061411Y-114471176D01*
X144176142Y-114394515D01*
X144273714Y-114296943D01*
X144350375Y-114182212D01*
X144403180Y-114054729D01*
X144430100Y-113919396D01*
X146259099Y-113919396D01*
X146286018Y-114054723D01*
X146286021Y-114054733D01*
X146338821Y-114182205D01*
X146338828Y-114182218D01*
X146415485Y-114296942D01*
X146415488Y-114296946D01*
X146513054Y-114394512D01*
X146513058Y-114394515D01*
X146627782Y-114471172D01*
X146627795Y-114471179D01*
X146755267Y-114523979D01*
X146755272Y-114523981D01*
X146755276Y-114523981D01*
X146755277Y-114523982D01*
X146890604Y-114550901D01*
X146890607Y-114550901D01*
X148128595Y-114550901D01*
X148219641Y-114532790D01*
X148263928Y-114523981D01*
X148391411Y-114471176D01*
X148506142Y-114394515D01*
X148603714Y-114296943D01*
X148680375Y-114182212D01*
X148733180Y-114054729D01*
X148760100Y-113919394D01*
X148760100Y-113781408D01*
X148760100Y-113781405D01*
X148733181Y-113646078D01*
X148733180Y-113646077D01*
X148733180Y-113646073D01*
X148717907Y-113609200D01*
X148680378Y-113518596D01*
X148680371Y-113518583D01*
X148603714Y-113403859D01*
X148603711Y-113403855D01*
X148506145Y-113306289D01*
X148506141Y-113306286D01*
X148391417Y-113229629D01*
X148391404Y-113229622D01*
X148263932Y-113176822D01*
X148263922Y-113176819D01*
X148128595Y-113149901D01*
X148128593Y-113149901D01*
X147359844Y-113149901D01*
X147292805Y-113130216D01*
X147247050Y-113077412D01*
X147237106Y-113008254D01*
X147266131Y-112944698D01*
X147297844Y-112918514D01*
X147324735Y-112902988D01*
X147362965Y-112880916D01*
X147470115Y-112773766D01*
X147545881Y-112642536D01*
X147563066Y-112578401D01*
X160981953Y-112578401D01*
X161002434Y-112720857D01*
X161062222Y-112851772D01*
X161067018Y-112859235D01*
X161064495Y-112860856D01*
X161087283Y-112910752D01*
X161077341Y-112979911D01*
X161066294Y-112997104D01*
X161067018Y-112997570D01*
X161062222Y-113005032D01*
X161002434Y-113135947D01*
X160981953Y-113278404D01*
X161002434Y-113420860D01*
X161062222Y-113551775D01*
X161062225Y-113551781D01*
X161111979Y-113609200D01*
X161141004Y-113672756D01*
X161131060Y-113741914D01*
X161111980Y-113771603D01*
X161062225Y-113829024D01*
X161062222Y-113829029D01*
X161002434Y-113959944D01*
X160981953Y-114102401D01*
X161002434Y-114244857D01*
X161062222Y-114375772D01*
X161062223Y-114375774D01*
X161085120Y-114402199D01*
X161114144Y-114465755D01*
X161104200Y-114534914D01*
X161085120Y-114564603D01*
X161062223Y-114591027D01*
X161062222Y-114591029D01*
X161002434Y-114721944D01*
X160981953Y-114864401D01*
X161002434Y-115006857D01*
X161062222Y-115137772D01*
X161062223Y-115137774D01*
X161085120Y-115164199D01*
X161114144Y-115227755D01*
X161104200Y-115296914D01*
X161085120Y-115326603D01*
X161062223Y-115353027D01*
X161062222Y-115353029D01*
X161002434Y-115483944D01*
X160981953Y-115626401D01*
X161002434Y-115768857D01*
X161062222Y-115899772D01*
X161062225Y-115899778D01*
X161111979Y-115957197D01*
X161141004Y-116020753D01*
X161131060Y-116089911D01*
X161111980Y-116119600D01*
X161062225Y-116177021D01*
X161062222Y-116177026D01*
X161002434Y-116307941D01*
X160981953Y-116450398D01*
X161002434Y-116592854D01*
X161062222Y-116723769D01*
X161062223Y-116723771D01*
X161085120Y-116750196D01*
X161114144Y-116813752D01*
X161104200Y-116882911D01*
X161085120Y-116912600D01*
X161062223Y-116939024D01*
X161062222Y-116939026D01*
X161002434Y-117069941D01*
X160981953Y-117212398D01*
X161002434Y-117354854D01*
X161062222Y-117485769D01*
X161062223Y-117485771D01*
X161156472Y-117594541D01*
X161277547Y-117672351D01*
X161277550Y-117672352D01*
X161277549Y-117672352D01*
X161415636Y-117712897D01*
X161415638Y-117712898D01*
X161415639Y-117712898D01*
X161559562Y-117712898D01*
X161559562Y-117712897D01*
X161697653Y-117672351D01*
X161801560Y-117605573D01*
X161868600Y-117585889D01*
X161935639Y-117605574D01*
X161935640Y-117605574D01*
X162039547Y-117672351D01*
X162039548Y-117672351D01*
X162039549Y-117672352D01*
X162177636Y-117712897D01*
X162177638Y-117712898D01*
X162177639Y-117712898D01*
X162321562Y-117712898D01*
X162321562Y-117712897D01*
X162459653Y-117672351D01*
X162563560Y-117605573D01*
X162630600Y-117585889D01*
X162697639Y-117605574D01*
X162697640Y-117605574D01*
X162801547Y-117672351D01*
X162801548Y-117672351D01*
X162801549Y-117672352D01*
X162939636Y-117712897D01*
X162939638Y-117712898D01*
X162939639Y-117712898D01*
X163083562Y-117712898D01*
X163083562Y-117712897D01*
X163221653Y-117672351D01*
X163342728Y-117594541D01*
X163436977Y-117485771D01*
X163496765Y-117354855D01*
X163517247Y-117212398D01*
X163496765Y-117069941D01*
X163436977Y-116939025D01*
X163414079Y-116912599D01*
X163385055Y-116849046D01*
X163394998Y-116779887D01*
X163414078Y-116750197D01*
X163436977Y-116723771D01*
X163496765Y-116592855D01*
X163517247Y-116450398D01*
X163496765Y-116307941D01*
X163436977Y-116177025D01*
X163436975Y-116177023D01*
X163436974Y-116177020D01*
X163400044Y-116134401D01*
X173173953Y-116134401D01*
X173194434Y-116276857D01*
X173208630Y-116307941D01*
X173254223Y-116407774D01*
X173348472Y-116516544D01*
X173469547Y-116594354D01*
X173469550Y-116594355D01*
X173469549Y-116594355D01*
X173607636Y-116634900D01*
X173607638Y-116634901D01*
X173607639Y-116634901D01*
X173751562Y-116634901D01*
X173751562Y-116634900D01*
X173889653Y-116594354D01*
X174010728Y-116516544D01*
X174104977Y-116407774D01*
X174164765Y-116276858D01*
X174185247Y-116134401D01*
X174164765Y-115991944D01*
X174104977Y-115861028D01*
X174010728Y-115752258D01*
X173889653Y-115674448D01*
X173889651Y-115674447D01*
X173889649Y-115674446D01*
X173889650Y-115674446D01*
X173751563Y-115633901D01*
X173751561Y-115633901D01*
X173607639Y-115633901D01*
X173607636Y-115633901D01*
X173469549Y-115674446D01*
X173348473Y-115752257D01*
X173254223Y-115861027D01*
X173254222Y-115861029D01*
X173194434Y-115991944D01*
X173173953Y-116134401D01*
X163400044Y-116134401D01*
X163387220Y-116119601D01*
X163358195Y-116056045D01*
X163368139Y-115986887D01*
X163387217Y-115957200D01*
X163436977Y-115899774D01*
X163496765Y-115768858D01*
X163517247Y-115626401D01*
X163496765Y-115483944D01*
X163436977Y-115353028D01*
X163342728Y-115244258D01*
X163221653Y-115166448D01*
X163221651Y-115166447D01*
X163221649Y-115166446D01*
X163221650Y-115166446D01*
X163083563Y-115125901D01*
X163083561Y-115125901D01*
X162939639Y-115125901D01*
X162939638Y-115125901D01*
X162892993Y-115139596D01*
X162823123Y-115139594D01*
X162764346Y-115101819D01*
X162735323Y-115038262D01*
X162735323Y-115002976D01*
X162755247Y-114864401D01*
X162734765Y-114721944D01*
X162674977Y-114591028D01*
X162652079Y-114564602D01*
X162623055Y-114501049D01*
X162632998Y-114431890D01*
X162652078Y-114402200D01*
X162674977Y-114375774D01*
X162734765Y-114244858D01*
X162755247Y-114102401D01*
X162734765Y-113959944D01*
X162674977Y-113829028D01*
X162674975Y-113829026D01*
X162674974Y-113829023D01*
X162625220Y-113771604D01*
X162596195Y-113708048D01*
X162606139Y-113638890D01*
X162625217Y-113609203D01*
X162674977Y-113551777D01*
X162734765Y-113420861D01*
X162755247Y-113278404D01*
X162734765Y-113135947D01*
X162674977Y-113005031D01*
X162674974Y-113005028D01*
X162670182Y-112997570D01*
X162672704Y-112995948D01*
X162649916Y-112946056D01*
X162659856Y-112876897D01*
X162670909Y-112859701D01*
X162670182Y-112859234D01*
X162674968Y-112851783D01*
X162674977Y-112851774D01*
X162734765Y-112720858D01*
X162755247Y-112578401D01*
X162734765Y-112435944D01*
X162674977Y-112305028D01*
X162580728Y-112196258D01*
X162459653Y-112118448D01*
X162459651Y-112118447D01*
X162459649Y-112118446D01*
X162459650Y-112118446D01*
X162321563Y-112077901D01*
X162321561Y-112077901D01*
X162177639Y-112077901D01*
X162177636Y-112077901D01*
X162039549Y-112118446D01*
X161935639Y-112185225D01*
X161868599Y-112204909D01*
X161801561Y-112185225D01*
X161697650Y-112118446D01*
X161559563Y-112077901D01*
X161559561Y-112077901D01*
X161415639Y-112077901D01*
X161415636Y-112077901D01*
X161277549Y-112118446D01*
X161156473Y-112196257D01*
X161062223Y-112305027D01*
X161062222Y-112305029D01*
X161002434Y-112435944D01*
X160981953Y-112578401D01*
X147563066Y-112578401D01*
X147585100Y-112496167D01*
X147585100Y-112344635D01*
X147545881Y-112198266D01*
X147470115Y-112067036D01*
X147362965Y-111959886D01*
X147297350Y-111922003D01*
X147231736Y-111884120D01*
X147158550Y-111864510D01*
X147085366Y-111844901D01*
X146933834Y-111844901D01*
X146787463Y-111884120D01*
X146656235Y-111959886D01*
X146656232Y-111959888D01*
X146549087Y-112067033D01*
X146549085Y-112067036D01*
X146473319Y-112198264D01*
X146434100Y-112344635D01*
X146434100Y-112496166D01*
X146473319Y-112642537D01*
X146511202Y-112708151D01*
X146549085Y-112773766D01*
X146656235Y-112880916D01*
X146656236Y-112880917D01*
X146656238Y-112880918D01*
X146778624Y-112951578D01*
X146826840Y-113002145D01*
X146840062Y-113070752D01*
X146814094Y-113135617D01*
X146760581Y-113173722D01*
X146760899Y-113174490D01*
X146757564Y-113175871D01*
X146757180Y-113176145D01*
X146755900Y-113176560D01*
X146627795Y-113229622D01*
X146627782Y-113229629D01*
X146513058Y-113306286D01*
X146513054Y-113306289D01*
X146415488Y-113403855D01*
X146415485Y-113403859D01*
X146338828Y-113518583D01*
X146338821Y-113518596D01*
X146286021Y-113646068D01*
X146286018Y-113646078D01*
X146259100Y-113781405D01*
X146259100Y-113781408D01*
X146259100Y-113919394D01*
X146259100Y-113919396D01*
X146259099Y-113919396D01*
X144430100Y-113919396D01*
X144430100Y-113919394D01*
X144430100Y-113781408D01*
X144430100Y-113781405D01*
X144403181Y-113646078D01*
X144403180Y-113646077D01*
X144403180Y-113646073D01*
X144387907Y-113609200D01*
X144350378Y-113518596D01*
X144350371Y-113518583D01*
X144273714Y-113403859D01*
X144273711Y-113403855D01*
X144176145Y-113306289D01*
X144176141Y-113306286D01*
X144061417Y-113229629D01*
X144061404Y-113229622D01*
X143933932Y-113176822D01*
X143933922Y-113176819D01*
X143798595Y-113149901D01*
X143798593Y-113149901D01*
X142860607Y-113149901D01*
X142860605Y-113149901D01*
X142725277Y-113176819D01*
X142725267Y-113176822D01*
X142597795Y-113229622D01*
X142597782Y-113229629D01*
X142483058Y-113306286D01*
X142483054Y-113306289D01*
X142385488Y-113403855D01*
X142385485Y-113403859D01*
X142308828Y-113518583D01*
X142308821Y-113518596D01*
X142256021Y-113646068D01*
X142256018Y-113646078D01*
X142229100Y-113781405D01*
X142229100Y-113781408D01*
X142229100Y-113919394D01*
X142229100Y-113919396D01*
X142229099Y-113919396D01*
X141294600Y-113919396D01*
X141294600Y-108260401D01*
X151583953Y-108260401D01*
X151604434Y-108402857D01*
X151664222Y-108533772D01*
X151664223Y-108533774D01*
X151758472Y-108642544D01*
X151879547Y-108720354D01*
X151879550Y-108720355D01*
X151879549Y-108720355D01*
X152017636Y-108760900D01*
X152017638Y-108760901D01*
X152017639Y-108760901D01*
X152161561Y-108760901D01*
X152260545Y-108731837D01*
X152330415Y-108731837D01*
X152389193Y-108769611D01*
X152418218Y-108833167D01*
X152408274Y-108902325D01*
X152366435Y-108993939D01*
X152366434Y-108993940D01*
X152345953Y-109136398D01*
X152366434Y-109278854D01*
X152416252Y-109387938D01*
X152426223Y-109409771D01*
X152479297Y-109471022D01*
X152487246Y-109480196D01*
X152516270Y-109543752D01*
X152506326Y-109612910D01*
X152487246Y-109642600D01*
X152426223Y-109713025D01*
X152426222Y-109713026D01*
X152366434Y-109843941D01*
X152345953Y-109986398D01*
X152366434Y-110128854D01*
X152375578Y-110148875D01*
X152385522Y-110218034D01*
X152356497Y-110281589D01*
X152297719Y-110319364D01*
X152227850Y-110319364D01*
X152161564Y-110299901D01*
X152161561Y-110299901D01*
X152017639Y-110299901D01*
X152017636Y-110299901D01*
X151879549Y-110340446D01*
X151758473Y-110418257D01*
X151664223Y-110527027D01*
X151664222Y-110527029D01*
X151604434Y-110657944D01*
X151583953Y-110800401D01*
X151604434Y-110942857D01*
X151664222Y-111073772D01*
X151664223Y-111073774D01*
X151758472Y-111182544D01*
X151879547Y-111260354D01*
X151879550Y-111260355D01*
X151879549Y-111260355D01*
X152017636Y-111300900D01*
X152017638Y-111300901D01*
X152017639Y-111300901D01*
X152161562Y-111300901D01*
X152161562Y-111300900D01*
X152299653Y-111260354D01*
X152420728Y-111182544D01*
X152514977Y-111073774D01*
X152574765Y-110942858D01*
X152595247Y-110800401D01*
X152574765Y-110657944D01*
X152565621Y-110637923D01*
X152555677Y-110568766D01*
X152584701Y-110505210D01*
X152643478Y-110467435D01*
X152713346Y-110467433D01*
X152713350Y-110467434D01*
X152779638Y-110486898D01*
X152779639Y-110486898D01*
X152923562Y-110486898D01*
X152923562Y-110486897D01*
X153061653Y-110446351D01*
X153182728Y-110368541D01*
X153276977Y-110259771D01*
X153336765Y-110128855D01*
X153357247Y-109986398D01*
X153336765Y-109843941D01*
X153276977Y-109713025D01*
X153215953Y-109642599D01*
X153186929Y-109579045D01*
X153193924Y-109530395D01*
X160976453Y-109530395D01*
X160996934Y-109672851D01*
X161015282Y-109713026D01*
X161056723Y-109803768D01*
X161150972Y-109912538D01*
X161272047Y-109990348D01*
X161272050Y-109990349D01*
X161272049Y-109990349D01*
X161410136Y-110030894D01*
X161410138Y-110030895D01*
X161410139Y-110030895D01*
X161554062Y-110030895D01*
X161554062Y-110030894D01*
X161692153Y-109990348D01*
X161813228Y-109912538D01*
X161907477Y-109803768D01*
X161967265Y-109672852D01*
X161987747Y-109530395D01*
X161967265Y-109387938D01*
X161907477Y-109257022D01*
X161813228Y-109148252D01*
X161692153Y-109070442D01*
X161692151Y-109070441D01*
X161692149Y-109070440D01*
X161692150Y-109070440D01*
X161554063Y-109029895D01*
X161554061Y-109029895D01*
X161410139Y-109029895D01*
X161410136Y-109029895D01*
X161272049Y-109070440D01*
X161150973Y-109148251D01*
X161056723Y-109257021D01*
X161056722Y-109257023D01*
X160996934Y-109387938D01*
X160976453Y-109530395D01*
X153193924Y-109530395D01*
X153196873Y-109509887D01*
X153215951Y-109480198D01*
X153276977Y-109409771D01*
X153336765Y-109278855D01*
X153357247Y-109136398D01*
X153336765Y-108993941D01*
X153276977Y-108863025D01*
X153194975Y-108768389D01*
X163267953Y-108768389D01*
X163288434Y-108910845D01*
X163342803Y-109029895D01*
X163348223Y-109041762D01*
X163442472Y-109150532D01*
X163563547Y-109228342D01*
X163563550Y-109228343D01*
X163563549Y-109228343D01*
X163701636Y-109268888D01*
X163701638Y-109268889D01*
X163701639Y-109268889D01*
X163845562Y-109268889D01*
X163845562Y-109268888D01*
X163983609Y-109228355D01*
X163983650Y-109228343D01*
X163983650Y-109228342D01*
X163983653Y-109228342D01*
X164104728Y-109150532D01*
X164198977Y-109041762D01*
X164258765Y-108910846D01*
X164279245Y-108768401D01*
X164537953Y-108768401D01*
X164558434Y-108910857D01*
X164618222Y-109041772D01*
X164618223Y-109041774D01*
X164712472Y-109150544D01*
X164833547Y-109228354D01*
X164833550Y-109228355D01*
X164833549Y-109228355D01*
X164931179Y-109257021D01*
X164971598Y-109268889D01*
X164971636Y-109268900D01*
X164971638Y-109268901D01*
X164971639Y-109268901D01*
X165115562Y-109268901D01*
X165115562Y-109268900D01*
X165253653Y-109228354D01*
X165374728Y-109150544D01*
X165468977Y-109041774D01*
X165528765Y-108910858D01*
X165549247Y-108768401D01*
X165528765Y-108625944D01*
X165468977Y-108495028D01*
X165374728Y-108386258D01*
X165253653Y-108308448D01*
X165253651Y-108308447D01*
X165253649Y-108308446D01*
X165253650Y-108308446D01*
X165115563Y-108267901D01*
X165115561Y-108267901D01*
X164971639Y-108267901D01*
X164971636Y-108267901D01*
X164833549Y-108308446D01*
X164712473Y-108386257D01*
X164618223Y-108495027D01*
X164618222Y-108495029D01*
X164558434Y-108625944D01*
X164537953Y-108768401D01*
X164279245Y-108768401D01*
X164279247Y-108768389D01*
X164258765Y-108625932D01*
X164198977Y-108495016D01*
X164104728Y-108386246D01*
X163983653Y-108308436D01*
X163983651Y-108308435D01*
X163983649Y-108308434D01*
X163983650Y-108308434D01*
X163845563Y-108267889D01*
X163845561Y-108267889D01*
X163701639Y-108267889D01*
X163701636Y-108267889D01*
X163563549Y-108308434D01*
X163442473Y-108386245D01*
X163442472Y-108386245D01*
X163442472Y-108386246D01*
X163442462Y-108386258D01*
X163348223Y-108495015D01*
X163348222Y-108495017D01*
X163288434Y-108625932D01*
X163267953Y-108768389D01*
X153194975Y-108768389D01*
X153182728Y-108754255D01*
X153061653Y-108676445D01*
X153061651Y-108676444D01*
X153061649Y-108676443D01*
X153061650Y-108676443D01*
X152923563Y-108635898D01*
X152923561Y-108635898D01*
X152779639Y-108635898D01*
X152680652Y-108664962D01*
X152610783Y-108664961D01*
X152552005Y-108627186D01*
X152522981Y-108563630D01*
X152532924Y-108494475D01*
X152574765Y-108402858D01*
X152595247Y-108260401D01*
X152574765Y-108117944D01*
X152514977Y-107987028D01*
X152420728Y-107878258D01*
X152299653Y-107800448D01*
X152299651Y-107800447D01*
X152299649Y-107800446D01*
X152299650Y-107800446D01*
X152161563Y-107759901D01*
X152161561Y-107759901D01*
X152017639Y-107759901D01*
X152017636Y-107759901D01*
X151879549Y-107800446D01*
X151758473Y-107878257D01*
X151664223Y-107987027D01*
X151664222Y-107987029D01*
X151604434Y-108117944D01*
X151583953Y-108260401D01*
X141294600Y-108260401D01*
X141294600Y-105279396D01*
X142229099Y-105279396D01*
X142256018Y-105414723D01*
X142256021Y-105414733D01*
X142308821Y-105542205D01*
X142308828Y-105542218D01*
X142385485Y-105656942D01*
X142385488Y-105656946D01*
X142483054Y-105754512D01*
X142483058Y-105754515D01*
X142597782Y-105831172D01*
X142597795Y-105831179D01*
X142725267Y-105883979D01*
X142725272Y-105883981D01*
X142725276Y-105883981D01*
X142725277Y-105883982D01*
X142860604Y-105910901D01*
X142860607Y-105910901D01*
X143798595Y-105910901D01*
X143922209Y-105886312D01*
X143933928Y-105883981D01*
X144061411Y-105831176D01*
X144176142Y-105754515D01*
X144273714Y-105656943D01*
X144350375Y-105542212D01*
X144403180Y-105414729D01*
X144411989Y-105370442D01*
X144430100Y-105279396D01*
X146259099Y-105279396D01*
X146286018Y-105414723D01*
X146286021Y-105414733D01*
X146338821Y-105542205D01*
X146338828Y-105542218D01*
X146415485Y-105656942D01*
X146415488Y-105656946D01*
X146513054Y-105754512D01*
X146513058Y-105754515D01*
X146627782Y-105831172D01*
X146627795Y-105831179D01*
X146760899Y-105886312D01*
X146760150Y-105888118D01*
X146811041Y-105921453D01*
X146839511Y-105985259D01*
X146828965Y-106054328D01*
X146782752Y-106106732D01*
X146778625Y-106109223D01*
X146656235Y-106179886D01*
X146656232Y-106179888D01*
X146549087Y-106287033D01*
X146549085Y-106287036D01*
X146473319Y-106418264D01*
X146434100Y-106564635D01*
X146434100Y-106716166D01*
X146473319Y-106862537D01*
X146511202Y-106928151D01*
X146549085Y-106993766D01*
X146656235Y-107100916D01*
X146787465Y-107176682D01*
X146933834Y-107215901D01*
X146933836Y-107215901D01*
X147085364Y-107215901D01*
X147085366Y-107215901D01*
X147231735Y-107176682D01*
X147362965Y-107100916D01*
X147470115Y-106993766D01*
X147545881Y-106862536D01*
X147585100Y-106716167D01*
X147585100Y-106564635D01*
X147545881Y-106418266D01*
X147470115Y-106287036D01*
X147362965Y-106179886D01*
X147362963Y-106179885D01*
X147362961Y-106179883D01*
X147297844Y-106142288D01*
X147249628Y-106091721D01*
X147236406Y-106023114D01*
X147262374Y-105958249D01*
X147319288Y-105917721D01*
X147359844Y-105910901D01*
X148128595Y-105910901D01*
X148252209Y-105886312D01*
X148263928Y-105883981D01*
X148391411Y-105831176D01*
X148506142Y-105754515D01*
X148603714Y-105656943D01*
X148680375Y-105542212D01*
X148733180Y-105414729D01*
X148741989Y-105370442D01*
X148760100Y-105279396D01*
X148760100Y-105141405D01*
X148733181Y-105006078D01*
X148733180Y-105006077D01*
X148733180Y-105006073D01*
X148713434Y-104958401D01*
X148680378Y-104878596D01*
X148680371Y-104878583D01*
X148603714Y-104763859D01*
X148603711Y-104763855D01*
X148506145Y-104666289D01*
X148506141Y-104666286D01*
X148391417Y-104589629D01*
X148391404Y-104589622D01*
X148361900Y-104577401D01*
X153869953Y-104577401D01*
X153890434Y-104719857D01*
X153934316Y-104815944D01*
X153950223Y-104850774D01*
X154044472Y-104959544D01*
X154165547Y-105037354D01*
X154165550Y-105037355D01*
X154165549Y-105037355D01*
X154303636Y-105077900D01*
X154303638Y-105077901D01*
X154303639Y-105077901D01*
X154447562Y-105077901D01*
X154447562Y-105077900D01*
X154585653Y-105037354D01*
X154706728Y-104959544D01*
X154707718Y-104958401D01*
X156917933Y-104958401D01*
X156938414Y-105100857D01*
X156998202Y-105231772D01*
X156998203Y-105231774D01*
X157092452Y-105340544D01*
X157213527Y-105418354D01*
X157213530Y-105418355D01*
X157213529Y-105418355D01*
X157351616Y-105458900D01*
X157351618Y-105458901D01*
X157351619Y-105458901D01*
X157495542Y-105458901D01*
X157495542Y-105458900D01*
X157633633Y-105418354D01*
X157754708Y-105340544D01*
X157848957Y-105231774D01*
X157908745Y-105100858D01*
X157929227Y-104958401D01*
X157908745Y-104815944D01*
X157848957Y-104685028D01*
X157754708Y-104576258D01*
X157633633Y-104498448D01*
X157633631Y-104498447D01*
X157633629Y-104498446D01*
X157633630Y-104498446D01*
X157495543Y-104457901D01*
X157495541Y-104457901D01*
X157351619Y-104457901D01*
X157351616Y-104457901D01*
X157213529Y-104498446D01*
X157092453Y-104576257D01*
X156998203Y-104685027D01*
X156998202Y-104685029D01*
X156938414Y-104815944D01*
X156917933Y-104958401D01*
X154707718Y-104958401D01*
X154800977Y-104850774D01*
X154860765Y-104719858D01*
X154881247Y-104577401D01*
X154860765Y-104434944D01*
X154800977Y-104304028D01*
X154706728Y-104195258D01*
X154585653Y-104117448D01*
X154585651Y-104117447D01*
X154585649Y-104117446D01*
X154585650Y-104117446D01*
X154447563Y-104076901D01*
X154447561Y-104076901D01*
X154303639Y-104076901D01*
X154303636Y-104076901D01*
X154165549Y-104117446D01*
X154044473Y-104195257D01*
X153950223Y-104304027D01*
X153950222Y-104304029D01*
X153890434Y-104434944D01*
X153869953Y-104577401D01*
X148361900Y-104577401D01*
X148263932Y-104536822D01*
X148263922Y-104536819D01*
X148128595Y-104509901D01*
X148128593Y-104509901D01*
X146890607Y-104509901D01*
X146890605Y-104509901D01*
X146755277Y-104536819D01*
X146755267Y-104536822D01*
X146627795Y-104589622D01*
X146627782Y-104589629D01*
X146513058Y-104666286D01*
X146513054Y-104666289D01*
X146415488Y-104763855D01*
X146415485Y-104763859D01*
X146338828Y-104878583D01*
X146338821Y-104878596D01*
X146286021Y-105006068D01*
X146286018Y-105006078D01*
X146259100Y-105141405D01*
X146259100Y-105141408D01*
X146259100Y-105279394D01*
X146259100Y-105279396D01*
X146259099Y-105279396D01*
X144430100Y-105279396D01*
X144430100Y-105141405D01*
X144403181Y-105006078D01*
X144403180Y-105006077D01*
X144403180Y-105006073D01*
X144383434Y-104958401D01*
X144350378Y-104878596D01*
X144350371Y-104878583D01*
X144273714Y-104763859D01*
X144273711Y-104763855D01*
X144176145Y-104666289D01*
X144176141Y-104666286D01*
X144061417Y-104589629D01*
X144061404Y-104589622D01*
X143933932Y-104536822D01*
X143933922Y-104536819D01*
X143798595Y-104509901D01*
X143798593Y-104509901D01*
X142860607Y-104509901D01*
X142860605Y-104509901D01*
X142725277Y-104536819D01*
X142725267Y-104536822D01*
X142597795Y-104589622D01*
X142597782Y-104589629D01*
X142483058Y-104666286D01*
X142483054Y-104666289D01*
X142385488Y-104763855D01*
X142385485Y-104763859D01*
X142308828Y-104878583D01*
X142308821Y-104878596D01*
X142256021Y-105006068D01*
X142256018Y-105006078D01*
X142229100Y-105141405D01*
X142229100Y-105141408D01*
X142229100Y-105279394D01*
X142229100Y-105279396D01*
X142229099Y-105279396D01*
X141294600Y-105279396D01*
X141294600Y-103713988D01*
X168498276Y-103713988D01*
X168518780Y-103882857D01*
X168518781Y-103882862D01*
X168579103Y-104041919D01*
X168631238Y-104117448D01*
X168675738Y-104181917D01*
X168781426Y-104275548D01*
X168803071Y-104294724D01*
X168953694Y-104373777D01*
X168953696Y-104373778D01*
X169118865Y-104414488D01*
X169288977Y-104414488D01*
X169454146Y-104373778D01*
X169533613Y-104332069D01*
X169604770Y-104294724D01*
X169604771Y-104294722D01*
X169604773Y-104294722D01*
X169732104Y-104181917D01*
X169828739Y-104041918D01*
X169889061Y-103882860D01*
X169909566Y-103713988D01*
X169889061Y-103545116D01*
X169828739Y-103386058D01*
X169732104Y-103246059D01*
X169604773Y-103133254D01*
X169604770Y-103133251D01*
X169454147Y-103054198D01*
X169288977Y-103013488D01*
X169118865Y-103013488D01*
X168953694Y-103054198D01*
X168803071Y-103133251D01*
X168675737Y-103246060D01*
X168579103Y-103386056D01*
X168518781Y-103545113D01*
X168518780Y-103545118D01*
X168498276Y-103713988D01*
X141294600Y-103713988D01*
X141294600Y-102418401D01*
X154885953Y-102418401D01*
X154906434Y-102560857D01*
X154966222Y-102691772D01*
X154966223Y-102691774D01*
X155060472Y-102800544D01*
X155181547Y-102878354D01*
X155181550Y-102878355D01*
X155181549Y-102878355D01*
X155319636Y-102918900D01*
X155319638Y-102918901D01*
X155319639Y-102918901D01*
X155463562Y-102918901D01*
X155463562Y-102918900D01*
X155601653Y-102878354D01*
X155722728Y-102800544D01*
X155816977Y-102691774D01*
X155876765Y-102560858D01*
X155897247Y-102418401D01*
X155876765Y-102275944D01*
X155816977Y-102145028D01*
X155722728Y-102036258D01*
X155671290Y-102003201D01*
X164666453Y-102003201D01*
X164686934Y-102145657D01*
X164746435Y-102275944D01*
X164746723Y-102276574D01*
X164840972Y-102385344D01*
X164962047Y-102463154D01*
X164962050Y-102463155D01*
X164962049Y-102463155D01*
X165100136Y-102503700D01*
X165100138Y-102503701D01*
X165100139Y-102503701D01*
X165244062Y-102503701D01*
X165244062Y-102503700D01*
X165382153Y-102463154D01*
X165503228Y-102385344D01*
X165597477Y-102276574D01*
X165657265Y-102145658D01*
X165677747Y-102003201D01*
X165657265Y-101860744D01*
X165597477Y-101729828D01*
X165503228Y-101621058D01*
X165382153Y-101543248D01*
X165382151Y-101543247D01*
X165382149Y-101543246D01*
X165382150Y-101543246D01*
X165244063Y-101502701D01*
X165244061Y-101502701D01*
X165100139Y-101502701D01*
X165100136Y-101502701D01*
X164962049Y-101543246D01*
X164840973Y-101621057D01*
X164746723Y-101729827D01*
X164746722Y-101729829D01*
X164686934Y-101860744D01*
X164666453Y-102003201D01*
X155671290Y-102003201D01*
X155601653Y-101958448D01*
X155601651Y-101958447D01*
X155601649Y-101958446D01*
X155601650Y-101958446D01*
X155463563Y-101917901D01*
X155463561Y-101917901D01*
X155319639Y-101917901D01*
X155319636Y-101917901D01*
X155181549Y-101958446D01*
X155060473Y-102036257D01*
X154966223Y-102145027D01*
X154966222Y-102145029D01*
X154906434Y-102275944D01*
X154885953Y-102418401D01*
X141294600Y-102418401D01*
X141294600Y-100129401D01*
X141314285Y-100062362D01*
X141367089Y-100016607D01*
X141418600Y-100005401D01*
X145104600Y-100005401D01*
X145703281Y-99406720D01*
X145764604Y-99373235D01*
X145790962Y-99370401D01*
X145841630Y-99370401D01*
X145908669Y-99390086D01*
G37*
%TD.AperFunction*%
%TD*%
D16*
X165043600Y-108768401D03*
X152089600Y-108260401D03*
X141929600Y-118420401D03*
X144469600Y-115880401D03*
X174949600Y-108260401D03*
X148279600Y-117150401D03*
X141929600Y-112070401D03*
X157169600Y-108260401D03*
X149295600Y-114356401D03*
X149295600Y-113594401D03*
X141929600Y-109530401D03*
X149549600Y-115880401D03*
X174949600Y-110800401D03*
X149295600Y-112832401D03*
X173679600Y-104450401D03*
X144404600Y-109530401D03*
X143199600Y-110800401D03*
X171647600Y-104958401D03*
X146247600Y-100640401D03*
X158947600Y-109022401D03*
X143199600Y-117150401D03*
X141929600Y-115880401D03*
X145739600Y-108260401D03*
X173679600Y-106990401D03*
X158047142Y-106863401D03*
X144469600Y-112070401D03*
X174949600Y-115880401D03*
X155899600Y-106990401D03*
X141929600Y-106990401D03*
X169615600Y-109022401D03*
X171647600Y-107498401D03*
X149295600Y-106228401D03*
X172409600Y-108260401D03*
X174949600Y-105720401D03*
X144469600Y-106990401D03*
X166567600Y-109022401D03*
X149295600Y-104704401D03*
X149295600Y-105466401D03*
X174949600Y-113340401D03*
X160979600Y-103180401D03*
X143199600Y-108260401D03*
X158439600Y-103180401D03*
X155391600Y-112578401D03*
X150819600Y-117150401D03*
X147009600Y-115880401D03*
X171647600Y-102418401D03*
X174949600Y-118420401D03*
X144469600Y-118420401D03*
D17*
X164977100Y-105538401D03*
D16*
X172409600Y-118420401D03*
X172409600Y-105720401D03*
X151784800Y-109561318D03*
X145739600Y-110800401D03*
X173679600Y-109530401D03*
X156915600Y-112197401D03*
X145739600Y-117150401D03*
X168091600Y-114102401D03*
X152851600Y-109136398D03*
X163773600Y-108768389D03*
X152089600Y-110800401D03*
X152851600Y-109986398D03*
X161487600Y-113278404D03*
X161487600Y-114864401D03*
X161487600Y-112578401D03*
X162249600Y-114864401D03*
X162249600Y-116450398D03*
X162249600Y-117212398D03*
X161487600Y-116450398D03*
X162249600Y-115626401D03*
X163011600Y-115626401D03*
X161487600Y-117212398D03*
X163011600Y-117212398D03*
X161487600Y-114102401D03*
X162249600Y-114102401D03*
X162249600Y-113278404D03*
X161487600Y-115626401D03*
X162249600Y-112578401D03*
X161482100Y-109530395D03*
X163011600Y-116450398D03*
X155391600Y-102418401D03*
D17*
X169203921Y-103713988D03*
D16*
X157169593Y-101091994D03*
X165172100Y-102003201D03*
X173679600Y-116134401D03*
X157423580Y-104958401D03*
X154375600Y-104577401D03*
D17*
X147009600Y-99370401D03*
X149549600Y-99370401D03*
X152089600Y-99370401D03*
X154629600Y-99370401D03*
X157169600Y-99370401D03*
X159709600Y-99370401D03*
X162249600Y-99370401D03*
X164789600Y-99370401D03*
X167329600Y-99370401D03*
X169869600Y-99370401D03*
X147009600Y-106640401D03*
X147009600Y-112420401D03*
D18*
X147509600Y-105210401D03*
D19*
X143329600Y-105210401D03*
D18*
X147509600Y-113850401D03*
D19*
X143329600Y-113850401D03*
D17*
X147014600Y-119690401D03*
X149554600Y-119690401D03*
X152094600Y-119690401D03*
X154634600Y-119690401D03*
X157174600Y-119690401D03*
X159714600Y-119690401D03*
X162254600Y-119690401D03*
X164794600Y-119690401D03*
X167334600Y-119690401D03*
X169874600Y-119690401D03*
M02*
