%TF.GenerationSoftware,KiCad,Pcbnew,8.0.2*%
%TF.CreationDate,2025-03-04T21:54:34+01:00*%
%TF.ProjectId,USB-C_PD_Module,5553422d-435f-4504-945f-4d6f64756c65,rev?*%
%TF.SameCoordinates,Original*%
%TF.FileFunction,Legend,Bot*%
%TF.FilePolarity,Positive*%
%FSLAX46Y46*%
G04 Gerber Fmt 4.6, Leading zero omitted, Abs format (unit mm)*
G04 Created by KiCad (PCBNEW 8.0.2) date 2025-03-04 21:54:34*
%MOMM*%
%LPD*%
G01*
G04 APERTURE LIST*
%ADD10C,0.100000*%
%ADD11C,0.150000*%
%ADD12C,0.350000*%
%ADD13O,1.700000X0.600000*%
%ADD14O,1.400000X0.600000*%
G04 APERTURE END LIST*
D10*
X152089600Y-118420401D02*
X152089600Y-117785401D01*
X162249600Y-118420401D02*
X162249600Y-117785401D01*
X154629600Y-117785401D02*
X155264600Y-117150401D01*
X167329600Y-117785401D02*
X167964600Y-117150401D01*
X149549600Y-117785401D02*
X150184600Y-117150401D01*
X159709600Y-117785401D02*
X160344600Y-117150401D01*
X147644600Y-117150401D02*
X155264600Y-117150401D01*
X164789600Y-117785401D02*
X165424600Y-117150401D01*
X149549600Y-118420401D02*
X149549600Y-117785401D01*
X159709600Y-118420401D02*
X159709600Y-117785401D01*
X155264600Y-117150401D02*
X155899600Y-117150401D01*
X164789600Y-118420401D02*
X164789600Y-117785401D01*
X160344600Y-117150401D02*
X167964600Y-117150401D01*
X147009600Y-118420401D02*
X147009600Y-117785401D01*
X167329600Y-118420401D02*
X167329600Y-117785401D01*
X155899600Y-117150401D02*
X156534600Y-117150401D01*
X162249600Y-117785401D02*
X162884600Y-117150401D01*
X147009600Y-117785401D02*
X147644600Y-117150401D01*
X167964600Y-117150401D02*
X169234600Y-117150401D01*
X154629600Y-118420401D02*
X154629600Y-117785401D01*
X152089600Y-117785401D02*
X152724600Y-117150401D01*
D11*
X164450435Y-108060513D02*
X165200435Y-108060513D01*
X164486150Y-107739084D02*
X164450435Y-107631942D01*
X164450435Y-107631942D02*
X164450435Y-107453370D01*
X164450435Y-107453370D02*
X164486150Y-107381942D01*
X164486150Y-107381942D02*
X164521864Y-107346227D01*
X164521864Y-107346227D02*
X164593292Y-107310513D01*
X164593292Y-107310513D02*
X164664721Y-107310513D01*
X164664721Y-107310513D02*
X164736150Y-107346227D01*
X164736150Y-107346227D02*
X164771864Y-107381942D01*
X164771864Y-107381942D02*
X164807578Y-107453370D01*
X164807578Y-107453370D02*
X164843292Y-107596227D01*
X164843292Y-107596227D02*
X164879007Y-107667656D01*
X164879007Y-107667656D02*
X164914721Y-107703370D01*
X164914721Y-107703370D02*
X164986150Y-107739084D01*
X164986150Y-107739084D02*
X165057578Y-107739084D01*
X165057578Y-107739084D02*
X165129007Y-107703370D01*
X165129007Y-107703370D02*
X165164721Y-107667656D01*
X165164721Y-107667656D02*
X165200435Y-107596227D01*
X165200435Y-107596227D02*
X165200435Y-107417656D01*
X165200435Y-107417656D02*
X165164721Y-107310513D01*
X164450435Y-106989084D02*
X165200435Y-106989084D01*
X165200435Y-106989084D02*
X164450435Y-106560513D01*
X164450435Y-106560513D02*
X165200435Y-106560513D01*
X164450435Y-106203370D02*
X165200435Y-106203370D01*
X164450435Y-105774799D02*
X164879007Y-106096227D01*
X165200435Y-105774799D02*
X164771864Y-106203370D01*
X164379007Y-105631942D02*
X164379007Y-105060513D01*
X164521864Y-104453370D02*
X164486150Y-104489084D01*
X164486150Y-104489084D02*
X164450435Y-104596227D01*
X164450435Y-104596227D02*
X164450435Y-104667655D01*
X164450435Y-104667655D02*
X164486150Y-104774798D01*
X164486150Y-104774798D02*
X164557578Y-104846227D01*
X164557578Y-104846227D02*
X164629007Y-104881941D01*
X164629007Y-104881941D02*
X164771864Y-104917655D01*
X164771864Y-104917655D02*
X164879007Y-104917655D01*
X164879007Y-104917655D02*
X165021864Y-104881941D01*
X165021864Y-104881941D02*
X165093292Y-104846227D01*
X165093292Y-104846227D02*
X165164721Y-104774798D01*
X165164721Y-104774798D02*
X165200435Y-104667655D01*
X165200435Y-104667655D02*
X165200435Y-104596227D01*
X165200435Y-104596227D02*
X165164721Y-104489084D01*
X165164721Y-104489084D02*
X165129007Y-104453370D01*
X165200435Y-103989084D02*
X165200435Y-103846227D01*
X165200435Y-103846227D02*
X165164721Y-103774798D01*
X165164721Y-103774798D02*
X165093292Y-103703370D01*
X165093292Y-103703370D02*
X164950435Y-103667655D01*
X164950435Y-103667655D02*
X164700435Y-103667655D01*
X164700435Y-103667655D02*
X164557578Y-103703370D01*
X164557578Y-103703370D02*
X164486150Y-103774798D01*
X164486150Y-103774798D02*
X164450435Y-103846227D01*
X164450435Y-103846227D02*
X164450435Y-103989084D01*
X164450435Y-103989084D02*
X164486150Y-104060513D01*
X164486150Y-104060513D02*
X164557578Y-104131941D01*
X164557578Y-104131941D02*
X164700435Y-104167655D01*
X164700435Y-104167655D02*
X164950435Y-104167655D01*
X164950435Y-104167655D02*
X165093292Y-104131941D01*
X165093292Y-104131941D02*
X165164721Y-104060513D01*
X165164721Y-104060513D02*
X165200435Y-103989084D01*
X164664721Y-103381941D02*
X164664721Y-103024799D01*
X164450435Y-103453370D02*
X165200435Y-103203370D01*
X165200435Y-103203370D02*
X164450435Y-102953370D01*
X164450435Y-102274799D02*
X164807578Y-102524799D01*
X164450435Y-102703370D02*
X165200435Y-102703370D01*
X165200435Y-102703370D02*
X165200435Y-102417656D01*
X165200435Y-102417656D02*
X165164721Y-102346227D01*
X165164721Y-102346227D02*
X165129007Y-102310513D01*
X165129007Y-102310513D02*
X165057578Y-102274799D01*
X165057578Y-102274799D02*
X164950435Y-102274799D01*
X164950435Y-102274799D02*
X164879007Y-102310513D01*
X164879007Y-102310513D02*
X164843292Y-102346227D01*
X164843292Y-102346227D02*
X164807578Y-102417656D01*
X164807578Y-102417656D02*
X164807578Y-102703370D01*
X164486150Y-101989084D02*
X164450435Y-101881942D01*
X164450435Y-101881942D02*
X164450435Y-101703370D01*
X164450435Y-101703370D02*
X164486150Y-101631942D01*
X164486150Y-101631942D02*
X164521864Y-101596227D01*
X164521864Y-101596227D02*
X164593292Y-101560513D01*
X164593292Y-101560513D02*
X164664721Y-101560513D01*
X164664721Y-101560513D02*
X164736150Y-101596227D01*
X164736150Y-101596227D02*
X164771864Y-101631942D01*
X164771864Y-101631942D02*
X164807578Y-101703370D01*
X164807578Y-101703370D02*
X164843292Y-101846227D01*
X164843292Y-101846227D02*
X164879007Y-101917656D01*
X164879007Y-101917656D02*
X164914721Y-101953370D01*
X164914721Y-101953370D02*
X164986150Y-101989084D01*
X164986150Y-101989084D02*
X165057578Y-101989084D01*
X165057578Y-101989084D02*
X165129007Y-101953370D01*
X165129007Y-101953370D02*
X165164721Y-101917656D01*
X165164721Y-101917656D02*
X165200435Y-101846227D01*
X165200435Y-101846227D02*
X165200435Y-101667656D01*
X165200435Y-101667656D02*
X165164721Y-101560513D01*
X164843292Y-101239084D02*
X164843292Y-100989084D01*
X164450435Y-100881941D02*
X164450435Y-101239084D01*
X164450435Y-101239084D02*
X165200435Y-101239084D01*
X165200435Y-101239084D02*
X165200435Y-100881941D01*
G36*
X157370976Y-116282932D02*
G01*
X157426976Y-116309873D01*
X157478731Y-116360354D01*
X157505501Y-116437740D01*
X157506208Y-116532570D01*
X156904885Y-116533704D01*
X156904218Y-116444370D01*
X156930169Y-116363485D01*
X156979285Y-116313129D01*
X157030737Y-116286416D01*
X157156413Y-116253806D01*
X157245517Y-116252751D01*
X157370976Y-116282932D01*
G37*
G36*
X157738768Y-118337192D02*
G01*
X156672102Y-118337192D01*
X156672102Y-117857431D01*
X156755435Y-117857431D01*
X156756642Y-117929537D01*
X156756024Y-117938240D01*
X156756848Y-117941867D01*
X156756876Y-117943491D01*
X156757634Y-117945321D01*
X156759284Y-117952576D01*
X156792591Y-118048857D01*
X156792591Y-118050633D01*
X156796318Y-118059633D01*
X156800993Y-118073145D01*
X156802758Y-118075180D01*
X156803789Y-118077669D01*
X156813117Y-118089035D01*
X156885404Y-118159543D01*
X156891594Y-118166681D01*
X156894772Y-118168681D01*
X156895910Y-118169791D01*
X156897737Y-118170548D01*
X156904037Y-118174513D01*
X156971741Y-118207084D01*
X156976971Y-118210959D01*
X156987950Y-118214881D01*
X156989198Y-118215482D01*
X156989737Y-118215520D01*
X156990817Y-118215906D01*
X157129803Y-118249340D01*
X157137232Y-118252418D01*
X157146311Y-118253312D01*
X157148219Y-118253771D01*
X157149314Y-118253607D01*
X157151864Y-118253859D01*
X157255044Y-118252638D01*
X157262652Y-118253770D01*
X157271638Y-118252441D01*
X157273639Y-118252418D01*
X157274660Y-118251994D01*
X157277197Y-118251620D01*
X157414506Y-118215991D01*
X157421673Y-118215482D01*
X157432633Y-118211287D01*
X157433900Y-118210959D01*
X157434335Y-118210636D01*
X157435405Y-118210227D01*
X157506681Y-118173219D01*
X157514960Y-118169791D01*
X157517842Y-118167425D01*
X157519276Y-118166681D01*
X157520575Y-118165182D01*
X157526325Y-118160464D01*
X157589198Y-118096004D01*
X157590704Y-118095252D01*
X157596892Y-118088116D01*
X157607082Y-118077670D01*
X157608114Y-118075177D01*
X157609878Y-118073144D01*
X157615872Y-118059719D01*
X157650299Y-117952409D01*
X157653994Y-117943491D01*
X157654362Y-117939744D01*
X157654846Y-117938239D01*
X157654705Y-117936264D01*
X157655435Y-117928859D01*
X157654297Y-117832743D01*
X157654846Y-117831098D01*
X157654164Y-117821508D01*
X157653994Y-117807085D01*
X157652962Y-117804595D01*
X157652772Y-117801908D01*
X157647517Y-117788177D01*
X157603971Y-117704304D01*
X157581863Y-117685131D01*
X157554102Y-117675877D01*
X157524912Y-117677951D01*
X157498737Y-117691038D01*
X157479564Y-117713146D01*
X157470310Y-117740907D01*
X157472384Y-117770097D01*
X157477639Y-117783829D01*
X157505624Y-117837730D01*
X157506524Y-117913744D01*
X157480701Y-117994233D01*
X157431584Y-118044588D01*
X157380132Y-118071302D01*
X157254457Y-118103912D01*
X157165353Y-118104967D01*
X157039898Y-118074788D01*
X156983893Y-118047845D01*
X156932139Y-117997365D01*
X156905282Y-117919727D01*
X156904484Y-117872112D01*
X156930275Y-117791726D01*
X156932494Y-117789407D01*
X157077541Y-117788617D01*
X157078305Y-117872063D01*
X157089504Y-117899099D01*
X157110196Y-117919791D01*
X157137232Y-117930990D01*
X157166496Y-117930990D01*
X157193532Y-117919791D01*
X157214224Y-117899099D01*
X157225423Y-117872063D01*
X157226864Y-117857431D01*
X157225423Y-117699942D01*
X157214224Y-117672906D01*
X157193532Y-117652214D01*
X157166496Y-117641015D01*
X157151864Y-117639574D01*
X156887232Y-117641015D01*
X156860196Y-117652214D01*
X156848831Y-117661541D01*
X156821017Y-117690612D01*
X156820167Y-117691038D01*
X156815859Y-117696004D01*
X156803790Y-117708620D01*
X156802759Y-117711108D01*
X156800993Y-117713145D01*
X156794999Y-117726570D01*
X156760569Y-117833882D01*
X156756876Y-117842799D01*
X156756507Y-117846543D01*
X156756024Y-117848050D01*
X156756164Y-117850025D01*
X156755435Y-117857431D01*
X156672102Y-117857431D01*
X156672102Y-116969813D01*
X156755618Y-116969813D01*
X156756876Y-116974425D01*
X156756876Y-116979206D01*
X156760693Y-116988421D01*
X156763318Y-116998045D01*
X156766245Y-117001825D01*
X156768075Y-117006242D01*
X156775125Y-117013292D01*
X156781235Y-117021182D01*
X156787367Y-117025534D01*
X156788767Y-117026934D01*
X156790141Y-117027503D01*
X156793225Y-117029692D01*
X157300870Y-117318671D01*
X156815803Y-117319586D01*
X156788767Y-117330785D01*
X156768075Y-117351477D01*
X156756876Y-117378513D01*
X156756876Y-117407777D01*
X156768075Y-117434813D01*
X156788767Y-117455505D01*
X156815803Y-117466704D01*
X156830435Y-117468145D01*
X157576058Y-117466739D01*
X157585674Y-117467962D01*
X157590253Y-117466713D01*
X157595067Y-117466704D01*
X157604283Y-117462886D01*
X157613905Y-117460262D01*
X157617684Y-117457335D01*
X157622103Y-117455505D01*
X157629154Y-117448453D01*
X157637043Y-117442345D01*
X157639416Y-117438191D01*
X157642795Y-117434813D01*
X157646611Y-117425600D01*
X157651562Y-117416936D01*
X157652164Y-117412192D01*
X157653994Y-117407777D01*
X157653994Y-117397802D01*
X157655252Y-117387906D01*
X157653994Y-117383293D01*
X157653994Y-117378513D01*
X157650176Y-117369297D01*
X157647552Y-117359674D01*
X157644624Y-117355893D01*
X157642795Y-117351477D01*
X157635741Y-117344423D01*
X157629634Y-117336537D01*
X157623503Y-117332185D01*
X157622103Y-117330785D01*
X157620728Y-117330215D01*
X157617645Y-117328027D01*
X157109999Y-117039047D01*
X157595067Y-117038133D01*
X157622103Y-117026934D01*
X157642795Y-117006242D01*
X157653994Y-116979206D01*
X157653994Y-116949942D01*
X157642795Y-116922906D01*
X157622103Y-116902214D01*
X157595067Y-116891015D01*
X157580435Y-116889574D01*
X156834811Y-116890979D01*
X156825196Y-116889757D01*
X156820616Y-116891005D01*
X156815803Y-116891015D01*
X156806587Y-116894832D01*
X156796964Y-116897457D01*
X156793183Y-116900384D01*
X156788767Y-116902214D01*
X156781716Y-116909264D01*
X156773827Y-116915374D01*
X156771453Y-116919527D01*
X156768075Y-116922906D01*
X156764258Y-116932118D01*
X156759308Y-116940783D01*
X156758705Y-116945526D01*
X156756876Y-116949942D01*
X156756876Y-116959916D01*
X156755618Y-116969813D01*
X156672102Y-116969813D01*
X156672102Y-116428860D01*
X156755435Y-116428860D01*
X156756876Y-116622063D01*
X156768075Y-116649099D01*
X156788767Y-116669791D01*
X156815803Y-116680990D01*
X156830435Y-116682431D01*
X157595067Y-116680990D01*
X157622103Y-116669791D01*
X157642795Y-116649099D01*
X157653994Y-116622063D01*
X157655435Y-116607431D01*
X157654110Y-116429833D01*
X157654846Y-116419480D01*
X157654005Y-116415784D01*
X157653994Y-116414228D01*
X157653235Y-116412395D01*
X157651586Y-116405144D01*
X157618280Y-116308863D01*
X157618280Y-116307086D01*
X157614548Y-116298076D01*
X157609878Y-116284575D01*
X157608114Y-116282541D01*
X157607082Y-116280049D01*
X157597754Y-116268684D01*
X157525465Y-116198174D01*
X157519276Y-116191038D01*
X157516097Y-116189037D01*
X157514960Y-116187928D01*
X157513132Y-116187170D01*
X157506833Y-116183206D01*
X157439130Y-116150635D01*
X157433900Y-116146760D01*
X157422920Y-116142837D01*
X157421673Y-116142237D01*
X157421133Y-116142198D01*
X157420054Y-116141813D01*
X157281072Y-116108380D01*
X157273639Y-116105301D01*
X157264552Y-116104406D01*
X157262652Y-116103949D01*
X157261560Y-116104111D01*
X157259007Y-116103860D01*
X157155830Y-116105080D01*
X157148219Y-116103948D01*
X157139229Y-116105277D01*
X157137232Y-116105301D01*
X157136211Y-116105723D01*
X157133674Y-116106099D01*
X156996364Y-116141727D01*
X156989198Y-116142237D01*
X156978240Y-116146430D01*
X156976971Y-116146760D01*
X156976534Y-116147083D01*
X156975467Y-116147492D01*
X156904190Y-116184497D01*
X156895910Y-116187928D01*
X156893027Y-116190293D01*
X156891594Y-116191038D01*
X156890294Y-116192536D01*
X156884545Y-116197255D01*
X156821673Y-116261713D01*
X156820167Y-116262467D01*
X156813969Y-116269611D01*
X156803789Y-116280050D01*
X156802758Y-116282538D01*
X156800993Y-116284574D01*
X156794999Y-116297999D01*
X156760569Y-116405311D01*
X156756876Y-116414228D01*
X156756507Y-116417972D01*
X156756024Y-116419479D01*
X156756164Y-116421454D01*
X156755435Y-116428860D01*
X156672102Y-116428860D01*
X156672102Y-116020527D01*
X157738768Y-116020527D01*
X157738768Y-118337192D01*
G37*
X161910435Y-106203370D02*
X162660435Y-106203370D01*
X161946150Y-105881941D02*
X161910435Y-105774799D01*
X161910435Y-105774799D02*
X161910435Y-105596227D01*
X161910435Y-105596227D02*
X161946150Y-105524799D01*
X161946150Y-105524799D02*
X161981864Y-105489084D01*
X161981864Y-105489084D02*
X162053292Y-105453370D01*
X162053292Y-105453370D02*
X162124721Y-105453370D01*
X162124721Y-105453370D02*
X162196150Y-105489084D01*
X162196150Y-105489084D02*
X162231864Y-105524799D01*
X162231864Y-105524799D02*
X162267578Y-105596227D01*
X162267578Y-105596227D02*
X162303292Y-105739084D01*
X162303292Y-105739084D02*
X162339007Y-105810513D01*
X162339007Y-105810513D02*
X162374721Y-105846227D01*
X162374721Y-105846227D02*
X162446150Y-105881941D01*
X162446150Y-105881941D02*
X162517578Y-105881941D01*
X162517578Y-105881941D02*
X162589007Y-105846227D01*
X162589007Y-105846227D02*
X162624721Y-105810513D01*
X162624721Y-105810513D02*
X162660435Y-105739084D01*
X162660435Y-105739084D02*
X162660435Y-105560513D01*
X162660435Y-105560513D02*
X162624721Y-105453370D01*
X161910435Y-105131941D02*
X162660435Y-105131941D01*
X162660435Y-105131941D02*
X161910435Y-104703370D01*
X161910435Y-104703370D02*
X162660435Y-104703370D01*
X161910435Y-104346227D02*
X162660435Y-104346227D01*
X161910435Y-103917656D02*
X162339007Y-104239084D01*
X162660435Y-103917656D02*
X162231864Y-104346227D01*
X161839007Y-103774799D02*
X161839007Y-103203370D01*
X162303292Y-102774798D02*
X162303292Y-103024798D01*
X161910435Y-103024798D02*
X162660435Y-103024798D01*
X162660435Y-103024798D02*
X162660435Y-102667655D01*
X161910435Y-102381941D02*
X162660435Y-102381941D01*
X161910435Y-102024798D02*
X162660435Y-102024798D01*
X162660435Y-102024798D02*
X161910435Y-101596227D01*
X161910435Y-101596227D02*
X162660435Y-101596227D01*
X162303292Y-101239084D02*
X162303292Y-100989084D01*
X161910435Y-100881941D02*
X161910435Y-101239084D01*
X161910435Y-101239084D02*
X162660435Y-101239084D01*
X162660435Y-101239084D02*
X162660435Y-100881941D01*
X154290435Y-102239084D02*
X155040435Y-102239084D01*
X155040435Y-102239084D02*
X155040435Y-102060513D01*
X155040435Y-102060513D02*
X155004721Y-101953370D01*
X155004721Y-101953370D02*
X154933292Y-101881941D01*
X154933292Y-101881941D02*
X154861864Y-101846227D01*
X154861864Y-101846227D02*
X154719007Y-101810513D01*
X154719007Y-101810513D02*
X154611864Y-101810513D01*
X154611864Y-101810513D02*
X154469007Y-101846227D01*
X154469007Y-101846227D02*
X154397578Y-101881941D01*
X154397578Y-101881941D02*
X154326150Y-101953370D01*
X154326150Y-101953370D02*
X154290435Y-102060513D01*
X154290435Y-102060513D02*
X154290435Y-102239084D01*
X154576150Y-101489084D02*
X154576150Y-100917656D01*
X154290435Y-101203370D02*
X154861864Y-101203370D01*
X167740435Y-106346228D02*
X166990435Y-106096228D01*
X166990435Y-106096228D02*
X167740435Y-105846228D01*
X167383292Y-105346228D02*
X167347578Y-105239085D01*
X167347578Y-105239085D02*
X167311864Y-105203371D01*
X167311864Y-105203371D02*
X167240435Y-105167657D01*
X167240435Y-105167657D02*
X167133292Y-105167657D01*
X167133292Y-105167657D02*
X167061864Y-105203371D01*
X167061864Y-105203371D02*
X167026150Y-105239085D01*
X167026150Y-105239085D02*
X166990435Y-105310514D01*
X166990435Y-105310514D02*
X166990435Y-105596228D01*
X166990435Y-105596228D02*
X167740435Y-105596228D01*
X167740435Y-105596228D02*
X167740435Y-105346228D01*
X167740435Y-105346228D02*
X167704721Y-105274800D01*
X167704721Y-105274800D02*
X167669007Y-105239085D01*
X167669007Y-105239085D02*
X167597578Y-105203371D01*
X167597578Y-105203371D02*
X167526150Y-105203371D01*
X167526150Y-105203371D02*
X167454721Y-105239085D01*
X167454721Y-105239085D02*
X167419007Y-105274800D01*
X167419007Y-105274800D02*
X167383292Y-105346228D01*
X167383292Y-105346228D02*
X167383292Y-105596228D01*
X167740435Y-104846228D02*
X167133292Y-104846228D01*
X167133292Y-104846228D02*
X167061864Y-104810514D01*
X167061864Y-104810514D02*
X167026150Y-104774800D01*
X167026150Y-104774800D02*
X166990435Y-104703371D01*
X166990435Y-104703371D02*
X166990435Y-104560514D01*
X166990435Y-104560514D02*
X167026150Y-104489085D01*
X167026150Y-104489085D02*
X167061864Y-104453371D01*
X167061864Y-104453371D02*
X167133292Y-104417657D01*
X167133292Y-104417657D02*
X167740435Y-104417657D01*
X167026150Y-104096228D02*
X166990435Y-103989086D01*
X166990435Y-103989086D02*
X166990435Y-103810514D01*
X166990435Y-103810514D02*
X167026150Y-103739086D01*
X167026150Y-103739086D02*
X167061864Y-103703371D01*
X167061864Y-103703371D02*
X167133292Y-103667657D01*
X167133292Y-103667657D02*
X167204721Y-103667657D01*
X167204721Y-103667657D02*
X167276150Y-103703371D01*
X167276150Y-103703371D02*
X167311864Y-103739086D01*
X167311864Y-103739086D02*
X167347578Y-103810514D01*
X167347578Y-103810514D02*
X167383292Y-103953371D01*
X167383292Y-103953371D02*
X167419007Y-104024800D01*
X167419007Y-104024800D02*
X167454721Y-104060514D01*
X167454721Y-104060514D02*
X167526150Y-104096228D01*
X167526150Y-104096228D02*
X167597578Y-104096228D01*
X167597578Y-104096228D02*
X167669007Y-104060514D01*
X167669007Y-104060514D02*
X167704721Y-104024800D01*
X167704721Y-104024800D02*
X167740435Y-103953371D01*
X167740435Y-103953371D02*
X167740435Y-103774800D01*
X167740435Y-103774800D02*
X167704721Y-103667657D01*
X166919007Y-103524800D02*
X166919007Y-102953371D01*
X166990435Y-102774799D02*
X167740435Y-102774799D01*
X167740435Y-102774799D02*
X167204721Y-102524799D01*
X167204721Y-102524799D02*
X167740435Y-102274799D01*
X167740435Y-102274799D02*
X166990435Y-102274799D01*
X167204721Y-101953370D02*
X167204721Y-101596228D01*
X166990435Y-102024799D02*
X167740435Y-101774799D01*
X167740435Y-101774799D02*
X166990435Y-101524799D01*
X167740435Y-101346228D02*
X166990435Y-100846228D01*
X167740435Y-100846228D02*
X166990435Y-101346228D01*
X147063292Y-103560513D02*
X147063292Y-103810513D01*
X146670435Y-103810513D02*
X147420435Y-103810513D01*
X147420435Y-103810513D02*
X147420435Y-103453370D01*
X146884721Y-103203370D02*
X146884721Y-102846228D01*
X146670435Y-103274799D02*
X147420435Y-103024799D01*
X147420435Y-103024799D02*
X146670435Y-102774799D01*
X147420435Y-102524799D02*
X146813292Y-102524799D01*
X146813292Y-102524799D02*
X146741864Y-102489085D01*
X146741864Y-102489085D02*
X146706150Y-102453371D01*
X146706150Y-102453371D02*
X146670435Y-102381942D01*
X146670435Y-102381942D02*
X146670435Y-102239085D01*
X146670435Y-102239085D02*
X146706150Y-102167656D01*
X146706150Y-102167656D02*
X146741864Y-102131942D01*
X146741864Y-102131942D02*
X146813292Y-102096228D01*
X146813292Y-102096228D02*
X147420435Y-102096228D01*
X146670435Y-101381942D02*
X146670435Y-101739085D01*
X146670435Y-101739085D02*
X147420435Y-101739085D01*
X147420435Y-101239085D02*
X147420435Y-100810514D01*
X146670435Y-101024799D02*
X147420435Y-101024799D01*
G36*
X159910976Y-100986014D02*
G01*
X159966976Y-101012955D01*
X160018731Y-101063436D01*
X160045501Y-101140822D01*
X160046208Y-101235652D01*
X159444885Y-101236786D01*
X159444218Y-101147452D01*
X159470169Y-101066567D01*
X159519285Y-101016211D01*
X159570737Y-100989498D01*
X159696413Y-100956888D01*
X159785517Y-100955833D01*
X159910976Y-100986014D01*
G37*
G36*
X160278768Y-103040274D02*
G01*
X159212102Y-103040274D01*
X159212102Y-102560513D01*
X159295435Y-102560513D01*
X159296642Y-102632619D01*
X159296024Y-102641322D01*
X159296848Y-102644949D01*
X159296876Y-102646573D01*
X159297634Y-102648403D01*
X159299284Y-102655658D01*
X159332591Y-102751939D01*
X159332591Y-102753715D01*
X159336318Y-102762715D01*
X159340993Y-102776227D01*
X159342758Y-102778262D01*
X159343789Y-102780751D01*
X159353117Y-102792117D01*
X159425404Y-102862625D01*
X159431594Y-102869763D01*
X159434772Y-102871763D01*
X159435910Y-102872873D01*
X159437737Y-102873630D01*
X159444037Y-102877595D01*
X159511741Y-102910166D01*
X159516971Y-102914041D01*
X159527950Y-102917963D01*
X159529198Y-102918564D01*
X159529737Y-102918602D01*
X159530817Y-102918988D01*
X159669803Y-102952422D01*
X159677232Y-102955500D01*
X159686311Y-102956394D01*
X159688219Y-102956853D01*
X159689314Y-102956689D01*
X159691864Y-102956941D01*
X159795044Y-102955720D01*
X159802652Y-102956852D01*
X159811638Y-102955523D01*
X159813639Y-102955500D01*
X159814660Y-102955076D01*
X159817197Y-102954702D01*
X159954506Y-102919073D01*
X159961673Y-102918564D01*
X159972633Y-102914369D01*
X159973900Y-102914041D01*
X159974335Y-102913718D01*
X159975405Y-102913309D01*
X160046681Y-102876301D01*
X160054960Y-102872873D01*
X160057842Y-102870507D01*
X160059276Y-102869763D01*
X160060575Y-102868264D01*
X160066325Y-102863546D01*
X160129198Y-102799086D01*
X160130704Y-102798334D01*
X160136892Y-102791198D01*
X160147082Y-102780752D01*
X160148114Y-102778259D01*
X160149878Y-102776226D01*
X160155872Y-102762801D01*
X160190299Y-102655491D01*
X160193994Y-102646573D01*
X160194362Y-102642826D01*
X160194846Y-102641321D01*
X160194705Y-102639346D01*
X160195435Y-102631941D01*
X160194297Y-102535825D01*
X160194846Y-102534180D01*
X160194164Y-102524590D01*
X160193994Y-102510167D01*
X160192962Y-102507677D01*
X160192772Y-102504990D01*
X160187517Y-102491259D01*
X160143971Y-102407386D01*
X160121863Y-102388213D01*
X160094102Y-102378959D01*
X160064912Y-102381033D01*
X160038737Y-102394120D01*
X160019564Y-102416228D01*
X160010310Y-102443989D01*
X160012384Y-102473179D01*
X160017639Y-102486911D01*
X160045624Y-102540812D01*
X160046524Y-102616826D01*
X160020701Y-102697315D01*
X159971584Y-102747670D01*
X159920132Y-102774384D01*
X159794457Y-102806994D01*
X159705353Y-102808049D01*
X159579898Y-102777870D01*
X159523893Y-102750927D01*
X159472139Y-102700447D01*
X159445282Y-102622809D01*
X159444484Y-102575194D01*
X159470275Y-102494808D01*
X159472494Y-102492489D01*
X159617541Y-102491699D01*
X159618305Y-102575145D01*
X159629504Y-102602181D01*
X159650196Y-102622873D01*
X159677232Y-102634072D01*
X159706496Y-102634072D01*
X159733532Y-102622873D01*
X159754224Y-102602181D01*
X159765423Y-102575145D01*
X159766864Y-102560513D01*
X159765423Y-102403024D01*
X159754224Y-102375988D01*
X159733532Y-102355296D01*
X159706496Y-102344097D01*
X159691864Y-102342656D01*
X159427232Y-102344097D01*
X159400196Y-102355296D01*
X159388831Y-102364623D01*
X159361017Y-102393694D01*
X159360167Y-102394120D01*
X159355859Y-102399086D01*
X159343790Y-102411702D01*
X159342759Y-102414190D01*
X159340993Y-102416227D01*
X159334999Y-102429652D01*
X159300569Y-102536964D01*
X159296876Y-102545881D01*
X159296507Y-102549625D01*
X159296024Y-102551132D01*
X159296164Y-102553107D01*
X159295435Y-102560513D01*
X159212102Y-102560513D01*
X159212102Y-101672895D01*
X159295618Y-101672895D01*
X159296876Y-101677507D01*
X159296876Y-101682288D01*
X159300693Y-101691503D01*
X159303318Y-101701127D01*
X159306245Y-101704907D01*
X159308075Y-101709324D01*
X159315125Y-101716374D01*
X159321235Y-101724264D01*
X159327367Y-101728616D01*
X159328767Y-101730016D01*
X159330141Y-101730585D01*
X159333225Y-101732774D01*
X159840870Y-102021753D01*
X159355803Y-102022668D01*
X159328767Y-102033867D01*
X159308075Y-102054559D01*
X159296876Y-102081595D01*
X159296876Y-102110859D01*
X159308075Y-102137895D01*
X159328767Y-102158587D01*
X159355803Y-102169786D01*
X159370435Y-102171227D01*
X160116058Y-102169821D01*
X160125674Y-102171044D01*
X160130253Y-102169795D01*
X160135067Y-102169786D01*
X160144283Y-102165968D01*
X160153905Y-102163344D01*
X160157684Y-102160417D01*
X160162103Y-102158587D01*
X160169154Y-102151535D01*
X160177043Y-102145427D01*
X160179416Y-102141273D01*
X160182795Y-102137895D01*
X160186611Y-102128682D01*
X160191562Y-102120018D01*
X160192164Y-102115274D01*
X160193994Y-102110859D01*
X160193994Y-102100884D01*
X160195252Y-102090988D01*
X160193994Y-102086375D01*
X160193994Y-102081595D01*
X160190176Y-102072379D01*
X160187552Y-102062756D01*
X160184624Y-102058975D01*
X160182795Y-102054559D01*
X160175741Y-102047505D01*
X160169634Y-102039619D01*
X160163503Y-102035267D01*
X160162103Y-102033867D01*
X160160728Y-102033297D01*
X160157645Y-102031109D01*
X159649999Y-101742129D01*
X160135067Y-101741215D01*
X160162103Y-101730016D01*
X160182795Y-101709324D01*
X160193994Y-101682288D01*
X160193994Y-101653024D01*
X160182795Y-101625988D01*
X160162103Y-101605296D01*
X160135067Y-101594097D01*
X160120435Y-101592656D01*
X159374811Y-101594061D01*
X159365196Y-101592839D01*
X159360616Y-101594087D01*
X159355803Y-101594097D01*
X159346587Y-101597914D01*
X159336964Y-101600539D01*
X159333183Y-101603466D01*
X159328767Y-101605296D01*
X159321716Y-101612346D01*
X159313827Y-101618456D01*
X159311453Y-101622609D01*
X159308075Y-101625988D01*
X159304258Y-101635200D01*
X159299308Y-101643865D01*
X159298705Y-101648608D01*
X159296876Y-101653024D01*
X159296876Y-101662998D01*
X159295618Y-101672895D01*
X159212102Y-101672895D01*
X159212102Y-101131942D01*
X159295435Y-101131942D01*
X159296876Y-101325145D01*
X159308075Y-101352181D01*
X159328767Y-101372873D01*
X159355803Y-101384072D01*
X159370435Y-101385513D01*
X160135067Y-101384072D01*
X160162103Y-101372873D01*
X160182795Y-101352181D01*
X160193994Y-101325145D01*
X160195435Y-101310513D01*
X160194110Y-101132915D01*
X160194846Y-101122562D01*
X160194005Y-101118866D01*
X160193994Y-101117310D01*
X160193235Y-101115477D01*
X160191586Y-101108226D01*
X160158280Y-101011945D01*
X160158280Y-101010168D01*
X160154548Y-101001158D01*
X160149878Y-100987657D01*
X160148114Y-100985623D01*
X160147082Y-100983131D01*
X160137754Y-100971766D01*
X160065465Y-100901256D01*
X160059276Y-100894120D01*
X160056097Y-100892119D01*
X160054960Y-100891010D01*
X160053132Y-100890252D01*
X160046833Y-100886288D01*
X159979130Y-100853717D01*
X159973900Y-100849842D01*
X159962920Y-100845919D01*
X159961673Y-100845319D01*
X159961133Y-100845280D01*
X159960054Y-100844895D01*
X159821072Y-100811462D01*
X159813639Y-100808383D01*
X159804552Y-100807488D01*
X159802652Y-100807031D01*
X159801560Y-100807193D01*
X159799007Y-100806942D01*
X159695830Y-100808162D01*
X159688219Y-100807030D01*
X159679229Y-100808359D01*
X159677232Y-100808383D01*
X159676211Y-100808805D01*
X159673674Y-100809181D01*
X159536364Y-100844809D01*
X159529198Y-100845319D01*
X159518240Y-100849512D01*
X159516971Y-100849842D01*
X159516534Y-100850165D01*
X159515467Y-100850574D01*
X159444190Y-100887579D01*
X159435910Y-100891010D01*
X159433027Y-100893375D01*
X159431594Y-100894120D01*
X159430294Y-100895618D01*
X159424545Y-100900337D01*
X159361673Y-100964795D01*
X159360167Y-100965549D01*
X159353969Y-100972693D01*
X159343789Y-100983132D01*
X159342758Y-100985620D01*
X159340993Y-100987656D01*
X159334999Y-101001081D01*
X159300569Y-101108393D01*
X159296876Y-101117310D01*
X159296507Y-101121054D01*
X159296024Y-101122561D01*
X159296164Y-101124536D01*
X159295435Y-101131942D01*
X159212102Y-101131942D01*
X159212102Y-100723609D01*
X160278768Y-100723609D01*
X160278768Y-103040274D01*
G37*
X170280435Y-118250288D02*
X169530435Y-118000288D01*
X169530435Y-118000288D02*
X170280435Y-117750288D01*
X169923292Y-117250288D02*
X169887578Y-117143145D01*
X169887578Y-117143145D02*
X169851864Y-117107431D01*
X169851864Y-117107431D02*
X169780435Y-117071717D01*
X169780435Y-117071717D02*
X169673292Y-117071717D01*
X169673292Y-117071717D02*
X169601864Y-117107431D01*
X169601864Y-117107431D02*
X169566150Y-117143145D01*
X169566150Y-117143145D02*
X169530435Y-117214574D01*
X169530435Y-117214574D02*
X169530435Y-117500288D01*
X169530435Y-117500288D02*
X170280435Y-117500288D01*
X170280435Y-117500288D02*
X170280435Y-117250288D01*
X170280435Y-117250288D02*
X170244721Y-117178860D01*
X170244721Y-117178860D02*
X170209007Y-117143145D01*
X170209007Y-117143145D02*
X170137578Y-117107431D01*
X170137578Y-117107431D02*
X170066150Y-117107431D01*
X170066150Y-117107431D02*
X169994721Y-117143145D01*
X169994721Y-117143145D02*
X169959007Y-117178860D01*
X169959007Y-117178860D02*
X169923292Y-117250288D01*
X169923292Y-117250288D02*
X169923292Y-117500288D01*
X170280435Y-116607431D02*
X170280435Y-116464574D01*
X170280435Y-116464574D02*
X170244721Y-116393145D01*
X170244721Y-116393145D02*
X170173292Y-116321717D01*
X170173292Y-116321717D02*
X170030435Y-116286002D01*
X170030435Y-116286002D02*
X169780435Y-116286002D01*
X169780435Y-116286002D02*
X169637578Y-116321717D01*
X169637578Y-116321717D02*
X169566150Y-116393145D01*
X169566150Y-116393145D02*
X169530435Y-116464574D01*
X169530435Y-116464574D02*
X169530435Y-116607431D01*
X169530435Y-116607431D02*
X169566150Y-116678860D01*
X169566150Y-116678860D02*
X169637578Y-116750288D01*
X169637578Y-116750288D02*
X169780435Y-116786002D01*
X169780435Y-116786002D02*
X170030435Y-116786002D01*
X170030435Y-116786002D02*
X170173292Y-116750288D01*
X170173292Y-116750288D02*
X170244721Y-116678860D01*
X170244721Y-116678860D02*
X170280435Y-116607431D01*
X170280435Y-115964574D02*
X169673292Y-115964574D01*
X169673292Y-115964574D02*
X169601864Y-115928860D01*
X169601864Y-115928860D02*
X169566150Y-115893146D01*
X169566150Y-115893146D02*
X169530435Y-115821717D01*
X169530435Y-115821717D02*
X169530435Y-115678860D01*
X169530435Y-115678860D02*
X169566150Y-115607431D01*
X169566150Y-115607431D02*
X169601864Y-115571717D01*
X169601864Y-115571717D02*
X169673292Y-115536003D01*
X169673292Y-115536003D02*
X170280435Y-115536003D01*
X169566150Y-115214574D02*
X169530435Y-115107432D01*
X169530435Y-115107432D02*
X169530435Y-114928860D01*
X169530435Y-114928860D02*
X169566150Y-114857432D01*
X169566150Y-114857432D02*
X169601864Y-114821717D01*
X169601864Y-114821717D02*
X169673292Y-114786003D01*
X169673292Y-114786003D02*
X169744721Y-114786003D01*
X169744721Y-114786003D02*
X169816150Y-114821717D01*
X169816150Y-114821717D02*
X169851864Y-114857432D01*
X169851864Y-114857432D02*
X169887578Y-114928860D01*
X169887578Y-114928860D02*
X169923292Y-115071717D01*
X169923292Y-115071717D02*
X169959007Y-115143146D01*
X169959007Y-115143146D02*
X169994721Y-115178860D01*
X169994721Y-115178860D02*
X170066150Y-115214574D01*
X170066150Y-115214574D02*
X170137578Y-115214574D01*
X170137578Y-115214574D02*
X170209007Y-115178860D01*
X170209007Y-115178860D02*
X170244721Y-115143146D01*
X170244721Y-115143146D02*
X170280435Y-115071717D01*
X170280435Y-115071717D02*
X170280435Y-114893146D01*
X170280435Y-114893146D02*
X170244721Y-114786003D01*
X170280435Y-113750288D02*
X170280435Y-113607431D01*
X170280435Y-113607431D02*
X170244721Y-113536002D01*
X170244721Y-113536002D02*
X170173292Y-113464574D01*
X170173292Y-113464574D02*
X170030435Y-113428859D01*
X170030435Y-113428859D02*
X169780435Y-113428859D01*
X169780435Y-113428859D02*
X169637578Y-113464574D01*
X169637578Y-113464574D02*
X169566150Y-113536002D01*
X169566150Y-113536002D02*
X169530435Y-113607431D01*
X169530435Y-113607431D02*
X169530435Y-113750288D01*
X169530435Y-113750288D02*
X169566150Y-113821717D01*
X169566150Y-113821717D02*
X169637578Y-113893145D01*
X169637578Y-113893145D02*
X169780435Y-113928859D01*
X169780435Y-113928859D02*
X170030435Y-113928859D01*
X170030435Y-113928859D02*
X170173292Y-113893145D01*
X170173292Y-113893145D02*
X170244721Y-113821717D01*
X170244721Y-113821717D02*
X170280435Y-113750288D01*
X170280435Y-113107431D02*
X169673292Y-113107431D01*
X169673292Y-113107431D02*
X169601864Y-113071717D01*
X169601864Y-113071717D02*
X169566150Y-113036003D01*
X169566150Y-113036003D02*
X169530435Y-112964574D01*
X169530435Y-112964574D02*
X169530435Y-112821717D01*
X169530435Y-112821717D02*
X169566150Y-112750288D01*
X169566150Y-112750288D02*
X169601864Y-112714574D01*
X169601864Y-112714574D02*
X169673292Y-112678860D01*
X169673292Y-112678860D02*
X170280435Y-112678860D01*
X170280435Y-112428860D02*
X170280435Y-112000289D01*
X169530435Y-112214574D02*
X170280435Y-112214574D01*
X157636835Y-103560513D02*
X156886835Y-103310513D01*
X156886835Y-103310513D02*
X157636835Y-103060513D01*
X156886835Y-102810513D02*
X157636835Y-102810513D01*
X157636835Y-102810513D02*
X157636835Y-102631942D01*
X157636835Y-102631942D02*
X157601121Y-102524799D01*
X157601121Y-102524799D02*
X157529692Y-102453370D01*
X157529692Y-102453370D02*
X157458264Y-102417656D01*
X157458264Y-102417656D02*
X157315407Y-102381942D01*
X157315407Y-102381942D02*
X157208264Y-102381942D01*
X157208264Y-102381942D02*
X157065407Y-102417656D01*
X157065407Y-102417656D02*
X156993978Y-102453370D01*
X156993978Y-102453370D02*
X156922550Y-102524799D01*
X156922550Y-102524799D02*
X156886835Y-102631942D01*
X156886835Y-102631942D02*
X156886835Y-102810513D01*
X156886835Y-102060513D02*
X157636835Y-102060513D01*
X157636835Y-102060513D02*
X157636835Y-101881942D01*
X157636835Y-101881942D02*
X157601121Y-101774799D01*
X157601121Y-101774799D02*
X157529692Y-101703370D01*
X157529692Y-101703370D02*
X157458264Y-101667656D01*
X157458264Y-101667656D02*
X157315407Y-101631942D01*
X157315407Y-101631942D02*
X157208264Y-101631942D01*
X157208264Y-101631942D02*
X157065407Y-101667656D01*
X157065407Y-101667656D02*
X156993978Y-101703370D01*
X156993978Y-101703370D02*
X156922550Y-101774799D01*
X156922550Y-101774799D02*
X156886835Y-101881942D01*
X156886835Y-101881942D02*
X156886835Y-102060513D01*
X156886835Y-101310513D02*
X157636835Y-101310513D01*
X157636835Y-101310513D02*
X157636835Y-101131942D01*
X157636835Y-101131942D02*
X157601121Y-101024799D01*
X157601121Y-101024799D02*
X157529692Y-100953370D01*
X157529692Y-100953370D02*
X157458264Y-100917656D01*
X157458264Y-100917656D02*
X157315407Y-100881942D01*
X157315407Y-100881942D02*
X157208264Y-100881942D01*
X157208264Y-100881942D02*
X157065407Y-100917656D01*
X157065407Y-100917656D02*
X156993978Y-100953370D01*
X156993978Y-100953370D02*
X156922550Y-101024799D01*
X156922550Y-101024799D02*
X156886835Y-101131942D01*
X156886835Y-101131942D02*
X156886835Y-101310513D01*
X151750435Y-102239084D02*
X152500435Y-102239084D01*
X152500435Y-102239084D02*
X152500435Y-102060513D01*
X152500435Y-102060513D02*
X152464721Y-101953370D01*
X152464721Y-101953370D02*
X152393292Y-101881941D01*
X152393292Y-101881941D02*
X152321864Y-101846227D01*
X152321864Y-101846227D02*
X152179007Y-101810513D01*
X152179007Y-101810513D02*
X152071864Y-101810513D01*
X152071864Y-101810513D02*
X151929007Y-101846227D01*
X151929007Y-101846227D02*
X151857578Y-101881941D01*
X151857578Y-101881941D02*
X151786150Y-101953370D01*
X151786150Y-101953370D02*
X151750435Y-102060513D01*
X151750435Y-102060513D02*
X151750435Y-102239084D01*
X152036150Y-101489084D02*
X152036150Y-100917656D01*
X170280435Y-106131942D02*
X169530435Y-105881942D01*
X169530435Y-105881942D02*
X170280435Y-105631942D01*
X169923292Y-105131942D02*
X169887578Y-105024799D01*
X169887578Y-105024799D02*
X169851864Y-104989085D01*
X169851864Y-104989085D02*
X169780435Y-104953371D01*
X169780435Y-104953371D02*
X169673292Y-104953371D01*
X169673292Y-104953371D02*
X169601864Y-104989085D01*
X169601864Y-104989085D02*
X169566150Y-105024799D01*
X169566150Y-105024799D02*
X169530435Y-105096228D01*
X169530435Y-105096228D02*
X169530435Y-105381942D01*
X169530435Y-105381942D02*
X170280435Y-105381942D01*
X170280435Y-105381942D02*
X170280435Y-105131942D01*
X170280435Y-105131942D02*
X170244721Y-105060514D01*
X170244721Y-105060514D02*
X170209007Y-105024799D01*
X170209007Y-105024799D02*
X170137578Y-104989085D01*
X170137578Y-104989085D02*
X170066150Y-104989085D01*
X170066150Y-104989085D02*
X169994721Y-105024799D01*
X169994721Y-105024799D02*
X169959007Y-105060514D01*
X169959007Y-105060514D02*
X169923292Y-105131942D01*
X169923292Y-105131942D02*
X169923292Y-105381942D01*
X170280435Y-104631942D02*
X169673292Y-104631942D01*
X169673292Y-104631942D02*
X169601864Y-104596228D01*
X169601864Y-104596228D02*
X169566150Y-104560514D01*
X169566150Y-104560514D02*
X169530435Y-104489085D01*
X169530435Y-104489085D02*
X169530435Y-104346228D01*
X169530435Y-104346228D02*
X169566150Y-104274799D01*
X169566150Y-104274799D02*
X169601864Y-104239085D01*
X169601864Y-104239085D02*
X169673292Y-104203371D01*
X169673292Y-104203371D02*
X170280435Y-104203371D01*
X169566150Y-103881942D02*
X169530435Y-103774800D01*
X169530435Y-103774800D02*
X169530435Y-103596228D01*
X169530435Y-103596228D02*
X169566150Y-103524800D01*
X169566150Y-103524800D02*
X169601864Y-103489085D01*
X169601864Y-103489085D02*
X169673292Y-103453371D01*
X169673292Y-103453371D02*
X169744721Y-103453371D01*
X169744721Y-103453371D02*
X169816150Y-103489085D01*
X169816150Y-103489085D02*
X169851864Y-103524800D01*
X169851864Y-103524800D02*
X169887578Y-103596228D01*
X169887578Y-103596228D02*
X169923292Y-103739085D01*
X169923292Y-103739085D02*
X169959007Y-103810514D01*
X169959007Y-103810514D02*
X169994721Y-103846228D01*
X169994721Y-103846228D02*
X170066150Y-103881942D01*
X170066150Y-103881942D02*
X170137578Y-103881942D01*
X170137578Y-103881942D02*
X170209007Y-103846228D01*
X170209007Y-103846228D02*
X170244721Y-103810514D01*
X170244721Y-103810514D02*
X170280435Y-103739085D01*
X170280435Y-103739085D02*
X170280435Y-103560514D01*
X170280435Y-103560514D02*
X170244721Y-103453371D01*
X169459007Y-103310514D02*
X169459007Y-102739085D01*
X169530435Y-102560513D02*
X170280435Y-102560513D01*
X170280435Y-102560513D02*
X169744721Y-102310513D01*
X169744721Y-102310513D02*
X170280435Y-102060513D01*
X170280435Y-102060513D02*
X169530435Y-102060513D01*
X169530435Y-101703370D02*
X170280435Y-101703370D01*
X169530435Y-101346227D02*
X170280435Y-101346227D01*
X170280435Y-101346227D02*
X169530435Y-100917656D01*
X169530435Y-100917656D02*
X170280435Y-100917656D01*
X149603292Y-102667656D02*
X149603292Y-102917656D01*
X149210435Y-102917656D02*
X149960435Y-102917656D01*
X149960435Y-102917656D02*
X149960435Y-102560513D01*
X149210435Y-101917656D02*
X149210435Y-102274799D01*
X149210435Y-102274799D02*
X149960435Y-102274799D01*
X149210435Y-101667656D02*
X149960435Y-101667656D01*
X149210435Y-101310513D02*
X149960435Y-101310513D01*
X149960435Y-101310513D02*
X149960435Y-101024799D01*
X149960435Y-101024799D02*
X149924721Y-100953370D01*
X149924721Y-100953370D02*
X149889007Y-100917656D01*
X149889007Y-100917656D02*
X149817578Y-100881942D01*
X149817578Y-100881942D02*
X149710435Y-100881942D01*
X149710435Y-100881942D02*
X149639007Y-100917656D01*
X149639007Y-100917656D02*
X149603292Y-100953370D01*
X149603292Y-100953370D02*
X149567578Y-101024799D01*
X149567578Y-101024799D02*
X149567578Y-101310513D01*
D12*
X147009600Y-99370401D03*
X149549600Y-99370401D03*
X152089600Y-99370401D03*
X154629600Y-99370401D03*
X157169600Y-99370401D03*
X159709600Y-99370401D03*
X162249600Y-99370401D03*
X164789600Y-99370401D03*
X167329600Y-99370401D03*
X169869600Y-99370401D03*
X147009600Y-106640401D03*
X147009600Y-112420401D03*
D13*
X147509600Y-105210401D03*
D14*
X143329600Y-105210401D03*
D13*
X147509600Y-113850401D03*
D14*
X143329600Y-113850401D03*
D12*
X147014600Y-119690401D03*
X149554600Y-119690401D03*
X152094600Y-119690401D03*
X154634600Y-119690401D03*
X157174600Y-119690401D03*
X159714600Y-119690401D03*
X162254600Y-119690401D03*
X164794600Y-119690401D03*
X167334600Y-119690401D03*
X169874600Y-119690401D03*
M02*
