%TF.GenerationSoftware,KiCad,Pcbnew,8.0.2*%
%TF.CreationDate,2025-03-04T10:53:31+01:00*%
%TF.ProjectId,USB-C_PD_Module_PANELIZED,5553422d-435f-4504-945f-4d6f64756c65,rev?*%
%TF.SameCoordinates,Original*%
%TF.FileFunction,Legend,Top*%
%TF.FilePolarity,Positive*%
%FSLAX46Y46*%
G04 Gerber Fmt 4.6, Leading zero omitted, Abs format (unit mm)*
G04 Created by KiCad (PCBNEW 8.0.2) date 2025-03-04 10:53:31*
%MOMM*%
%LPD*%
G01*
G04 APERTURE LIST*
%ADD10C,0.150000*%
%ADD11C,0.120000*%
G04 APERTURE END LIST*
D10*
G36*
X134744654Y-21208463D02*
G01*
X134794445Y-21257029D01*
X134823137Y-21367599D01*
X134824396Y-21598943D01*
X134796094Y-21716593D01*
X134749261Y-21764608D01*
X134703612Y-21788309D01*
X134596113Y-21789293D01*
X134551571Y-21767864D01*
X134501779Y-21719298D01*
X134473088Y-21608728D01*
X134471829Y-21377383D01*
X134500131Y-21259734D01*
X134546964Y-21211719D01*
X134592613Y-21188018D01*
X134700111Y-21187034D01*
X134744654Y-21208463D01*
G37*
G36*
X133423489Y-21208590D02*
G01*
X133442820Y-21227084D01*
X133466158Y-21272034D01*
X133467009Y-21343919D01*
X133445542Y-21388540D01*
X133427046Y-21407874D01*
X133382317Y-21431096D01*
X133292123Y-21431529D01*
X133289344Y-21431039D01*
X133287019Y-21431554D01*
X133186585Y-21432035D01*
X133186125Y-21187810D01*
X133378377Y-21186887D01*
X133423489Y-21208590D01*
G37*
G36*
X131816346Y-21208590D02*
G01*
X131835677Y-21227084D01*
X131859015Y-21272034D01*
X131859866Y-21343919D01*
X131838399Y-21388540D01*
X131819903Y-21407874D01*
X131775174Y-21431096D01*
X131579442Y-21432035D01*
X131578982Y-21187810D01*
X131771234Y-21186887D01*
X131816346Y-21208590D01*
G37*
G36*
X135806334Y-22021497D02*
G01*
X131346922Y-22021497D01*
X131346922Y-21113164D01*
X131430255Y-21113164D01*
X131431696Y-21877796D01*
X131442895Y-21904832D01*
X131463587Y-21925524D01*
X131490623Y-21936723D01*
X131519887Y-21936723D01*
X131546923Y-21925524D01*
X131567615Y-21904832D01*
X131578814Y-21877796D01*
X131580255Y-21863164D01*
X131579722Y-21580663D01*
X131779409Y-21579705D01*
X131781588Y-21580432D01*
X131792708Y-21579641D01*
X131805601Y-21579580D01*
X131808090Y-21578548D01*
X131810778Y-21578358D01*
X131824510Y-21573103D01*
X131895783Y-21536098D01*
X131904067Y-21532667D01*
X131906950Y-21530300D01*
X131908382Y-21529557D01*
X131909680Y-21528059D01*
X131915432Y-21523339D01*
X131951378Y-21485764D01*
X131957362Y-21480576D01*
X131959321Y-21477462D01*
X131960473Y-21476259D01*
X131961230Y-21474429D01*
X131965194Y-21468133D01*
X131995147Y-21405870D01*
X131996186Y-21404832D01*
X131999525Y-21396770D01*
X132006163Y-21382973D01*
X132006353Y-21380285D01*
X132007385Y-21377796D01*
X132008826Y-21363164D01*
X132007688Y-21267047D01*
X132008237Y-21265402D01*
X132007555Y-21255812D01*
X132007385Y-21241389D01*
X132006353Y-21238899D01*
X132006163Y-21236212D01*
X132000908Y-21222481D01*
X131963902Y-21151204D01*
X131960472Y-21142924D01*
X131958106Y-21140041D01*
X131957362Y-21138608D01*
X131955863Y-21137308D01*
X131951145Y-21131559D01*
X131934849Y-21115968D01*
X132108878Y-21115968D01*
X132110866Y-21130536D01*
X132290015Y-21876880D01*
X132291407Y-21887357D01*
X132293324Y-21890669D01*
X132294229Y-21894436D01*
X132300611Y-21903256D01*
X132306069Y-21912682D01*
X132309126Y-21915022D01*
X132311385Y-21918143D01*
X132320663Y-21923852D01*
X132329307Y-21930469D01*
X132333025Y-21931460D01*
X132336307Y-21933480D01*
X132347067Y-21935204D01*
X132357583Y-21938009D01*
X132361397Y-21937502D01*
X132365202Y-21938112D01*
X132375800Y-21935588D01*
X132386591Y-21934155D01*
X132389922Y-21932226D01*
X132393670Y-21931334D01*
X132402494Y-21924947D01*
X132411916Y-21919493D01*
X132414256Y-21916435D01*
X132417377Y-21914177D01*
X132423084Y-21904901D01*
X132429703Y-21896255D01*
X132431728Y-21890855D01*
X132432713Y-21889255D01*
X132433000Y-21887463D01*
X132434866Y-21882489D01*
X132505258Y-21615804D01*
X132576143Y-21878944D01*
X132577797Y-21889255D01*
X132579796Y-21892504D01*
X132580807Y-21896255D01*
X132587423Y-21904899D01*
X132593133Y-21914177D01*
X132596255Y-21916436D01*
X132598594Y-21919492D01*
X132608008Y-21924942D01*
X132616840Y-21931334D01*
X132620590Y-21932226D01*
X132623919Y-21934154D01*
X132634703Y-21935587D01*
X132645308Y-21938112D01*
X132649112Y-21937502D01*
X132652927Y-21938009D01*
X132663448Y-21935203D01*
X132674203Y-21933479D01*
X132677482Y-21931461D01*
X132681203Y-21930469D01*
X132689849Y-21923850D01*
X132699125Y-21918143D01*
X132701383Y-21915022D01*
X132704441Y-21912682D01*
X132709895Y-21903260D01*
X132716282Y-21894436D01*
X132718160Y-21888985D01*
X132719103Y-21887357D01*
X132719342Y-21885555D01*
X132721072Y-21880536D01*
X132901632Y-21115967D01*
X132901183Y-21113164D01*
X133037398Y-21113164D01*
X133038839Y-21877796D01*
X133050038Y-21904832D01*
X133070730Y-21925524D01*
X133097766Y-21936723D01*
X133127030Y-21936723D01*
X133154066Y-21925524D01*
X133174758Y-21904832D01*
X133185957Y-21877796D01*
X133187398Y-21863164D01*
X133186865Y-21580663D01*
X133251602Y-21580353D01*
X133489098Y-21917335D01*
X133513777Y-21933061D01*
X133542595Y-21938147D01*
X133571166Y-21931817D01*
X133595140Y-21915035D01*
X133610866Y-21890357D01*
X133615952Y-21861539D01*
X133609622Y-21832968D01*
X133602412Y-21820155D01*
X133429008Y-21574114D01*
X133431653Y-21573103D01*
X133502926Y-21536098D01*
X133511210Y-21532667D01*
X133514093Y-21530300D01*
X133515525Y-21529557D01*
X133516823Y-21528059D01*
X133522575Y-21523339D01*
X133558521Y-21485764D01*
X133564505Y-21480576D01*
X133566464Y-21477462D01*
X133567616Y-21476259D01*
X133568373Y-21474429D01*
X133572337Y-21468133D01*
X133602290Y-21405870D01*
X133603329Y-21404832D01*
X133606668Y-21396770D01*
X133613306Y-21382973D01*
X133613496Y-21380285D01*
X133614528Y-21377796D01*
X133615969Y-21363164D01*
X134323113Y-21363164D01*
X134324448Y-21608431D01*
X134323202Y-21616809D01*
X134324543Y-21625885D01*
X134324554Y-21627796D01*
X134324977Y-21628817D01*
X134325352Y-21631354D01*
X134360268Y-21765916D01*
X134360268Y-21770652D01*
X134363557Y-21778593D01*
X134366013Y-21788057D01*
X134369333Y-21792538D01*
X134371467Y-21797689D01*
X134380794Y-21809054D01*
X134453087Y-21879569D01*
X134459272Y-21886700D01*
X134462448Y-21888699D01*
X134463588Y-21889811D01*
X134465420Y-21890569D01*
X134471715Y-21894532D01*
X134533977Y-21924485D01*
X134535016Y-21925524D01*
X134543077Y-21928863D01*
X134556875Y-21935501D01*
X134559562Y-21935691D01*
X134562052Y-21936723D01*
X134576684Y-21938164D01*
X134708313Y-21936959D01*
X134710160Y-21937575D01*
X134720374Y-21936849D01*
X134734173Y-21936723D01*
X134736662Y-21935691D01*
X134739350Y-21935501D01*
X134753082Y-21930246D01*
X134824358Y-21893239D01*
X134832638Y-21889810D01*
X134835520Y-21887444D01*
X134836954Y-21886700D01*
X134838253Y-21885201D01*
X134844003Y-21880483D01*
X134909002Y-21813842D01*
X134912790Y-21811570D01*
X134917755Y-21804867D01*
X134924759Y-21797688D01*
X134926892Y-21792537D01*
X134930212Y-21788057D01*
X134935159Y-21774212D01*
X134968595Y-21635223D01*
X134971672Y-21627796D01*
X134972566Y-21618717D01*
X134973025Y-21616810D01*
X134972861Y-21615713D01*
X134973113Y-21613164D01*
X134971777Y-21367900D01*
X134973025Y-21359518D01*
X134971682Y-21350439D01*
X134971672Y-21348532D01*
X134971249Y-21347511D01*
X134970874Y-21344974D01*
X134935957Y-21210411D01*
X134935957Y-21205676D01*
X134932667Y-21197733D01*
X134930212Y-21188271D01*
X134926892Y-21183790D01*
X134924759Y-21178640D01*
X134915431Y-21167274D01*
X134859956Y-21113164D01*
X135144541Y-21113164D01*
X135145982Y-21877796D01*
X135157181Y-21904832D01*
X135177873Y-21925524D01*
X135204909Y-21936723D01*
X135234173Y-21936723D01*
X135261209Y-21925524D01*
X135281901Y-21904832D01*
X135293100Y-21877796D01*
X135294541Y-21863164D01*
X135293994Y-21573247D01*
X135318638Y-21548488D01*
X135598044Y-21919005D01*
X135623224Y-21933914D01*
X135652193Y-21938052D01*
X135680541Y-21930790D01*
X135703953Y-21913232D01*
X135718862Y-21888051D01*
X135723001Y-21859082D01*
X135715738Y-21830734D01*
X135708112Y-21818164D01*
X135424528Y-21442106D01*
X135710473Y-21154832D01*
X135721671Y-21127795D01*
X135721671Y-21098532D01*
X135710473Y-21071496D01*
X135689780Y-21050803D01*
X135662744Y-21039605D01*
X135633481Y-21039605D01*
X135606444Y-21050803D01*
X135595079Y-21060131D01*
X135293598Y-21363014D01*
X135293100Y-21098532D01*
X135281901Y-21071496D01*
X135261209Y-21050804D01*
X135234173Y-21039605D01*
X135204909Y-21039605D01*
X135177873Y-21050804D01*
X135157181Y-21071496D01*
X135145982Y-21098532D01*
X135144541Y-21113164D01*
X134859956Y-21113164D01*
X134843143Y-21096765D01*
X134836954Y-21089628D01*
X134833775Y-21087627D01*
X134832638Y-21086518D01*
X134830810Y-21085760D01*
X134824511Y-21081796D01*
X134762247Y-21051842D01*
X134761209Y-21050804D01*
X134753148Y-21047465D01*
X134739350Y-21040827D01*
X134736662Y-21040636D01*
X134734173Y-21039605D01*
X134719541Y-21038164D01*
X134587911Y-21039368D01*
X134586065Y-21038753D01*
X134575850Y-21039478D01*
X134562052Y-21039605D01*
X134559562Y-21040636D01*
X134556875Y-21040827D01*
X134543143Y-21046082D01*
X134471872Y-21083085D01*
X134463588Y-21086517D01*
X134460702Y-21088885D01*
X134459272Y-21089628D01*
X134457973Y-21091124D01*
X134452223Y-21095845D01*
X134387223Y-21162485D01*
X134383435Y-21164758D01*
X134378468Y-21171460D01*
X134371467Y-21178639D01*
X134369333Y-21183789D01*
X134366013Y-21188271D01*
X134361066Y-21202117D01*
X134327633Y-21341098D01*
X134324554Y-21348532D01*
X134323659Y-21357618D01*
X134323202Y-21359519D01*
X134323364Y-21360610D01*
X134323113Y-21363164D01*
X133615969Y-21363164D01*
X133614831Y-21267047D01*
X133615380Y-21265402D01*
X133614698Y-21255812D01*
X133614528Y-21241389D01*
X133613496Y-21238899D01*
X133613306Y-21236212D01*
X133608051Y-21222481D01*
X133571045Y-21151204D01*
X133567615Y-21142924D01*
X133565249Y-21140041D01*
X133564505Y-21138608D01*
X133563006Y-21137308D01*
X133558288Y-21131559D01*
X133520715Y-21095612D01*
X133515525Y-21089628D01*
X133512410Y-21087667D01*
X133511209Y-21086518D01*
X133509381Y-21085760D01*
X133503082Y-21081796D01*
X133440818Y-21051842D01*
X133439780Y-21050804D01*
X133431719Y-21047465D01*
X133417921Y-21040827D01*
X133415233Y-21040636D01*
X133412744Y-21039605D01*
X133398112Y-21038164D01*
X133097766Y-21039605D01*
X133070730Y-21050804D01*
X133050038Y-21071496D01*
X133038839Y-21098532D01*
X133037398Y-21113164D01*
X132901183Y-21113164D01*
X132896999Y-21087073D01*
X132881663Y-21062151D01*
X132857956Y-21044994D01*
X132829488Y-21038216D01*
X132800593Y-21042848D01*
X132775671Y-21058185D01*
X132758515Y-21081892D01*
X132753724Y-21095792D01*
X132644106Y-21559957D01*
X132577500Y-21312698D01*
X132576246Y-21303257D01*
X132573835Y-21299093D01*
X132572560Y-21294359D01*
X132566544Y-21286499D01*
X132561584Y-21277932D01*
X132557726Y-21274978D01*
X132554773Y-21271121D01*
X132546205Y-21266160D01*
X132538346Y-21260145D01*
X132533653Y-21258893D01*
X132529448Y-21256459D01*
X132519632Y-21255154D01*
X132510070Y-21252605D01*
X132505255Y-21253244D01*
X132500440Y-21252605D01*
X132490872Y-21255156D01*
X132481062Y-21256460D01*
X132476859Y-21258892D01*
X132472164Y-21260145D01*
X132464299Y-21266164D01*
X132455737Y-21271122D01*
X132452785Y-21274977D01*
X132448926Y-21277932D01*
X132443964Y-21286501D01*
X132437950Y-21294359D01*
X132435254Y-21301545D01*
X132434264Y-21303257D01*
X132434072Y-21304698D01*
X132432787Y-21308126D01*
X132366541Y-21559097D01*
X132251996Y-21081892D01*
X132234839Y-21058185D01*
X132209917Y-21042849D01*
X132181022Y-21038216D01*
X132152554Y-21044994D01*
X132128847Y-21062151D01*
X132113511Y-21087073D01*
X132108878Y-21115968D01*
X131934849Y-21115968D01*
X131913572Y-21095612D01*
X131908382Y-21089628D01*
X131905267Y-21087667D01*
X131904066Y-21086518D01*
X131902238Y-21085760D01*
X131895939Y-21081796D01*
X131833675Y-21051842D01*
X131832637Y-21050804D01*
X131824576Y-21047465D01*
X131810778Y-21040827D01*
X131808090Y-21040636D01*
X131805601Y-21039605D01*
X131790969Y-21038164D01*
X131490623Y-21039605D01*
X131463587Y-21050804D01*
X131442895Y-21071496D01*
X131431696Y-21098532D01*
X131430255Y-21113164D01*
X131346922Y-21113164D01*
X131346922Y-20954831D01*
X135806334Y-20954831D01*
X135806334Y-22021497D01*
G37*
G36*
X170304654Y-21208463D02*
G01*
X170354445Y-21257029D01*
X170383137Y-21367599D01*
X170384396Y-21598943D01*
X170356094Y-21716593D01*
X170309261Y-21764608D01*
X170263612Y-21788309D01*
X170156113Y-21789293D01*
X170111571Y-21767864D01*
X170061779Y-21719298D01*
X170033088Y-21608728D01*
X170031829Y-21377383D01*
X170060131Y-21259734D01*
X170106964Y-21211719D01*
X170152613Y-21188018D01*
X170260111Y-21187034D01*
X170304654Y-21208463D01*
G37*
G36*
X168983489Y-21208590D02*
G01*
X169002820Y-21227084D01*
X169026158Y-21272034D01*
X169027009Y-21343919D01*
X169005542Y-21388540D01*
X168987046Y-21407874D01*
X168942317Y-21431096D01*
X168852123Y-21431529D01*
X168849344Y-21431039D01*
X168847019Y-21431554D01*
X168746585Y-21432035D01*
X168746125Y-21187810D01*
X168938377Y-21186887D01*
X168983489Y-21208590D01*
G37*
G36*
X167376346Y-21208590D02*
G01*
X167395677Y-21227084D01*
X167419015Y-21272034D01*
X167419866Y-21343919D01*
X167398399Y-21388540D01*
X167379903Y-21407874D01*
X167335174Y-21431096D01*
X167139442Y-21432035D01*
X167138982Y-21187810D01*
X167331234Y-21186887D01*
X167376346Y-21208590D01*
G37*
G36*
X171366334Y-22021497D02*
G01*
X166906922Y-22021497D01*
X166906922Y-21113164D01*
X166990255Y-21113164D01*
X166991696Y-21877796D01*
X167002895Y-21904832D01*
X167023587Y-21925524D01*
X167050623Y-21936723D01*
X167079887Y-21936723D01*
X167106923Y-21925524D01*
X167127615Y-21904832D01*
X167138814Y-21877796D01*
X167140255Y-21863164D01*
X167139722Y-21580663D01*
X167339409Y-21579705D01*
X167341588Y-21580432D01*
X167352708Y-21579641D01*
X167365601Y-21579580D01*
X167368090Y-21578548D01*
X167370778Y-21578358D01*
X167384510Y-21573103D01*
X167455783Y-21536098D01*
X167464067Y-21532667D01*
X167466950Y-21530300D01*
X167468382Y-21529557D01*
X167469680Y-21528059D01*
X167475432Y-21523339D01*
X167511378Y-21485764D01*
X167517362Y-21480576D01*
X167519321Y-21477462D01*
X167520473Y-21476259D01*
X167521230Y-21474429D01*
X167525194Y-21468133D01*
X167555147Y-21405870D01*
X167556186Y-21404832D01*
X167559525Y-21396770D01*
X167566163Y-21382973D01*
X167566353Y-21380285D01*
X167567385Y-21377796D01*
X167568826Y-21363164D01*
X167567688Y-21267047D01*
X167568237Y-21265402D01*
X167567555Y-21255812D01*
X167567385Y-21241389D01*
X167566353Y-21238899D01*
X167566163Y-21236212D01*
X167560908Y-21222481D01*
X167523902Y-21151204D01*
X167520472Y-21142924D01*
X167518106Y-21140041D01*
X167517362Y-21138608D01*
X167515863Y-21137308D01*
X167511145Y-21131559D01*
X167494849Y-21115968D01*
X167668878Y-21115968D01*
X167670866Y-21130536D01*
X167850015Y-21876880D01*
X167851407Y-21887357D01*
X167853324Y-21890669D01*
X167854229Y-21894436D01*
X167860611Y-21903256D01*
X167866069Y-21912682D01*
X167869126Y-21915022D01*
X167871385Y-21918143D01*
X167880663Y-21923852D01*
X167889307Y-21930469D01*
X167893025Y-21931460D01*
X167896307Y-21933480D01*
X167907067Y-21935204D01*
X167917583Y-21938009D01*
X167921397Y-21937502D01*
X167925202Y-21938112D01*
X167935800Y-21935588D01*
X167946591Y-21934155D01*
X167949922Y-21932226D01*
X167953670Y-21931334D01*
X167962494Y-21924947D01*
X167971916Y-21919493D01*
X167974256Y-21916435D01*
X167977377Y-21914177D01*
X167983084Y-21904901D01*
X167989703Y-21896255D01*
X167991728Y-21890855D01*
X167992713Y-21889255D01*
X167993000Y-21887463D01*
X167994866Y-21882489D01*
X168065258Y-21615804D01*
X168136143Y-21878944D01*
X168137797Y-21889255D01*
X168139796Y-21892504D01*
X168140807Y-21896255D01*
X168147423Y-21904899D01*
X168153133Y-21914177D01*
X168156255Y-21916436D01*
X168158594Y-21919492D01*
X168168008Y-21924942D01*
X168176840Y-21931334D01*
X168180590Y-21932226D01*
X168183919Y-21934154D01*
X168194703Y-21935587D01*
X168205308Y-21938112D01*
X168209112Y-21937502D01*
X168212927Y-21938009D01*
X168223448Y-21935203D01*
X168234203Y-21933479D01*
X168237482Y-21931461D01*
X168241203Y-21930469D01*
X168249849Y-21923850D01*
X168259125Y-21918143D01*
X168261383Y-21915022D01*
X168264441Y-21912682D01*
X168269895Y-21903260D01*
X168276282Y-21894436D01*
X168278160Y-21888985D01*
X168279103Y-21887357D01*
X168279342Y-21885555D01*
X168281072Y-21880536D01*
X168461632Y-21115967D01*
X168461183Y-21113164D01*
X168597398Y-21113164D01*
X168598839Y-21877796D01*
X168610038Y-21904832D01*
X168630730Y-21925524D01*
X168657766Y-21936723D01*
X168687030Y-21936723D01*
X168714066Y-21925524D01*
X168734758Y-21904832D01*
X168745957Y-21877796D01*
X168747398Y-21863164D01*
X168746865Y-21580663D01*
X168811602Y-21580353D01*
X169049098Y-21917335D01*
X169073777Y-21933061D01*
X169102595Y-21938147D01*
X169131166Y-21931817D01*
X169155140Y-21915035D01*
X169170866Y-21890357D01*
X169175952Y-21861539D01*
X169169622Y-21832968D01*
X169162412Y-21820155D01*
X168989008Y-21574114D01*
X168991653Y-21573103D01*
X169062926Y-21536098D01*
X169071210Y-21532667D01*
X169074093Y-21530300D01*
X169075525Y-21529557D01*
X169076823Y-21528059D01*
X169082575Y-21523339D01*
X169118521Y-21485764D01*
X169124505Y-21480576D01*
X169126464Y-21477462D01*
X169127616Y-21476259D01*
X169128373Y-21474429D01*
X169132337Y-21468133D01*
X169162290Y-21405870D01*
X169163329Y-21404832D01*
X169166668Y-21396770D01*
X169173306Y-21382973D01*
X169173496Y-21380285D01*
X169174528Y-21377796D01*
X169175969Y-21363164D01*
X169883113Y-21363164D01*
X169884448Y-21608431D01*
X169883202Y-21616809D01*
X169884543Y-21625885D01*
X169884554Y-21627796D01*
X169884977Y-21628817D01*
X169885352Y-21631354D01*
X169920268Y-21765916D01*
X169920268Y-21770652D01*
X169923557Y-21778593D01*
X169926013Y-21788057D01*
X169929333Y-21792538D01*
X169931467Y-21797689D01*
X169940794Y-21809054D01*
X170013087Y-21879569D01*
X170019272Y-21886700D01*
X170022448Y-21888699D01*
X170023588Y-21889811D01*
X170025420Y-21890569D01*
X170031715Y-21894532D01*
X170093977Y-21924485D01*
X170095016Y-21925524D01*
X170103077Y-21928863D01*
X170116875Y-21935501D01*
X170119562Y-21935691D01*
X170122052Y-21936723D01*
X170136684Y-21938164D01*
X170268313Y-21936959D01*
X170270160Y-21937575D01*
X170280374Y-21936849D01*
X170294173Y-21936723D01*
X170296662Y-21935691D01*
X170299350Y-21935501D01*
X170313082Y-21930246D01*
X170384358Y-21893239D01*
X170392638Y-21889810D01*
X170395520Y-21887444D01*
X170396954Y-21886700D01*
X170398253Y-21885201D01*
X170404003Y-21880483D01*
X170469002Y-21813842D01*
X170472790Y-21811570D01*
X170477755Y-21804867D01*
X170484759Y-21797688D01*
X170486892Y-21792537D01*
X170490212Y-21788057D01*
X170495159Y-21774212D01*
X170528595Y-21635223D01*
X170531672Y-21627796D01*
X170532566Y-21618717D01*
X170533025Y-21616810D01*
X170532861Y-21615713D01*
X170533113Y-21613164D01*
X170531777Y-21367900D01*
X170533025Y-21359518D01*
X170531682Y-21350439D01*
X170531672Y-21348532D01*
X170531249Y-21347511D01*
X170530874Y-21344974D01*
X170495957Y-21210411D01*
X170495957Y-21205676D01*
X170492667Y-21197733D01*
X170490212Y-21188271D01*
X170486892Y-21183790D01*
X170484759Y-21178640D01*
X170475431Y-21167274D01*
X170419956Y-21113164D01*
X170704541Y-21113164D01*
X170705982Y-21877796D01*
X170717181Y-21904832D01*
X170737873Y-21925524D01*
X170764909Y-21936723D01*
X170794173Y-21936723D01*
X170821209Y-21925524D01*
X170841901Y-21904832D01*
X170853100Y-21877796D01*
X170854541Y-21863164D01*
X170853994Y-21573247D01*
X170878638Y-21548488D01*
X171158044Y-21919005D01*
X171183224Y-21933914D01*
X171212193Y-21938052D01*
X171240541Y-21930790D01*
X171263953Y-21913232D01*
X171278862Y-21888051D01*
X171283001Y-21859082D01*
X171275738Y-21830734D01*
X171268112Y-21818164D01*
X170984528Y-21442106D01*
X171270473Y-21154832D01*
X171281671Y-21127795D01*
X171281671Y-21098532D01*
X171270473Y-21071496D01*
X171249780Y-21050803D01*
X171222744Y-21039605D01*
X171193481Y-21039605D01*
X171166444Y-21050803D01*
X171155079Y-21060131D01*
X170853598Y-21363014D01*
X170853100Y-21098532D01*
X170841901Y-21071496D01*
X170821209Y-21050804D01*
X170794173Y-21039605D01*
X170764909Y-21039605D01*
X170737873Y-21050804D01*
X170717181Y-21071496D01*
X170705982Y-21098532D01*
X170704541Y-21113164D01*
X170419956Y-21113164D01*
X170403143Y-21096765D01*
X170396954Y-21089628D01*
X170393775Y-21087627D01*
X170392638Y-21086518D01*
X170390810Y-21085760D01*
X170384511Y-21081796D01*
X170322247Y-21051842D01*
X170321209Y-21050804D01*
X170313148Y-21047465D01*
X170299350Y-21040827D01*
X170296662Y-21040636D01*
X170294173Y-21039605D01*
X170279541Y-21038164D01*
X170147911Y-21039368D01*
X170146065Y-21038753D01*
X170135850Y-21039478D01*
X170122052Y-21039605D01*
X170119562Y-21040636D01*
X170116875Y-21040827D01*
X170103143Y-21046082D01*
X170031872Y-21083085D01*
X170023588Y-21086517D01*
X170020702Y-21088885D01*
X170019272Y-21089628D01*
X170017973Y-21091124D01*
X170012223Y-21095845D01*
X169947223Y-21162485D01*
X169943435Y-21164758D01*
X169938468Y-21171460D01*
X169931467Y-21178639D01*
X169929333Y-21183789D01*
X169926013Y-21188271D01*
X169921066Y-21202117D01*
X169887633Y-21341098D01*
X169884554Y-21348532D01*
X169883659Y-21357618D01*
X169883202Y-21359519D01*
X169883364Y-21360610D01*
X169883113Y-21363164D01*
X169175969Y-21363164D01*
X169174831Y-21267047D01*
X169175380Y-21265402D01*
X169174698Y-21255812D01*
X169174528Y-21241389D01*
X169173496Y-21238899D01*
X169173306Y-21236212D01*
X169168051Y-21222481D01*
X169131045Y-21151204D01*
X169127615Y-21142924D01*
X169125249Y-21140041D01*
X169124505Y-21138608D01*
X169123006Y-21137308D01*
X169118288Y-21131559D01*
X169080715Y-21095612D01*
X169075525Y-21089628D01*
X169072410Y-21087667D01*
X169071209Y-21086518D01*
X169069381Y-21085760D01*
X169063082Y-21081796D01*
X169000818Y-21051842D01*
X168999780Y-21050804D01*
X168991719Y-21047465D01*
X168977921Y-21040827D01*
X168975233Y-21040636D01*
X168972744Y-21039605D01*
X168958112Y-21038164D01*
X168657766Y-21039605D01*
X168630730Y-21050804D01*
X168610038Y-21071496D01*
X168598839Y-21098532D01*
X168597398Y-21113164D01*
X168461183Y-21113164D01*
X168456999Y-21087073D01*
X168441663Y-21062151D01*
X168417956Y-21044994D01*
X168389488Y-21038216D01*
X168360593Y-21042848D01*
X168335671Y-21058185D01*
X168318515Y-21081892D01*
X168313724Y-21095792D01*
X168204106Y-21559957D01*
X168137500Y-21312698D01*
X168136246Y-21303257D01*
X168133835Y-21299093D01*
X168132560Y-21294359D01*
X168126544Y-21286499D01*
X168121584Y-21277932D01*
X168117726Y-21274978D01*
X168114773Y-21271121D01*
X168106205Y-21266160D01*
X168098346Y-21260145D01*
X168093653Y-21258893D01*
X168089448Y-21256459D01*
X168079632Y-21255154D01*
X168070070Y-21252605D01*
X168065255Y-21253244D01*
X168060440Y-21252605D01*
X168050872Y-21255156D01*
X168041062Y-21256460D01*
X168036859Y-21258892D01*
X168032164Y-21260145D01*
X168024299Y-21266164D01*
X168015737Y-21271122D01*
X168012785Y-21274977D01*
X168008926Y-21277932D01*
X168003964Y-21286501D01*
X167997950Y-21294359D01*
X167995254Y-21301545D01*
X167994264Y-21303257D01*
X167994072Y-21304698D01*
X167992787Y-21308126D01*
X167926541Y-21559097D01*
X167811996Y-21081892D01*
X167794839Y-21058185D01*
X167769917Y-21042849D01*
X167741022Y-21038216D01*
X167712554Y-21044994D01*
X167688847Y-21062151D01*
X167673511Y-21087073D01*
X167668878Y-21115968D01*
X167494849Y-21115968D01*
X167473572Y-21095612D01*
X167468382Y-21089628D01*
X167465267Y-21087667D01*
X167464066Y-21086518D01*
X167462238Y-21085760D01*
X167455939Y-21081796D01*
X167393675Y-21051842D01*
X167392637Y-21050804D01*
X167384576Y-21047465D01*
X167370778Y-21040827D01*
X167368090Y-21040636D01*
X167365601Y-21039605D01*
X167350969Y-21038164D01*
X167050623Y-21039605D01*
X167023587Y-21050804D01*
X167002895Y-21071496D01*
X166991696Y-21098532D01*
X166990255Y-21113164D01*
X166906922Y-21113164D01*
X166906922Y-20954831D01*
X171366334Y-20954831D01*
X171366334Y-22021497D01*
G37*
G36*
X99184654Y-21208463D02*
G01*
X99234445Y-21257029D01*
X99263137Y-21367599D01*
X99264396Y-21598943D01*
X99236094Y-21716593D01*
X99189261Y-21764608D01*
X99143612Y-21788309D01*
X99036113Y-21789293D01*
X98991571Y-21767864D01*
X98941779Y-21719298D01*
X98913088Y-21608728D01*
X98911829Y-21377383D01*
X98940131Y-21259734D01*
X98986964Y-21211719D01*
X99032613Y-21188018D01*
X99140111Y-21187034D01*
X99184654Y-21208463D01*
G37*
G36*
X97863489Y-21208590D02*
G01*
X97882820Y-21227084D01*
X97906158Y-21272034D01*
X97907009Y-21343919D01*
X97885542Y-21388540D01*
X97867046Y-21407874D01*
X97822317Y-21431096D01*
X97732123Y-21431529D01*
X97729344Y-21431039D01*
X97727019Y-21431554D01*
X97626585Y-21432035D01*
X97626125Y-21187810D01*
X97818377Y-21186887D01*
X97863489Y-21208590D01*
G37*
G36*
X96256346Y-21208590D02*
G01*
X96275677Y-21227084D01*
X96299015Y-21272034D01*
X96299866Y-21343919D01*
X96278399Y-21388540D01*
X96259903Y-21407874D01*
X96215174Y-21431096D01*
X96019442Y-21432035D01*
X96018982Y-21187810D01*
X96211234Y-21186887D01*
X96256346Y-21208590D01*
G37*
G36*
X100246334Y-22021497D02*
G01*
X95786922Y-22021497D01*
X95786922Y-21113164D01*
X95870255Y-21113164D01*
X95871696Y-21877796D01*
X95882895Y-21904832D01*
X95903587Y-21925524D01*
X95930623Y-21936723D01*
X95959887Y-21936723D01*
X95986923Y-21925524D01*
X96007615Y-21904832D01*
X96018814Y-21877796D01*
X96020255Y-21863164D01*
X96019722Y-21580663D01*
X96219409Y-21579705D01*
X96221588Y-21580432D01*
X96232708Y-21579641D01*
X96245601Y-21579580D01*
X96248090Y-21578548D01*
X96250778Y-21578358D01*
X96264510Y-21573103D01*
X96335783Y-21536098D01*
X96344067Y-21532667D01*
X96346950Y-21530300D01*
X96348382Y-21529557D01*
X96349680Y-21528059D01*
X96355432Y-21523339D01*
X96391378Y-21485764D01*
X96397362Y-21480576D01*
X96399321Y-21477462D01*
X96400473Y-21476259D01*
X96401230Y-21474429D01*
X96405194Y-21468133D01*
X96435147Y-21405870D01*
X96436186Y-21404832D01*
X96439525Y-21396770D01*
X96446163Y-21382973D01*
X96446353Y-21380285D01*
X96447385Y-21377796D01*
X96448826Y-21363164D01*
X96447688Y-21267047D01*
X96448237Y-21265402D01*
X96447555Y-21255812D01*
X96447385Y-21241389D01*
X96446353Y-21238899D01*
X96446163Y-21236212D01*
X96440908Y-21222481D01*
X96403902Y-21151204D01*
X96400472Y-21142924D01*
X96398106Y-21140041D01*
X96397362Y-21138608D01*
X96395863Y-21137308D01*
X96391145Y-21131559D01*
X96374849Y-21115968D01*
X96548878Y-21115968D01*
X96550866Y-21130536D01*
X96730015Y-21876880D01*
X96731407Y-21887357D01*
X96733324Y-21890669D01*
X96734229Y-21894436D01*
X96740611Y-21903256D01*
X96746069Y-21912682D01*
X96749126Y-21915022D01*
X96751385Y-21918143D01*
X96760663Y-21923852D01*
X96769307Y-21930469D01*
X96773025Y-21931460D01*
X96776307Y-21933480D01*
X96787067Y-21935204D01*
X96797583Y-21938009D01*
X96801397Y-21937502D01*
X96805202Y-21938112D01*
X96815800Y-21935588D01*
X96826591Y-21934155D01*
X96829922Y-21932226D01*
X96833670Y-21931334D01*
X96842494Y-21924947D01*
X96851916Y-21919493D01*
X96854256Y-21916435D01*
X96857377Y-21914177D01*
X96863084Y-21904901D01*
X96869703Y-21896255D01*
X96871728Y-21890855D01*
X96872713Y-21889255D01*
X96873000Y-21887463D01*
X96874866Y-21882489D01*
X96945258Y-21615804D01*
X97016143Y-21878944D01*
X97017797Y-21889255D01*
X97019796Y-21892504D01*
X97020807Y-21896255D01*
X97027423Y-21904899D01*
X97033133Y-21914177D01*
X97036255Y-21916436D01*
X97038594Y-21919492D01*
X97048008Y-21924942D01*
X97056840Y-21931334D01*
X97060590Y-21932226D01*
X97063919Y-21934154D01*
X97074703Y-21935587D01*
X97085308Y-21938112D01*
X97089112Y-21937502D01*
X97092927Y-21938009D01*
X97103448Y-21935203D01*
X97114203Y-21933479D01*
X97117482Y-21931461D01*
X97121203Y-21930469D01*
X97129849Y-21923850D01*
X97139125Y-21918143D01*
X97141383Y-21915022D01*
X97144441Y-21912682D01*
X97149895Y-21903260D01*
X97156282Y-21894436D01*
X97158160Y-21888985D01*
X97159103Y-21887357D01*
X97159342Y-21885555D01*
X97161072Y-21880536D01*
X97341632Y-21115967D01*
X97341183Y-21113164D01*
X97477398Y-21113164D01*
X97478839Y-21877796D01*
X97490038Y-21904832D01*
X97510730Y-21925524D01*
X97537766Y-21936723D01*
X97567030Y-21936723D01*
X97594066Y-21925524D01*
X97614758Y-21904832D01*
X97625957Y-21877796D01*
X97627398Y-21863164D01*
X97626865Y-21580663D01*
X97691602Y-21580353D01*
X97929098Y-21917335D01*
X97953777Y-21933061D01*
X97982595Y-21938147D01*
X98011166Y-21931817D01*
X98035140Y-21915035D01*
X98050866Y-21890357D01*
X98055952Y-21861539D01*
X98049622Y-21832968D01*
X98042412Y-21820155D01*
X97869008Y-21574114D01*
X97871653Y-21573103D01*
X97942926Y-21536098D01*
X97951210Y-21532667D01*
X97954093Y-21530300D01*
X97955525Y-21529557D01*
X97956823Y-21528059D01*
X97962575Y-21523339D01*
X97998521Y-21485764D01*
X98004505Y-21480576D01*
X98006464Y-21477462D01*
X98007616Y-21476259D01*
X98008373Y-21474429D01*
X98012337Y-21468133D01*
X98042290Y-21405870D01*
X98043329Y-21404832D01*
X98046668Y-21396770D01*
X98053306Y-21382973D01*
X98053496Y-21380285D01*
X98054528Y-21377796D01*
X98055969Y-21363164D01*
X98763113Y-21363164D01*
X98764448Y-21608431D01*
X98763202Y-21616809D01*
X98764543Y-21625885D01*
X98764554Y-21627796D01*
X98764977Y-21628817D01*
X98765352Y-21631354D01*
X98800268Y-21765916D01*
X98800268Y-21770652D01*
X98803557Y-21778593D01*
X98806013Y-21788057D01*
X98809333Y-21792538D01*
X98811467Y-21797689D01*
X98820794Y-21809054D01*
X98893087Y-21879569D01*
X98899272Y-21886700D01*
X98902448Y-21888699D01*
X98903588Y-21889811D01*
X98905420Y-21890569D01*
X98911715Y-21894532D01*
X98973977Y-21924485D01*
X98975016Y-21925524D01*
X98983077Y-21928863D01*
X98996875Y-21935501D01*
X98999562Y-21935691D01*
X99002052Y-21936723D01*
X99016684Y-21938164D01*
X99148313Y-21936959D01*
X99150160Y-21937575D01*
X99160374Y-21936849D01*
X99174173Y-21936723D01*
X99176662Y-21935691D01*
X99179350Y-21935501D01*
X99193082Y-21930246D01*
X99264358Y-21893239D01*
X99272638Y-21889810D01*
X99275520Y-21887444D01*
X99276954Y-21886700D01*
X99278253Y-21885201D01*
X99284003Y-21880483D01*
X99349002Y-21813842D01*
X99352790Y-21811570D01*
X99357755Y-21804867D01*
X99364759Y-21797688D01*
X99366892Y-21792537D01*
X99370212Y-21788057D01*
X99375159Y-21774212D01*
X99408595Y-21635223D01*
X99411672Y-21627796D01*
X99412566Y-21618717D01*
X99413025Y-21616810D01*
X99412861Y-21615713D01*
X99413113Y-21613164D01*
X99411777Y-21367900D01*
X99413025Y-21359518D01*
X99411682Y-21350439D01*
X99411672Y-21348532D01*
X99411249Y-21347511D01*
X99410874Y-21344974D01*
X99375957Y-21210411D01*
X99375957Y-21205676D01*
X99372667Y-21197733D01*
X99370212Y-21188271D01*
X99366892Y-21183790D01*
X99364759Y-21178640D01*
X99355431Y-21167274D01*
X99299956Y-21113164D01*
X99584541Y-21113164D01*
X99585982Y-21877796D01*
X99597181Y-21904832D01*
X99617873Y-21925524D01*
X99644909Y-21936723D01*
X99674173Y-21936723D01*
X99701209Y-21925524D01*
X99721901Y-21904832D01*
X99733100Y-21877796D01*
X99734541Y-21863164D01*
X99733994Y-21573247D01*
X99758638Y-21548488D01*
X100038044Y-21919005D01*
X100063224Y-21933914D01*
X100092193Y-21938052D01*
X100120541Y-21930790D01*
X100143953Y-21913232D01*
X100158862Y-21888051D01*
X100163001Y-21859082D01*
X100155738Y-21830734D01*
X100148112Y-21818164D01*
X99864528Y-21442106D01*
X100150473Y-21154832D01*
X100161671Y-21127795D01*
X100161671Y-21098532D01*
X100150473Y-21071496D01*
X100129780Y-21050803D01*
X100102744Y-21039605D01*
X100073481Y-21039605D01*
X100046444Y-21050803D01*
X100035079Y-21060131D01*
X99733598Y-21363014D01*
X99733100Y-21098532D01*
X99721901Y-21071496D01*
X99701209Y-21050804D01*
X99674173Y-21039605D01*
X99644909Y-21039605D01*
X99617873Y-21050804D01*
X99597181Y-21071496D01*
X99585982Y-21098532D01*
X99584541Y-21113164D01*
X99299956Y-21113164D01*
X99283143Y-21096765D01*
X99276954Y-21089628D01*
X99273775Y-21087627D01*
X99272638Y-21086518D01*
X99270810Y-21085760D01*
X99264511Y-21081796D01*
X99202247Y-21051842D01*
X99201209Y-21050804D01*
X99193148Y-21047465D01*
X99179350Y-21040827D01*
X99176662Y-21040636D01*
X99174173Y-21039605D01*
X99159541Y-21038164D01*
X99027911Y-21039368D01*
X99026065Y-21038753D01*
X99015850Y-21039478D01*
X99002052Y-21039605D01*
X98999562Y-21040636D01*
X98996875Y-21040827D01*
X98983143Y-21046082D01*
X98911872Y-21083085D01*
X98903588Y-21086517D01*
X98900702Y-21088885D01*
X98899272Y-21089628D01*
X98897973Y-21091124D01*
X98892223Y-21095845D01*
X98827223Y-21162485D01*
X98823435Y-21164758D01*
X98818468Y-21171460D01*
X98811467Y-21178639D01*
X98809333Y-21183789D01*
X98806013Y-21188271D01*
X98801066Y-21202117D01*
X98767633Y-21341098D01*
X98764554Y-21348532D01*
X98763659Y-21357618D01*
X98763202Y-21359519D01*
X98763364Y-21360610D01*
X98763113Y-21363164D01*
X98055969Y-21363164D01*
X98054831Y-21267047D01*
X98055380Y-21265402D01*
X98054698Y-21255812D01*
X98054528Y-21241389D01*
X98053496Y-21238899D01*
X98053306Y-21236212D01*
X98048051Y-21222481D01*
X98011045Y-21151204D01*
X98007615Y-21142924D01*
X98005249Y-21140041D01*
X98004505Y-21138608D01*
X98003006Y-21137308D01*
X97998288Y-21131559D01*
X97960715Y-21095612D01*
X97955525Y-21089628D01*
X97952410Y-21087667D01*
X97951209Y-21086518D01*
X97949381Y-21085760D01*
X97943082Y-21081796D01*
X97880818Y-21051842D01*
X97879780Y-21050804D01*
X97871719Y-21047465D01*
X97857921Y-21040827D01*
X97855233Y-21040636D01*
X97852744Y-21039605D01*
X97838112Y-21038164D01*
X97537766Y-21039605D01*
X97510730Y-21050804D01*
X97490038Y-21071496D01*
X97478839Y-21098532D01*
X97477398Y-21113164D01*
X97341183Y-21113164D01*
X97336999Y-21087073D01*
X97321663Y-21062151D01*
X97297956Y-21044994D01*
X97269488Y-21038216D01*
X97240593Y-21042848D01*
X97215671Y-21058185D01*
X97198515Y-21081892D01*
X97193724Y-21095792D01*
X97084106Y-21559957D01*
X97017500Y-21312698D01*
X97016246Y-21303257D01*
X97013835Y-21299093D01*
X97012560Y-21294359D01*
X97006544Y-21286499D01*
X97001584Y-21277932D01*
X96997726Y-21274978D01*
X96994773Y-21271121D01*
X96986205Y-21266160D01*
X96978346Y-21260145D01*
X96973653Y-21258893D01*
X96969448Y-21256459D01*
X96959632Y-21255154D01*
X96950070Y-21252605D01*
X96945255Y-21253244D01*
X96940440Y-21252605D01*
X96930872Y-21255156D01*
X96921062Y-21256460D01*
X96916859Y-21258892D01*
X96912164Y-21260145D01*
X96904299Y-21266164D01*
X96895737Y-21271122D01*
X96892785Y-21274977D01*
X96888926Y-21277932D01*
X96883964Y-21286501D01*
X96877950Y-21294359D01*
X96875254Y-21301545D01*
X96874264Y-21303257D01*
X96874072Y-21304698D01*
X96872787Y-21308126D01*
X96806541Y-21559097D01*
X96691996Y-21081892D01*
X96674839Y-21058185D01*
X96649917Y-21042849D01*
X96621022Y-21038216D01*
X96592554Y-21044994D01*
X96568847Y-21062151D01*
X96553511Y-21087073D01*
X96548878Y-21115968D01*
X96374849Y-21115968D01*
X96353572Y-21095612D01*
X96348382Y-21089628D01*
X96345267Y-21087667D01*
X96344066Y-21086518D01*
X96342238Y-21085760D01*
X96335939Y-21081796D01*
X96273675Y-21051842D01*
X96272637Y-21050804D01*
X96264576Y-21047465D01*
X96250778Y-21040827D01*
X96248090Y-21040636D01*
X96245601Y-21039605D01*
X96230969Y-21038164D01*
X95930623Y-21039605D01*
X95903587Y-21050804D01*
X95882895Y-21071496D01*
X95871696Y-21098532D01*
X95870255Y-21113164D01*
X95786922Y-21113164D01*
X95786922Y-20954831D01*
X100246334Y-20954831D01*
X100246334Y-22021497D01*
G37*
D11*
%TO.C,R1*%
X107833064Y-22313000D02*
X107378936Y-22313000D01*
X107833064Y-23783000D02*
X107378936Y-23783000D01*
%TO.C,U1*%
X176690000Y-28780000D02*
X175900000Y-28780000D01*
X176690000Y-31600000D02*
X175690000Y-31600000D01*
X175570000Y-28780000D02*
X175290000Y-28780000D01*
X175570000Y-28500000D01*
X175570000Y-28780000D01*
G36*
X175570000Y-28780000D02*
G01*
X175290000Y-28780000D01*
X175570000Y-28500000D01*
X175570000Y-28780000D01*
G37*
%TO.C,C2*%
X194781248Y-22313000D02*
X195303752Y-22313000D01*
X194781248Y-23783000D02*
X195303752Y-23783000D01*
%TO.C,D2*%
X131370500Y-22313000D02*
X131370500Y-23783000D01*
X131370500Y-23783000D02*
X133655500Y-23783000D01*
X133655500Y-22313000D02*
X131370500Y-22313000D01*
%TO.C,C5*%
X147003000Y-35628252D02*
X147003000Y-35105748D01*
X148473000Y-35628252D02*
X148473000Y-35105748D01*
%TO.C,R1*%
X143393064Y-22313000D02*
X142938936Y-22313000D01*
X143393064Y-23783000D02*
X142938936Y-23783000D01*
%TO.C,C5*%
X182563000Y-35628252D02*
X182563000Y-35105748D01*
X184033000Y-35628252D02*
X184033000Y-35105748D01*
%TO.C,R3*%
X144971000Y-35594064D02*
X144971000Y-35139936D01*
X146441000Y-35594064D02*
X146441000Y-35139936D01*
%TO.C,R2*%
X135930436Y-22313000D02*
X136384564Y-22313000D01*
X135930436Y-23783000D02*
X136384564Y-23783000D01*
%TO.C,D2*%
X95810500Y-22313000D02*
X95810500Y-23783000D01*
X95810500Y-23783000D02*
X98095500Y-23783000D01*
X98095500Y-22313000D02*
X95810500Y-22313000D01*
%TO.C,JP1*%
X138313500Y-23348000D02*
X138313500Y-22748000D01*
X139013500Y-22048000D02*
X140413500Y-22048000D01*
X140413500Y-24048000D02*
X139013500Y-24048000D01*
X141113500Y-22748000D02*
X141113500Y-23348000D01*
X138313500Y-22748000D02*
G75*
G02*
X139013500Y-22048000I699999J1D01*
G01*
X139013500Y-24048000D02*
G75*
G02*
X138313500Y-23348000I-1J699999D01*
G01*
X140413500Y-22048000D02*
G75*
G02*
X141113500Y-22748000I0J-700000D01*
G01*
X141113500Y-23348000D02*
G75*
G02*
X140413500Y-24048000I-700000J0D01*
G01*
%TO.C,R5*%
X196151936Y-31838000D02*
X196606064Y-31838000D01*
X196151936Y-33308000D02*
X196606064Y-33308000D01*
%TO.C,R6*%
X125794000Y-35520936D02*
X125794000Y-35975064D01*
X127264000Y-35520936D02*
X127264000Y-35975064D01*
%TO.C,C3*%
X123661248Y-24853000D02*
X124183752Y-24853000D01*
X123661248Y-26323000D02*
X124183752Y-26323000D01*
%TO.C,R5*%
X160591936Y-31838000D02*
X161046064Y-31838000D01*
X160591936Y-33308000D02*
X161046064Y-33308000D01*
%TO.C,R4*%
X159449000Y-35975064D02*
X159449000Y-35520936D01*
X160919000Y-35975064D02*
X160919000Y-35520936D01*
%TO.C,J1*%
X99005000Y-25490000D02*
X100705000Y-25490000D01*
X99005000Y-34830000D02*
X100705000Y-34830000D01*
%TO.C,C4*%
X115293752Y-26758000D02*
X114771248Y-26758000D01*
X115293752Y-28228000D02*
X114771248Y-28228000D01*
%TO.C,U1*%
X105570000Y-28780000D02*
X104780000Y-28780000D01*
X105570000Y-31600000D02*
X104570000Y-31600000D01*
X104450000Y-28780000D02*
X104170000Y-28780000D01*
X104450000Y-28500000D01*
X104450000Y-28780000D01*
G36*
X104450000Y-28780000D02*
G01*
X104170000Y-28780000D01*
X104450000Y-28500000D01*
X104450000Y-28780000D01*
G37*
%TO.C,C1*%
X159221248Y-27393000D02*
X159743752Y-27393000D01*
X159221248Y-28863000D02*
X159743752Y-28863000D01*
%TO.C,R4*%
X123889000Y-35975064D02*
X123889000Y-35520936D01*
X125359000Y-35975064D02*
X125359000Y-35520936D01*
%TO.C,J1*%
X134565000Y-25490000D02*
X136265000Y-25490000D01*
X134565000Y-34830000D02*
X136265000Y-34830000D01*
%TO.C,R6*%
X161354000Y-35520936D02*
X161354000Y-35975064D01*
X162824000Y-35520936D02*
X162824000Y-35975064D01*
%TO.C,JP1*%
X102753500Y-23348000D02*
X102753500Y-22748000D01*
X103453500Y-22048000D02*
X104853500Y-22048000D01*
X104853500Y-24048000D02*
X103453500Y-24048000D01*
X105553500Y-22748000D02*
X105553500Y-23348000D01*
X102753500Y-22748000D02*
G75*
G02*
X103453500Y-22048000I699999J1D01*
G01*
X103453500Y-24048000D02*
G75*
G02*
X102753500Y-23348000I-1J699999D01*
G01*
X104853500Y-22048000D02*
G75*
G02*
X105553500Y-22748000I0J-700000D01*
G01*
X105553500Y-23348000D02*
G75*
G02*
X104853500Y-24048000I-700000J0D01*
G01*
%TO.C,C4*%
X150853752Y-26758000D02*
X150331248Y-26758000D01*
X150853752Y-28228000D02*
X150331248Y-28228000D01*
%TO.C,R3*%
X180531000Y-35594064D02*
X180531000Y-35139936D01*
X182001000Y-35594064D02*
X182001000Y-35139936D01*
%TO.C,D1*%
X156644000Y-37473000D02*
X156644000Y-33463000D01*
X156644000Y-37473000D02*
X158644000Y-37473000D01*
X158644000Y-37473000D02*
X158644000Y-33463000D01*
%TO.C,R3*%
X109411000Y-35594064D02*
X109411000Y-35139936D01*
X110881000Y-35594064D02*
X110881000Y-35139936D01*
%TO.C,U3*%
X139770000Y-25731000D02*
X139770000Y-27731000D01*
X141990000Y-25731000D02*
X141990000Y-27731000D01*
X142170000Y-25491000D02*
X141890000Y-25491000D01*
X141890000Y-25211000D01*
X142170000Y-25491000D01*
G36*
X142170000Y-25491000D02*
G01*
X141890000Y-25491000D01*
X141890000Y-25211000D01*
X142170000Y-25491000D01*
G37*
%TO.C,C2*%
X159221248Y-22313000D02*
X159743752Y-22313000D01*
X159221248Y-23783000D02*
X159743752Y-23783000D01*
%TO.C,R6*%
X196914000Y-35520936D02*
X196914000Y-35975064D01*
X198384000Y-35520936D02*
X198384000Y-35975064D01*
%TO.C,R5*%
X125031936Y-31838000D02*
X125486064Y-31838000D01*
X125031936Y-33308000D02*
X125486064Y-33308000D01*
%TO.C,U2*%
X139770000Y-34558000D02*
X139770000Y-32558000D01*
X141990000Y-34558000D02*
X141990000Y-32558000D01*
X139870000Y-35078000D02*
X139590000Y-34798000D01*
X139870000Y-34798000D01*
X139870000Y-35078000D01*
G36*
X139870000Y-35078000D02*
G01*
X139590000Y-34798000D01*
X139870000Y-34798000D01*
X139870000Y-35078000D01*
G37*
%TO.C,D1*%
X192204000Y-37473000D02*
X192204000Y-33463000D01*
X192204000Y-37473000D02*
X194204000Y-37473000D01*
X194204000Y-37473000D02*
X194204000Y-33463000D01*
%TO.C,U3*%
X104210000Y-25731000D02*
X104210000Y-27731000D01*
X106430000Y-25731000D02*
X106430000Y-27731000D01*
X106610000Y-25491000D02*
X106330000Y-25491000D01*
X106330000Y-25211000D01*
X106610000Y-25491000D01*
G36*
X106610000Y-25491000D02*
G01*
X106330000Y-25491000D01*
X106330000Y-25211000D01*
X106610000Y-25491000D01*
G37*
%TO.C,U1*%
X141130000Y-28780000D02*
X140340000Y-28780000D01*
X141130000Y-31600000D02*
X140130000Y-31600000D01*
X140010000Y-28780000D02*
X139730000Y-28780000D01*
X140010000Y-28500000D01*
X140010000Y-28780000D01*
G36*
X140010000Y-28780000D02*
G01*
X139730000Y-28780000D01*
X140010000Y-28500000D01*
X140010000Y-28780000D01*
G37*
%TO.C,R1*%
X178953064Y-22313000D02*
X178498936Y-22313000D01*
X178953064Y-23783000D02*
X178498936Y-23783000D01*
%TO.C,J1*%
X170125000Y-25490000D02*
X171825000Y-25490000D01*
X170125000Y-34830000D02*
X171825000Y-34830000D01*
%TO.C,C3*%
X194781248Y-24853000D02*
X195303752Y-24853000D01*
X194781248Y-26323000D02*
X195303752Y-26323000D01*
%TO.C,C2*%
X123661248Y-22313000D02*
X124183752Y-22313000D01*
X123661248Y-23783000D02*
X124183752Y-23783000D01*
%TO.C,U4*%
X117312500Y-24113000D02*
X117787500Y-24113000D01*
X117312500Y-24588000D02*
X117312500Y-24113000D01*
X117312500Y-27858000D02*
X117312500Y-28333000D01*
X117312500Y-28333000D02*
X117787500Y-28333000D01*
X121057500Y-24113000D02*
X121292500Y-24113000D01*
X121532500Y-24588000D02*
X121532500Y-24413000D01*
X121532500Y-27858000D02*
X121532500Y-28333000D01*
X121532500Y-28333000D02*
X121057500Y-28333000D01*
X121862500Y-24353000D02*
X121532500Y-24113000D01*
X121862500Y-23873000D01*
X121862500Y-24353000D01*
G36*
X121862500Y-24353000D02*
G01*
X121532500Y-24113000D01*
X121862500Y-23873000D01*
X121862500Y-24353000D01*
G37*
%TO.C,U2*%
X104210000Y-34558000D02*
X104210000Y-32558000D01*
X106430000Y-34558000D02*
X106430000Y-32558000D01*
X104310000Y-35078000D02*
X104030000Y-34798000D01*
X104310000Y-34798000D01*
X104310000Y-35078000D01*
G36*
X104310000Y-35078000D02*
G01*
X104030000Y-34798000D01*
X104310000Y-34798000D01*
X104310000Y-35078000D01*
G37*
%TO.C,R2*%
X100370436Y-22313000D02*
X100824564Y-22313000D01*
X100370436Y-23783000D02*
X100824564Y-23783000D01*
%TO.C,U2*%
X175330000Y-34558000D02*
X175330000Y-32558000D01*
X177550000Y-34558000D02*
X177550000Y-32558000D01*
X175430000Y-35078000D02*
X175150000Y-34798000D01*
X175430000Y-34798000D01*
X175430000Y-35078000D01*
G36*
X175430000Y-35078000D02*
G01*
X175150000Y-34798000D01*
X175430000Y-34798000D01*
X175430000Y-35078000D01*
G37*
%TO.C,C4*%
X186413752Y-26758000D02*
X185891248Y-26758000D01*
X186413752Y-28228000D02*
X185891248Y-28228000D01*
%TO.C,D2*%
X166930500Y-22313000D02*
X166930500Y-23783000D01*
X166930500Y-23783000D02*
X169215500Y-23783000D01*
X169215500Y-22313000D02*
X166930500Y-22313000D01*
%TO.C,U4*%
X188432500Y-24113000D02*
X188907500Y-24113000D01*
X188432500Y-24588000D02*
X188432500Y-24113000D01*
X188432500Y-27858000D02*
X188432500Y-28333000D01*
X188432500Y-28333000D02*
X188907500Y-28333000D01*
X192177500Y-24113000D02*
X192412500Y-24113000D01*
X192652500Y-24588000D02*
X192652500Y-24413000D01*
X192652500Y-27858000D02*
X192652500Y-28333000D01*
X192652500Y-28333000D02*
X192177500Y-28333000D01*
X192982500Y-24353000D02*
X192652500Y-24113000D01*
X192982500Y-23873000D01*
X192982500Y-24353000D01*
G36*
X192982500Y-24353000D02*
G01*
X192652500Y-24113000D01*
X192982500Y-23873000D01*
X192982500Y-24353000D01*
G37*
%TO.C,C5*%
X111443000Y-35628252D02*
X111443000Y-35105748D01*
X112913000Y-35628252D02*
X112913000Y-35105748D01*
%TO.C,U4*%
X152872500Y-24113000D02*
X153347500Y-24113000D01*
X152872500Y-24588000D02*
X152872500Y-24113000D01*
X152872500Y-27858000D02*
X152872500Y-28333000D01*
X152872500Y-28333000D02*
X153347500Y-28333000D01*
X156617500Y-24113000D02*
X156852500Y-24113000D01*
X157092500Y-24588000D02*
X157092500Y-24413000D01*
X157092500Y-27858000D02*
X157092500Y-28333000D01*
X157092500Y-28333000D02*
X156617500Y-28333000D01*
X157422500Y-24353000D02*
X157092500Y-24113000D01*
X157422500Y-23873000D01*
X157422500Y-24353000D01*
G36*
X157422500Y-24353000D02*
G01*
X157092500Y-24113000D01*
X157422500Y-23873000D01*
X157422500Y-24353000D01*
G37*
%TO.C,C3*%
X159221248Y-24853000D02*
X159743752Y-24853000D01*
X159221248Y-26323000D02*
X159743752Y-26323000D01*
%TO.C,Q1*%
X117004000Y-32553000D02*
X115054000Y-32553000D01*
X117004000Y-32553000D02*
X118954000Y-32553000D01*
X117004000Y-37673000D02*
X115054000Y-37673000D01*
X117004000Y-37673000D02*
X118954000Y-37673000D01*
X119944000Y-37908000D02*
X119464000Y-37908000D01*
X119704000Y-37578000D01*
X119944000Y-37908000D01*
G36*
X119944000Y-37908000D02*
G01*
X119464000Y-37908000D01*
X119704000Y-37578000D01*
X119944000Y-37908000D01*
G37*
%TO.C,R2*%
X171490436Y-22313000D02*
X171944564Y-22313000D01*
X171490436Y-23783000D02*
X171944564Y-23783000D01*
%TO.C,Q1*%
X188124000Y-32553000D02*
X186174000Y-32553000D01*
X188124000Y-32553000D02*
X190074000Y-32553000D01*
X188124000Y-37673000D02*
X186174000Y-37673000D01*
X188124000Y-37673000D02*
X190074000Y-37673000D01*
X191064000Y-37908000D02*
X190584000Y-37908000D01*
X190824000Y-37578000D01*
X191064000Y-37908000D01*
G36*
X191064000Y-37908000D02*
G01*
X190584000Y-37908000D01*
X190824000Y-37578000D01*
X191064000Y-37908000D01*
G37*
%TO.C,U3*%
X175330000Y-25731000D02*
X175330000Y-27731000D01*
X177550000Y-25731000D02*
X177550000Y-27731000D01*
X177730000Y-25491000D02*
X177450000Y-25491000D01*
X177450000Y-25211000D01*
X177730000Y-25491000D01*
G36*
X177730000Y-25491000D02*
G01*
X177450000Y-25491000D01*
X177450000Y-25211000D01*
X177730000Y-25491000D01*
G37*
%TO.C,R4*%
X195009000Y-35975064D02*
X195009000Y-35520936D01*
X196479000Y-35975064D02*
X196479000Y-35520936D01*
%TO.C,Q1*%
X152564000Y-32553000D02*
X150614000Y-32553000D01*
X152564000Y-32553000D02*
X154514000Y-32553000D01*
X152564000Y-37673000D02*
X150614000Y-37673000D01*
X152564000Y-37673000D02*
X154514000Y-37673000D01*
X155504000Y-37908000D02*
X155024000Y-37908000D01*
X155264000Y-37578000D01*
X155504000Y-37908000D01*
G36*
X155504000Y-37908000D02*
G01*
X155024000Y-37908000D01*
X155264000Y-37578000D01*
X155504000Y-37908000D01*
G37*
%TO.C,D1*%
X121084000Y-37473000D02*
X121084000Y-33463000D01*
X121084000Y-37473000D02*
X123084000Y-37473000D01*
X123084000Y-37473000D02*
X123084000Y-33463000D01*
%TO.C,C1*%
X194781248Y-27393000D02*
X195303752Y-27393000D01*
X194781248Y-28863000D02*
X195303752Y-28863000D01*
X123661248Y-27393000D02*
X124183752Y-27393000D01*
X123661248Y-28863000D02*
X124183752Y-28863000D01*
%TO.C,JP1*%
X173873500Y-23348000D02*
X173873500Y-22748000D01*
X174573500Y-22048000D02*
X175973500Y-22048000D01*
X175973500Y-24048000D02*
X174573500Y-24048000D01*
X176673500Y-22748000D02*
X176673500Y-23348000D01*
X173873500Y-22748000D02*
G75*
G02*
X174573500Y-22048000I699999J1D01*
G01*
X174573500Y-24048000D02*
G75*
G02*
X173873500Y-23348000I-1J699999D01*
G01*
X175973500Y-22048000D02*
G75*
G02*
X176673500Y-22748000I0J-700000D01*
G01*
X176673500Y-23348000D02*
G75*
G02*
X175973500Y-24048000I-700000J0D01*
G01*
%TD*%
M02*
