%TF.GenerationSoftware,KiCad,Pcbnew,8.0.2*%
%TF.CreationDate,2025-03-04T10:53:31+01:00*%
%TF.ProjectId,USB-C_PD_Module_PANELIZED,5553422d-435f-4504-945f-4d6f64756c65,rev?*%
%TF.SameCoordinates,Original*%
%TF.FileFunction,Other,Comment*%
%FSLAX46Y46*%
G04 Gerber Fmt 4.6, Leading zero omitted, Abs format (unit mm)*
G04 Created by KiCad (PCBNEW 8.0.2) date 2025-03-04 10:53:31*
%MOMM*%
%LPD*%
G01*
G04 APERTURE LIST*
%ADD10C,0.300000*%
G04 APERTURE END LIST*
D10*
X166280000Y-17000000D02*
X166280000Y-43320000D01*
X201840000Y-17000000D02*
X201840000Y-43320000D01*
X95160000Y-17000000D02*
X95160000Y-43320000D01*
X130720000Y-17000000D02*
X130720000Y-43320000D01*
X129629638Y-13612155D02*
X131629638Y-12945489D01*
X131629638Y-12945489D02*
X129629638Y-12278822D01*
X130867733Y-11612155D02*
X130867733Y-10088346D01*
X131439161Y-7993108D02*
X131534400Y-8088346D01*
X131534400Y-8088346D02*
X131629638Y-8374060D01*
X131629638Y-8374060D02*
X131629638Y-8564536D01*
X131629638Y-8564536D02*
X131534400Y-8850251D01*
X131534400Y-8850251D02*
X131343923Y-9040727D01*
X131343923Y-9040727D02*
X131153447Y-9135965D01*
X131153447Y-9135965D02*
X130772495Y-9231203D01*
X130772495Y-9231203D02*
X130486780Y-9231203D01*
X130486780Y-9231203D02*
X130105828Y-9135965D01*
X130105828Y-9135965D02*
X129915352Y-9040727D01*
X129915352Y-9040727D02*
X129724876Y-8850251D01*
X129724876Y-8850251D02*
X129629638Y-8564536D01*
X129629638Y-8564536D02*
X129629638Y-8374060D01*
X129629638Y-8374060D02*
X129724876Y-8088346D01*
X129724876Y-8088346D02*
X129820114Y-7993108D01*
X129629638Y-7135965D02*
X131248685Y-7135965D01*
X131248685Y-7135965D02*
X131439161Y-7040727D01*
X131439161Y-7040727D02*
X131534400Y-6945489D01*
X131534400Y-6945489D02*
X131629638Y-6755013D01*
X131629638Y-6755013D02*
X131629638Y-6374060D01*
X131629638Y-6374060D02*
X131534400Y-6183584D01*
X131534400Y-6183584D02*
X131439161Y-6088346D01*
X131439161Y-6088346D02*
X131248685Y-5993108D01*
X131248685Y-5993108D02*
X129629638Y-5993108D01*
X129629638Y-5326441D02*
X129629638Y-4183584D01*
X131629638Y-4755013D02*
X129629638Y-4755013D01*
X165189638Y-13612155D02*
X167189638Y-12945489D01*
X167189638Y-12945489D02*
X165189638Y-12278822D01*
X166427733Y-11612155D02*
X166427733Y-10088346D01*
X166999161Y-7993108D02*
X167094400Y-8088346D01*
X167094400Y-8088346D02*
X167189638Y-8374060D01*
X167189638Y-8374060D02*
X167189638Y-8564536D01*
X167189638Y-8564536D02*
X167094400Y-8850251D01*
X167094400Y-8850251D02*
X166903923Y-9040727D01*
X166903923Y-9040727D02*
X166713447Y-9135965D01*
X166713447Y-9135965D02*
X166332495Y-9231203D01*
X166332495Y-9231203D02*
X166046780Y-9231203D01*
X166046780Y-9231203D02*
X165665828Y-9135965D01*
X165665828Y-9135965D02*
X165475352Y-9040727D01*
X165475352Y-9040727D02*
X165284876Y-8850251D01*
X165284876Y-8850251D02*
X165189638Y-8564536D01*
X165189638Y-8564536D02*
X165189638Y-8374060D01*
X165189638Y-8374060D02*
X165284876Y-8088346D01*
X165284876Y-8088346D02*
X165380114Y-7993108D01*
X165189638Y-7135965D02*
X166808685Y-7135965D01*
X166808685Y-7135965D02*
X166999161Y-7040727D01*
X166999161Y-7040727D02*
X167094400Y-6945489D01*
X167094400Y-6945489D02*
X167189638Y-6755013D01*
X167189638Y-6755013D02*
X167189638Y-6374060D01*
X167189638Y-6374060D02*
X167094400Y-6183584D01*
X167094400Y-6183584D02*
X166999161Y-6088346D01*
X166999161Y-6088346D02*
X166808685Y-5993108D01*
X166808685Y-5993108D02*
X165189638Y-5993108D01*
X165189638Y-5326441D02*
X165189638Y-4183584D01*
X167189638Y-4755013D02*
X165189638Y-4755013D01*
X94069638Y-13612155D02*
X96069638Y-12945489D01*
X96069638Y-12945489D02*
X94069638Y-12278822D01*
X95307733Y-11612155D02*
X95307733Y-10088346D01*
X95879161Y-7993108D02*
X95974400Y-8088346D01*
X95974400Y-8088346D02*
X96069638Y-8374060D01*
X96069638Y-8374060D02*
X96069638Y-8564536D01*
X96069638Y-8564536D02*
X95974400Y-8850251D01*
X95974400Y-8850251D02*
X95783923Y-9040727D01*
X95783923Y-9040727D02*
X95593447Y-9135965D01*
X95593447Y-9135965D02*
X95212495Y-9231203D01*
X95212495Y-9231203D02*
X94926780Y-9231203D01*
X94926780Y-9231203D02*
X94545828Y-9135965D01*
X94545828Y-9135965D02*
X94355352Y-9040727D01*
X94355352Y-9040727D02*
X94164876Y-8850251D01*
X94164876Y-8850251D02*
X94069638Y-8564536D01*
X94069638Y-8564536D02*
X94069638Y-8374060D01*
X94069638Y-8374060D02*
X94164876Y-8088346D01*
X94164876Y-8088346D02*
X94260114Y-7993108D01*
X94069638Y-7135965D02*
X95688685Y-7135965D01*
X95688685Y-7135965D02*
X95879161Y-7040727D01*
X95879161Y-7040727D02*
X95974400Y-6945489D01*
X95974400Y-6945489D02*
X96069638Y-6755013D01*
X96069638Y-6755013D02*
X96069638Y-6374060D01*
X96069638Y-6374060D02*
X95974400Y-6183584D01*
X95974400Y-6183584D02*
X95879161Y-6088346D01*
X95879161Y-6088346D02*
X95688685Y-5993108D01*
X95688685Y-5993108D02*
X94069638Y-5993108D01*
X94069638Y-5326441D02*
X94069638Y-4183584D01*
X96069638Y-4755013D02*
X94069638Y-4755013D01*
X200749638Y-13612155D02*
X202749638Y-12945489D01*
X202749638Y-12945489D02*
X200749638Y-12278822D01*
X201987733Y-11612155D02*
X201987733Y-10088346D01*
X202559161Y-7993108D02*
X202654400Y-8088346D01*
X202654400Y-8088346D02*
X202749638Y-8374060D01*
X202749638Y-8374060D02*
X202749638Y-8564536D01*
X202749638Y-8564536D02*
X202654400Y-8850251D01*
X202654400Y-8850251D02*
X202463923Y-9040727D01*
X202463923Y-9040727D02*
X202273447Y-9135965D01*
X202273447Y-9135965D02*
X201892495Y-9231203D01*
X201892495Y-9231203D02*
X201606780Y-9231203D01*
X201606780Y-9231203D02*
X201225828Y-9135965D01*
X201225828Y-9135965D02*
X201035352Y-9040727D01*
X201035352Y-9040727D02*
X200844876Y-8850251D01*
X200844876Y-8850251D02*
X200749638Y-8564536D01*
X200749638Y-8564536D02*
X200749638Y-8374060D01*
X200749638Y-8374060D02*
X200844876Y-8088346D01*
X200844876Y-8088346D02*
X200940114Y-7993108D01*
X200749638Y-7135965D02*
X202368685Y-7135965D01*
X202368685Y-7135965D02*
X202559161Y-7040727D01*
X202559161Y-7040727D02*
X202654400Y-6945489D01*
X202654400Y-6945489D02*
X202749638Y-6755013D01*
X202749638Y-6755013D02*
X202749638Y-6374060D01*
X202749638Y-6374060D02*
X202654400Y-6183584D01*
X202654400Y-6183584D02*
X202559161Y-6088346D01*
X202559161Y-6088346D02*
X202368685Y-5993108D01*
X202368685Y-5993108D02*
X200749638Y-5993108D01*
X200749638Y-5326441D02*
X200749638Y-4183584D01*
X202749638Y-4755013D02*
X200749638Y-4755013D01*
M02*
