M48
; DRILL file {KiCad 8.0.2} date 2025-03-04T10:53:35+0100
; FORMAT={-:-/ absolute / inch / decimal}
; #@! TF.CreationDate,2025-03-04T10:53:35+01:00
; #@! TF.GenerationSoftware,Kicad,Pcbnew,8.0.2
; #@! TF.FileFunction,Plated,1,4,PTH
FMAT,2
INCH
; #@! TA.AperFunction,Plated,PTH,ViaDrill
T1C0.0118
; #@! TA.AperFunction,Plated,PTH,ViaDrill
T2C0.0197
; #@! TA.AperFunction,Plated,PTH,ComponentDrill
T3C0.0236
; #@! TA.AperFunction,Plated,PTH,ComponentDrill
T4C0.0394
%
G90
G05
T1
X3.7965Y-1.0874
X3.7965Y-1.1874
X3.7965Y-1.2874
X3.7965Y-1.4374
X3.7965Y-1.5374
X3.8465Y-1.1374
X3.8465Y-1.2374
X3.8465Y-1.4874
X3.8939Y-1.1874
X3.8965Y-1.0874
X3.8965Y-1.2874
X3.8965Y-1.4374
X3.8965Y-1.5374
X3.9465Y-1.1374
X3.9465Y-1.2374
X3.9465Y-1.4874
X3.9665Y-0.8374
X3.9965Y-1.4374
X4.0465Y-1.4874
X4.0865Y-0.9974
X4.0865Y-1.0274
X4.0865Y-1.0574
X4.0865Y-1.3174
X4.0865Y-1.3474
X4.0865Y-1.3774
X4.0965Y-1.4374
X4.1465Y-1.4874
X4.1845Y-1.1886
X4.1965Y-1.1374
X4.1965Y-1.2374
X4.2265Y-1.1719
X4.2265Y-1.2054
X4.2865Y-0.9924
X4.3265Y-0.9074
X4.3265Y-1.3074
X4.3465Y-1.0874
X4.3865Y-1.2924
X4.3965Y-1.1374
X4.4065Y-1.0074
X4.431Y-1.0824
X4.4465Y-0.9374
X4.4665Y-1.1674
X4.5465Y-0.9374
X4.5662Y-1.1874
X4.5665Y-1.3074
X4.5665Y-1.335
X4.5665Y-1.3674
X4.5665Y-1.3974
X4.5665Y-1.4274
X4.5665Y-1.4598
X4.5665Y-1.4898
X4.5965Y-1.3074
X4.5965Y-1.335
X4.5965Y-1.3674
X4.5965Y-1.3974
X4.5965Y-1.4274
X4.5965Y-1.4598
X4.5965Y-1.4898
X4.6265Y-1.4274
X4.6265Y-1.4598
X4.6265Y-1.4898
X4.6565Y-1.1574
X4.7065Y-1.1574
X4.7115Y-0.8911
X4.7665Y-1.1674
X4.8265Y-1.3674
X4.8865Y-1.1674
X4.9665Y-0.9074
X4.9665Y-1.0074
X4.9665Y-1.1074
X4.9965Y-1.0374
X4.9965Y-1.1374
X4.9965Y-1.5374
X5.0465Y-0.9874
X5.0465Y-1.0874
X5.0465Y-1.1874
X5.0465Y-1.4474
X5.0965Y-1.0374
X5.0965Y-1.1374
X5.0965Y-1.2374
X5.0965Y-1.3374
X5.0965Y-1.4374
X5.0965Y-1.5374
X5.1965Y-1.0874
X5.1965Y-1.1874
X5.1965Y-1.2874
X5.1965Y-1.4374
X5.1965Y-1.5374
X5.2465Y-1.1374
X5.2465Y-1.2374
X5.2465Y-1.4874
X5.2939Y-1.1874
X5.2965Y-1.0874
X5.2965Y-1.2874
X5.2965Y-1.4374
X5.2965Y-1.5374
X5.3465Y-1.1374
X5.3465Y-1.2374
X5.3465Y-1.4874
X5.3665Y-0.8374
X5.3965Y-1.4374
X5.4465Y-1.4874
X5.4865Y-0.9974
X5.4865Y-1.0274
X5.4865Y-1.0574
X5.4865Y-1.3174
X5.4865Y-1.3474
X5.4865Y-1.3774
X5.4965Y-1.4374
X5.5465Y-1.4874
X5.5845Y-1.1886
X5.5965Y-1.1374
X5.5965Y-1.2374
X5.6265Y-1.1719
X5.6265Y-1.2054
X5.6865Y-0.9924
X5.7265Y-0.9074
X5.7265Y-1.3074
X5.7465Y-1.0874
X5.7865Y-1.2924
X5.7965Y-1.1374
X5.8065Y-1.0074
X5.831Y-1.0824
X5.8465Y-0.9374
X5.8665Y-1.1674
X5.9465Y-0.9374
X5.9662Y-1.1874
X5.9665Y-1.3074
X5.9665Y-1.335
X5.9665Y-1.3674
X5.9665Y-1.3974
X5.9665Y-1.4274
X5.9665Y-1.4598
X5.9665Y-1.4898
X5.9965Y-1.3074
X5.9965Y-1.335
X5.9965Y-1.3674
X5.9965Y-1.3974
X5.9965Y-1.4274
X5.9965Y-1.4598
X5.9965Y-1.4898
X6.0265Y-1.4274
X6.0265Y-1.4598
X6.0265Y-1.4898
X6.0565Y-1.1574
X6.1065Y-1.1574
X6.1115Y-0.8911
X6.1665Y-1.1674
X6.2265Y-1.3674
X6.2865Y-1.1674
X6.3665Y-0.9074
X6.3665Y-1.0074
X6.3665Y-1.1074
X6.3965Y-1.0374
X6.3965Y-1.1374
X6.3965Y-1.5374
X6.4465Y-0.9874
X6.4465Y-1.0874
X6.4465Y-1.1874
X6.4465Y-1.4474
X6.4965Y-1.0374
X6.4965Y-1.1374
X6.4965Y-1.2374
X6.4965Y-1.3374
X6.4965Y-1.4374
X6.4965Y-1.5374
X6.5965Y-1.0874
X6.5965Y-1.1874
X6.5965Y-1.2874
X6.5965Y-1.4374
X6.5965Y-1.5374
X6.6465Y-1.1374
X6.6465Y-1.2374
X6.6465Y-1.4874
X6.6939Y-1.1874
X6.6965Y-1.0874
X6.6965Y-1.2874
X6.6965Y-1.4374
X6.6965Y-1.5374
X6.7465Y-1.1374
X6.7465Y-1.2374
X6.7465Y-1.4874
X6.7665Y-0.8374
X6.7965Y-1.4374
X6.8465Y-1.4874
X6.8865Y-0.9974
X6.8865Y-1.0274
X6.8865Y-1.0574
X6.8865Y-1.3174
X6.8865Y-1.3474
X6.8865Y-1.3774
X6.8965Y-1.4374
X6.9465Y-1.4874
X6.9845Y-1.1886
X6.9965Y-1.1374
X6.9965Y-1.2374
X7.0265Y-1.1719
X7.0265Y-1.2054
X7.0865Y-0.9924
X7.1265Y-0.9074
X7.1265Y-1.3074
X7.1465Y-1.0874
X7.1865Y-1.2924
X7.1965Y-1.1374
X7.2065Y-1.0074
X7.231Y-1.0824
X7.2465Y-0.9374
X7.2665Y-1.1674
X7.3465Y-0.9374
X7.3662Y-1.1874
X7.3665Y-1.3074
X7.3665Y-1.335
X7.3665Y-1.3674
X7.3665Y-1.3974
X7.3665Y-1.4274
X7.3665Y-1.4598
X7.3665Y-1.4898
X7.3965Y-1.3074
X7.3965Y-1.335
X7.3965Y-1.3674
X7.3965Y-1.3974
X7.3965Y-1.4274
X7.3965Y-1.4598
X7.3965Y-1.4898
X7.4265Y-1.4274
X7.4265Y-1.4598
X7.4265Y-1.4898
X7.4565Y-1.1574
X7.5065Y-1.1574
X7.5115Y-0.8911
X7.5665Y-1.1674
X7.6265Y-1.3674
X7.6865Y-1.1674
X7.7665Y-0.9074
X7.7665Y-1.0074
X7.7665Y-1.1074
X7.7965Y-1.0374
X7.7965Y-1.1374
X7.7965Y-1.5374
X7.8465Y-0.9874
X7.8465Y-1.0874
X7.8465Y-1.1874
X7.8465Y-1.4474
X7.8965Y-1.0374
X7.8965Y-1.1374
X7.8965Y-1.2374
X7.8965Y-1.3374
X7.8965Y-1.4374
X7.8965Y-1.5374
T2
X4.7038Y-1.0302
X4.8702Y-0.9584
X6.1038Y-1.0302
X6.2702Y-0.9584
X7.5038Y-1.0302
X7.6702Y-0.9584
T4
X3.9965Y-0.7874
X3.9967Y-1.5874
X4.0965Y-0.7874
X4.0967Y-1.5874
X4.1965Y-0.7874
X4.1967Y-1.5874
X4.2965Y-0.7874
X4.2967Y-1.5874
X4.3965Y-0.7874
X4.3967Y-1.5874
X4.4965Y-0.7874
X4.4967Y-1.5874
X4.5965Y-0.7874
X4.5967Y-1.5874
X4.6965Y-0.7874
X4.6967Y-1.5874
X4.7965Y-0.7874
X4.7967Y-1.5874
X4.8965Y-0.7874
X4.8967Y-1.5874
X5.3965Y-0.7874
X5.3967Y-1.5874
X5.4965Y-0.7874
X5.4967Y-1.5874
X5.5965Y-0.7874
X5.5967Y-1.5874
X5.6965Y-0.7874
X5.6967Y-1.5874
X5.7965Y-0.7874
X5.7967Y-1.5874
X5.8965Y-0.7874
X5.8967Y-1.5874
X5.9965Y-0.7874
X5.9967Y-1.5874
X6.0965Y-0.7874
X6.0967Y-1.5874
X6.1965Y-0.7874
X6.1967Y-1.5874
X6.2965Y-0.7874
X6.2967Y-1.5874
X6.7965Y-0.7874
X6.7967Y-1.5874
X6.8965Y-0.7874
X6.8967Y-1.5874
X6.9965Y-0.7874
X6.9967Y-1.5874
X7.0965Y-0.7874
X7.0967Y-1.5874
X7.1965Y-0.7874
X7.1967Y-1.5874
X7.2965Y-0.7874
X7.2967Y-1.5874
X7.3965Y-0.7874
X7.3967Y-1.5874
X7.4965Y-0.7874
X7.4967Y-1.5874
X7.5965Y-0.7874
X7.5967Y-1.5874
X7.6965Y-0.7874
X7.6967Y-1.5874
T3
G00X3.8673Y-1.0173
M15
G01X3.8358Y-1.0173
M16
G05
G00X3.8673Y-1.3575
M15
G01X3.8358Y-1.3575
M16
G05
G00X4.0378Y-1.0173
M15
G01X3.9945Y-1.0173
M16
G05
G00X4.0378Y-1.3575
M15
G01X3.9945Y-1.3575
M16
G05
G00X5.2673Y-1.0173
M15
G01X5.2358Y-1.0173
M16
G05
G00X5.2673Y-1.3575
M15
G01X5.2358Y-1.3575
M16
G05
G00X5.4378Y-1.0173
M15
G01X5.3945Y-1.0173
M16
G05
G00X5.4378Y-1.3575
M15
G01X5.3945Y-1.3575
M16
G05
G00X6.6673Y-1.0173
M15
G01X6.6358Y-1.0173
M16
G05
G00X6.6673Y-1.3575
M15
G01X6.6358Y-1.3575
M16
G05
G00X6.8378Y-1.0173
M15
G01X6.7945Y-1.0173
M16
G05
G00X6.8378Y-1.3575
M15
G01X6.7945Y-1.3575
M16
G05
M30
