%TF.GenerationSoftware,KiCad,Pcbnew,8.0.2*%
%TF.CreationDate,2025-03-04T10:53:31+01:00*%
%TF.ProjectId,USB-C_PD_Module_PANELIZED,5553422d-435f-4504-945f-4d6f64756c65,rev?*%
%TF.SameCoordinates,Original*%
%TF.FileFunction,Soldermask,Bot*%
%TF.FilePolarity,Negative*%
%FSLAX46Y46*%
G04 Gerber Fmt 4.6, Leading zero omitted, Abs format (unit mm)*
G04 Created by KiCad (PCBNEW 8.0.2) date 2025-03-04 10:53:31*
%MOMM*%
%LPD*%
G01*
G04 APERTURE LIST*
%ADD10C,1.700000*%
%ADD11O,1.700000X1.700000*%
%ADD12C,3.200000*%
%ADD13C,0.650000*%
%ADD14O,2.100000X1.000000*%
%ADD15O,1.800000X1.000000*%
%ADD16C,1.000000*%
G04 APERTURE END LIST*
D10*
%TO.C,J3*%
X101510000Y-20000000D03*
D11*
X104050000Y-20000000D03*
X106590000Y-20000000D03*
X109130000Y-20000000D03*
X111670000Y-20000000D03*
X114210000Y-20000000D03*
X116750000Y-20000000D03*
X119290000Y-20000000D03*
X121830000Y-20000000D03*
X124370000Y-20000000D03*
%TD*%
D10*
%TO.C,J3*%
X137070000Y-20000000D03*
D11*
X139610000Y-20000000D03*
X142150000Y-20000000D03*
X144690000Y-20000000D03*
X147230000Y-20000000D03*
X149770000Y-20000000D03*
X152310000Y-20000000D03*
X154850000Y-20000000D03*
X157390000Y-20000000D03*
X159930000Y-20000000D03*
%TD*%
D12*
%TO.C,KiKit_TO_1*%
X88159000Y-25000000D03*
%TD*%
D10*
%TO.C,J2*%
X101515000Y-40320000D03*
D11*
X104055000Y-40320000D03*
X106595000Y-40320000D03*
X109135000Y-40320000D03*
X111675000Y-40320000D03*
X114215000Y-40320000D03*
X116755000Y-40320000D03*
X119295000Y-40320000D03*
X121835000Y-40320000D03*
X124375000Y-40320000D03*
%TD*%
D12*
%TO.C,KiKit_TO_2*%
X208841000Y-25000000D03*
%TD*%
D13*
%TO.C,J1*%
X101510000Y-27270000D03*
X101510000Y-33050000D03*
D14*
X102010000Y-25840000D03*
D15*
X97830000Y-25840000D03*
D14*
X102010000Y-34480000D03*
D15*
X97830000Y-34480000D03*
%TD*%
D13*
%TO.C,J1*%
X137070000Y-27270000D03*
X137070000Y-33050000D03*
D14*
X137570000Y-25840000D03*
D15*
X133390000Y-25840000D03*
D14*
X137570000Y-34480000D03*
D15*
X133390000Y-34480000D03*
%TD*%
D10*
%TO.C,J2*%
X172635000Y-40320000D03*
D11*
X175175000Y-40320000D03*
X177715000Y-40320000D03*
X180255000Y-40320000D03*
X182795000Y-40320000D03*
X185335000Y-40320000D03*
X187875000Y-40320000D03*
X190415000Y-40320000D03*
X192955000Y-40320000D03*
X195495000Y-40320000D03*
%TD*%
D12*
%TO.C,KiKit_TO_4*%
X208841000Y-35320000D03*
%TD*%
D13*
%TO.C,J1*%
X172630000Y-27270000D03*
X172630000Y-33050000D03*
D14*
X173130000Y-25840000D03*
D15*
X168950000Y-25840000D03*
D14*
X173130000Y-34480000D03*
D15*
X168950000Y-34480000D03*
%TD*%
D10*
%TO.C,J2*%
X137075000Y-40320000D03*
D11*
X139615000Y-40320000D03*
X142155000Y-40320000D03*
X144695000Y-40320000D03*
X147235000Y-40320000D03*
X149775000Y-40320000D03*
X152315000Y-40320000D03*
X154855000Y-40320000D03*
X157395000Y-40320000D03*
X159935000Y-40320000D03*
%TD*%
D12*
%TO.C,KiKit_TO_3*%
X88159000Y-35320000D03*
%TD*%
D10*
%TO.C,J3*%
X172630000Y-20000000D03*
D11*
X175170000Y-20000000D03*
X177710000Y-20000000D03*
X180250000Y-20000000D03*
X182790000Y-20000000D03*
X185330000Y-20000000D03*
X187870000Y-20000000D03*
X190410000Y-20000000D03*
X192950000Y-20000000D03*
X195490000Y-20000000D03*
%TD*%
D16*
%TO.C,KiKit_FID_B_4*%
X208841000Y-30320000D03*
%TD*%
%TO.C,KiKit_FID_B_1*%
X88159000Y-30000000D03*
%TD*%
M02*
