%TF.GenerationSoftware,KiCad,Pcbnew,8.0.2*%
%TF.CreationDate,2025-03-04T10:53:31+01:00*%
%TF.ProjectId,USB-C_PD_Module_PANELIZED,5553422d-435f-4504-945f-4d6f64756c65,rev?*%
%TF.SameCoordinates,Original*%
%TF.FileFunction,Soldermask,Top*%
%TF.FilePolarity,Negative*%
%FSLAX46Y46*%
G04 Gerber Fmt 4.6, Leading zero omitted, Abs format (unit mm)*
G04 Created by KiCad (PCBNEW 8.0.2) date 2025-03-04 10:53:31*
%MOMM*%
%LPD*%
G01*
G04 APERTURE LIST*
G04 Aperture macros list*
%AMRoundRect*
0 Rectangle with rounded corners*
0 $1 Rounding radius*
0 $2 $3 $4 $5 $6 $7 $8 $9 X,Y pos of 4 corners*
0 Add a 4 corners polygon primitive as box body*
4,1,4,$2,$3,$4,$5,$6,$7,$8,$9,$2,$3,0*
0 Add four circle primitives for the rounded corners*
1,1,$1+$1,$2,$3*
1,1,$1+$1,$4,$5*
1,1,$1+$1,$6,$7*
1,1,$1+$1,$8,$9*
0 Add four rect primitives between the rounded corners*
20,1,$1+$1,$2,$3,$4,$5,0*
20,1,$1+$1,$4,$5,$6,$7,0*
20,1,$1+$1,$6,$7,$8,$9,0*
20,1,$1+$1,$8,$9,$2,$3,0*%
%AMFreePoly0*
4,1,19,0.500000,-0.750000,0.000000,-0.750000,0.000000,-0.744911,-0.071157,-0.744911,-0.207708,-0.704816,-0.327430,-0.627875,-0.420627,-0.520320,-0.479746,-0.390866,-0.500000,-0.250000,-0.500000,0.250000,-0.479746,0.390866,-0.420627,0.520320,-0.327430,0.627875,-0.207708,0.704816,-0.071157,0.744911,0.000000,0.744911,0.000000,0.750000,0.500000,0.750000,0.500000,-0.750000,0.500000,-0.750000,
$1*%
%AMFreePoly1*
4,1,19,0.000000,0.744911,0.071157,0.744911,0.207708,0.704816,0.327430,0.627875,0.420627,0.520320,0.479746,0.390866,0.500000,0.250000,0.500000,-0.250000,0.479746,-0.390866,0.420627,-0.520320,0.327430,-0.627875,0.207708,-0.704816,0.071157,-0.744911,0.000000,-0.744911,0.000000,-0.750000,-0.500000,-0.750000,-0.500000,0.750000,0.000000,0.750000,0.000000,0.744911,0.000000,0.744911,
$1*%
G04 Aperture macros list end*
%ADD10C,0.000000*%
%ADD11C,1.700000*%
%ADD12O,1.700000X1.700000*%
%ADD13RoundRect,0.250000X0.262500X0.450000X-0.262500X0.450000X-0.262500X-0.450000X0.262500X-0.450000X0*%
%ADD14RoundRect,0.075000X-0.200000X0.075000X-0.200000X-0.075000X0.200000X-0.075000X0.200000X0.075000X0*%
%ADD15RoundRect,0.250000X-0.250000X-0.475000X0.250000X-0.475000X0.250000X0.475000X-0.250000X0.475000X0*%
%ADD16RoundRect,0.218750X-0.218750X-0.256250X0.218750X-0.256250X0.218750X0.256250X-0.218750X0.256250X0*%
%ADD17RoundRect,0.250000X0.475000X-0.250000X0.475000X0.250000X-0.475000X0.250000X-0.475000X-0.250000X0*%
%ADD18C,3.200000*%
%ADD19RoundRect,0.250000X0.450000X-0.262500X0.450000X0.262500X-0.450000X0.262500X-0.450000X-0.262500X0*%
%ADD20RoundRect,0.250000X-0.262500X-0.450000X0.262500X-0.450000X0.262500X0.450000X-0.262500X0.450000X0*%
%ADD21FreePoly0,0.000000*%
%ADD22FreePoly1,0.000000*%
%ADD23RoundRect,0.250000X-0.450000X0.262500X-0.450000X-0.262500X0.450000X-0.262500X0.450000X0.262500X0*%
%ADD24C,0.650000*%
%ADD25RoundRect,0.150000X-0.425000X0.150000X-0.425000X-0.150000X0.425000X-0.150000X0.425000X0.150000X0*%
%ADD26RoundRect,0.075000X-0.500000X0.075000X-0.500000X-0.075000X0.500000X-0.075000X0.500000X0.075000X0*%
%ADD27O,2.100000X1.000000*%
%ADD28O,1.800000X1.000000*%
%ADD29RoundRect,0.250000X0.250000X0.475000X-0.250000X0.475000X-0.250000X-0.475000X0.250000X-0.475000X0*%
%ADD30RoundRect,0.225000X0.375000X-0.225000X0.375000X0.225000X-0.375000X0.225000X-0.375000X-0.225000X0*%
%ADD31RoundRect,0.093750X-0.106250X0.093750X-0.106250X-0.093750X0.106250X-0.093750X0.106250X0.093750X0*%
%ADD32R,1.600000X1.000000*%
%ADD33RoundRect,0.093750X0.106250X-0.093750X0.106250X0.093750X-0.106250X0.093750X-0.106250X-0.093750X0*%
%ADD34RoundRect,0.062500X-0.062500X0.337500X-0.062500X-0.337500X0.062500X-0.337500X0.062500X0.337500X0*%
%ADD35RoundRect,0.062500X-0.337500X0.062500X-0.337500X-0.062500X0.337500X-0.062500X0.337500X0.062500X0*%
%ADD36R,2.750000X2.750000*%
%ADD37C,1.000000*%
%ADD38RoundRect,0.150000X0.725000X0.150000X-0.725000X0.150000X-0.725000X-0.150000X0.725000X-0.150000X0*%
G04 APERTURE END LIST*
D10*
%TO.C,G\u002A\u002A\u002A*%
G36*
X177913578Y-36653092D02*
G01*
X177913578Y-37183569D01*
X177837014Y-37183569D01*
X177760450Y-37183569D01*
X177760450Y-36653092D01*
X177760450Y-36122615D01*
X177837014Y-36122615D01*
X177913578Y-36122615D01*
X177913578Y-36653092D01*
G37*
G36*
X178176082Y-34840173D02*
G01*
X178176082Y-35370650D01*
X178098151Y-35370650D01*
X178020220Y-35370650D01*
X178020220Y-34840173D01*
X178020220Y-34309697D01*
X178098151Y-34309697D01*
X178176082Y-34309697D01*
X178176082Y-34840173D01*
G37*
G36*
X178435851Y-36653092D02*
G01*
X178435851Y-37183569D01*
X178357921Y-37183569D01*
X178279990Y-37183569D01*
X178279990Y-36653092D01*
X178279990Y-36122615D01*
X178357921Y-36122615D01*
X178435851Y-36122615D01*
X178435851Y-36653092D01*
G37*
G36*
X179535087Y-36603872D02*
G01*
X179535087Y-37134349D01*
X179458523Y-37134349D01*
X179381960Y-37134349D01*
X179381960Y-36603872D01*
X179381960Y-36073395D01*
X179458523Y-36073395D01*
X179535087Y-36073395D01*
X179535087Y-36603872D01*
G37*
G36*
X179638995Y-34838806D02*
G01*
X179638995Y-35367916D01*
X179562431Y-35367916D01*
X179485868Y-35367916D01*
X179485868Y-34838806D01*
X179485868Y-34309697D01*
X179562431Y-34309697D01*
X179638995Y-34309697D01*
X179638995Y-34838806D01*
G37*
G36*
X180164003Y-34898963D02*
G01*
X180164003Y-35367916D01*
X180087439Y-35367916D01*
X180010876Y-35367916D01*
X180010876Y-34898963D01*
X180010876Y-34430011D01*
X180087439Y-34430011D01*
X180164003Y-34430011D01*
X180164003Y-34898963D01*
G37*
G36*
X180431976Y-37053684D02*
G01*
X180431976Y-37134349D01*
X180065564Y-37134349D01*
X179699152Y-37134349D01*
X179699152Y-37053684D01*
X179699152Y-36973019D01*
X180065564Y-36973019D01*
X180431976Y-36973019D01*
X180431976Y-37053684D01*
G37*
G36*
X106793578Y-36653092D02*
G01*
X106793578Y-37183569D01*
X106717014Y-37183569D01*
X106640450Y-37183569D01*
X106640450Y-36653092D01*
X106640450Y-36122615D01*
X106717014Y-36122615D01*
X106793578Y-36122615D01*
X106793578Y-36653092D01*
G37*
G36*
X107056082Y-34840173D02*
G01*
X107056082Y-35370650D01*
X106978151Y-35370650D01*
X106900220Y-35370650D01*
X106900220Y-34840173D01*
X106900220Y-34309697D01*
X106978151Y-34309697D01*
X107056082Y-34309697D01*
X107056082Y-34840173D01*
G37*
G36*
X107315851Y-36653092D02*
G01*
X107315851Y-37183569D01*
X107237921Y-37183569D01*
X107159990Y-37183569D01*
X107159990Y-36653092D01*
X107159990Y-36122615D01*
X107237921Y-36122615D01*
X107315851Y-36122615D01*
X107315851Y-36653092D01*
G37*
G36*
X108415087Y-36603872D02*
G01*
X108415087Y-37134349D01*
X108338523Y-37134349D01*
X108261960Y-37134349D01*
X108261960Y-36603872D01*
X108261960Y-36073395D01*
X108338523Y-36073395D01*
X108415087Y-36073395D01*
X108415087Y-36603872D01*
G37*
G36*
X108518995Y-34838806D02*
G01*
X108518995Y-35367916D01*
X108442431Y-35367916D01*
X108365868Y-35367916D01*
X108365868Y-34838806D01*
X108365868Y-34309697D01*
X108442431Y-34309697D01*
X108518995Y-34309697D01*
X108518995Y-34838806D01*
G37*
G36*
X109044003Y-34898963D02*
G01*
X109044003Y-35367916D01*
X108967439Y-35367916D01*
X108890876Y-35367916D01*
X108890876Y-34898963D01*
X108890876Y-34430011D01*
X108967439Y-34430011D01*
X109044003Y-34430011D01*
X109044003Y-34898963D01*
G37*
G36*
X109311976Y-37053684D02*
G01*
X109311976Y-37134349D01*
X108945564Y-37134349D01*
X108579152Y-37134349D01*
X108579152Y-37053684D01*
X108579152Y-36973019D01*
X108945564Y-36973019D01*
X109311976Y-36973019D01*
X109311976Y-37053684D01*
G37*
G36*
X142353578Y-36653092D02*
G01*
X142353578Y-37183569D01*
X142277014Y-37183569D01*
X142200450Y-37183569D01*
X142200450Y-36653092D01*
X142200450Y-36122615D01*
X142277014Y-36122615D01*
X142353578Y-36122615D01*
X142353578Y-36653092D01*
G37*
G36*
X142616082Y-34840173D02*
G01*
X142616082Y-35370650D01*
X142538151Y-35370650D01*
X142460220Y-35370650D01*
X142460220Y-34840173D01*
X142460220Y-34309697D01*
X142538151Y-34309697D01*
X142616082Y-34309697D01*
X142616082Y-34840173D01*
G37*
G36*
X142875851Y-36653092D02*
G01*
X142875851Y-37183569D01*
X142797921Y-37183569D01*
X142719990Y-37183569D01*
X142719990Y-36653092D01*
X142719990Y-36122615D01*
X142797921Y-36122615D01*
X142875851Y-36122615D01*
X142875851Y-36653092D01*
G37*
G36*
X143975087Y-36603872D02*
G01*
X143975087Y-37134349D01*
X143898523Y-37134349D01*
X143821960Y-37134349D01*
X143821960Y-36603872D01*
X143821960Y-36073395D01*
X143898523Y-36073395D01*
X143975087Y-36073395D01*
X143975087Y-36603872D01*
G37*
G36*
X144078995Y-34838806D02*
G01*
X144078995Y-35367916D01*
X144002431Y-35367916D01*
X143925868Y-35367916D01*
X143925868Y-34838806D01*
X143925868Y-34309697D01*
X144002431Y-34309697D01*
X144078995Y-34309697D01*
X144078995Y-34838806D01*
G37*
G36*
X144604003Y-34898963D02*
G01*
X144604003Y-35367916D01*
X144527439Y-35367916D01*
X144450876Y-35367916D01*
X144450876Y-34898963D01*
X144450876Y-34430011D01*
X144527439Y-34430011D01*
X144604003Y-34430011D01*
X144604003Y-34898963D01*
G37*
G36*
X144871976Y-37053684D02*
G01*
X144871976Y-37134349D01*
X144505564Y-37134349D01*
X144139152Y-37134349D01*
X144139152Y-37053684D01*
X144139152Y-36973019D01*
X144505564Y-36973019D01*
X144871976Y-36973019D01*
X144871976Y-37053684D01*
G37*
%TD*%
D11*
%TO.C,J3*%
X101510000Y-20000000D03*
D12*
X104050000Y-20000000D03*
X106590000Y-20000000D03*
X109130000Y-20000000D03*
X111670000Y-20000000D03*
X114210000Y-20000000D03*
X116750000Y-20000000D03*
X119290000Y-20000000D03*
X121830000Y-20000000D03*
X124370000Y-20000000D03*
%TD*%
D13*
%TO.C,R1*%
X108518500Y-23048000D03*
X106693500Y-23048000D03*
%TD*%
D14*
%TO.C,U1*%
X175805000Y-29190000D03*
X175805000Y-29690000D03*
X175805000Y-30190000D03*
X175805000Y-30690000D03*
X175805000Y-31190000D03*
X176575000Y-31190000D03*
X176575000Y-30690000D03*
X176575000Y-30190000D03*
X176575000Y-29690000D03*
X176575000Y-29190000D03*
%TD*%
D15*
%TO.C,C2*%
X194092500Y-23048000D03*
X195992500Y-23048000D03*
%TD*%
D16*
%TO.C,D2*%
X132068000Y-23048000D03*
X133643000Y-23048000D03*
%TD*%
D11*
%TO.C,J3*%
X137070000Y-20000000D03*
D12*
X139610000Y-20000000D03*
X142150000Y-20000000D03*
X144690000Y-20000000D03*
X147230000Y-20000000D03*
X149770000Y-20000000D03*
X152310000Y-20000000D03*
X154850000Y-20000000D03*
X157390000Y-20000000D03*
X159930000Y-20000000D03*
%TD*%
D17*
%TO.C,C5*%
X147738000Y-36317000D03*
X147738000Y-34417000D03*
%TD*%
D18*
%TO.C,KiKit_TO_1*%
X88159000Y-25000000D03*
%TD*%
D13*
%TO.C,R1*%
X144078500Y-23048000D03*
X142253500Y-23048000D03*
%TD*%
D11*
%TO.C,J2*%
X101515000Y-40320000D03*
D12*
X104055000Y-40320000D03*
X106595000Y-40320000D03*
X109135000Y-40320000D03*
X111675000Y-40320000D03*
X114215000Y-40320000D03*
X116755000Y-40320000D03*
X119295000Y-40320000D03*
X121835000Y-40320000D03*
X124375000Y-40320000D03*
%TD*%
D17*
%TO.C,C5*%
X183298000Y-36317000D03*
X183298000Y-34417000D03*
%TD*%
D19*
%TO.C,R3*%
X145706000Y-36279500D03*
X145706000Y-34454500D03*
%TD*%
D20*
%TO.C,R2*%
X135245000Y-23048000D03*
X137070000Y-23048000D03*
%TD*%
D16*
%TO.C,D2*%
X96508000Y-23048000D03*
X98083000Y-23048000D03*
%TD*%
D21*
%TO.C,JP1*%
X139063500Y-23048000D03*
D22*
X140363500Y-23048000D03*
%TD*%
D18*
%TO.C,KiKit_TO_2*%
X208841000Y-25000000D03*
%TD*%
D20*
%TO.C,R5*%
X195466500Y-32573000D03*
X197291500Y-32573000D03*
%TD*%
D23*
%TO.C,R6*%
X126529000Y-34835500D03*
X126529000Y-36660500D03*
%TD*%
D15*
%TO.C,C3*%
X122972500Y-25588000D03*
X124872500Y-25588000D03*
%TD*%
D20*
%TO.C,R5*%
X159906500Y-32573000D03*
X161731500Y-32573000D03*
%TD*%
D19*
%TO.C,R4*%
X160184000Y-36660500D03*
X160184000Y-34835500D03*
%TD*%
D24*
%TO.C,J1*%
X101510000Y-27270000D03*
X101510000Y-33050000D03*
D25*
X102585000Y-26960000D03*
X102585000Y-27760000D03*
D26*
X102585000Y-28910000D03*
X102585000Y-29910000D03*
X102585000Y-30410000D03*
X102585000Y-31410000D03*
D25*
X102585000Y-32560000D03*
X102585000Y-33360000D03*
X102585000Y-33360000D03*
X102585000Y-32560000D03*
D26*
X102585000Y-31910000D03*
X102585000Y-30910000D03*
X102585000Y-29410000D03*
X102585000Y-28410000D03*
D25*
X102585000Y-27760000D03*
X102585000Y-26960000D03*
D27*
X102010000Y-25840000D03*
D28*
X97830000Y-25840000D03*
D27*
X102010000Y-34480000D03*
D28*
X97830000Y-34480000D03*
%TD*%
D29*
%TO.C,C4*%
X115982500Y-27493000D03*
X114082500Y-27493000D03*
%TD*%
D14*
%TO.C,U1*%
X104685000Y-29190000D03*
X104685000Y-29690000D03*
X104685000Y-30190000D03*
X104685000Y-30690000D03*
X104685000Y-31190000D03*
X105455000Y-31190000D03*
X105455000Y-30690000D03*
X105455000Y-30190000D03*
X105455000Y-29690000D03*
X105455000Y-29190000D03*
%TD*%
D15*
%TO.C,C1*%
X158532500Y-28128000D03*
X160432500Y-28128000D03*
%TD*%
D19*
%TO.C,R4*%
X124624000Y-36660500D03*
X124624000Y-34835500D03*
%TD*%
D24*
%TO.C,J1*%
X137070000Y-27270000D03*
X137070000Y-33050000D03*
D25*
X138145000Y-26960000D03*
X138145000Y-27760000D03*
D26*
X138145000Y-28910000D03*
X138145000Y-29910000D03*
X138145000Y-30410000D03*
X138145000Y-31410000D03*
D25*
X138145000Y-32560000D03*
X138145000Y-33360000D03*
X138145000Y-33360000D03*
X138145000Y-32560000D03*
D26*
X138145000Y-31910000D03*
X138145000Y-30910000D03*
X138145000Y-29410000D03*
X138145000Y-28410000D03*
D25*
X138145000Y-27760000D03*
X138145000Y-26960000D03*
D27*
X137570000Y-25840000D03*
D28*
X133390000Y-25840000D03*
D27*
X137570000Y-34480000D03*
D28*
X133390000Y-34480000D03*
%TD*%
D23*
%TO.C,R6*%
X162089000Y-34835500D03*
X162089000Y-36660500D03*
%TD*%
D11*
%TO.C,J2*%
X172635000Y-40320000D03*
D12*
X175175000Y-40320000D03*
X177715000Y-40320000D03*
X180255000Y-40320000D03*
X182795000Y-40320000D03*
X185335000Y-40320000D03*
X187875000Y-40320000D03*
X190415000Y-40320000D03*
X192955000Y-40320000D03*
X195495000Y-40320000D03*
%TD*%
D21*
%TO.C,JP1*%
X103503500Y-23048000D03*
D22*
X104803500Y-23048000D03*
%TD*%
D29*
%TO.C,C4*%
X151542500Y-27493000D03*
X149642500Y-27493000D03*
%TD*%
D19*
%TO.C,R3*%
X181266000Y-36279500D03*
X181266000Y-34454500D03*
%TD*%
D30*
%TO.C,D1*%
X157644000Y-36763000D03*
X157644000Y-33463000D03*
%TD*%
D19*
%TO.C,R3*%
X110146000Y-36279500D03*
X110146000Y-34454500D03*
%TD*%
D31*
%TO.C,U3*%
X141530000Y-25843500D03*
X140880000Y-25843500D03*
X140230000Y-25843500D03*
X140230000Y-27618500D03*
X140880000Y-27618500D03*
X141530000Y-27618500D03*
D32*
X140880000Y-26731000D03*
%TD*%
D15*
%TO.C,C2*%
X158532500Y-23048000D03*
X160432500Y-23048000D03*
%TD*%
D23*
%TO.C,R6*%
X197649000Y-34835500D03*
X197649000Y-36660500D03*
%TD*%
D20*
%TO.C,R5*%
X124346500Y-32573000D03*
X126171500Y-32573000D03*
%TD*%
D33*
%TO.C,U2*%
X140230000Y-34445500D03*
X140880000Y-34445500D03*
X141530000Y-34445500D03*
X141530000Y-32670500D03*
X140880000Y-32670500D03*
X140230000Y-32670500D03*
D32*
X140880000Y-33558000D03*
%TD*%
D30*
%TO.C,D1*%
X193204000Y-36763000D03*
X193204000Y-33463000D03*
%TD*%
D31*
%TO.C,U3*%
X105970000Y-25843500D03*
X105320000Y-25843500D03*
X104670000Y-25843500D03*
X104670000Y-27618500D03*
X105320000Y-27618500D03*
X105970000Y-27618500D03*
D32*
X105320000Y-26731000D03*
%TD*%
D14*
%TO.C,U1*%
X140245000Y-29190000D03*
X140245000Y-29690000D03*
X140245000Y-30190000D03*
X140245000Y-30690000D03*
X140245000Y-31190000D03*
X141015000Y-31190000D03*
X141015000Y-30690000D03*
X141015000Y-30190000D03*
X141015000Y-29690000D03*
X141015000Y-29190000D03*
%TD*%
D13*
%TO.C,R1*%
X179638500Y-23048000D03*
X177813500Y-23048000D03*
%TD*%
D18*
%TO.C,KiKit_TO_4*%
X208841000Y-35320000D03*
%TD*%
D24*
%TO.C,J1*%
X172630000Y-27270000D03*
X172630000Y-33050000D03*
D25*
X173705000Y-26960000D03*
X173705000Y-27760000D03*
D26*
X173705000Y-28910000D03*
X173705000Y-29910000D03*
X173705000Y-30410000D03*
X173705000Y-31410000D03*
D25*
X173705000Y-32560000D03*
X173705000Y-33360000D03*
X173705000Y-33360000D03*
X173705000Y-32560000D03*
D26*
X173705000Y-31910000D03*
X173705000Y-30910000D03*
X173705000Y-29410000D03*
X173705000Y-28410000D03*
D25*
X173705000Y-27760000D03*
X173705000Y-26960000D03*
D27*
X173130000Y-25840000D03*
D28*
X168950000Y-25840000D03*
D27*
X173130000Y-34480000D03*
D28*
X168950000Y-34480000D03*
%TD*%
D15*
%TO.C,C3*%
X194092500Y-25588000D03*
X195992500Y-25588000D03*
%TD*%
%TO.C,C2*%
X122972500Y-23048000D03*
X124872500Y-23048000D03*
%TD*%
D34*
%TO.C,U4*%
X120672500Y-24248000D03*
X120172500Y-24248000D03*
X119672500Y-24248000D03*
X119172500Y-24248000D03*
X118672500Y-24248000D03*
X118172500Y-24248000D03*
D35*
X117447500Y-24973000D03*
X117447500Y-25473000D03*
X117447500Y-25973000D03*
X117447500Y-26473000D03*
X117447500Y-26973000D03*
X117447500Y-27473000D03*
D34*
X118172500Y-28198000D03*
X118672500Y-28198000D03*
X119172500Y-28198000D03*
X119672500Y-28198000D03*
X120172500Y-28198000D03*
X120672500Y-28198000D03*
D35*
X121397500Y-27473000D03*
X121397500Y-26973000D03*
X121397500Y-26473000D03*
X121397500Y-25973000D03*
X121397500Y-25473000D03*
X121397500Y-24973000D03*
D36*
X119422500Y-26223000D03*
%TD*%
D33*
%TO.C,U2*%
X104670000Y-34445500D03*
X105320000Y-34445500D03*
X105970000Y-34445500D03*
X105970000Y-32670500D03*
X105320000Y-32670500D03*
X104670000Y-32670500D03*
D32*
X105320000Y-33558000D03*
%TD*%
D20*
%TO.C,R2*%
X99685000Y-23048000D03*
X101510000Y-23048000D03*
%TD*%
D11*
%TO.C,J2*%
X137075000Y-40320000D03*
D12*
X139615000Y-40320000D03*
X142155000Y-40320000D03*
X144695000Y-40320000D03*
X147235000Y-40320000D03*
X149775000Y-40320000D03*
X152315000Y-40320000D03*
X154855000Y-40320000D03*
X157395000Y-40320000D03*
X159935000Y-40320000D03*
%TD*%
D33*
%TO.C,U2*%
X175790000Y-34445500D03*
X176440000Y-34445500D03*
X177090000Y-34445500D03*
X177090000Y-32670500D03*
X176440000Y-32670500D03*
X175790000Y-32670500D03*
D32*
X176440000Y-33558000D03*
%TD*%
D29*
%TO.C,C4*%
X187102500Y-27493000D03*
X185202500Y-27493000D03*
%TD*%
D16*
%TO.C,D2*%
X167628000Y-23048000D03*
X169203000Y-23048000D03*
%TD*%
D37*
%TO.C,KiKit_FID_T_4*%
X208841000Y-30320000D03*
%TD*%
D34*
%TO.C,U4*%
X191792500Y-24248000D03*
X191292500Y-24248000D03*
X190792500Y-24248000D03*
X190292500Y-24248000D03*
X189792500Y-24248000D03*
X189292500Y-24248000D03*
D35*
X188567500Y-24973000D03*
X188567500Y-25473000D03*
X188567500Y-25973000D03*
X188567500Y-26473000D03*
X188567500Y-26973000D03*
X188567500Y-27473000D03*
D34*
X189292500Y-28198000D03*
X189792500Y-28198000D03*
X190292500Y-28198000D03*
X190792500Y-28198000D03*
X191292500Y-28198000D03*
X191792500Y-28198000D03*
D35*
X192517500Y-27473000D03*
X192517500Y-26973000D03*
X192517500Y-26473000D03*
X192517500Y-25973000D03*
X192517500Y-25473000D03*
X192517500Y-24973000D03*
D36*
X190542500Y-26223000D03*
%TD*%
D17*
%TO.C,C5*%
X112178000Y-36317000D03*
X112178000Y-34417000D03*
%TD*%
D34*
%TO.C,U4*%
X156232500Y-24248000D03*
X155732500Y-24248000D03*
X155232500Y-24248000D03*
X154732500Y-24248000D03*
X154232500Y-24248000D03*
X153732500Y-24248000D03*
D35*
X153007500Y-24973000D03*
X153007500Y-25473000D03*
X153007500Y-25973000D03*
X153007500Y-26473000D03*
X153007500Y-26973000D03*
X153007500Y-27473000D03*
D34*
X153732500Y-28198000D03*
X154232500Y-28198000D03*
X154732500Y-28198000D03*
X155232500Y-28198000D03*
X155732500Y-28198000D03*
X156232500Y-28198000D03*
D35*
X156957500Y-27473000D03*
X156957500Y-26973000D03*
X156957500Y-26473000D03*
X156957500Y-25973000D03*
X156957500Y-25473000D03*
X156957500Y-24973000D03*
D36*
X154982500Y-26223000D03*
%TD*%
D15*
%TO.C,C3*%
X158532500Y-25588000D03*
X160432500Y-25588000D03*
%TD*%
D38*
%TO.C,Q1*%
X119579000Y-37018000D03*
X119579000Y-35748000D03*
X119579000Y-34478000D03*
X119579000Y-33208000D03*
X114429000Y-33208000D03*
X114429000Y-34478000D03*
X114429000Y-35748000D03*
X114429000Y-37018000D03*
%TD*%
D20*
%TO.C,R2*%
X170805000Y-23048000D03*
X172630000Y-23048000D03*
%TD*%
D18*
%TO.C,KiKit_TO_3*%
X88159000Y-35320000D03*
%TD*%
D38*
%TO.C,Q1*%
X190699000Y-37018000D03*
X190699000Y-35748000D03*
X190699000Y-34478000D03*
X190699000Y-33208000D03*
X185549000Y-33208000D03*
X185549000Y-34478000D03*
X185549000Y-35748000D03*
X185549000Y-37018000D03*
%TD*%
D31*
%TO.C,U3*%
X177090000Y-25843500D03*
X176440000Y-25843500D03*
X175790000Y-25843500D03*
X175790000Y-27618500D03*
X176440000Y-27618500D03*
X177090000Y-27618500D03*
D32*
X176440000Y-26731000D03*
%TD*%
D19*
%TO.C,R4*%
X195744000Y-36660500D03*
X195744000Y-34835500D03*
%TD*%
D38*
%TO.C,Q1*%
X155139000Y-37018000D03*
X155139000Y-35748000D03*
X155139000Y-34478000D03*
X155139000Y-33208000D03*
X149989000Y-33208000D03*
X149989000Y-34478000D03*
X149989000Y-35748000D03*
X149989000Y-37018000D03*
%TD*%
D30*
%TO.C,D1*%
X122084000Y-36763000D03*
X122084000Y-33463000D03*
%TD*%
D15*
%TO.C,C1*%
X194092500Y-28128000D03*
X195992500Y-28128000D03*
%TD*%
D11*
%TO.C,J3*%
X172630000Y-20000000D03*
D12*
X175170000Y-20000000D03*
X177710000Y-20000000D03*
X180250000Y-20000000D03*
X182790000Y-20000000D03*
X185330000Y-20000000D03*
X187870000Y-20000000D03*
X190410000Y-20000000D03*
X192950000Y-20000000D03*
X195490000Y-20000000D03*
%TD*%
D15*
%TO.C,C1*%
X122972500Y-28128000D03*
X124872500Y-28128000D03*
%TD*%
D37*
%TO.C,KiKit_FID_T_1*%
X88159000Y-30000000D03*
%TD*%
D21*
%TO.C,JP1*%
X174623500Y-23048000D03*
D22*
X175923500Y-23048000D03*
%TD*%
M02*
