%TF.GenerationSoftware,KiCad,Pcbnew,8.0.2*%
%TF.CreationDate,2025-03-04T10:53:31+01:00*%
%TF.ProjectId,USB-C_PD_Module_PANELIZED,5553422d-435f-4504-945f-4d6f64756c65,rev?*%
%TF.SameCoordinates,Original*%
%TF.FileFunction,Copper,L2,Inr*%
%TF.FilePolarity,Positive*%
%FSLAX46Y46*%
G04 Gerber Fmt 4.6, Leading zero omitted, Abs format (unit mm)*
G04 Created by KiCad (PCBNEW 8.0.2) date 2025-03-04 10:53:31*
%MOMM*%
%LPD*%
G01*
G04 APERTURE LIST*
%TA.AperFunction,ComponentPad*%
%ADD10C,1.700000*%
%TD*%
%TA.AperFunction,ComponentPad*%
%ADD11O,1.700000X1.700000*%
%TD*%
%TA.AperFunction,ComponentPad*%
%ADD12O,2.100000X1.000000*%
%TD*%
%TA.AperFunction,ComponentPad*%
%ADD13O,1.800000X1.000000*%
%TD*%
%TA.AperFunction,ViaPad*%
%ADD14C,0.600000*%
%TD*%
%TA.AperFunction,ViaPad*%
%ADD15C,1.000000*%
%TD*%
G04 APERTURE END LIST*
D10*
%TO.N,Board_0-/Connector/FAULT*%
%TO.C,J3*%
X101510000Y-20000000D03*
D11*
%TO.N,Board_0-/Connector/FLIP*%
X104050000Y-20000000D03*
%TO.N,Board_0-/D-*%
X106590000Y-20000000D03*
%TO.N,Board_0-/D+*%
X109130000Y-20000000D03*
%TO.N,Board_0-GND*%
X111670000Y-20000000D03*
X114210000Y-20000000D03*
%TO.N,Board_0-/Connector/ISNK_FINE*%
X116750000Y-20000000D03*
%TO.N,Board_0-/Connector/ISNK_COARSE*%
X119290000Y-20000000D03*
%TO.N,Board_0-/Connector/VBUS_MAX*%
X121830000Y-20000000D03*
%TO.N,Board_0-/Connector/VBUS_MIN*%
X124370000Y-20000000D03*
%TD*%
D10*
%TO.N,Board_1-/Connector/FAULT*%
%TO.C,J3*%
X137070000Y-20000000D03*
D11*
%TO.N,Board_1-/Connector/FLIP*%
X139610000Y-20000000D03*
%TO.N,Board_1-/D-*%
X142150000Y-20000000D03*
%TO.N,Board_1-/D+*%
X144690000Y-20000000D03*
%TO.N,Board_1-GND*%
X147230000Y-20000000D03*
X149770000Y-20000000D03*
%TO.N,Board_1-/Connector/ISNK_FINE*%
X152310000Y-20000000D03*
%TO.N,Board_1-/Connector/ISNK_COARSE*%
X154850000Y-20000000D03*
%TO.N,Board_1-/Connector/VBUS_MAX*%
X157390000Y-20000000D03*
%TO.N,Board_1-/Connector/VBUS_MIN*%
X159930000Y-20000000D03*
%TD*%
D10*
%TO.N,Board_0-GND*%
%TO.C,J2*%
X101515000Y-40320000D03*
D11*
X104055000Y-40320000D03*
X106595000Y-40320000D03*
X109135000Y-40320000D03*
X111675000Y-40320000D03*
%TO.N,Board_0-VBUSOUT*%
X114215000Y-40320000D03*
X116755000Y-40320000D03*
X119295000Y-40320000D03*
X121835000Y-40320000D03*
X124375000Y-40320000D03*
%TD*%
D12*
%TO.N,Board_0-unconnected-(J1-SHIELD-PadS1)_0*%
%TO.C,J1*%
X102010000Y-25840000D03*
D13*
%TO.N,Board_0-unconnected-(J1-SHIELD-PadS1)*%
X97830000Y-25840000D03*
D12*
%TO.N,Board_0-unconnected-(J1-SHIELD-PadS1)_2*%
X102010000Y-34480000D03*
D13*
%TO.N,Board_0-unconnected-(J1-SHIELD-PadS1)_1*%
X97830000Y-34480000D03*
%TD*%
D12*
%TO.N,Board_1-unconnected-(J1-SHIELD-PadS1)_0*%
%TO.C,J1*%
X137570000Y-25840000D03*
D13*
%TO.N,Board_1-unconnected-(J1-SHIELD-PadS1)*%
X133390000Y-25840000D03*
D12*
%TO.N,Board_1-unconnected-(J1-SHIELD-PadS1)_2*%
X137570000Y-34480000D03*
D13*
%TO.N,Board_1-unconnected-(J1-SHIELD-PadS1)_1*%
X133390000Y-34480000D03*
%TD*%
D10*
%TO.N,Board_2-GND*%
%TO.C,J2*%
X172635000Y-40320000D03*
D11*
X175175000Y-40320000D03*
X177715000Y-40320000D03*
X180255000Y-40320000D03*
X182795000Y-40320000D03*
%TO.N,Board_2-VBUSOUT*%
X185335000Y-40320000D03*
X187875000Y-40320000D03*
X190415000Y-40320000D03*
X192955000Y-40320000D03*
X195495000Y-40320000D03*
%TD*%
D12*
%TO.N,Board_2-unconnected-(J1-SHIELD-PadS1)_0*%
%TO.C,J1*%
X173130000Y-25840000D03*
D13*
%TO.N,Board_2-unconnected-(J1-SHIELD-PadS1)*%
X168950000Y-25840000D03*
D12*
%TO.N,Board_2-unconnected-(J1-SHIELD-PadS1)_2*%
X173130000Y-34480000D03*
D13*
%TO.N,Board_2-unconnected-(J1-SHIELD-PadS1)_1*%
X168950000Y-34480000D03*
%TD*%
D10*
%TO.N,Board_1-GND*%
%TO.C,J2*%
X137075000Y-40320000D03*
D11*
X139615000Y-40320000D03*
X142155000Y-40320000D03*
X144695000Y-40320000D03*
X147235000Y-40320000D03*
%TO.N,Board_1-VBUSOUT*%
X149775000Y-40320000D03*
X152315000Y-40320000D03*
X154855000Y-40320000D03*
X157395000Y-40320000D03*
X159935000Y-40320000D03*
%TD*%
D10*
%TO.N,Board_2-/Connector/FAULT*%
%TO.C,J3*%
X172630000Y-20000000D03*
D11*
%TO.N,Board_2-/Connector/FLIP*%
X175170000Y-20000000D03*
%TO.N,Board_2-/D-*%
X177710000Y-20000000D03*
%TO.N,Board_2-/D+*%
X180250000Y-20000000D03*
%TO.N,Board_2-GND*%
X182790000Y-20000000D03*
X185330000Y-20000000D03*
%TO.N,Board_2-/Connector/ISNK_FINE*%
X187870000Y-20000000D03*
%TO.N,Board_2-/Connector/ISNK_COARSE*%
X190410000Y-20000000D03*
%TO.N,Board_2-/Connector/VBUS_MAX*%
X192950000Y-20000000D03*
%TO.N,Board_2-/Connector/VBUS_MIN*%
X195490000Y-20000000D03*
%TD*%
D14*
%TO.N,Board_0-+3V3*%
X109892000Y-23048000D03*
D15*
X123704321Y-24343587D03*
D14*
%TO.N,Board_0-/Connector/FAULT*%
X111923980Y-25588000D03*
X108876000Y-25207000D03*
%TO.N,Board_0-/D+*%
X107352000Y-30615997D03*
%TO.N,Board_0-/D-*%
X107352000Y-29765997D03*
%TO.N,Board_0-/Main Sheet/VBUS_FET_EN*%
X128180000Y-36764000D03*
X119672500Y-22632800D03*
%TO.N,Board_0-/USB-C Connector and Protection/CC1*%
X119544000Y-29398000D03*
X106590000Y-28890000D03*
%TO.N,Board_0-/USB-C Connector and Protection/CC2*%
X106590000Y-31430000D03*
X118274000Y-29397988D03*
%TO.N,Board_0-GND*%
X128180000Y-25080000D03*
X96430000Y-27620000D03*
X126148000Y-23048000D03*
X105320000Y-37780000D03*
X103796000Y-33462000D03*
X96430000Y-30160000D03*
X126910000Y-39050000D03*
X98905000Y-30160000D03*
X103796000Y-34224000D03*
X111670000Y-28890000D03*
X110400000Y-27620000D03*
X128180000Y-30160000D03*
X121068000Y-29652000D03*
X97700000Y-37780000D03*
X103796000Y-26096000D03*
X98970000Y-27620000D03*
X112940000Y-23810000D03*
X101510000Y-36510000D03*
X129450000Y-36510000D03*
X129450000Y-26350000D03*
X96430000Y-39050000D03*
X98970000Y-36510000D03*
X103796000Y-34986000D03*
X96430000Y-36510000D03*
X96430000Y-32700000D03*
X103796000Y-26858000D03*
X115480000Y-23810000D03*
X122592000Y-34732000D03*
X129450000Y-33970000D03*
X103796000Y-25334000D03*
X128180000Y-27620000D03*
X111416000Y-32827000D03*
X100240000Y-28890000D03*
X113448000Y-29652000D03*
X106285200Y-30190917D03*
X102780000Y-37780000D03*
X104050000Y-36510000D03*
X129450000Y-28890000D03*
X129450000Y-31430000D03*
X98970000Y-39050000D03*
X97700000Y-28890000D03*
X98970000Y-32700000D03*
X100240000Y-31430000D03*
X129450000Y-39050000D03*
X126910000Y-26350000D03*
X100240000Y-37780000D03*
X97700000Y-31430000D03*
X126910000Y-28890000D03*
X124116000Y-29652000D03*
X112547542Y-27493000D03*
X126148000Y-25588000D03*
D15*
X119477500Y-26168000D03*
D14*
X126148000Y-28128000D03*
X109892000Y-33208000D03*
X100748000Y-21270000D03*
%TO.N,Board_0-VBUSOUT*%
X115988000Y-37079997D03*
X116750000Y-36256000D03*
X115988000Y-36256000D03*
X116750000Y-37841997D03*
X116750000Y-37079997D03*
X116750000Y-35494000D03*
X115982500Y-30159994D03*
X117512000Y-37841997D03*
X116750000Y-34732000D03*
X116750000Y-33908003D03*
X115988000Y-37841997D03*
X115988000Y-34732000D03*
X115988000Y-33908003D03*
X117512000Y-37079997D03*
X116750000Y-33208000D03*
X115988000Y-33208000D03*
X115988000Y-35494000D03*
X117512000Y-36256000D03*
D15*
%TO.N,Board_1-+3V3*%
X159264321Y-24343587D03*
D14*
X145452000Y-23048000D03*
%TO.N,Board_1-/Connector/FAULT*%
X144436000Y-25207000D03*
X147483980Y-25588000D03*
%TO.N,Board_1-/D+*%
X142912000Y-30615997D03*
%TO.N,Board_1-/D-*%
X142912000Y-29765997D03*
%TO.N,Board_1-/Main Sheet/VBUS_FET_EN*%
X155232500Y-22632800D03*
X163740000Y-36764000D03*
%TO.N,Board_1-/USB-C Connector and Protection/CC1*%
X155104000Y-29398000D03*
X142150000Y-28890000D03*
%TO.N,Board_1-/USB-C Connector and Protection/CC2*%
X153834000Y-29397988D03*
X142150000Y-31430000D03*
%TO.N,Board_1-GND*%
X162470000Y-26350000D03*
X135800000Y-31430000D03*
X147230000Y-28890000D03*
X139356000Y-33462000D03*
X139356000Y-26858000D03*
X136308000Y-21270000D03*
X145452000Y-33208000D03*
X165010000Y-31430000D03*
X134530000Y-36510000D03*
X139356000Y-34224000D03*
X134465000Y-30160000D03*
X159676000Y-29652000D03*
X138340000Y-37780000D03*
X162470000Y-39050000D03*
X165010000Y-36510000D03*
X135800000Y-37780000D03*
X131990000Y-27620000D03*
X163740000Y-27620000D03*
X151040000Y-23810000D03*
X165010000Y-39050000D03*
X131990000Y-32700000D03*
X163740000Y-25080000D03*
X139356000Y-34986000D03*
X133260000Y-37780000D03*
X165010000Y-33970000D03*
X161708000Y-28128000D03*
X131990000Y-39050000D03*
X135800000Y-28890000D03*
X161708000Y-25588000D03*
X133260000Y-28890000D03*
X163740000Y-30160000D03*
X158152000Y-34732000D03*
X161708000Y-23048000D03*
D15*
X155037500Y-26168000D03*
D14*
X133260000Y-31430000D03*
X149008000Y-29652000D03*
X156628000Y-29652000D03*
X148500000Y-23810000D03*
X165010000Y-26350000D03*
X134530000Y-27620000D03*
X139610000Y-36510000D03*
X139356000Y-25334000D03*
X162470000Y-28890000D03*
X165010000Y-28890000D03*
X145960000Y-27620000D03*
X139356000Y-26096000D03*
X131990000Y-30160000D03*
X131990000Y-36510000D03*
X137070000Y-36510000D03*
X140880000Y-37780000D03*
X134530000Y-32700000D03*
X141845200Y-30190917D03*
X134530000Y-39050000D03*
X146976000Y-32827000D03*
X148107542Y-27493000D03*
%TO.N,Board_1-VBUSOUT*%
X153072000Y-37841997D03*
X151548000Y-33908003D03*
X152310000Y-35494000D03*
X152310000Y-37079997D03*
X152310000Y-33908003D03*
X151548000Y-34732000D03*
X152310000Y-37841997D03*
X151542500Y-30159994D03*
X152310000Y-36256000D03*
X151548000Y-33208000D03*
X151548000Y-35494000D03*
X151548000Y-37841997D03*
X151548000Y-36256000D03*
X152310000Y-33208000D03*
X151548000Y-37079997D03*
X153072000Y-36256000D03*
X152310000Y-34732000D03*
X153072000Y-37079997D03*
%TO.N,Board_2-+3V3*%
X181012000Y-23048000D03*
D15*
X194824321Y-24343587D03*
D14*
%TO.N,Board_2-/Connector/FAULT*%
X183043980Y-25588000D03*
X179996000Y-25207000D03*
%TO.N,Board_2-/D+*%
X178472000Y-30615997D03*
%TO.N,Board_2-/D-*%
X178472000Y-29765997D03*
%TO.N,Board_2-/Main Sheet/VBUS_FET_EN*%
X190792500Y-22632800D03*
X199300000Y-36764000D03*
%TO.N,Board_2-/USB-C Connector and Protection/CC1*%
X190664000Y-29398000D03*
X177710000Y-28890000D03*
%TO.N,Board_2-/USB-C Connector and Protection/CC2*%
X189394000Y-29397988D03*
X177710000Y-31430000D03*
%TO.N,Board_2-GND*%
X181012000Y-33208000D03*
X167550000Y-27620000D03*
X174916000Y-34224000D03*
X167550000Y-30160000D03*
X200570000Y-39050000D03*
X200570000Y-28890000D03*
X200570000Y-26350000D03*
X167550000Y-32700000D03*
X183667542Y-27493000D03*
X199300000Y-30160000D03*
X168820000Y-37780000D03*
X171360000Y-28890000D03*
X168820000Y-28890000D03*
X193712000Y-34732000D03*
X174916000Y-34986000D03*
X182536000Y-32827000D03*
X167550000Y-36510000D03*
X171868000Y-21270000D03*
X174916000Y-33462000D03*
X182790000Y-28890000D03*
X200570000Y-36510000D03*
D15*
X190597500Y-26168000D03*
D14*
X170090000Y-39050000D03*
X199300000Y-27620000D03*
X184060000Y-23810000D03*
X173900000Y-37780000D03*
X186600000Y-23810000D03*
X184568000Y-29652000D03*
X170025000Y-30160000D03*
X200570000Y-31430000D03*
X170090000Y-27620000D03*
X177405200Y-30190917D03*
X170090000Y-36510000D03*
X171360000Y-37780000D03*
X168820000Y-31430000D03*
X181520000Y-27620000D03*
X198030000Y-28890000D03*
X197268000Y-25588000D03*
X198030000Y-39050000D03*
X192188000Y-29652000D03*
X197268000Y-23048000D03*
X200570000Y-33970000D03*
X195236000Y-29652000D03*
X167550000Y-39050000D03*
X174916000Y-26858000D03*
X172630000Y-36510000D03*
X174916000Y-25334000D03*
X176440000Y-37780000D03*
X199300000Y-25080000D03*
X198030000Y-26350000D03*
X175170000Y-36510000D03*
X171360000Y-31430000D03*
X174916000Y-26096000D03*
X197268000Y-28128000D03*
X170090000Y-32700000D03*
%TO.N,Board_2-VBUSOUT*%
X187870000Y-37079997D03*
X187870000Y-35494000D03*
X188632000Y-37079997D03*
X187870000Y-37841997D03*
X187108000Y-37079997D03*
X187108000Y-36256000D03*
X187102500Y-30159994D03*
X187870000Y-34732000D03*
X187870000Y-33208000D03*
X187108000Y-37841997D03*
X187870000Y-36256000D03*
X188632000Y-37841997D03*
X187108000Y-35494000D03*
X188632000Y-36256000D03*
X187108000Y-33908003D03*
X187108000Y-34732000D03*
X187870000Y-33908003D03*
X187108000Y-33208000D03*
%TD*%
%TA.AperFunction,Conductor*%
%TO.N,Board_1-GND*%
G36*
X136139090Y-20520185D02*
G01*
X136181408Y-20566045D01*
X136192315Y-20586451D01*
X136323589Y-20746410D01*
X136420209Y-20825702D01*
X136483550Y-20877685D01*
X136666046Y-20975232D01*
X136864066Y-21035300D01*
X136864065Y-21035300D01*
X136882529Y-21037118D01*
X137070000Y-21055583D01*
X137275934Y-21035300D01*
X137473954Y-20975232D01*
X137656450Y-20877685D01*
X137816410Y-20746410D01*
X137947685Y-20586450D01*
X137958592Y-20566045D01*
X138007555Y-20516202D01*
X138067949Y-20500500D01*
X138612051Y-20500500D01*
X138679090Y-20520185D01*
X138721408Y-20566045D01*
X138732315Y-20586451D01*
X138863589Y-20746410D01*
X138960209Y-20825702D01*
X139023550Y-20877685D01*
X139206046Y-20975232D01*
X139404066Y-21035300D01*
X139404065Y-21035300D01*
X139422529Y-21037118D01*
X139610000Y-21055583D01*
X139815934Y-21035300D01*
X140013954Y-20975232D01*
X140196450Y-20877685D01*
X140356410Y-20746410D01*
X140487685Y-20586450D01*
X140498592Y-20566045D01*
X140547555Y-20516202D01*
X140607949Y-20500500D01*
X141152051Y-20500500D01*
X141219090Y-20520185D01*
X141261408Y-20566045D01*
X141272315Y-20586451D01*
X141403589Y-20746410D01*
X141500209Y-20825702D01*
X141563550Y-20877685D01*
X141746046Y-20975232D01*
X141944066Y-21035300D01*
X141944065Y-21035300D01*
X141962529Y-21037118D01*
X142150000Y-21055583D01*
X142355934Y-21035300D01*
X142553954Y-20975232D01*
X142736450Y-20877685D01*
X142896410Y-20746410D01*
X143027685Y-20586450D01*
X143038592Y-20566045D01*
X143087555Y-20516202D01*
X143147949Y-20500500D01*
X143692051Y-20500500D01*
X143759090Y-20520185D01*
X143801408Y-20566045D01*
X143812315Y-20586451D01*
X143943589Y-20746410D01*
X144040209Y-20825702D01*
X144103550Y-20877685D01*
X144286046Y-20975232D01*
X144484066Y-21035300D01*
X144484065Y-21035300D01*
X144502529Y-21037118D01*
X144690000Y-21055583D01*
X144895934Y-21035300D01*
X145093954Y-20975232D01*
X145276450Y-20877685D01*
X145436410Y-20746410D01*
X145567685Y-20586450D01*
X145578592Y-20566045D01*
X145627555Y-20516202D01*
X145687949Y-20500500D01*
X151312051Y-20500500D01*
X151379090Y-20520185D01*
X151421408Y-20566045D01*
X151432315Y-20586451D01*
X151563589Y-20746410D01*
X151660209Y-20825702D01*
X151723550Y-20877685D01*
X151906046Y-20975232D01*
X152104066Y-21035300D01*
X152104065Y-21035300D01*
X152122529Y-21037118D01*
X152310000Y-21055583D01*
X152515934Y-21035300D01*
X152713954Y-20975232D01*
X152896450Y-20877685D01*
X153056410Y-20746410D01*
X153187685Y-20586450D01*
X153198592Y-20566045D01*
X153247555Y-20516202D01*
X153307949Y-20500500D01*
X153852051Y-20500500D01*
X153919090Y-20520185D01*
X153961408Y-20566045D01*
X153972315Y-20586451D01*
X154103589Y-20746410D01*
X154200209Y-20825702D01*
X154263550Y-20877685D01*
X154446046Y-20975232D01*
X154644066Y-21035300D01*
X154644065Y-21035300D01*
X154662529Y-21037118D01*
X154850000Y-21055583D01*
X155055934Y-21035300D01*
X155253954Y-20975232D01*
X155436450Y-20877685D01*
X155596410Y-20746410D01*
X155727685Y-20586450D01*
X155738592Y-20566045D01*
X155787555Y-20516202D01*
X155847949Y-20500500D01*
X156392051Y-20500500D01*
X156459090Y-20520185D01*
X156501408Y-20566045D01*
X156512315Y-20586451D01*
X156643589Y-20746410D01*
X156740209Y-20825702D01*
X156803550Y-20877685D01*
X156986046Y-20975232D01*
X157184066Y-21035300D01*
X157184065Y-21035300D01*
X157202529Y-21037118D01*
X157390000Y-21055583D01*
X157595934Y-21035300D01*
X157793954Y-20975232D01*
X157976450Y-20877685D01*
X158136410Y-20746410D01*
X158267685Y-20586450D01*
X158278592Y-20566045D01*
X158327555Y-20516202D01*
X158387949Y-20500500D01*
X158932051Y-20500500D01*
X158999090Y-20520185D01*
X159041408Y-20566045D01*
X159052315Y-20586451D01*
X159183589Y-20746410D01*
X159280209Y-20825702D01*
X159343550Y-20877685D01*
X159526046Y-20975232D01*
X159724066Y-21035300D01*
X159724065Y-21035300D01*
X159742529Y-21037118D01*
X159930000Y-21055583D01*
X160135934Y-21035300D01*
X160333954Y-20975232D01*
X160516450Y-20877685D01*
X160676410Y-20746410D01*
X160807685Y-20586450D01*
X160818592Y-20566045D01*
X160867555Y-20516202D01*
X160927949Y-20500500D01*
X161649138Y-20500500D01*
X161716177Y-20520185D01*
X161736819Y-20536819D01*
X161835000Y-20635000D01*
X165521000Y-20635000D01*
X165588039Y-20654685D01*
X165633794Y-20707489D01*
X165645000Y-20759000D01*
X165645000Y-39561000D01*
X165625315Y-39628039D01*
X165572511Y-39673794D01*
X165521000Y-39685000D01*
X161834999Y-39685000D01*
X161736819Y-39783181D01*
X161675496Y-39816666D01*
X161649138Y-39819500D01*
X160932949Y-39819500D01*
X160865910Y-39799815D01*
X160823592Y-39753955D01*
X160812684Y-39733548D01*
X160681410Y-39573589D01*
X160521452Y-39442317D01*
X160521453Y-39442317D01*
X160521450Y-39442315D01*
X160338954Y-39344768D01*
X160140934Y-39284700D01*
X160140932Y-39284699D01*
X160140934Y-39284699D01*
X159935000Y-39264417D01*
X159729067Y-39284699D01*
X159531043Y-39344769D01*
X159420898Y-39403643D01*
X159348550Y-39442315D01*
X159348548Y-39442316D01*
X159348547Y-39442317D01*
X159188589Y-39573589D01*
X159057315Y-39733548D01*
X159046408Y-39753955D01*
X158997445Y-39803798D01*
X158937051Y-39819500D01*
X158392949Y-39819500D01*
X158325910Y-39799815D01*
X158283592Y-39753955D01*
X158272684Y-39733548D01*
X158141410Y-39573589D01*
X157981452Y-39442317D01*
X157981453Y-39442317D01*
X157981450Y-39442315D01*
X157798954Y-39344768D01*
X157600934Y-39284700D01*
X157600932Y-39284699D01*
X157600934Y-39284699D01*
X157395000Y-39264417D01*
X157189067Y-39284699D01*
X156991043Y-39344769D01*
X156880898Y-39403643D01*
X156808550Y-39442315D01*
X156808548Y-39442316D01*
X156808547Y-39442317D01*
X156648589Y-39573589D01*
X156517315Y-39733548D01*
X156506408Y-39753955D01*
X156457445Y-39803798D01*
X156397051Y-39819500D01*
X155852949Y-39819500D01*
X155785910Y-39799815D01*
X155743592Y-39753955D01*
X155732684Y-39733548D01*
X155601410Y-39573589D01*
X155441452Y-39442317D01*
X155441453Y-39442317D01*
X155441450Y-39442315D01*
X155258954Y-39344768D01*
X155060934Y-39284700D01*
X155060932Y-39284699D01*
X155060934Y-39284699D01*
X154855000Y-39264417D01*
X154649067Y-39284699D01*
X154451043Y-39344769D01*
X154340898Y-39403643D01*
X154268550Y-39442315D01*
X154268548Y-39442316D01*
X154268547Y-39442317D01*
X154108589Y-39573589D01*
X153977315Y-39733548D01*
X153966408Y-39753955D01*
X153917445Y-39803798D01*
X153857051Y-39819500D01*
X153312949Y-39819500D01*
X153245910Y-39799815D01*
X153203592Y-39753955D01*
X153192684Y-39733548D01*
X153061410Y-39573589D01*
X152901452Y-39442317D01*
X152901453Y-39442317D01*
X152901450Y-39442315D01*
X152718954Y-39344768D01*
X152520934Y-39284700D01*
X152520932Y-39284699D01*
X152520934Y-39284699D01*
X152315000Y-39264417D01*
X152109067Y-39284699D01*
X151911043Y-39344769D01*
X151800898Y-39403643D01*
X151728550Y-39442315D01*
X151728548Y-39442316D01*
X151728547Y-39442317D01*
X151568589Y-39573589D01*
X151437315Y-39733548D01*
X151426408Y-39753955D01*
X151377445Y-39803798D01*
X151317051Y-39819500D01*
X150772949Y-39819500D01*
X150705910Y-39799815D01*
X150663592Y-39753955D01*
X150652684Y-39733548D01*
X150521410Y-39573589D01*
X150361452Y-39442317D01*
X150361453Y-39442317D01*
X150361450Y-39442315D01*
X150178954Y-39344768D01*
X149980934Y-39284700D01*
X149980932Y-39284699D01*
X149980934Y-39284699D01*
X149775000Y-39264417D01*
X149569067Y-39284699D01*
X149371043Y-39344769D01*
X149260898Y-39403643D01*
X149188550Y-39442315D01*
X149188548Y-39442316D01*
X149188547Y-39442317D01*
X149028589Y-39573589D01*
X148897315Y-39733548D01*
X148886408Y-39753955D01*
X148837445Y-39803798D01*
X148777051Y-39819500D01*
X135350862Y-39819500D01*
X135283823Y-39799815D01*
X135263181Y-39783181D01*
X135165000Y-39685000D01*
X131479000Y-39685000D01*
X131411961Y-39665315D01*
X131366206Y-39612511D01*
X131355000Y-39561000D01*
X131355000Y-34548995D01*
X132289499Y-34548995D01*
X132316418Y-34684322D01*
X132316421Y-34684332D01*
X132369221Y-34811804D01*
X132369228Y-34811817D01*
X132445885Y-34926541D01*
X132445888Y-34926545D01*
X132543454Y-35024111D01*
X132543458Y-35024114D01*
X132658182Y-35100771D01*
X132658195Y-35100778D01*
X132785667Y-35153578D01*
X132785672Y-35153580D01*
X132785676Y-35153580D01*
X132785677Y-35153581D01*
X132921004Y-35180500D01*
X132921007Y-35180500D01*
X133858995Y-35180500D01*
X133950041Y-35162389D01*
X133994328Y-35153580D01*
X134121811Y-35100775D01*
X134236542Y-35024114D01*
X134334114Y-34926542D01*
X134410775Y-34811811D01*
X134463580Y-34684328D01*
X134490500Y-34548995D01*
X136319499Y-34548995D01*
X136346418Y-34684322D01*
X136346421Y-34684332D01*
X136399221Y-34811804D01*
X136399228Y-34811817D01*
X136475885Y-34926541D01*
X136475888Y-34926545D01*
X136573454Y-35024111D01*
X136573458Y-35024114D01*
X136688182Y-35100771D01*
X136688195Y-35100778D01*
X136815667Y-35153578D01*
X136815672Y-35153580D01*
X136815676Y-35153580D01*
X136815677Y-35153581D01*
X136951004Y-35180500D01*
X136951007Y-35180500D01*
X138188995Y-35180500D01*
X138280041Y-35162389D01*
X138324328Y-35153580D01*
X138451811Y-35100775D01*
X138566542Y-35024114D01*
X138664114Y-34926542D01*
X138740775Y-34811811D01*
X138793580Y-34684328D01*
X138820500Y-34548993D01*
X138820500Y-34411007D01*
X138820500Y-34411004D01*
X138793581Y-34275677D01*
X138793580Y-34275676D01*
X138793580Y-34275672D01*
X138778307Y-34238799D01*
X138740778Y-34148195D01*
X138740771Y-34148182D01*
X138664114Y-34033458D01*
X138664111Y-34033454D01*
X138566545Y-33935888D01*
X138566541Y-33935885D01*
X138451817Y-33859228D01*
X138451804Y-33859221D01*
X138324332Y-33806421D01*
X138324322Y-33806418D01*
X138188995Y-33779500D01*
X138188993Y-33779500D01*
X137420244Y-33779500D01*
X137353205Y-33759815D01*
X137307450Y-33707011D01*
X137297506Y-33637853D01*
X137326531Y-33574297D01*
X137358244Y-33548113D01*
X137385135Y-33532587D01*
X137423365Y-33510515D01*
X137530515Y-33403365D01*
X137606281Y-33272135D01*
X137623466Y-33208000D01*
X151042353Y-33208000D01*
X151062834Y-33350456D01*
X151122622Y-33481371D01*
X151127418Y-33488834D01*
X151124895Y-33490455D01*
X151147683Y-33540351D01*
X151137741Y-33609510D01*
X151126694Y-33626703D01*
X151127418Y-33627169D01*
X151122622Y-33634631D01*
X151062834Y-33765546D01*
X151042353Y-33908003D01*
X151062834Y-34050459D01*
X151122622Y-34181374D01*
X151122625Y-34181380D01*
X151172379Y-34238799D01*
X151201404Y-34302355D01*
X151191460Y-34371513D01*
X151172380Y-34401202D01*
X151122625Y-34458623D01*
X151122622Y-34458628D01*
X151062834Y-34589543D01*
X151042353Y-34732000D01*
X151062834Y-34874456D01*
X151122622Y-35005371D01*
X151122623Y-35005373D01*
X151145520Y-35031798D01*
X151174544Y-35095354D01*
X151164600Y-35164513D01*
X151145520Y-35194202D01*
X151122623Y-35220626D01*
X151122622Y-35220628D01*
X151062834Y-35351543D01*
X151042353Y-35494000D01*
X151062834Y-35636456D01*
X151122622Y-35767371D01*
X151122623Y-35767373D01*
X151145520Y-35793798D01*
X151174544Y-35857354D01*
X151164600Y-35926513D01*
X151145520Y-35956202D01*
X151122623Y-35982626D01*
X151122622Y-35982628D01*
X151062834Y-36113543D01*
X151042353Y-36256000D01*
X151062834Y-36398456D01*
X151122622Y-36529371D01*
X151122625Y-36529377D01*
X151172379Y-36586796D01*
X151201404Y-36650352D01*
X151191460Y-36719510D01*
X151172380Y-36749199D01*
X151122625Y-36806620D01*
X151122622Y-36806625D01*
X151062834Y-36937540D01*
X151042353Y-37079997D01*
X151062834Y-37222453D01*
X151122622Y-37353368D01*
X151122623Y-37353370D01*
X151145520Y-37379795D01*
X151174544Y-37443351D01*
X151164600Y-37512510D01*
X151145520Y-37542199D01*
X151122623Y-37568623D01*
X151122622Y-37568625D01*
X151062834Y-37699540D01*
X151042353Y-37841997D01*
X151062834Y-37984453D01*
X151122622Y-38115368D01*
X151122623Y-38115370D01*
X151216872Y-38224140D01*
X151337947Y-38301950D01*
X151337950Y-38301951D01*
X151337949Y-38301951D01*
X151476036Y-38342496D01*
X151476038Y-38342497D01*
X151476039Y-38342497D01*
X151619962Y-38342497D01*
X151619962Y-38342496D01*
X151758053Y-38301950D01*
X151861960Y-38235172D01*
X151929000Y-38215488D01*
X151996039Y-38235173D01*
X151996040Y-38235173D01*
X152099947Y-38301950D01*
X152099948Y-38301950D01*
X152099949Y-38301951D01*
X152238036Y-38342496D01*
X152238038Y-38342497D01*
X152238039Y-38342497D01*
X152381962Y-38342497D01*
X152381962Y-38342496D01*
X152520053Y-38301950D01*
X152623960Y-38235172D01*
X152691000Y-38215488D01*
X152758039Y-38235173D01*
X152758040Y-38235173D01*
X152861947Y-38301950D01*
X152861948Y-38301950D01*
X152861949Y-38301951D01*
X153000036Y-38342496D01*
X153000038Y-38342497D01*
X153000039Y-38342497D01*
X153143962Y-38342497D01*
X153143962Y-38342496D01*
X153282053Y-38301950D01*
X153403128Y-38224140D01*
X153497377Y-38115370D01*
X153557165Y-37984454D01*
X153577647Y-37841997D01*
X153557165Y-37699540D01*
X153497377Y-37568624D01*
X153474479Y-37542198D01*
X153445455Y-37478645D01*
X153455398Y-37409486D01*
X153474478Y-37379796D01*
X153497377Y-37353370D01*
X153557165Y-37222454D01*
X153577647Y-37079997D01*
X153557165Y-36937540D01*
X153497377Y-36806624D01*
X153497375Y-36806622D01*
X153497374Y-36806619D01*
X153460444Y-36764000D01*
X163234353Y-36764000D01*
X163254834Y-36906456D01*
X163269030Y-36937540D01*
X163314623Y-37037373D01*
X163408872Y-37146143D01*
X163529947Y-37223953D01*
X163529950Y-37223954D01*
X163529949Y-37223954D01*
X163668036Y-37264499D01*
X163668038Y-37264500D01*
X163668039Y-37264500D01*
X163811962Y-37264500D01*
X163811962Y-37264499D01*
X163950053Y-37223953D01*
X164071128Y-37146143D01*
X164165377Y-37037373D01*
X164225165Y-36906457D01*
X164245647Y-36764000D01*
X164225165Y-36621543D01*
X164165377Y-36490627D01*
X164071128Y-36381857D01*
X163950053Y-36304047D01*
X163950051Y-36304046D01*
X163950049Y-36304045D01*
X163950050Y-36304045D01*
X163811963Y-36263500D01*
X163811961Y-36263500D01*
X163668039Y-36263500D01*
X163668036Y-36263500D01*
X163529949Y-36304045D01*
X163408873Y-36381856D01*
X163314623Y-36490626D01*
X163314622Y-36490628D01*
X163254834Y-36621543D01*
X163234353Y-36764000D01*
X153460444Y-36764000D01*
X153447620Y-36749200D01*
X153418595Y-36685644D01*
X153428539Y-36616486D01*
X153447617Y-36586799D01*
X153497377Y-36529373D01*
X153557165Y-36398457D01*
X153577647Y-36256000D01*
X153557165Y-36113543D01*
X153497377Y-35982627D01*
X153403128Y-35873857D01*
X153282053Y-35796047D01*
X153282051Y-35796046D01*
X153282049Y-35796045D01*
X153282050Y-35796045D01*
X153143963Y-35755500D01*
X153143961Y-35755500D01*
X153000039Y-35755500D01*
X153000038Y-35755500D01*
X152953393Y-35769195D01*
X152883523Y-35769193D01*
X152824746Y-35731418D01*
X152795723Y-35667861D01*
X152795723Y-35632575D01*
X152815647Y-35494000D01*
X152795165Y-35351543D01*
X152735377Y-35220627D01*
X152712479Y-35194201D01*
X152683455Y-35130648D01*
X152693398Y-35061489D01*
X152712478Y-35031799D01*
X152735377Y-35005373D01*
X152795165Y-34874457D01*
X152815647Y-34732000D01*
X152795165Y-34589543D01*
X152735377Y-34458627D01*
X152735375Y-34458625D01*
X152735374Y-34458622D01*
X152685620Y-34401203D01*
X152656595Y-34337647D01*
X152666539Y-34268489D01*
X152685617Y-34238802D01*
X152735377Y-34181376D01*
X152795165Y-34050460D01*
X152815647Y-33908003D01*
X152795165Y-33765546D01*
X152735377Y-33634630D01*
X152735374Y-33634627D01*
X152730582Y-33627169D01*
X152733104Y-33625547D01*
X152710316Y-33575655D01*
X152720256Y-33506496D01*
X152731309Y-33489300D01*
X152730582Y-33488833D01*
X152735368Y-33481382D01*
X152735377Y-33481373D01*
X152795165Y-33350457D01*
X152815647Y-33208000D01*
X152795165Y-33065543D01*
X152735377Y-32934627D01*
X152641128Y-32825857D01*
X152520053Y-32748047D01*
X152520051Y-32748046D01*
X152520049Y-32748045D01*
X152520050Y-32748045D01*
X152381963Y-32707500D01*
X152381961Y-32707500D01*
X152238039Y-32707500D01*
X152238036Y-32707500D01*
X152099949Y-32748045D01*
X151996039Y-32814824D01*
X151928999Y-32834508D01*
X151861961Y-32814824D01*
X151758050Y-32748045D01*
X151619963Y-32707500D01*
X151619961Y-32707500D01*
X151476039Y-32707500D01*
X151476036Y-32707500D01*
X151337949Y-32748045D01*
X151216873Y-32825856D01*
X151122623Y-32934626D01*
X151122622Y-32934628D01*
X151062834Y-33065543D01*
X151042353Y-33208000D01*
X137623466Y-33208000D01*
X137645500Y-33125766D01*
X137645500Y-32974234D01*
X137606281Y-32827865D01*
X137530515Y-32696635D01*
X137423365Y-32589485D01*
X137357750Y-32551602D01*
X137292136Y-32513719D01*
X137218950Y-32494109D01*
X137145766Y-32474500D01*
X136994234Y-32474500D01*
X136847863Y-32513719D01*
X136716635Y-32589485D01*
X136716632Y-32589487D01*
X136609487Y-32696632D01*
X136609485Y-32696635D01*
X136533719Y-32827863D01*
X136494500Y-32974234D01*
X136494500Y-33125765D01*
X136533719Y-33272136D01*
X136571602Y-33337750D01*
X136609485Y-33403365D01*
X136716635Y-33510515D01*
X136716636Y-33510516D01*
X136716638Y-33510517D01*
X136839024Y-33581177D01*
X136887240Y-33631744D01*
X136900462Y-33700351D01*
X136874494Y-33765216D01*
X136820981Y-33803321D01*
X136821299Y-33804089D01*
X136817964Y-33805470D01*
X136817580Y-33805744D01*
X136816300Y-33806159D01*
X136688195Y-33859221D01*
X136688182Y-33859228D01*
X136573458Y-33935885D01*
X136573454Y-33935888D01*
X136475888Y-34033454D01*
X136475885Y-34033458D01*
X136399228Y-34148182D01*
X136399221Y-34148195D01*
X136346421Y-34275667D01*
X136346418Y-34275677D01*
X136319500Y-34411004D01*
X136319500Y-34411007D01*
X136319500Y-34548993D01*
X136319500Y-34548995D01*
X136319499Y-34548995D01*
X134490500Y-34548995D01*
X134490500Y-34548993D01*
X134490500Y-34411007D01*
X134490500Y-34411004D01*
X134463581Y-34275677D01*
X134463580Y-34275676D01*
X134463580Y-34275672D01*
X134448307Y-34238799D01*
X134410778Y-34148195D01*
X134410771Y-34148182D01*
X134334114Y-34033458D01*
X134334111Y-34033454D01*
X134236545Y-33935888D01*
X134236541Y-33935885D01*
X134121817Y-33859228D01*
X134121804Y-33859221D01*
X133994332Y-33806421D01*
X133994322Y-33806418D01*
X133858995Y-33779500D01*
X133858993Y-33779500D01*
X132921007Y-33779500D01*
X132921005Y-33779500D01*
X132785677Y-33806418D01*
X132785667Y-33806421D01*
X132658195Y-33859221D01*
X132658182Y-33859228D01*
X132543458Y-33935885D01*
X132543454Y-33935888D01*
X132445888Y-34033454D01*
X132445885Y-34033458D01*
X132369228Y-34148182D01*
X132369221Y-34148195D01*
X132316421Y-34275667D01*
X132316418Y-34275677D01*
X132289500Y-34411004D01*
X132289500Y-34411007D01*
X132289500Y-34548993D01*
X132289500Y-34548995D01*
X132289499Y-34548995D01*
X131355000Y-34548995D01*
X131355000Y-28890000D01*
X141644353Y-28890000D01*
X141664834Y-29032456D01*
X141724622Y-29163371D01*
X141724623Y-29163373D01*
X141818872Y-29272143D01*
X141939947Y-29349953D01*
X141939950Y-29349954D01*
X141939949Y-29349954D01*
X142078036Y-29390499D01*
X142078038Y-29390500D01*
X142078039Y-29390500D01*
X142221961Y-29390500D01*
X142320945Y-29361436D01*
X142390815Y-29361436D01*
X142449593Y-29399210D01*
X142478618Y-29462766D01*
X142468674Y-29531924D01*
X142426835Y-29623538D01*
X142426834Y-29623539D01*
X142406353Y-29765997D01*
X142426834Y-29908453D01*
X142476652Y-30017537D01*
X142486623Y-30039370D01*
X142539697Y-30100621D01*
X142547646Y-30109795D01*
X142576670Y-30173351D01*
X142566726Y-30242509D01*
X142547646Y-30272199D01*
X142486623Y-30342624D01*
X142486622Y-30342625D01*
X142426834Y-30473540D01*
X142406353Y-30615997D01*
X142426834Y-30758453D01*
X142435978Y-30778474D01*
X142445922Y-30847633D01*
X142416897Y-30911188D01*
X142358119Y-30948963D01*
X142288250Y-30948963D01*
X142221964Y-30929500D01*
X142221961Y-30929500D01*
X142078039Y-30929500D01*
X142078036Y-30929500D01*
X141939949Y-30970045D01*
X141818873Y-31047856D01*
X141724623Y-31156626D01*
X141724622Y-31156628D01*
X141664834Y-31287543D01*
X141644353Y-31430000D01*
X141664834Y-31572456D01*
X141724622Y-31703371D01*
X141724623Y-31703373D01*
X141818872Y-31812143D01*
X141939947Y-31889953D01*
X141939950Y-31889954D01*
X141939949Y-31889954D01*
X142078036Y-31930499D01*
X142078038Y-31930500D01*
X142078039Y-31930500D01*
X142221962Y-31930500D01*
X142221962Y-31930499D01*
X142360053Y-31889953D01*
X142481128Y-31812143D01*
X142575377Y-31703373D01*
X142635165Y-31572457D01*
X142655647Y-31430000D01*
X142635165Y-31287543D01*
X142626021Y-31267522D01*
X142616077Y-31198365D01*
X142645101Y-31134809D01*
X142703878Y-31097034D01*
X142773746Y-31097032D01*
X142773750Y-31097033D01*
X142840038Y-31116497D01*
X142840039Y-31116497D01*
X142983962Y-31116497D01*
X142983962Y-31116496D01*
X143122053Y-31075950D01*
X143243128Y-30998140D01*
X143337377Y-30889370D01*
X143397165Y-30758454D01*
X143417647Y-30615997D01*
X143397165Y-30473540D01*
X143337377Y-30342624D01*
X143276353Y-30272198D01*
X143247329Y-30208644D01*
X143254324Y-30159994D01*
X151036853Y-30159994D01*
X151057334Y-30302450D01*
X151075682Y-30342625D01*
X151117123Y-30433367D01*
X151211372Y-30542137D01*
X151332447Y-30619947D01*
X151332450Y-30619948D01*
X151332449Y-30619948D01*
X151470536Y-30660493D01*
X151470538Y-30660494D01*
X151470539Y-30660494D01*
X151614462Y-30660494D01*
X151614462Y-30660493D01*
X151752553Y-30619947D01*
X151873628Y-30542137D01*
X151967877Y-30433367D01*
X152027665Y-30302451D01*
X152048147Y-30159994D01*
X152027665Y-30017537D01*
X151967877Y-29886621D01*
X151873628Y-29777851D01*
X151752553Y-29700041D01*
X151752551Y-29700040D01*
X151752549Y-29700039D01*
X151752550Y-29700039D01*
X151614463Y-29659494D01*
X151614461Y-29659494D01*
X151470539Y-29659494D01*
X151470536Y-29659494D01*
X151332449Y-29700039D01*
X151211373Y-29777850D01*
X151117123Y-29886620D01*
X151117122Y-29886622D01*
X151057334Y-30017537D01*
X151036853Y-30159994D01*
X143254324Y-30159994D01*
X143257273Y-30139486D01*
X143276351Y-30109797D01*
X143337377Y-30039370D01*
X143397165Y-29908454D01*
X143417647Y-29765997D01*
X143397165Y-29623540D01*
X143337377Y-29492624D01*
X143255375Y-29397988D01*
X153328353Y-29397988D01*
X153348834Y-29540444D01*
X153403203Y-29659494D01*
X153408623Y-29671361D01*
X153502872Y-29780131D01*
X153623947Y-29857941D01*
X153623950Y-29857942D01*
X153623949Y-29857942D01*
X153762036Y-29898487D01*
X153762038Y-29898488D01*
X153762039Y-29898488D01*
X153905962Y-29898488D01*
X153905962Y-29898487D01*
X154044009Y-29857954D01*
X154044050Y-29857942D01*
X154044050Y-29857941D01*
X154044053Y-29857941D01*
X154165128Y-29780131D01*
X154259377Y-29671361D01*
X154319165Y-29540445D01*
X154339645Y-29398000D01*
X154598353Y-29398000D01*
X154618834Y-29540456D01*
X154678622Y-29671371D01*
X154678623Y-29671373D01*
X154772872Y-29780143D01*
X154893947Y-29857953D01*
X154893950Y-29857954D01*
X154893949Y-29857954D01*
X154991579Y-29886620D01*
X155031998Y-29898488D01*
X155032036Y-29898499D01*
X155032038Y-29898500D01*
X155032039Y-29898500D01*
X155175962Y-29898500D01*
X155175962Y-29898499D01*
X155314053Y-29857953D01*
X155435128Y-29780143D01*
X155529377Y-29671373D01*
X155589165Y-29540457D01*
X155609647Y-29398000D01*
X155589165Y-29255543D01*
X155529377Y-29124627D01*
X155435128Y-29015857D01*
X155314053Y-28938047D01*
X155314051Y-28938046D01*
X155314049Y-28938045D01*
X155314050Y-28938045D01*
X155175963Y-28897500D01*
X155175961Y-28897500D01*
X155032039Y-28897500D01*
X155032036Y-28897500D01*
X154893949Y-28938045D01*
X154772873Y-29015856D01*
X154678623Y-29124626D01*
X154678622Y-29124628D01*
X154618834Y-29255543D01*
X154598353Y-29398000D01*
X154339645Y-29398000D01*
X154339647Y-29397988D01*
X154319165Y-29255531D01*
X154259377Y-29124615D01*
X154165128Y-29015845D01*
X154044053Y-28938035D01*
X154044051Y-28938034D01*
X154044049Y-28938033D01*
X154044050Y-28938033D01*
X153905963Y-28897488D01*
X153905961Y-28897488D01*
X153762039Y-28897488D01*
X153762036Y-28897488D01*
X153623949Y-28938033D01*
X153502873Y-29015844D01*
X153502872Y-29015844D01*
X153502872Y-29015845D01*
X153502862Y-29015857D01*
X153408623Y-29124614D01*
X153408622Y-29124616D01*
X153348834Y-29255531D01*
X153328353Y-29397988D01*
X143255375Y-29397988D01*
X143243128Y-29383854D01*
X143122053Y-29306044D01*
X143122051Y-29306043D01*
X143122049Y-29306042D01*
X143122050Y-29306042D01*
X142983963Y-29265497D01*
X142983961Y-29265497D01*
X142840039Y-29265497D01*
X142741052Y-29294561D01*
X142671183Y-29294560D01*
X142612405Y-29256785D01*
X142583381Y-29193229D01*
X142593324Y-29124074D01*
X142635165Y-29032457D01*
X142655647Y-28890000D01*
X142635165Y-28747543D01*
X142575377Y-28616627D01*
X142481128Y-28507857D01*
X142360053Y-28430047D01*
X142360051Y-28430046D01*
X142360049Y-28430045D01*
X142360050Y-28430045D01*
X142221963Y-28389500D01*
X142221961Y-28389500D01*
X142078039Y-28389500D01*
X142078036Y-28389500D01*
X141939949Y-28430045D01*
X141818873Y-28507856D01*
X141724623Y-28616626D01*
X141724622Y-28616628D01*
X141664834Y-28747543D01*
X141644353Y-28890000D01*
X131355000Y-28890000D01*
X131355000Y-25908995D01*
X132289499Y-25908995D01*
X132316418Y-26044322D01*
X132316421Y-26044332D01*
X132369221Y-26171804D01*
X132369228Y-26171817D01*
X132445885Y-26286541D01*
X132445888Y-26286545D01*
X132543454Y-26384111D01*
X132543458Y-26384114D01*
X132658182Y-26460771D01*
X132658195Y-26460778D01*
X132785667Y-26513578D01*
X132785672Y-26513580D01*
X132785676Y-26513580D01*
X132785677Y-26513581D01*
X132921004Y-26540500D01*
X132921007Y-26540500D01*
X133858995Y-26540500D01*
X133982609Y-26515911D01*
X133994328Y-26513580D01*
X134121811Y-26460775D01*
X134236542Y-26384114D01*
X134334114Y-26286542D01*
X134410775Y-26171811D01*
X134463580Y-26044328D01*
X134472389Y-26000041D01*
X134490500Y-25908995D01*
X136319499Y-25908995D01*
X136346418Y-26044322D01*
X136346421Y-26044332D01*
X136399221Y-26171804D01*
X136399228Y-26171817D01*
X136475885Y-26286541D01*
X136475888Y-26286545D01*
X136573454Y-26384111D01*
X136573458Y-26384114D01*
X136688182Y-26460771D01*
X136688195Y-26460778D01*
X136821299Y-26515911D01*
X136820550Y-26517717D01*
X136871441Y-26551052D01*
X136899911Y-26614858D01*
X136889365Y-26683927D01*
X136843152Y-26736331D01*
X136839025Y-26738822D01*
X136716635Y-26809485D01*
X136716632Y-26809487D01*
X136609487Y-26916632D01*
X136609485Y-26916635D01*
X136533719Y-27047863D01*
X136494500Y-27194234D01*
X136494500Y-27345765D01*
X136533719Y-27492136D01*
X136571602Y-27557750D01*
X136609485Y-27623365D01*
X136716635Y-27730515D01*
X136847865Y-27806281D01*
X136994234Y-27845500D01*
X136994236Y-27845500D01*
X137145764Y-27845500D01*
X137145766Y-27845500D01*
X137292135Y-27806281D01*
X137423365Y-27730515D01*
X137530515Y-27623365D01*
X137606281Y-27492135D01*
X137645500Y-27345766D01*
X137645500Y-27194234D01*
X137606281Y-27047865D01*
X137530515Y-26916635D01*
X137423365Y-26809485D01*
X137423363Y-26809484D01*
X137423361Y-26809482D01*
X137358244Y-26771887D01*
X137310028Y-26721320D01*
X137296806Y-26652713D01*
X137322774Y-26587848D01*
X137379688Y-26547320D01*
X137420244Y-26540500D01*
X138188995Y-26540500D01*
X138312609Y-26515911D01*
X138324328Y-26513580D01*
X138451811Y-26460775D01*
X138566542Y-26384114D01*
X138664114Y-26286542D01*
X138740775Y-26171811D01*
X138793580Y-26044328D01*
X138802389Y-26000041D01*
X138820500Y-25908995D01*
X138820500Y-25771004D01*
X138793581Y-25635677D01*
X138793580Y-25635676D01*
X138793580Y-25635672D01*
X138773834Y-25588000D01*
X138740778Y-25508195D01*
X138740771Y-25508182D01*
X138664114Y-25393458D01*
X138664111Y-25393454D01*
X138566545Y-25295888D01*
X138566541Y-25295885D01*
X138451817Y-25219228D01*
X138451804Y-25219221D01*
X138422300Y-25207000D01*
X143930353Y-25207000D01*
X143950834Y-25349456D01*
X143994716Y-25445543D01*
X144010623Y-25480373D01*
X144104872Y-25589143D01*
X144225947Y-25666953D01*
X144225950Y-25666954D01*
X144225949Y-25666954D01*
X144364036Y-25707499D01*
X144364038Y-25707500D01*
X144364039Y-25707500D01*
X144507962Y-25707500D01*
X144507962Y-25707499D01*
X144646053Y-25666953D01*
X144767128Y-25589143D01*
X144768118Y-25588000D01*
X146978333Y-25588000D01*
X146998814Y-25730456D01*
X147058602Y-25861371D01*
X147058603Y-25861373D01*
X147152852Y-25970143D01*
X147273927Y-26047953D01*
X147273930Y-26047954D01*
X147273929Y-26047954D01*
X147412016Y-26088499D01*
X147412018Y-26088500D01*
X147412019Y-26088500D01*
X147555942Y-26088500D01*
X147555942Y-26088499D01*
X147694033Y-26047953D01*
X147815108Y-25970143D01*
X147909357Y-25861373D01*
X147969145Y-25730457D01*
X147989627Y-25588000D01*
X147969145Y-25445543D01*
X147909357Y-25314627D01*
X147815108Y-25205857D01*
X147694033Y-25128047D01*
X147694031Y-25128046D01*
X147694029Y-25128045D01*
X147694030Y-25128045D01*
X147555943Y-25087500D01*
X147555941Y-25087500D01*
X147412019Y-25087500D01*
X147412016Y-25087500D01*
X147273929Y-25128045D01*
X147152853Y-25205856D01*
X147058603Y-25314626D01*
X147058602Y-25314628D01*
X146998814Y-25445543D01*
X146978333Y-25588000D01*
X144768118Y-25588000D01*
X144861377Y-25480373D01*
X144921165Y-25349457D01*
X144941647Y-25207000D01*
X144921165Y-25064543D01*
X144861377Y-24933627D01*
X144767128Y-24824857D01*
X144646053Y-24747047D01*
X144646051Y-24747046D01*
X144646049Y-24747045D01*
X144646050Y-24747045D01*
X144507963Y-24706500D01*
X144507961Y-24706500D01*
X144364039Y-24706500D01*
X144364036Y-24706500D01*
X144225949Y-24747045D01*
X144104873Y-24824856D01*
X144010623Y-24933626D01*
X144010622Y-24933628D01*
X143950834Y-25064543D01*
X143930353Y-25207000D01*
X138422300Y-25207000D01*
X138324332Y-25166421D01*
X138324322Y-25166418D01*
X138188995Y-25139500D01*
X138188993Y-25139500D01*
X136951007Y-25139500D01*
X136951005Y-25139500D01*
X136815677Y-25166418D01*
X136815667Y-25166421D01*
X136688195Y-25219221D01*
X136688182Y-25219228D01*
X136573458Y-25295885D01*
X136573454Y-25295888D01*
X136475888Y-25393454D01*
X136475885Y-25393458D01*
X136399228Y-25508182D01*
X136399221Y-25508195D01*
X136346421Y-25635667D01*
X136346418Y-25635677D01*
X136319500Y-25771004D01*
X136319500Y-25771007D01*
X136319500Y-25908993D01*
X136319500Y-25908995D01*
X136319499Y-25908995D01*
X134490500Y-25908995D01*
X134490500Y-25771004D01*
X134463581Y-25635677D01*
X134463580Y-25635676D01*
X134463580Y-25635672D01*
X134443834Y-25588000D01*
X134410778Y-25508195D01*
X134410771Y-25508182D01*
X134334114Y-25393458D01*
X134334111Y-25393454D01*
X134236545Y-25295888D01*
X134236541Y-25295885D01*
X134121817Y-25219228D01*
X134121804Y-25219221D01*
X133994332Y-25166421D01*
X133994322Y-25166418D01*
X133858995Y-25139500D01*
X133858993Y-25139500D01*
X132921007Y-25139500D01*
X132921005Y-25139500D01*
X132785677Y-25166418D01*
X132785667Y-25166421D01*
X132658195Y-25219221D01*
X132658182Y-25219228D01*
X132543458Y-25295885D01*
X132543454Y-25295888D01*
X132445888Y-25393454D01*
X132445885Y-25393458D01*
X132369228Y-25508182D01*
X132369221Y-25508195D01*
X132316421Y-25635667D01*
X132316418Y-25635677D01*
X132289500Y-25771004D01*
X132289500Y-25771007D01*
X132289500Y-25908993D01*
X132289500Y-25908995D01*
X132289499Y-25908995D01*
X131355000Y-25908995D01*
X131355000Y-24343587D01*
X158558676Y-24343587D01*
X158579180Y-24512456D01*
X158579181Y-24512461D01*
X158639503Y-24671518D01*
X158691638Y-24747047D01*
X158736138Y-24811516D01*
X158841826Y-24905147D01*
X158863471Y-24924323D01*
X159014094Y-25003376D01*
X159014096Y-25003377D01*
X159179265Y-25044087D01*
X159349377Y-25044087D01*
X159514546Y-25003377D01*
X159594013Y-24961668D01*
X159665170Y-24924323D01*
X159665171Y-24924321D01*
X159665173Y-24924321D01*
X159792504Y-24811516D01*
X159889139Y-24671517D01*
X159949461Y-24512459D01*
X159969966Y-24343587D01*
X159949461Y-24174715D01*
X159889139Y-24015657D01*
X159792504Y-23875658D01*
X159665173Y-23762853D01*
X159665170Y-23762850D01*
X159514547Y-23683797D01*
X159349377Y-23643087D01*
X159179265Y-23643087D01*
X159014094Y-23683797D01*
X158863471Y-23762850D01*
X158736137Y-23875659D01*
X158639503Y-24015655D01*
X158579181Y-24174712D01*
X158579180Y-24174717D01*
X158558676Y-24343587D01*
X131355000Y-24343587D01*
X131355000Y-23048000D01*
X144946353Y-23048000D01*
X144966834Y-23190456D01*
X145026622Y-23321371D01*
X145026623Y-23321373D01*
X145120872Y-23430143D01*
X145241947Y-23507953D01*
X145241950Y-23507954D01*
X145241949Y-23507954D01*
X145380036Y-23548499D01*
X145380038Y-23548500D01*
X145380039Y-23548500D01*
X145523962Y-23548500D01*
X145523962Y-23548499D01*
X145662053Y-23507953D01*
X145783128Y-23430143D01*
X145877377Y-23321373D01*
X145937165Y-23190457D01*
X145957647Y-23048000D01*
X145937165Y-22905543D01*
X145877377Y-22774627D01*
X145783128Y-22665857D01*
X145731690Y-22632800D01*
X154726853Y-22632800D01*
X154747334Y-22775256D01*
X154806835Y-22905543D01*
X154807123Y-22906173D01*
X154901372Y-23014943D01*
X155022447Y-23092753D01*
X155022450Y-23092754D01*
X155022449Y-23092754D01*
X155160536Y-23133299D01*
X155160538Y-23133300D01*
X155160539Y-23133300D01*
X155304462Y-23133300D01*
X155304462Y-23133299D01*
X155442553Y-23092753D01*
X155563628Y-23014943D01*
X155657877Y-22906173D01*
X155717665Y-22775257D01*
X155738147Y-22632800D01*
X155717665Y-22490343D01*
X155657877Y-22359427D01*
X155563628Y-22250657D01*
X155442553Y-22172847D01*
X155442551Y-22172846D01*
X155442549Y-22172845D01*
X155442550Y-22172845D01*
X155304463Y-22132300D01*
X155304461Y-22132300D01*
X155160539Y-22132300D01*
X155160536Y-22132300D01*
X155022449Y-22172845D01*
X154901373Y-22250656D01*
X154807123Y-22359426D01*
X154807122Y-22359428D01*
X154747334Y-22490343D01*
X154726853Y-22632800D01*
X145731690Y-22632800D01*
X145662053Y-22588047D01*
X145662051Y-22588046D01*
X145662049Y-22588045D01*
X145662050Y-22588045D01*
X145523963Y-22547500D01*
X145523961Y-22547500D01*
X145380039Y-22547500D01*
X145380036Y-22547500D01*
X145241949Y-22588045D01*
X145120873Y-22665856D01*
X145026623Y-22774626D01*
X145026622Y-22774628D01*
X144966834Y-22905543D01*
X144946353Y-23048000D01*
X131355000Y-23048000D01*
X131355000Y-20759000D01*
X131374685Y-20691961D01*
X131427489Y-20646206D01*
X131479000Y-20635000D01*
X135165000Y-20635000D01*
X135263181Y-20536819D01*
X135324504Y-20503334D01*
X135350862Y-20500500D01*
X136072051Y-20500500D01*
X136139090Y-20520185D01*
G37*
%TD.AperFunction*%
%TD*%
%TA.AperFunction,Conductor*%
%TO.N,Board_2-GND*%
G36*
X171699090Y-20520185D02*
G01*
X171741408Y-20566045D01*
X171752315Y-20586451D01*
X171883589Y-20746410D01*
X171980209Y-20825702D01*
X172043550Y-20877685D01*
X172226046Y-20975232D01*
X172424066Y-21035300D01*
X172424065Y-21035300D01*
X172442529Y-21037118D01*
X172630000Y-21055583D01*
X172835934Y-21035300D01*
X173033954Y-20975232D01*
X173216450Y-20877685D01*
X173376410Y-20746410D01*
X173507685Y-20586450D01*
X173518592Y-20566045D01*
X173567555Y-20516202D01*
X173627949Y-20500500D01*
X174172051Y-20500500D01*
X174239090Y-20520185D01*
X174281408Y-20566045D01*
X174292315Y-20586451D01*
X174423589Y-20746410D01*
X174520209Y-20825702D01*
X174583550Y-20877685D01*
X174766046Y-20975232D01*
X174964066Y-21035300D01*
X174964065Y-21035300D01*
X174982529Y-21037118D01*
X175170000Y-21055583D01*
X175375934Y-21035300D01*
X175573954Y-20975232D01*
X175756450Y-20877685D01*
X175916410Y-20746410D01*
X176047685Y-20586450D01*
X176058592Y-20566045D01*
X176107555Y-20516202D01*
X176167949Y-20500500D01*
X176712051Y-20500500D01*
X176779090Y-20520185D01*
X176821408Y-20566045D01*
X176832315Y-20586451D01*
X176963589Y-20746410D01*
X177060209Y-20825702D01*
X177123550Y-20877685D01*
X177306046Y-20975232D01*
X177504066Y-21035300D01*
X177504065Y-21035300D01*
X177522529Y-21037118D01*
X177710000Y-21055583D01*
X177915934Y-21035300D01*
X178113954Y-20975232D01*
X178296450Y-20877685D01*
X178456410Y-20746410D01*
X178587685Y-20586450D01*
X178598592Y-20566045D01*
X178647555Y-20516202D01*
X178707949Y-20500500D01*
X179252051Y-20500500D01*
X179319090Y-20520185D01*
X179361408Y-20566045D01*
X179372315Y-20586451D01*
X179503589Y-20746410D01*
X179600209Y-20825702D01*
X179663550Y-20877685D01*
X179846046Y-20975232D01*
X180044066Y-21035300D01*
X180044065Y-21035300D01*
X180062529Y-21037118D01*
X180250000Y-21055583D01*
X180455934Y-21035300D01*
X180653954Y-20975232D01*
X180836450Y-20877685D01*
X180996410Y-20746410D01*
X181127685Y-20586450D01*
X181138592Y-20566045D01*
X181187555Y-20516202D01*
X181247949Y-20500500D01*
X186872051Y-20500500D01*
X186939090Y-20520185D01*
X186981408Y-20566045D01*
X186992315Y-20586451D01*
X187123589Y-20746410D01*
X187220209Y-20825702D01*
X187283550Y-20877685D01*
X187466046Y-20975232D01*
X187664066Y-21035300D01*
X187664065Y-21035300D01*
X187682529Y-21037118D01*
X187870000Y-21055583D01*
X188075934Y-21035300D01*
X188273954Y-20975232D01*
X188456450Y-20877685D01*
X188616410Y-20746410D01*
X188747685Y-20586450D01*
X188758592Y-20566045D01*
X188807555Y-20516202D01*
X188867949Y-20500500D01*
X189412051Y-20500500D01*
X189479090Y-20520185D01*
X189521408Y-20566045D01*
X189532315Y-20586451D01*
X189663589Y-20746410D01*
X189760209Y-20825702D01*
X189823550Y-20877685D01*
X190006046Y-20975232D01*
X190204066Y-21035300D01*
X190204065Y-21035300D01*
X190222529Y-21037118D01*
X190410000Y-21055583D01*
X190615934Y-21035300D01*
X190813954Y-20975232D01*
X190996450Y-20877685D01*
X191156410Y-20746410D01*
X191287685Y-20586450D01*
X191298592Y-20566045D01*
X191347555Y-20516202D01*
X191407949Y-20500500D01*
X191952051Y-20500500D01*
X192019090Y-20520185D01*
X192061408Y-20566045D01*
X192072315Y-20586451D01*
X192203589Y-20746410D01*
X192300209Y-20825702D01*
X192363550Y-20877685D01*
X192546046Y-20975232D01*
X192744066Y-21035300D01*
X192744065Y-21035300D01*
X192762529Y-21037118D01*
X192950000Y-21055583D01*
X193155934Y-21035300D01*
X193353954Y-20975232D01*
X193536450Y-20877685D01*
X193696410Y-20746410D01*
X193827685Y-20586450D01*
X193838592Y-20566045D01*
X193887555Y-20516202D01*
X193947949Y-20500500D01*
X194492051Y-20500500D01*
X194559090Y-20520185D01*
X194601408Y-20566045D01*
X194612315Y-20586451D01*
X194743589Y-20746410D01*
X194840209Y-20825702D01*
X194903550Y-20877685D01*
X195086046Y-20975232D01*
X195284066Y-21035300D01*
X195284065Y-21035300D01*
X195302529Y-21037118D01*
X195490000Y-21055583D01*
X195695934Y-21035300D01*
X195893954Y-20975232D01*
X196076450Y-20877685D01*
X196236410Y-20746410D01*
X196367685Y-20586450D01*
X196378592Y-20566045D01*
X196427555Y-20516202D01*
X196487949Y-20500500D01*
X197209138Y-20500500D01*
X197276177Y-20520185D01*
X197296819Y-20536819D01*
X197395000Y-20635000D01*
X201081000Y-20635000D01*
X201148039Y-20654685D01*
X201193794Y-20707489D01*
X201205000Y-20759000D01*
X201205000Y-39561000D01*
X201185315Y-39628039D01*
X201132511Y-39673794D01*
X201081000Y-39685000D01*
X197394999Y-39685000D01*
X197296819Y-39783181D01*
X197235496Y-39816666D01*
X197209138Y-39819500D01*
X196492949Y-39819500D01*
X196425910Y-39799815D01*
X196383592Y-39753955D01*
X196372684Y-39733548D01*
X196241410Y-39573589D01*
X196081452Y-39442317D01*
X196081453Y-39442317D01*
X196081450Y-39442315D01*
X195898954Y-39344768D01*
X195700934Y-39284700D01*
X195700932Y-39284699D01*
X195700934Y-39284699D01*
X195495000Y-39264417D01*
X195289067Y-39284699D01*
X195091043Y-39344769D01*
X194980898Y-39403643D01*
X194908550Y-39442315D01*
X194908548Y-39442316D01*
X194908547Y-39442317D01*
X194748589Y-39573589D01*
X194617315Y-39733548D01*
X194606408Y-39753955D01*
X194557445Y-39803798D01*
X194497051Y-39819500D01*
X193952949Y-39819500D01*
X193885910Y-39799815D01*
X193843592Y-39753955D01*
X193832684Y-39733548D01*
X193701410Y-39573589D01*
X193541452Y-39442317D01*
X193541453Y-39442317D01*
X193541450Y-39442315D01*
X193358954Y-39344768D01*
X193160934Y-39284700D01*
X193160932Y-39284699D01*
X193160934Y-39284699D01*
X192955000Y-39264417D01*
X192749067Y-39284699D01*
X192551043Y-39344769D01*
X192440898Y-39403643D01*
X192368550Y-39442315D01*
X192368548Y-39442316D01*
X192368547Y-39442317D01*
X192208589Y-39573589D01*
X192077315Y-39733548D01*
X192066408Y-39753955D01*
X192017445Y-39803798D01*
X191957051Y-39819500D01*
X191412949Y-39819500D01*
X191345910Y-39799815D01*
X191303592Y-39753955D01*
X191292684Y-39733548D01*
X191161410Y-39573589D01*
X191001452Y-39442317D01*
X191001453Y-39442317D01*
X191001450Y-39442315D01*
X190818954Y-39344768D01*
X190620934Y-39284700D01*
X190620932Y-39284699D01*
X190620934Y-39284699D01*
X190415000Y-39264417D01*
X190209067Y-39284699D01*
X190011043Y-39344769D01*
X189900898Y-39403643D01*
X189828550Y-39442315D01*
X189828548Y-39442316D01*
X189828547Y-39442317D01*
X189668589Y-39573589D01*
X189537315Y-39733548D01*
X189526408Y-39753955D01*
X189477445Y-39803798D01*
X189417051Y-39819500D01*
X188872949Y-39819500D01*
X188805910Y-39799815D01*
X188763592Y-39753955D01*
X188752684Y-39733548D01*
X188621410Y-39573589D01*
X188461452Y-39442317D01*
X188461453Y-39442317D01*
X188461450Y-39442315D01*
X188278954Y-39344768D01*
X188080934Y-39284700D01*
X188080932Y-39284699D01*
X188080934Y-39284699D01*
X187875000Y-39264417D01*
X187669067Y-39284699D01*
X187471043Y-39344769D01*
X187360898Y-39403643D01*
X187288550Y-39442315D01*
X187288548Y-39442316D01*
X187288547Y-39442317D01*
X187128589Y-39573589D01*
X186997315Y-39733548D01*
X186986408Y-39753955D01*
X186937445Y-39803798D01*
X186877051Y-39819500D01*
X186332949Y-39819500D01*
X186265910Y-39799815D01*
X186223592Y-39753955D01*
X186212684Y-39733548D01*
X186081410Y-39573589D01*
X185921452Y-39442317D01*
X185921453Y-39442317D01*
X185921450Y-39442315D01*
X185738954Y-39344768D01*
X185540934Y-39284700D01*
X185540932Y-39284699D01*
X185540934Y-39284699D01*
X185335000Y-39264417D01*
X185129067Y-39284699D01*
X184931043Y-39344769D01*
X184820898Y-39403643D01*
X184748550Y-39442315D01*
X184748548Y-39442316D01*
X184748547Y-39442317D01*
X184588589Y-39573589D01*
X184457315Y-39733548D01*
X184446408Y-39753955D01*
X184397445Y-39803798D01*
X184337051Y-39819500D01*
X170910862Y-39819500D01*
X170843823Y-39799815D01*
X170823181Y-39783181D01*
X170725000Y-39685000D01*
X167039000Y-39685000D01*
X166971961Y-39665315D01*
X166926206Y-39612511D01*
X166915000Y-39561000D01*
X166915000Y-34548995D01*
X167849499Y-34548995D01*
X167876418Y-34684322D01*
X167876421Y-34684332D01*
X167929221Y-34811804D01*
X167929228Y-34811817D01*
X168005885Y-34926541D01*
X168005888Y-34926545D01*
X168103454Y-35024111D01*
X168103458Y-35024114D01*
X168218182Y-35100771D01*
X168218195Y-35100778D01*
X168345667Y-35153578D01*
X168345672Y-35153580D01*
X168345676Y-35153580D01*
X168345677Y-35153581D01*
X168481004Y-35180500D01*
X168481007Y-35180500D01*
X169418995Y-35180500D01*
X169510041Y-35162389D01*
X169554328Y-35153580D01*
X169681811Y-35100775D01*
X169796542Y-35024114D01*
X169894114Y-34926542D01*
X169970775Y-34811811D01*
X170023580Y-34684328D01*
X170050500Y-34548995D01*
X171879499Y-34548995D01*
X171906418Y-34684322D01*
X171906421Y-34684332D01*
X171959221Y-34811804D01*
X171959228Y-34811817D01*
X172035885Y-34926541D01*
X172035888Y-34926545D01*
X172133454Y-35024111D01*
X172133458Y-35024114D01*
X172248182Y-35100771D01*
X172248195Y-35100778D01*
X172375667Y-35153578D01*
X172375672Y-35153580D01*
X172375676Y-35153580D01*
X172375677Y-35153581D01*
X172511004Y-35180500D01*
X172511007Y-35180500D01*
X173748995Y-35180500D01*
X173840041Y-35162389D01*
X173884328Y-35153580D01*
X174011811Y-35100775D01*
X174126542Y-35024114D01*
X174224114Y-34926542D01*
X174300775Y-34811811D01*
X174353580Y-34684328D01*
X174380500Y-34548993D01*
X174380500Y-34411007D01*
X174380500Y-34411004D01*
X174353581Y-34275677D01*
X174353580Y-34275676D01*
X174353580Y-34275672D01*
X174338307Y-34238799D01*
X174300778Y-34148195D01*
X174300771Y-34148182D01*
X174224114Y-34033458D01*
X174224111Y-34033454D01*
X174126545Y-33935888D01*
X174126541Y-33935885D01*
X174011817Y-33859228D01*
X174011804Y-33859221D01*
X173884332Y-33806421D01*
X173884322Y-33806418D01*
X173748995Y-33779500D01*
X173748993Y-33779500D01*
X172980244Y-33779500D01*
X172913205Y-33759815D01*
X172867450Y-33707011D01*
X172857506Y-33637853D01*
X172886531Y-33574297D01*
X172918244Y-33548113D01*
X172945135Y-33532587D01*
X172983365Y-33510515D01*
X173090515Y-33403365D01*
X173166281Y-33272135D01*
X173183466Y-33208000D01*
X186602353Y-33208000D01*
X186622834Y-33350456D01*
X186682622Y-33481371D01*
X186687418Y-33488834D01*
X186684895Y-33490455D01*
X186707683Y-33540351D01*
X186697741Y-33609510D01*
X186686694Y-33626703D01*
X186687418Y-33627169D01*
X186682622Y-33634631D01*
X186622834Y-33765546D01*
X186602353Y-33908003D01*
X186622834Y-34050459D01*
X186682622Y-34181374D01*
X186682625Y-34181380D01*
X186732379Y-34238799D01*
X186761404Y-34302355D01*
X186751460Y-34371513D01*
X186732380Y-34401202D01*
X186682625Y-34458623D01*
X186682622Y-34458628D01*
X186622834Y-34589543D01*
X186602353Y-34732000D01*
X186622834Y-34874456D01*
X186682622Y-35005371D01*
X186682623Y-35005373D01*
X186705520Y-35031798D01*
X186734544Y-35095354D01*
X186724600Y-35164513D01*
X186705520Y-35194202D01*
X186682623Y-35220626D01*
X186682622Y-35220628D01*
X186622834Y-35351543D01*
X186602353Y-35494000D01*
X186622834Y-35636456D01*
X186682622Y-35767371D01*
X186682623Y-35767373D01*
X186705520Y-35793798D01*
X186734544Y-35857354D01*
X186724600Y-35926513D01*
X186705520Y-35956202D01*
X186682623Y-35982626D01*
X186682622Y-35982628D01*
X186622834Y-36113543D01*
X186602353Y-36256000D01*
X186622834Y-36398456D01*
X186682622Y-36529371D01*
X186682625Y-36529377D01*
X186732379Y-36586796D01*
X186761404Y-36650352D01*
X186751460Y-36719510D01*
X186732380Y-36749199D01*
X186682625Y-36806620D01*
X186682622Y-36806625D01*
X186622834Y-36937540D01*
X186602353Y-37079997D01*
X186622834Y-37222453D01*
X186682622Y-37353368D01*
X186682623Y-37353370D01*
X186705520Y-37379795D01*
X186734544Y-37443351D01*
X186724600Y-37512510D01*
X186705520Y-37542199D01*
X186682623Y-37568623D01*
X186682622Y-37568625D01*
X186622834Y-37699540D01*
X186602353Y-37841997D01*
X186622834Y-37984453D01*
X186682622Y-38115368D01*
X186682623Y-38115370D01*
X186776872Y-38224140D01*
X186897947Y-38301950D01*
X186897950Y-38301951D01*
X186897949Y-38301951D01*
X187036036Y-38342496D01*
X187036038Y-38342497D01*
X187036039Y-38342497D01*
X187179962Y-38342497D01*
X187179962Y-38342496D01*
X187318053Y-38301950D01*
X187421960Y-38235172D01*
X187489000Y-38215488D01*
X187556039Y-38235173D01*
X187556040Y-38235173D01*
X187659947Y-38301950D01*
X187659948Y-38301950D01*
X187659949Y-38301951D01*
X187798036Y-38342496D01*
X187798038Y-38342497D01*
X187798039Y-38342497D01*
X187941962Y-38342497D01*
X187941962Y-38342496D01*
X188080053Y-38301950D01*
X188183960Y-38235172D01*
X188251000Y-38215488D01*
X188318039Y-38235173D01*
X188318040Y-38235173D01*
X188421947Y-38301950D01*
X188421948Y-38301950D01*
X188421949Y-38301951D01*
X188560036Y-38342496D01*
X188560038Y-38342497D01*
X188560039Y-38342497D01*
X188703962Y-38342497D01*
X188703962Y-38342496D01*
X188842053Y-38301950D01*
X188963128Y-38224140D01*
X189057377Y-38115370D01*
X189117165Y-37984454D01*
X189137647Y-37841997D01*
X189117165Y-37699540D01*
X189057377Y-37568624D01*
X189034479Y-37542198D01*
X189005455Y-37478645D01*
X189015398Y-37409486D01*
X189034478Y-37379796D01*
X189057377Y-37353370D01*
X189117165Y-37222454D01*
X189137647Y-37079997D01*
X189117165Y-36937540D01*
X189057377Y-36806624D01*
X189057375Y-36806622D01*
X189057374Y-36806619D01*
X189020444Y-36764000D01*
X198794353Y-36764000D01*
X198814834Y-36906456D01*
X198829030Y-36937540D01*
X198874623Y-37037373D01*
X198968872Y-37146143D01*
X199089947Y-37223953D01*
X199089950Y-37223954D01*
X199089949Y-37223954D01*
X199228036Y-37264499D01*
X199228038Y-37264500D01*
X199228039Y-37264500D01*
X199371962Y-37264500D01*
X199371962Y-37264499D01*
X199510053Y-37223953D01*
X199631128Y-37146143D01*
X199725377Y-37037373D01*
X199785165Y-36906457D01*
X199805647Y-36764000D01*
X199785165Y-36621543D01*
X199725377Y-36490627D01*
X199631128Y-36381857D01*
X199510053Y-36304047D01*
X199510051Y-36304046D01*
X199510049Y-36304045D01*
X199510050Y-36304045D01*
X199371963Y-36263500D01*
X199371961Y-36263500D01*
X199228039Y-36263500D01*
X199228036Y-36263500D01*
X199089949Y-36304045D01*
X198968873Y-36381856D01*
X198874623Y-36490626D01*
X198874622Y-36490628D01*
X198814834Y-36621543D01*
X198794353Y-36764000D01*
X189020444Y-36764000D01*
X189007620Y-36749200D01*
X188978595Y-36685644D01*
X188988539Y-36616486D01*
X189007617Y-36586799D01*
X189057377Y-36529373D01*
X189117165Y-36398457D01*
X189137647Y-36256000D01*
X189117165Y-36113543D01*
X189057377Y-35982627D01*
X188963128Y-35873857D01*
X188842053Y-35796047D01*
X188842051Y-35796046D01*
X188842049Y-35796045D01*
X188842050Y-35796045D01*
X188703963Y-35755500D01*
X188703961Y-35755500D01*
X188560039Y-35755500D01*
X188560038Y-35755500D01*
X188513393Y-35769195D01*
X188443523Y-35769193D01*
X188384746Y-35731418D01*
X188355723Y-35667861D01*
X188355723Y-35632575D01*
X188375647Y-35494000D01*
X188355165Y-35351543D01*
X188295377Y-35220627D01*
X188272479Y-35194201D01*
X188243455Y-35130648D01*
X188253398Y-35061489D01*
X188272478Y-35031799D01*
X188295377Y-35005373D01*
X188355165Y-34874457D01*
X188375647Y-34732000D01*
X188355165Y-34589543D01*
X188295377Y-34458627D01*
X188295375Y-34458625D01*
X188295374Y-34458622D01*
X188245620Y-34401203D01*
X188216595Y-34337647D01*
X188226539Y-34268489D01*
X188245617Y-34238802D01*
X188295377Y-34181376D01*
X188355165Y-34050460D01*
X188375647Y-33908003D01*
X188355165Y-33765546D01*
X188295377Y-33634630D01*
X188295374Y-33634627D01*
X188290582Y-33627169D01*
X188293104Y-33625547D01*
X188270316Y-33575655D01*
X188280256Y-33506496D01*
X188291309Y-33489300D01*
X188290582Y-33488833D01*
X188295368Y-33481382D01*
X188295377Y-33481373D01*
X188355165Y-33350457D01*
X188375647Y-33208000D01*
X188355165Y-33065543D01*
X188295377Y-32934627D01*
X188201128Y-32825857D01*
X188080053Y-32748047D01*
X188080051Y-32748046D01*
X188080049Y-32748045D01*
X188080050Y-32748045D01*
X187941963Y-32707500D01*
X187941961Y-32707500D01*
X187798039Y-32707500D01*
X187798036Y-32707500D01*
X187659949Y-32748045D01*
X187556039Y-32814824D01*
X187488999Y-32834508D01*
X187421961Y-32814824D01*
X187318050Y-32748045D01*
X187179963Y-32707500D01*
X187179961Y-32707500D01*
X187036039Y-32707500D01*
X187036036Y-32707500D01*
X186897949Y-32748045D01*
X186776873Y-32825856D01*
X186682623Y-32934626D01*
X186682622Y-32934628D01*
X186622834Y-33065543D01*
X186602353Y-33208000D01*
X173183466Y-33208000D01*
X173205500Y-33125766D01*
X173205500Y-32974234D01*
X173166281Y-32827865D01*
X173090515Y-32696635D01*
X172983365Y-32589485D01*
X172917750Y-32551602D01*
X172852136Y-32513719D01*
X172778950Y-32494109D01*
X172705766Y-32474500D01*
X172554234Y-32474500D01*
X172407863Y-32513719D01*
X172276635Y-32589485D01*
X172276632Y-32589487D01*
X172169487Y-32696632D01*
X172169485Y-32696635D01*
X172093719Y-32827863D01*
X172054500Y-32974234D01*
X172054500Y-33125765D01*
X172093719Y-33272136D01*
X172131602Y-33337750D01*
X172169485Y-33403365D01*
X172276635Y-33510515D01*
X172276636Y-33510516D01*
X172276638Y-33510517D01*
X172399024Y-33581177D01*
X172447240Y-33631744D01*
X172460462Y-33700351D01*
X172434494Y-33765216D01*
X172380981Y-33803321D01*
X172381299Y-33804089D01*
X172377964Y-33805470D01*
X172377580Y-33805744D01*
X172376300Y-33806159D01*
X172248195Y-33859221D01*
X172248182Y-33859228D01*
X172133458Y-33935885D01*
X172133454Y-33935888D01*
X172035888Y-34033454D01*
X172035885Y-34033458D01*
X171959228Y-34148182D01*
X171959221Y-34148195D01*
X171906421Y-34275667D01*
X171906418Y-34275677D01*
X171879500Y-34411004D01*
X171879500Y-34411007D01*
X171879500Y-34548993D01*
X171879500Y-34548995D01*
X171879499Y-34548995D01*
X170050500Y-34548995D01*
X170050500Y-34548993D01*
X170050500Y-34411007D01*
X170050500Y-34411004D01*
X170023581Y-34275677D01*
X170023580Y-34275676D01*
X170023580Y-34275672D01*
X170008307Y-34238799D01*
X169970778Y-34148195D01*
X169970771Y-34148182D01*
X169894114Y-34033458D01*
X169894111Y-34033454D01*
X169796545Y-33935888D01*
X169796541Y-33935885D01*
X169681817Y-33859228D01*
X169681804Y-33859221D01*
X169554332Y-33806421D01*
X169554322Y-33806418D01*
X169418995Y-33779500D01*
X169418993Y-33779500D01*
X168481007Y-33779500D01*
X168481005Y-33779500D01*
X168345677Y-33806418D01*
X168345667Y-33806421D01*
X168218195Y-33859221D01*
X168218182Y-33859228D01*
X168103458Y-33935885D01*
X168103454Y-33935888D01*
X168005888Y-34033454D01*
X168005885Y-34033458D01*
X167929228Y-34148182D01*
X167929221Y-34148195D01*
X167876421Y-34275667D01*
X167876418Y-34275677D01*
X167849500Y-34411004D01*
X167849500Y-34411007D01*
X167849500Y-34548993D01*
X167849500Y-34548995D01*
X167849499Y-34548995D01*
X166915000Y-34548995D01*
X166915000Y-28890000D01*
X177204353Y-28890000D01*
X177224834Y-29032456D01*
X177284622Y-29163371D01*
X177284623Y-29163373D01*
X177378872Y-29272143D01*
X177499947Y-29349953D01*
X177499950Y-29349954D01*
X177499949Y-29349954D01*
X177638036Y-29390499D01*
X177638038Y-29390500D01*
X177638039Y-29390500D01*
X177781961Y-29390500D01*
X177880945Y-29361436D01*
X177950815Y-29361436D01*
X178009593Y-29399210D01*
X178038618Y-29462766D01*
X178028674Y-29531924D01*
X177986835Y-29623538D01*
X177986834Y-29623539D01*
X177966353Y-29765997D01*
X177986834Y-29908453D01*
X178036652Y-30017537D01*
X178046623Y-30039370D01*
X178099697Y-30100621D01*
X178107646Y-30109795D01*
X178136670Y-30173351D01*
X178126726Y-30242509D01*
X178107646Y-30272199D01*
X178046623Y-30342624D01*
X178046622Y-30342625D01*
X177986834Y-30473540D01*
X177966353Y-30615997D01*
X177986834Y-30758453D01*
X177995978Y-30778474D01*
X178005922Y-30847633D01*
X177976897Y-30911188D01*
X177918119Y-30948963D01*
X177848250Y-30948963D01*
X177781964Y-30929500D01*
X177781961Y-30929500D01*
X177638039Y-30929500D01*
X177638036Y-30929500D01*
X177499949Y-30970045D01*
X177378873Y-31047856D01*
X177284623Y-31156626D01*
X177284622Y-31156628D01*
X177224834Y-31287543D01*
X177204353Y-31430000D01*
X177224834Y-31572456D01*
X177284622Y-31703371D01*
X177284623Y-31703373D01*
X177378872Y-31812143D01*
X177499947Y-31889953D01*
X177499950Y-31889954D01*
X177499949Y-31889954D01*
X177638036Y-31930499D01*
X177638038Y-31930500D01*
X177638039Y-31930500D01*
X177781962Y-31930500D01*
X177781962Y-31930499D01*
X177920053Y-31889953D01*
X178041128Y-31812143D01*
X178135377Y-31703373D01*
X178195165Y-31572457D01*
X178215647Y-31430000D01*
X178195165Y-31287543D01*
X178186021Y-31267522D01*
X178176077Y-31198365D01*
X178205101Y-31134809D01*
X178263878Y-31097034D01*
X178333746Y-31097032D01*
X178333750Y-31097033D01*
X178400038Y-31116497D01*
X178400039Y-31116497D01*
X178543962Y-31116497D01*
X178543962Y-31116496D01*
X178682053Y-31075950D01*
X178803128Y-30998140D01*
X178897377Y-30889370D01*
X178957165Y-30758454D01*
X178977647Y-30615997D01*
X178957165Y-30473540D01*
X178897377Y-30342624D01*
X178836353Y-30272198D01*
X178807329Y-30208644D01*
X178814324Y-30159994D01*
X186596853Y-30159994D01*
X186617334Y-30302450D01*
X186635682Y-30342625D01*
X186677123Y-30433367D01*
X186771372Y-30542137D01*
X186892447Y-30619947D01*
X186892450Y-30619948D01*
X186892449Y-30619948D01*
X187030536Y-30660493D01*
X187030538Y-30660494D01*
X187030539Y-30660494D01*
X187174462Y-30660494D01*
X187174462Y-30660493D01*
X187312553Y-30619947D01*
X187433628Y-30542137D01*
X187527877Y-30433367D01*
X187587665Y-30302451D01*
X187608147Y-30159994D01*
X187587665Y-30017537D01*
X187527877Y-29886621D01*
X187433628Y-29777851D01*
X187312553Y-29700041D01*
X187312551Y-29700040D01*
X187312549Y-29700039D01*
X187312550Y-29700039D01*
X187174463Y-29659494D01*
X187174461Y-29659494D01*
X187030539Y-29659494D01*
X187030536Y-29659494D01*
X186892449Y-29700039D01*
X186771373Y-29777850D01*
X186677123Y-29886620D01*
X186677122Y-29886622D01*
X186617334Y-30017537D01*
X186596853Y-30159994D01*
X178814324Y-30159994D01*
X178817273Y-30139486D01*
X178836351Y-30109797D01*
X178897377Y-30039370D01*
X178957165Y-29908454D01*
X178977647Y-29765997D01*
X178957165Y-29623540D01*
X178897377Y-29492624D01*
X178815375Y-29397988D01*
X188888353Y-29397988D01*
X188908834Y-29540444D01*
X188963203Y-29659494D01*
X188968623Y-29671361D01*
X189062872Y-29780131D01*
X189183947Y-29857941D01*
X189183950Y-29857942D01*
X189183949Y-29857942D01*
X189322036Y-29898487D01*
X189322038Y-29898488D01*
X189322039Y-29898488D01*
X189465962Y-29898488D01*
X189465962Y-29898487D01*
X189604009Y-29857954D01*
X189604050Y-29857942D01*
X189604050Y-29857941D01*
X189604053Y-29857941D01*
X189725128Y-29780131D01*
X189819377Y-29671361D01*
X189879165Y-29540445D01*
X189899645Y-29398000D01*
X190158353Y-29398000D01*
X190178834Y-29540456D01*
X190238622Y-29671371D01*
X190238623Y-29671373D01*
X190332872Y-29780143D01*
X190453947Y-29857953D01*
X190453950Y-29857954D01*
X190453949Y-29857954D01*
X190551579Y-29886620D01*
X190591998Y-29898488D01*
X190592036Y-29898499D01*
X190592038Y-29898500D01*
X190592039Y-29898500D01*
X190735962Y-29898500D01*
X190735962Y-29898499D01*
X190874053Y-29857953D01*
X190995128Y-29780143D01*
X191089377Y-29671373D01*
X191149165Y-29540457D01*
X191169647Y-29398000D01*
X191149165Y-29255543D01*
X191089377Y-29124627D01*
X190995128Y-29015857D01*
X190874053Y-28938047D01*
X190874051Y-28938046D01*
X190874049Y-28938045D01*
X190874050Y-28938045D01*
X190735963Y-28897500D01*
X190735961Y-28897500D01*
X190592039Y-28897500D01*
X190592036Y-28897500D01*
X190453949Y-28938045D01*
X190332873Y-29015856D01*
X190238623Y-29124626D01*
X190238622Y-29124628D01*
X190178834Y-29255543D01*
X190158353Y-29398000D01*
X189899645Y-29398000D01*
X189899647Y-29397988D01*
X189879165Y-29255531D01*
X189819377Y-29124615D01*
X189725128Y-29015845D01*
X189604053Y-28938035D01*
X189604051Y-28938034D01*
X189604049Y-28938033D01*
X189604050Y-28938033D01*
X189465963Y-28897488D01*
X189465961Y-28897488D01*
X189322039Y-28897488D01*
X189322036Y-28897488D01*
X189183949Y-28938033D01*
X189062873Y-29015844D01*
X189062872Y-29015844D01*
X189062872Y-29015845D01*
X189062862Y-29015857D01*
X188968623Y-29124614D01*
X188968622Y-29124616D01*
X188908834Y-29255531D01*
X188888353Y-29397988D01*
X178815375Y-29397988D01*
X178803128Y-29383854D01*
X178682053Y-29306044D01*
X178682051Y-29306043D01*
X178682049Y-29306042D01*
X178682050Y-29306042D01*
X178543963Y-29265497D01*
X178543961Y-29265497D01*
X178400039Y-29265497D01*
X178301052Y-29294561D01*
X178231183Y-29294560D01*
X178172405Y-29256785D01*
X178143381Y-29193229D01*
X178153324Y-29124074D01*
X178195165Y-29032457D01*
X178215647Y-28890000D01*
X178195165Y-28747543D01*
X178135377Y-28616627D01*
X178041128Y-28507857D01*
X177920053Y-28430047D01*
X177920051Y-28430046D01*
X177920049Y-28430045D01*
X177920050Y-28430045D01*
X177781963Y-28389500D01*
X177781961Y-28389500D01*
X177638039Y-28389500D01*
X177638036Y-28389500D01*
X177499949Y-28430045D01*
X177378873Y-28507856D01*
X177284623Y-28616626D01*
X177284622Y-28616628D01*
X177224834Y-28747543D01*
X177204353Y-28890000D01*
X166915000Y-28890000D01*
X166915000Y-25908995D01*
X167849499Y-25908995D01*
X167876418Y-26044322D01*
X167876421Y-26044332D01*
X167929221Y-26171804D01*
X167929228Y-26171817D01*
X168005885Y-26286541D01*
X168005888Y-26286545D01*
X168103454Y-26384111D01*
X168103458Y-26384114D01*
X168218182Y-26460771D01*
X168218195Y-26460778D01*
X168345667Y-26513578D01*
X168345672Y-26513580D01*
X168345676Y-26513580D01*
X168345677Y-26513581D01*
X168481004Y-26540500D01*
X168481007Y-26540500D01*
X169418995Y-26540500D01*
X169542609Y-26515911D01*
X169554328Y-26513580D01*
X169681811Y-26460775D01*
X169796542Y-26384114D01*
X169894114Y-26286542D01*
X169970775Y-26171811D01*
X170023580Y-26044328D01*
X170032389Y-26000041D01*
X170050500Y-25908995D01*
X171879499Y-25908995D01*
X171906418Y-26044322D01*
X171906421Y-26044332D01*
X171959221Y-26171804D01*
X171959228Y-26171817D01*
X172035885Y-26286541D01*
X172035888Y-26286545D01*
X172133454Y-26384111D01*
X172133458Y-26384114D01*
X172248182Y-26460771D01*
X172248195Y-26460778D01*
X172381299Y-26515911D01*
X172380550Y-26517717D01*
X172431441Y-26551052D01*
X172459911Y-26614858D01*
X172449365Y-26683927D01*
X172403152Y-26736331D01*
X172399025Y-26738822D01*
X172276635Y-26809485D01*
X172276632Y-26809487D01*
X172169487Y-26916632D01*
X172169485Y-26916635D01*
X172093719Y-27047863D01*
X172054500Y-27194234D01*
X172054500Y-27345765D01*
X172093719Y-27492136D01*
X172131602Y-27557750D01*
X172169485Y-27623365D01*
X172276635Y-27730515D01*
X172407865Y-27806281D01*
X172554234Y-27845500D01*
X172554236Y-27845500D01*
X172705764Y-27845500D01*
X172705766Y-27845500D01*
X172852135Y-27806281D01*
X172983365Y-27730515D01*
X173090515Y-27623365D01*
X173166281Y-27492135D01*
X173205500Y-27345766D01*
X173205500Y-27194234D01*
X173166281Y-27047865D01*
X173090515Y-26916635D01*
X172983365Y-26809485D01*
X172983363Y-26809484D01*
X172983361Y-26809482D01*
X172918244Y-26771887D01*
X172870028Y-26721320D01*
X172856806Y-26652713D01*
X172882774Y-26587848D01*
X172939688Y-26547320D01*
X172980244Y-26540500D01*
X173748995Y-26540500D01*
X173872609Y-26515911D01*
X173884328Y-26513580D01*
X174011811Y-26460775D01*
X174126542Y-26384114D01*
X174224114Y-26286542D01*
X174300775Y-26171811D01*
X174353580Y-26044328D01*
X174362389Y-26000041D01*
X174380500Y-25908995D01*
X174380500Y-25771004D01*
X174353581Y-25635677D01*
X174353580Y-25635676D01*
X174353580Y-25635672D01*
X174333834Y-25588000D01*
X174300778Y-25508195D01*
X174300771Y-25508182D01*
X174224114Y-25393458D01*
X174224111Y-25393454D01*
X174126545Y-25295888D01*
X174126541Y-25295885D01*
X174011817Y-25219228D01*
X174011804Y-25219221D01*
X173982300Y-25207000D01*
X179490353Y-25207000D01*
X179510834Y-25349456D01*
X179554716Y-25445543D01*
X179570623Y-25480373D01*
X179664872Y-25589143D01*
X179785947Y-25666953D01*
X179785950Y-25666954D01*
X179785949Y-25666954D01*
X179924036Y-25707499D01*
X179924038Y-25707500D01*
X179924039Y-25707500D01*
X180067962Y-25707500D01*
X180067962Y-25707499D01*
X180206053Y-25666953D01*
X180327128Y-25589143D01*
X180328118Y-25588000D01*
X182538333Y-25588000D01*
X182558814Y-25730456D01*
X182618602Y-25861371D01*
X182618603Y-25861373D01*
X182712852Y-25970143D01*
X182833927Y-26047953D01*
X182833930Y-26047954D01*
X182833929Y-26047954D01*
X182972016Y-26088499D01*
X182972018Y-26088500D01*
X182972019Y-26088500D01*
X183115942Y-26088500D01*
X183115942Y-26088499D01*
X183254033Y-26047953D01*
X183375108Y-25970143D01*
X183469357Y-25861373D01*
X183529145Y-25730457D01*
X183549627Y-25588000D01*
X183529145Y-25445543D01*
X183469357Y-25314627D01*
X183375108Y-25205857D01*
X183254033Y-25128047D01*
X183254031Y-25128046D01*
X183254029Y-25128045D01*
X183254030Y-25128045D01*
X183115943Y-25087500D01*
X183115941Y-25087500D01*
X182972019Y-25087500D01*
X182972016Y-25087500D01*
X182833929Y-25128045D01*
X182712853Y-25205856D01*
X182618603Y-25314626D01*
X182618602Y-25314628D01*
X182558814Y-25445543D01*
X182538333Y-25588000D01*
X180328118Y-25588000D01*
X180421377Y-25480373D01*
X180481165Y-25349457D01*
X180501647Y-25207000D01*
X180481165Y-25064543D01*
X180421377Y-24933627D01*
X180327128Y-24824857D01*
X180206053Y-24747047D01*
X180206051Y-24747046D01*
X180206049Y-24747045D01*
X180206050Y-24747045D01*
X180067963Y-24706500D01*
X180067961Y-24706500D01*
X179924039Y-24706500D01*
X179924036Y-24706500D01*
X179785949Y-24747045D01*
X179664873Y-24824856D01*
X179570623Y-24933626D01*
X179570622Y-24933628D01*
X179510834Y-25064543D01*
X179490353Y-25207000D01*
X173982300Y-25207000D01*
X173884332Y-25166421D01*
X173884322Y-25166418D01*
X173748995Y-25139500D01*
X173748993Y-25139500D01*
X172511007Y-25139500D01*
X172511005Y-25139500D01*
X172375677Y-25166418D01*
X172375667Y-25166421D01*
X172248195Y-25219221D01*
X172248182Y-25219228D01*
X172133458Y-25295885D01*
X172133454Y-25295888D01*
X172035888Y-25393454D01*
X172035885Y-25393458D01*
X171959228Y-25508182D01*
X171959221Y-25508195D01*
X171906421Y-25635667D01*
X171906418Y-25635677D01*
X171879500Y-25771004D01*
X171879500Y-25771007D01*
X171879500Y-25908993D01*
X171879500Y-25908995D01*
X171879499Y-25908995D01*
X170050500Y-25908995D01*
X170050500Y-25771004D01*
X170023581Y-25635677D01*
X170023580Y-25635676D01*
X170023580Y-25635672D01*
X170003834Y-25588000D01*
X169970778Y-25508195D01*
X169970771Y-25508182D01*
X169894114Y-25393458D01*
X169894111Y-25393454D01*
X169796545Y-25295888D01*
X169796541Y-25295885D01*
X169681817Y-25219228D01*
X169681804Y-25219221D01*
X169554332Y-25166421D01*
X169554322Y-25166418D01*
X169418995Y-25139500D01*
X169418993Y-25139500D01*
X168481007Y-25139500D01*
X168481005Y-25139500D01*
X168345677Y-25166418D01*
X168345667Y-25166421D01*
X168218195Y-25219221D01*
X168218182Y-25219228D01*
X168103458Y-25295885D01*
X168103454Y-25295888D01*
X168005888Y-25393454D01*
X168005885Y-25393458D01*
X167929228Y-25508182D01*
X167929221Y-25508195D01*
X167876421Y-25635667D01*
X167876418Y-25635677D01*
X167849500Y-25771004D01*
X167849500Y-25771007D01*
X167849500Y-25908993D01*
X167849500Y-25908995D01*
X167849499Y-25908995D01*
X166915000Y-25908995D01*
X166915000Y-24343587D01*
X194118676Y-24343587D01*
X194139180Y-24512456D01*
X194139181Y-24512461D01*
X194199503Y-24671518D01*
X194251638Y-24747047D01*
X194296138Y-24811516D01*
X194401826Y-24905147D01*
X194423471Y-24924323D01*
X194574094Y-25003376D01*
X194574096Y-25003377D01*
X194739265Y-25044087D01*
X194909377Y-25044087D01*
X195074546Y-25003377D01*
X195154013Y-24961668D01*
X195225170Y-24924323D01*
X195225171Y-24924321D01*
X195225173Y-24924321D01*
X195352504Y-24811516D01*
X195449139Y-24671517D01*
X195509461Y-24512459D01*
X195529966Y-24343587D01*
X195509461Y-24174715D01*
X195449139Y-24015657D01*
X195352504Y-23875658D01*
X195225173Y-23762853D01*
X195225170Y-23762850D01*
X195074547Y-23683797D01*
X194909377Y-23643087D01*
X194739265Y-23643087D01*
X194574094Y-23683797D01*
X194423471Y-23762850D01*
X194296137Y-23875659D01*
X194199503Y-24015655D01*
X194139181Y-24174712D01*
X194139180Y-24174717D01*
X194118676Y-24343587D01*
X166915000Y-24343587D01*
X166915000Y-23048000D01*
X180506353Y-23048000D01*
X180526834Y-23190456D01*
X180586622Y-23321371D01*
X180586623Y-23321373D01*
X180680872Y-23430143D01*
X180801947Y-23507953D01*
X180801950Y-23507954D01*
X180801949Y-23507954D01*
X180940036Y-23548499D01*
X180940038Y-23548500D01*
X180940039Y-23548500D01*
X181083962Y-23548500D01*
X181083962Y-23548499D01*
X181222053Y-23507953D01*
X181343128Y-23430143D01*
X181437377Y-23321373D01*
X181497165Y-23190457D01*
X181517647Y-23048000D01*
X181497165Y-22905543D01*
X181437377Y-22774627D01*
X181343128Y-22665857D01*
X181291690Y-22632800D01*
X190286853Y-22632800D01*
X190307334Y-22775256D01*
X190366835Y-22905543D01*
X190367123Y-22906173D01*
X190461372Y-23014943D01*
X190582447Y-23092753D01*
X190582450Y-23092754D01*
X190582449Y-23092754D01*
X190720536Y-23133299D01*
X190720538Y-23133300D01*
X190720539Y-23133300D01*
X190864462Y-23133300D01*
X190864462Y-23133299D01*
X191002553Y-23092753D01*
X191123628Y-23014943D01*
X191217877Y-22906173D01*
X191277665Y-22775257D01*
X191298147Y-22632800D01*
X191277665Y-22490343D01*
X191217877Y-22359427D01*
X191123628Y-22250657D01*
X191002553Y-22172847D01*
X191002551Y-22172846D01*
X191002549Y-22172845D01*
X191002550Y-22172845D01*
X190864463Y-22132300D01*
X190864461Y-22132300D01*
X190720539Y-22132300D01*
X190720536Y-22132300D01*
X190582449Y-22172845D01*
X190461373Y-22250656D01*
X190367123Y-22359426D01*
X190367122Y-22359428D01*
X190307334Y-22490343D01*
X190286853Y-22632800D01*
X181291690Y-22632800D01*
X181222053Y-22588047D01*
X181222051Y-22588046D01*
X181222049Y-22588045D01*
X181222050Y-22588045D01*
X181083963Y-22547500D01*
X181083961Y-22547500D01*
X180940039Y-22547500D01*
X180940036Y-22547500D01*
X180801949Y-22588045D01*
X180680873Y-22665856D01*
X180586623Y-22774626D01*
X180586622Y-22774628D01*
X180526834Y-22905543D01*
X180506353Y-23048000D01*
X166915000Y-23048000D01*
X166915000Y-20759000D01*
X166934685Y-20691961D01*
X166987489Y-20646206D01*
X167039000Y-20635000D01*
X170725000Y-20635000D01*
X170823181Y-20536819D01*
X170884504Y-20503334D01*
X170910862Y-20500500D01*
X171632051Y-20500500D01*
X171699090Y-20520185D01*
G37*
%TD.AperFunction*%
%TD*%
%TA.AperFunction,Conductor*%
%TO.N,Board_0-GND*%
G36*
X100579090Y-20520185D02*
G01*
X100621408Y-20566045D01*
X100632315Y-20586451D01*
X100763589Y-20746410D01*
X100860209Y-20825702D01*
X100923550Y-20877685D01*
X101106046Y-20975232D01*
X101304066Y-21035300D01*
X101304065Y-21035300D01*
X101322529Y-21037118D01*
X101510000Y-21055583D01*
X101715934Y-21035300D01*
X101913954Y-20975232D01*
X102096450Y-20877685D01*
X102256410Y-20746410D01*
X102387685Y-20586450D01*
X102398592Y-20566045D01*
X102447555Y-20516202D01*
X102507949Y-20500500D01*
X103052051Y-20500500D01*
X103119090Y-20520185D01*
X103161408Y-20566045D01*
X103172315Y-20586451D01*
X103303589Y-20746410D01*
X103400209Y-20825702D01*
X103463550Y-20877685D01*
X103646046Y-20975232D01*
X103844066Y-21035300D01*
X103844065Y-21035300D01*
X103862529Y-21037118D01*
X104050000Y-21055583D01*
X104255934Y-21035300D01*
X104453954Y-20975232D01*
X104636450Y-20877685D01*
X104796410Y-20746410D01*
X104927685Y-20586450D01*
X104938592Y-20566045D01*
X104987555Y-20516202D01*
X105047949Y-20500500D01*
X105592051Y-20500500D01*
X105659090Y-20520185D01*
X105701408Y-20566045D01*
X105712315Y-20586451D01*
X105843589Y-20746410D01*
X105940209Y-20825702D01*
X106003550Y-20877685D01*
X106186046Y-20975232D01*
X106384066Y-21035300D01*
X106384065Y-21035300D01*
X106402529Y-21037118D01*
X106590000Y-21055583D01*
X106795934Y-21035300D01*
X106993954Y-20975232D01*
X107176450Y-20877685D01*
X107336410Y-20746410D01*
X107467685Y-20586450D01*
X107478592Y-20566045D01*
X107527555Y-20516202D01*
X107587949Y-20500500D01*
X108132051Y-20500500D01*
X108199090Y-20520185D01*
X108241408Y-20566045D01*
X108252315Y-20586451D01*
X108383589Y-20746410D01*
X108480209Y-20825702D01*
X108543550Y-20877685D01*
X108726046Y-20975232D01*
X108924066Y-21035300D01*
X108924065Y-21035300D01*
X108942529Y-21037118D01*
X109130000Y-21055583D01*
X109335934Y-21035300D01*
X109533954Y-20975232D01*
X109716450Y-20877685D01*
X109876410Y-20746410D01*
X110007685Y-20586450D01*
X110018592Y-20566045D01*
X110067555Y-20516202D01*
X110127949Y-20500500D01*
X115752051Y-20500500D01*
X115819090Y-20520185D01*
X115861408Y-20566045D01*
X115872315Y-20586451D01*
X116003589Y-20746410D01*
X116100209Y-20825702D01*
X116163550Y-20877685D01*
X116346046Y-20975232D01*
X116544066Y-21035300D01*
X116544065Y-21035300D01*
X116562529Y-21037118D01*
X116750000Y-21055583D01*
X116955934Y-21035300D01*
X117153954Y-20975232D01*
X117336450Y-20877685D01*
X117496410Y-20746410D01*
X117627685Y-20586450D01*
X117638592Y-20566045D01*
X117687555Y-20516202D01*
X117747949Y-20500500D01*
X118292051Y-20500500D01*
X118359090Y-20520185D01*
X118401408Y-20566045D01*
X118412315Y-20586451D01*
X118543589Y-20746410D01*
X118640209Y-20825702D01*
X118703550Y-20877685D01*
X118886046Y-20975232D01*
X119084066Y-21035300D01*
X119084065Y-21035300D01*
X119102529Y-21037118D01*
X119290000Y-21055583D01*
X119495934Y-21035300D01*
X119693954Y-20975232D01*
X119876450Y-20877685D01*
X120036410Y-20746410D01*
X120167685Y-20586450D01*
X120178592Y-20566045D01*
X120227555Y-20516202D01*
X120287949Y-20500500D01*
X120832051Y-20500500D01*
X120899090Y-20520185D01*
X120941408Y-20566045D01*
X120952315Y-20586451D01*
X121083589Y-20746410D01*
X121180209Y-20825702D01*
X121243550Y-20877685D01*
X121426046Y-20975232D01*
X121624066Y-21035300D01*
X121624065Y-21035300D01*
X121642529Y-21037118D01*
X121830000Y-21055583D01*
X122035934Y-21035300D01*
X122233954Y-20975232D01*
X122416450Y-20877685D01*
X122576410Y-20746410D01*
X122707685Y-20586450D01*
X122718592Y-20566045D01*
X122767555Y-20516202D01*
X122827949Y-20500500D01*
X123372051Y-20500500D01*
X123439090Y-20520185D01*
X123481408Y-20566045D01*
X123492315Y-20586451D01*
X123623589Y-20746410D01*
X123720209Y-20825702D01*
X123783550Y-20877685D01*
X123966046Y-20975232D01*
X124164066Y-21035300D01*
X124164065Y-21035300D01*
X124182529Y-21037118D01*
X124370000Y-21055583D01*
X124575934Y-21035300D01*
X124773954Y-20975232D01*
X124956450Y-20877685D01*
X125116410Y-20746410D01*
X125247685Y-20586450D01*
X125258592Y-20566045D01*
X125307555Y-20516202D01*
X125367949Y-20500500D01*
X126089138Y-20500500D01*
X126156177Y-20520185D01*
X126176819Y-20536819D01*
X126275000Y-20635000D01*
X129961000Y-20635000D01*
X130028039Y-20654685D01*
X130073794Y-20707489D01*
X130085000Y-20759000D01*
X130085000Y-39561000D01*
X130065315Y-39628039D01*
X130012511Y-39673794D01*
X129961000Y-39685000D01*
X126274999Y-39685000D01*
X126176819Y-39783181D01*
X126115496Y-39816666D01*
X126089138Y-39819500D01*
X125372949Y-39819500D01*
X125305910Y-39799815D01*
X125263592Y-39753955D01*
X125252684Y-39733548D01*
X125121410Y-39573589D01*
X124961452Y-39442317D01*
X124961453Y-39442317D01*
X124961450Y-39442315D01*
X124778954Y-39344768D01*
X124580934Y-39284700D01*
X124580932Y-39284699D01*
X124580934Y-39284699D01*
X124375000Y-39264417D01*
X124169067Y-39284699D01*
X123971043Y-39344769D01*
X123860898Y-39403643D01*
X123788550Y-39442315D01*
X123788548Y-39442316D01*
X123788547Y-39442317D01*
X123628589Y-39573589D01*
X123497315Y-39733548D01*
X123486408Y-39753955D01*
X123437445Y-39803798D01*
X123377051Y-39819500D01*
X122832949Y-39819500D01*
X122765910Y-39799815D01*
X122723592Y-39753955D01*
X122712684Y-39733548D01*
X122581410Y-39573589D01*
X122421452Y-39442317D01*
X122421453Y-39442317D01*
X122421450Y-39442315D01*
X122238954Y-39344768D01*
X122040934Y-39284700D01*
X122040932Y-39284699D01*
X122040934Y-39284699D01*
X121835000Y-39264417D01*
X121629067Y-39284699D01*
X121431043Y-39344769D01*
X121320898Y-39403643D01*
X121248550Y-39442315D01*
X121248548Y-39442316D01*
X121248547Y-39442317D01*
X121088589Y-39573589D01*
X120957315Y-39733548D01*
X120946408Y-39753955D01*
X120897445Y-39803798D01*
X120837051Y-39819500D01*
X120292949Y-39819500D01*
X120225910Y-39799815D01*
X120183592Y-39753955D01*
X120172684Y-39733548D01*
X120041410Y-39573589D01*
X119881452Y-39442317D01*
X119881453Y-39442317D01*
X119881450Y-39442315D01*
X119698954Y-39344768D01*
X119500934Y-39284700D01*
X119500932Y-39284699D01*
X119500934Y-39284699D01*
X119295000Y-39264417D01*
X119089067Y-39284699D01*
X118891043Y-39344769D01*
X118780898Y-39403643D01*
X118708550Y-39442315D01*
X118708548Y-39442316D01*
X118708547Y-39442317D01*
X118548589Y-39573589D01*
X118417315Y-39733548D01*
X118406408Y-39753955D01*
X118357445Y-39803798D01*
X118297051Y-39819500D01*
X117752949Y-39819500D01*
X117685910Y-39799815D01*
X117643592Y-39753955D01*
X117632684Y-39733548D01*
X117501410Y-39573589D01*
X117341452Y-39442317D01*
X117341453Y-39442317D01*
X117341450Y-39442315D01*
X117158954Y-39344768D01*
X116960934Y-39284700D01*
X116960932Y-39284699D01*
X116960934Y-39284699D01*
X116755000Y-39264417D01*
X116549067Y-39284699D01*
X116351043Y-39344769D01*
X116240898Y-39403643D01*
X116168550Y-39442315D01*
X116168548Y-39442316D01*
X116168547Y-39442317D01*
X116008589Y-39573589D01*
X115877315Y-39733548D01*
X115866408Y-39753955D01*
X115817445Y-39803798D01*
X115757051Y-39819500D01*
X115212949Y-39819500D01*
X115145910Y-39799815D01*
X115103592Y-39753955D01*
X115092684Y-39733548D01*
X114961410Y-39573589D01*
X114801452Y-39442317D01*
X114801453Y-39442317D01*
X114801450Y-39442315D01*
X114618954Y-39344768D01*
X114420934Y-39284700D01*
X114420932Y-39284699D01*
X114420934Y-39284699D01*
X114215000Y-39264417D01*
X114009067Y-39284699D01*
X113811043Y-39344769D01*
X113700898Y-39403643D01*
X113628550Y-39442315D01*
X113628548Y-39442316D01*
X113628547Y-39442317D01*
X113468589Y-39573589D01*
X113337315Y-39733548D01*
X113326408Y-39753955D01*
X113277445Y-39803798D01*
X113217051Y-39819500D01*
X99790862Y-39819500D01*
X99723823Y-39799815D01*
X99703181Y-39783181D01*
X99605000Y-39685000D01*
X95919000Y-39685000D01*
X95851961Y-39665315D01*
X95806206Y-39612511D01*
X95795000Y-39561000D01*
X95795000Y-34548995D01*
X96729499Y-34548995D01*
X96756418Y-34684322D01*
X96756421Y-34684332D01*
X96809221Y-34811804D01*
X96809228Y-34811817D01*
X96885885Y-34926541D01*
X96885888Y-34926545D01*
X96983454Y-35024111D01*
X96983458Y-35024114D01*
X97098182Y-35100771D01*
X97098195Y-35100778D01*
X97225667Y-35153578D01*
X97225672Y-35153580D01*
X97225676Y-35153580D01*
X97225677Y-35153581D01*
X97361004Y-35180500D01*
X97361007Y-35180500D01*
X98298995Y-35180500D01*
X98390041Y-35162389D01*
X98434328Y-35153580D01*
X98561811Y-35100775D01*
X98676542Y-35024114D01*
X98774114Y-34926542D01*
X98850775Y-34811811D01*
X98903580Y-34684328D01*
X98930500Y-34548995D01*
X100759499Y-34548995D01*
X100786418Y-34684322D01*
X100786421Y-34684332D01*
X100839221Y-34811804D01*
X100839228Y-34811817D01*
X100915885Y-34926541D01*
X100915888Y-34926545D01*
X101013454Y-35024111D01*
X101013458Y-35024114D01*
X101128182Y-35100771D01*
X101128195Y-35100778D01*
X101255667Y-35153578D01*
X101255672Y-35153580D01*
X101255676Y-35153580D01*
X101255677Y-35153581D01*
X101391004Y-35180500D01*
X101391007Y-35180500D01*
X102628995Y-35180500D01*
X102720041Y-35162389D01*
X102764328Y-35153580D01*
X102891811Y-35100775D01*
X103006542Y-35024114D01*
X103104114Y-34926542D01*
X103180775Y-34811811D01*
X103233580Y-34684328D01*
X103260500Y-34548993D01*
X103260500Y-34411007D01*
X103260500Y-34411004D01*
X103233581Y-34275677D01*
X103233580Y-34275676D01*
X103233580Y-34275672D01*
X103218307Y-34238799D01*
X103180778Y-34148195D01*
X103180771Y-34148182D01*
X103104114Y-34033458D01*
X103104111Y-34033454D01*
X103006545Y-33935888D01*
X103006541Y-33935885D01*
X102891817Y-33859228D01*
X102891804Y-33859221D01*
X102764332Y-33806421D01*
X102764322Y-33806418D01*
X102628995Y-33779500D01*
X102628993Y-33779500D01*
X101860244Y-33779500D01*
X101793205Y-33759815D01*
X101747450Y-33707011D01*
X101737506Y-33637853D01*
X101766531Y-33574297D01*
X101798244Y-33548113D01*
X101825135Y-33532587D01*
X101863365Y-33510515D01*
X101970515Y-33403365D01*
X102046281Y-33272135D01*
X102063466Y-33208000D01*
X115482353Y-33208000D01*
X115502834Y-33350456D01*
X115562622Y-33481371D01*
X115567418Y-33488834D01*
X115564895Y-33490455D01*
X115587683Y-33540351D01*
X115577741Y-33609510D01*
X115566694Y-33626703D01*
X115567418Y-33627169D01*
X115562622Y-33634631D01*
X115502834Y-33765546D01*
X115482353Y-33908003D01*
X115502834Y-34050459D01*
X115562622Y-34181374D01*
X115562625Y-34181380D01*
X115612379Y-34238799D01*
X115641404Y-34302355D01*
X115631460Y-34371513D01*
X115612380Y-34401202D01*
X115562625Y-34458623D01*
X115562622Y-34458628D01*
X115502834Y-34589543D01*
X115482353Y-34732000D01*
X115502834Y-34874456D01*
X115562622Y-35005371D01*
X115562623Y-35005373D01*
X115585520Y-35031798D01*
X115614544Y-35095354D01*
X115604600Y-35164513D01*
X115585520Y-35194202D01*
X115562623Y-35220626D01*
X115562622Y-35220628D01*
X115502834Y-35351543D01*
X115482353Y-35494000D01*
X115502834Y-35636456D01*
X115562622Y-35767371D01*
X115562623Y-35767373D01*
X115585520Y-35793798D01*
X115614544Y-35857354D01*
X115604600Y-35926513D01*
X115585520Y-35956202D01*
X115562623Y-35982626D01*
X115562622Y-35982628D01*
X115502834Y-36113543D01*
X115482353Y-36256000D01*
X115502834Y-36398456D01*
X115562622Y-36529371D01*
X115562625Y-36529377D01*
X115612379Y-36586796D01*
X115641404Y-36650352D01*
X115631460Y-36719510D01*
X115612380Y-36749199D01*
X115562625Y-36806620D01*
X115562622Y-36806625D01*
X115502834Y-36937540D01*
X115482353Y-37079997D01*
X115502834Y-37222453D01*
X115562622Y-37353368D01*
X115562623Y-37353370D01*
X115585520Y-37379795D01*
X115614544Y-37443351D01*
X115604600Y-37512510D01*
X115585520Y-37542199D01*
X115562623Y-37568623D01*
X115562622Y-37568625D01*
X115502834Y-37699540D01*
X115482353Y-37841997D01*
X115502834Y-37984453D01*
X115562622Y-38115368D01*
X115562623Y-38115370D01*
X115656872Y-38224140D01*
X115777947Y-38301950D01*
X115777950Y-38301951D01*
X115777949Y-38301951D01*
X115916036Y-38342496D01*
X115916038Y-38342497D01*
X115916039Y-38342497D01*
X116059962Y-38342497D01*
X116059962Y-38342496D01*
X116198053Y-38301950D01*
X116301960Y-38235172D01*
X116369000Y-38215488D01*
X116436039Y-38235173D01*
X116436040Y-38235173D01*
X116539947Y-38301950D01*
X116539948Y-38301950D01*
X116539949Y-38301951D01*
X116678036Y-38342496D01*
X116678038Y-38342497D01*
X116678039Y-38342497D01*
X116821962Y-38342497D01*
X116821962Y-38342496D01*
X116960053Y-38301950D01*
X117063960Y-38235172D01*
X117131000Y-38215488D01*
X117198039Y-38235173D01*
X117198040Y-38235173D01*
X117301947Y-38301950D01*
X117301948Y-38301950D01*
X117301949Y-38301951D01*
X117440036Y-38342496D01*
X117440038Y-38342497D01*
X117440039Y-38342497D01*
X117583962Y-38342497D01*
X117583962Y-38342496D01*
X117722053Y-38301950D01*
X117843128Y-38224140D01*
X117937377Y-38115370D01*
X117997165Y-37984454D01*
X118017647Y-37841997D01*
X117997165Y-37699540D01*
X117937377Y-37568624D01*
X117914479Y-37542198D01*
X117885455Y-37478645D01*
X117895398Y-37409486D01*
X117914478Y-37379796D01*
X117937377Y-37353370D01*
X117997165Y-37222454D01*
X118017647Y-37079997D01*
X117997165Y-36937540D01*
X117937377Y-36806624D01*
X117937375Y-36806622D01*
X117937374Y-36806619D01*
X117900444Y-36764000D01*
X127674353Y-36764000D01*
X127694834Y-36906456D01*
X127709030Y-36937540D01*
X127754623Y-37037373D01*
X127848872Y-37146143D01*
X127969947Y-37223953D01*
X127969950Y-37223954D01*
X127969949Y-37223954D01*
X128108036Y-37264499D01*
X128108038Y-37264500D01*
X128108039Y-37264500D01*
X128251962Y-37264500D01*
X128251962Y-37264499D01*
X128390053Y-37223953D01*
X128511128Y-37146143D01*
X128605377Y-37037373D01*
X128665165Y-36906457D01*
X128685647Y-36764000D01*
X128665165Y-36621543D01*
X128605377Y-36490627D01*
X128511128Y-36381857D01*
X128390053Y-36304047D01*
X128390051Y-36304046D01*
X128390049Y-36304045D01*
X128390050Y-36304045D01*
X128251963Y-36263500D01*
X128251961Y-36263500D01*
X128108039Y-36263500D01*
X128108036Y-36263500D01*
X127969949Y-36304045D01*
X127848873Y-36381856D01*
X127754623Y-36490626D01*
X127754622Y-36490628D01*
X127694834Y-36621543D01*
X127674353Y-36764000D01*
X117900444Y-36764000D01*
X117887620Y-36749200D01*
X117858595Y-36685644D01*
X117868539Y-36616486D01*
X117887617Y-36586799D01*
X117937377Y-36529373D01*
X117997165Y-36398457D01*
X118017647Y-36256000D01*
X117997165Y-36113543D01*
X117937377Y-35982627D01*
X117843128Y-35873857D01*
X117722053Y-35796047D01*
X117722051Y-35796046D01*
X117722049Y-35796045D01*
X117722050Y-35796045D01*
X117583963Y-35755500D01*
X117583961Y-35755500D01*
X117440039Y-35755500D01*
X117440038Y-35755500D01*
X117393393Y-35769195D01*
X117323523Y-35769193D01*
X117264746Y-35731418D01*
X117235723Y-35667861D01*
X117235723Y-35632575D01*
X117255647Y-35494000D01*
X117235165Y-35351543D01*
X117175377Y-35220627D01*
X117152479Y-35194201D01*
X117123455Y-35130648D01*
X117133398Y-35061489D01*
X117152478Y-35031799D01*
X117175377Y-35005373D01*
X117235165Y-34874457D01*
X117255647Y-34732000D01*
X117235165Y-34589543D01*
X117175377Y-34458627D01*
X117175375Y-34458625D01*
X117175374Y-34458622D01*
X117125620Y-34401203D01*
X117096595Y-34337647D01*
X117106539Y-34268489D01*
X117125617Y-34238802D01*
X117175377Y-34181376D01*
X117235165Y-34050460D01*
X117255647Y-33908003D01*
X117235165Y-33765546D01*
X117175377Y-33634630D01*
X117175374Y-33634627D01*
X117170582Y-33627169D01*
X117173104Y-33625547D01*
X117150316Y-33575655D01*
X117160256Y-33506496D01*
X117171309Y-33489300D01*
X117170582Y-33488833D01*
X117175368Y-33481382D01*
X117175377Y-33481373D01*
X117235165Y-33350457D01*
X117255647Y-33208000D01*
X117235165Y-33065543D01*
X117175377Y-32934627D01*
X117081128Y-32825857D01*
X116960053Y-32748047D01*
X116960051Y-32748046D01*
X116960049Y-32748045D01*
X116960050Y-32748045D01*
X116821963Y-32707500D01*
X116821961Y-32707500D01*
X116678039Y-32707500D01*
X116678036Y-32707500D01*
X116539949Y-32748045D01*
X116436039Y-32814824D01*
X116368999Y-32834508D01*
X116301961Y-32814824D01*
X116198050Y-32748045D01*
X116059963Y-32707500D01*
X116059961Y-32707500D01*
X115916039Y-32707500D01*
X115916036Y-32707500D01*
X115777949Y-32748045D01*
X115656873Y-32825856D01*
X115562623Y-32934626D01*
X115562622Y-32934628D01*
X115502834Y-33065543D01*
X115482353Y-33208000D01*
X102063466Y-33208000D01*
X102085500Y-33125766D01*
X102085500Y-32974234D01*
X102046281Y-32827865D01*
X101970515Y-32696635D01*
X101863365Y-32589485D01*
X101797750Y-32551602D01*
X101732136Y-32513719D01*
X101658950Y-32494109D01*
X101585766Y-32474500D01*
X101434234Y-32474500D01*
X101287863Y-32513719D01*
X101156635Y-32589485D01*
X101156632Y-32589487D01*
X101049487Y-32696632D01*
X101049485Y-32696635D01*
X100973719Y-32827863D01*
X100934500Y-32974234D01*
X100934500Y-33125765D01*
X100973719Y-33272136D01*
X101011602Y-33337750D01*
X101049485Y-33403365D01*
X101156635Y-33510515D01*
X101156636Y-33510516D01*
X101156638Y-33510517D01*
X101279024Y-33581177D01*
X101327240Y-33631744D01*
X101340462Y-33700351D01*
X101314494Y-33765216D01*
X101260981Y-33803321D01*
X101261299Y-33804089D01*
X101257964Y-33805470D01*
X101257580Y-33805744D01*
X101256300Y-33806159D01*
X101128195Y-33859221D01*
X101128182Y-33859228D01*
X101013458Y-33935885D01*
X101013454Y-33935888D01*
X100915888Y-34033454D01*
X100915885Y-34033458D01*
X100839228Y-34148182D01*
X100839221Y-34148195D01*
X100786421Y-34275667D01*
X100786418Y-34275677D01*
X100759500Y-34411004D01*
X100759500Y-34411007D01*
X100759500Y-34548993D01*
X100759500Y-34548995D01*
X100759499Y-34548995D01*
X98930500Y-34548995D01*
X98930500Y-34548993D01*
X98930500Y-34411007D01*
X98930500Y-34411004D01*
X98903581Y-34275677D01*
X98903580Y-34275676D01*
X98903580Y-34275672D01*
X98888307Y-34238799D01*
X98850778Y-34148195D01*
X98850771Y-34148182D01*
X98774114Y-34033458D01*
X98774111Y-34033454D01*
X98676545Y-33935888D01*
X98676541Y-33935885D01*
X98561817Y-33859228D01*
X98561804Y-33859221D01*
X98434332Y-33806421D01*
X98434322Y-33806418D01*
X98298995Y-33779500D01*
X98298993Y-33779500D01*
X97361007Y-33779500D01*
X97361005Y-33779500D01*
X97225677Y-33806418D01*
X97225667Y-33806421D01*
X97098195Y-33859221D01*
X97098182Y-33859228D01*
X96983458Y-33935885D01*
X96983454Y-33935888D01*
X96885888Y-34033454D01*
X96885885Y-34033458D01*
X96809228Y-34148182D01*
X96809221Y-34148195D01*
X96756421Y-34275667D01*
X96756418Y-34275677D01*
X96729500Y-34411004D01*
X96729500Y-34411007D01*
X96729500Y-34548993D01*
X96729500Y-34548995D01*
X96729499Y-34548995D01*
X95795000Y-34548995D01*
X95795000Y-28890000D01*
X106084353Y-28890000D01*
X106104834Y-29032456D01*
X106164622Y-29163371D01*
X106164623Y-29163373D01*
X106258872Y-29272143D01*
X106379947Y-29349953D01*
X106379950Y-29349954D01*
X106379949Y-29349954D01*
X106518036Y-29390499D01*
X106518038Y-29390500D01*
X106518039Y-29390500D01*
X106661961Y-29390500D01*
X106760945Y-29361436D01*
X106830815Y-29361436D01*
X106889593Y-29399210D01*
X106918618Y-29462766D01*
X106908674Y-29531924D01*
X106866835Y-29623538D01*
X106866834Y-29623539D01*
X106846353Y-29765997D01*
X106866834Y-29908453D01*
X106916652Y-30017537D01*
X106926623Y-30039370D01*
X106979697Y-30100621D01*
X106987646Y-30109795D01*
X107016670Y-30173351D01*
X107006726Y-30242509D01*
X106987646Y-30272199D01*
X106926623Y-30342624D01*
X106926622Y-30342625D01*
X106866834Y-30473540D01*
X106846353Y-30615997D01*
X106866834Y-30758453D01*
X106875978Y-30778474D01*
X106885922Y-30847633D01*
X106856897Y-30911188D01*
X106798119Y-30948963D01*
X106728250Y-30948963D01*
X106661964Y-30929500D01*
X106661961Y-30929500D01*
X106518039Y-30929500D01*
X106518036Y-30929500D01*
X106379949Y-30970045D01*
X106258873Y-31047856D01*
X106164623Y-31156626D01*
X106164622Y-31156628D01*
X106104834Y-31287543D01*
X106084353Y-31430000D01*
X106104834Y-31572456D01*
X106164622Y-31703371D01*
X106164623Y-31703373D01*
X106258872Y-31812143D01*
X106379947Y-31889953D01*
X106379950Y-31889954D01*
X106379949Y-31889954D01*
X106518036Y-31930499D01*
X106518038Y-31930500D01*
X106518039Y-31930500D01*
X106661962Y-31930500D01*
X106661962Y-31930499D01*
X106800053Y-31889953D01*
X106921128Y-31812143D01*
X107015377Y-31703373D01*
X107075165Y-31572457D01*
X107095647Y-31430000D01*
X107075165Y-31287543D01*
X107066021Y-31267522D01*
X107056077Y-31198365D01*
X107085101Y-31134809D01*
X107143878Y-31097034D01*
X107213746Y-31097032D01*
X107213750Y-31097033D01*
X107280038Y-31116497D01*
X107280039Y-31116497D01*
X107423962Y-31116497D01*
X107423962Y-31116496D01*
X107562053Y-31075950D01*
X107683128Y-30998140D01*
X107777377Y-30889370D01*
X107837165Y-30758454D01*
X107857647Y-30615997D01*
X107837165Y-30473540D01*
X107777377Y-30342624D01*
X107716353Y-30272198D01*
X107687329Y-30208644D01*
X107694324Y-30159994D01*
X115476853Y-30159994D01*
X115497334Y-30302450D01*
X115515682Y-30342625D01*
X115557123Y-30433367D01*
X115651372Y-30542137D01*
X115772447Y-30619947D01*
X115772450Y-30619948D01*
X115772449Y-30619948D01*
X115910536Y-30660493D01*
X115910538Y-30660494D01*
X115910539Y-30660494D01*
X116054462Y-30660494D01*
X116054462Y-30660493D01*
X116192553Y-30619947D01*
X116313628Y-30542137D01*
X116407877Y-30433367D01*
X116467665Y-30302451D01*
X116488147Y-30159994D01*
X116467665Y-30017537D01*
X116407877Y-29886621D01*
X116313628Y-29777851D01*
X116192553Y-29700041D01*
X116192551Y-29700040D01*
X116192549Y-29700039D01*
X116192550Y-29700039D01*
X116054463Y-29659494D01*
X116054461Y-29659494D01*
X115910539Y-29659494D01*
X115910536Y-29659494D01*
X115772449Y-29700039D01*
X115651373Y-29777850D01*
X115557123Y-29886620D01*
X115557122Y-29886622D01*
X115497334Y-30017537D01*
X115476853Y-30159994D01*
X107694324Y-30159994D01*
X107697273Y-30139486D01*
X107716351Y-30109797D01*
X107777377Y-30039370D01*
X107837165Y-29908454D01*
X107857647Y-29765997D01*
X107837165Y-29623540D01*
X107777377Y-29492624D01*
X107695375Y-29397988D01*
X117768353Y-29397988D01*
X117788834Y-29540444D01*
X117843203Y-29659494D01*
X117848623Y-29671361D01*
X117942872Y-29780131D01*
X118063947Y-29857941D01*
X118063950Y-29857942D01*
X118063949Y-29857942D01*
X118202036Y-29898487D01*
X118202038Y-29898488D01*
X118202039Y-29898488D01*
X118345962Y-29898488D01*
X118345962Y-29898487D01*
X118484009Y-29857954D01*
X118484050Y-29857942D01*
X118484050Y-29857941D01*
X118484053Y-29857941D01*
X118605128Y-29780131D01*
X118699377Y-29671361D01*
X118759165Y-29540445D01*
X118779645Y-29398000D01*
X119038353Y-29398000D01*
X119058834Y-29540456D01*
X119118622Y-29671371D01*
X119118623Y-29671373D01*
X119212872Y-29780143D01*
X119333947Y-29857953D01*
X119333950Y-29857954D01*
X119333949Y-29857954D01*
X119431579Y-29886620D01*
X119471998Y-29898488D01*
X119472036Y-29898499D01*
X119472038Y-29898500D01*
X119472039Y-29898500D01*
X119615962Y-29898500D01*
X119615962Y-29898499D01*
X119754053Y-29857953D01*
X119875128Y-29780143D01*
X119969377Y-29671373D01*
X120029165Y-29540457D01*
X120049647Y-29398000D01*
X120029165Y-29255543D01*
X119969377Y-29124627D01*
X119875128Y-29015857D01*
X119754053Y-28938047D01*
X119754051Y-28938046D01*
X119754049Y-28938045D01*
X119754050Y-28938045D01*
X119615963Y-28897500D01*
X119615961Y-28897500D01*
X119472039Y-28897500D01*
X119472036Y-28897500D01*
X119333949Y-28938045D01*
X119212873Y-29015856D01*
X119118623Y-29124626D01*
X119118622Y-29124628D01*
X119058834Y-29255543D01*
X119038353Y-29398000D01*
X118779645Y-29398000D01*
X118779647Y-29397988D01*
X118759165Y-29255531D01*
X118699377Y-29124615D01*
X118605128Y-29015845D01*
X118484053Y-28938035D01*
X118484051Y-28938034D01*
X118484049Y-28938033D01*
X118484050Y-28938033D01*
X118345963Y-28897488D01*
X118345961Y-28897488D01*
X118202039Y-28897488D01*
X118202036Y-28897488D01*
X118063949Y-28938033D01*
X117942873Y-29015844D01*
X117942872Y-29015844D01*
X117942872Y-29015845D01*
X117942862Y-29015857D01*
X117848623Y-29124614D01*
X117848622Y-29124616D01*
X117788834Y-29255531D01*
X117768353Y-29397988D01*
X107695375Y-29397988D01*
X107683128Y-29383854D01*
X107562053Y-29306044D01*
X107562051Y-29306043D01*
X107562049Y-29306042D01*
X107562050Y-29306042D01*
X107423963Y-29265497D01*
X107423961Y-29265497D01*
X107280039Y-29265497D01*
X107181052Y-29294561D01*
X107111183Y-29294560D01*
X107052405Y-29256785D01*
X107023381Y-29193229D01*
X107033324Y-29124074D01*
X107075165Y-29032457D01*
X107095647Y-28890000D01*
X107075165Y-28747543D01*
X107015377Y-28616627D01*
X106921128Y-28507857D01*
X106800053Y-28430047D01*
X106800051Y-28430046D01*
X106800049Y-28430045D01*
X106800050Y-28430045D01*
X106661963Y-28389500D01*
X106661961Y-28389500D01*
X106518039Y-28389500D01*
X106518036Y-28389500D01*
X106379949Y-28430045D01*
X106258873Y-28507856D01*
X106164623Y-28616626D01*
X106164622Y-28616628D01*
X106104834Y-28747543D01*
X106084353Y-28890000D01*
X95795000Y-28890000D01*
X95795000Y-25908995D01*
X96729499Y-25908995D01*
X96756418Y-26044322D01*
X96756421Y-26044332D01*
X96809221Y-26171804D01*
X96809228Y-26171817D01*
X96885885Y-26286541D01*
X96885888Y-26286545D01*
X96983454Y-26384111D01*
X96983458Y-26384114D01*
X97098182Y-26460771D01*
X97098195Y-26460778D01*
X97225667Y-26513578D01*
X97225672Y-26513580D01*
X97225676Y-26513580D01*
X97225677Y-26513581D01*
X97361004Y-26540500D01*
X97361007Y-26540500D01*
X98298995Y-26540500D01*
X98422609Y-26515911D01*
X98434328Y-26513580D01*
X98561811Y-26460775D01*
X98676542Y-26384114D01*
X98774114Y-26286542D01*
X98850775Y-26171811D01*
X98903580Y-26044328D01*
X98912389Y-26000041D01*
X98930500Y-25908995D01*
X100759499Y-25908995D01*
X100786418Y-26044322D01*
X100786421Y-26044332D01*
X100839221Y-26171804D01*
X100839228Y-26171817D01*
X100915885Y-26286541D01*
X100915888Y-26286545D01*
X101013454Y-26384111D01*
X101013458Y-26384114D01*
X101128182Y-26460771D01*
X101128195Y-26460778D01*
X101261299Y-26515911D01*
X101260550Y-26517717D01*
X101311441Y-26551052D01*
X101339911Y-26614858D01*
X101329365Y-26683927D01*
X101283152Y-26736331D01*
X101279025Y-26738822D01*
X101156635Y-26809485D01*
X101156632Y-26809487D01*
X101049487Y-26916632D01*
X101049485Y-26916635D01*
X100973719Y-27047863D01*
X100934500Y-27194234D01*
X100934500Y-27345765D01*
X100973719Y-27492136D01*
X101011602Y-27557750D01*
X101049485Y-27623365D01*
X101156635Y-27730515D01*
X101287865Y-27806281D01*
X101434234Y-27845500D01*
X101434236Y-27845500D01*
X101585764Y-27845500D01*
X101585766Y-27845500D01*
X101732135Y-27806281D01*
X101863365Y-27730515D01*
X101970515Y-27623365D01*
X102046281Y-27492135D01*
X102085500Y-27345766D01*
X102085500Y-27194234D01*
X102046281Y-27047865D01*
X101970515Y-26916635D01*
X101863365Y-26809485D01*
X101863363Y-26809484D01*
X101863361Y-26809482D01*
X101798244Y-26771887D01*
X101750028Y-26721320D01*
X101736806Y-26652713D01*
X101762774Y-26587848D01*
X101819688Y-26547320D01*
X101860244Y-26540500D01*
X102628995Y-26540500D01*
X102752609Y-26515911D01*
X102764328Y-26513580D01*
X102891811Y-26460775D01*
X103006542Y-26384114D01*
X103104114Y-26286542D01*
X103180775Y-26171811D01*
X103233580Y-26044328D01*
X103242389Y-26000041D01*
X103260500Y-25908995D01*
X103260500Y-25771004D01*
X103233581Y-25635677D01*
X103233580Y-25635676D01*
X103233580Y-25635672D01*
X103213834Y-25588000D01*
X103180778Y-25508195D01*
X103180771Y-25508182D01*
X103104114Y-25393458D01*
X103104111Y-25393454D01*
X103006545Y-25295888D01*
X103006541Y-25295885D01*
X102891817Y-25219228D01*
X102891804Y-25219221D01*
X102862300Y-25207000D01*
X108370353Y-25207000D01*
X108390834Y-25349456D01*
X108434716Y-25445543D01*
X108450623Y-25480373D01*
X108544872Y-25589143D01*
X108665947Y-25666953D01*
X108665950Y-25666954D01*
X108665949Y-25666954D01*
X108804036Y-25707499D01*
X108804038Y-25707500D01*
X108804039Y-25707500D01*
X108947962Y-25707500D01*
X108947962Y-25707499D01*
X109086053Y-25666953D01*
X109207128Y-25589143D01*
X109208118Y-25588000D01*
X111418333Y-25588000D01*
X111438814Y-25730456D01*
X111498602Y-25861371D01*
X111498603Y-25861373D01*
X111592852Y-25970143D01*
X111713927Y-26047953D01*
X111713930Y-26047954D01*
X111713929Y-26047954D01*
X111852016Y-26088499D01*
X111852018Y-26088500D01*
X111852019Y-26088500D01*
X111995942Y-26088500D01*
X111995942Y-26088499D01*
X112134033Y-26047953D01*
X112255108Y-25970143D01*
X112349357Y-25861373D01*
X112409145Y-25730457D01*
X112429627Y-25588000D01*
X112409145Y-25445543D01*
X112349357Y-25314627D01*
X112255108Y-25205857D01*
X112134033Y-25128047D01*
X112134031Y-25128046D01*
X112134029Y-25128045D01*
X112134030Y-25128045D01*
X111995943Y-25087500D01*
X111995941Y-25087500D01*
X111852019Y-25087500D01*
X111852016Y-25087500D01*
X111713929Y-25128045D01*
X111592853Y-25205856D01*
X111498603Y-25314626D01*
X111498602Y-25314628D01*
X111438814Y-25445543D01*
X111418333Y-25588000D01*
X109208118Y-25588000D01*
X109301377Y-25480373D01*
X109361165Y-25349457D01*
X109381647Y-25207000D01*
X109361165Y-25064543D01*
X109301377Y-24933627D01*
X109207128Y-24824857D01*
X109086053Y-24747047D01*
X109086051Y-24747046D01*
X109086049Y-24747045D01*
X109086050Y-24747045D01*
X108947963Y-24706500D01*
X108947961Y-24706500D01*
X108804039Y-24706500D01*
X108804036Y-24706500D01*
X108665949Y-24747045D01*
X108544873Y-24824856D01*
X108450623Y-24933626D01*
X108450622Y-24933628D01*
X108390834Y-25064543D01*
X108370353Y-25207000D01*
X102862300Y-25207000D01*
X102764332Y-25166421D01*
X102764322Y-25166418D01*
X102628995Y-25139500D01*
X102628993Y-25139500D01*
X101391007Y-25139500D01*
X101391005Y-25139500D01*
X101255677Y-25166418D01*
X101255667Y-25166421D01*
X101128195Y-25219221D01*
X101128182Y-25219228D01*
X101013458Y-25295885D01*
X101013454Y-25295888D01*
X100915888Y-25393454D01*
X100915885Y-25393458D01*
X100839228Y-25508182D01*
X100839221Y-25508195D01*
X100786421Y-25635667D01*
X100786418Y-25635677D01*
X100759500Y-25771004D01*
X100759500Y-25771007D01*
X100759500Y-25908993D01*
X100759500Y-25908995D01*
X100759499Y-25908995D01*
X98930500Y-25908995D01*
X98930500Y-25771004D01*
X98903581Y-25635677D01*
X98903580Y-25635676D01*
X98903580Y-25635672D01*
X98883834Y-25588000D01*
X98850778Y-25508195D01*
X98850771Y-25508182D01*
X98774114Y-25393458D01*
X98774111Y-25393454D01*
X98676545Y-25295888D01*
X98676541Y-25295885D01*
X98561817Y-25219228D01*
X98561804Y-25219221D01*
X98434332Y-25166421D01*
X98434322Y-25166418D01*
X98298995Y-25139500D01*
X98298993Y-25139500D01*
X97361007Y-25139500D01*
X97361005Y-25139500D01*
X97225677Y-25166418D01*
X97225667Y-25166421D01*
X97098195Y-25219221D01*
X97098182Y-25219228D01*
X96983458Y-25295885D01*
X96983454Y-25295888D01*
X96885888Y-25393454D01*
X96885885Y-25393458D01*
X96809228Y-25508182D01*
X96809221Y-25508195D01*
X96756421Y-25635667D01*
X96756418Y-25635677D01*
X96729500Y-25771004D01*
X96729500Y-25771007D01*
X96729500Y-25908993D01*
X96729500Y-25908995D01*
X96729499Y-25908995D01*
X95795000Y-25908995D01*
X95795000Y-24343587D01*
X122998676Y-24343587D01*
X123019180Y-24512456D01*
X123019181Y-24512461D01*
X123079503Y-24671518D01*
X123131638Y-24747047D01*
X123176138Y-24811516D01*
X123281826Y-24905147D01*
X123303471Y-24924323D01*
X123454094Y-25003376D01*
X123454096Y-25003377D01*
X123619265Y-25044087D01*
X123789377Y-25044087D01*
X123954546Y-25003377D01*
X124034013Y-24961668D01*
X124105170Y-24924323D01*
X124105171Y-24924321D01*
X124105173Y-24924321D01*
X124232504Y-24811516D01*
X124329139Y-24671517D01*
X124389461Y-24512459D01*
X124409966Y-24343587D01*
X124389461Y-24174715D01*
X124329139Y-24015657D01*
X124232504Y-23875658D01*
X124105173Y-23762853D01*
X124105170Y-23762850D01*
X123954547Y-23683797D01*
X123789377Y-23643087D01*
X123619265Y-23643087D01*
X123454094Y-23683797D01*
X123303471Y-23762850D01*
X123176137Y-23875659D01*
X123079503Y-24015655D01*
X123019181Y-24174712D01*
X123019180Y-24174717D01*
X122998676Y-24343587D01*
X95795000Y-24343587D01*
X95795000Y-23048000D01*
X109386353Y-23048000D01*
X109406834Y-23190456D01*
X109466622Y-23321371D01*
X109466623Y-23321373D01*
X109560872Y-23430143D01*
X109681947Y-23507953D01*
X109681950Y-23507954D01*
X109681949Y-23507954D01*
X109820036Y-23548499D01*
X109820038Y-23548500D01*
X109820039Y-23548500D01*
X109963962Y-23548500D01*
X109963962Y-23548499D01*
X110102053Y-23507953D01*
X110223128Y-23430143D01*
X110317377Y-23321373D01*
X110377165Y-23190457D01*
X110397647Y-23048000D01*
X110377165Y-22905543D01*
X110317377Y-22774627D01*
X110223128Y-22665857D01*
X110171690Y-22632800D01*
X119166853Y-22632800D01*
X119187334Y-22775256D01*
X119246835Y-22905543D01*
X119247123Y-22906173D01*
X119341372Y-23014943D01*
X119462447Y-23092753D01*
X119462450Y-23092754D01*
X119462449Y-23092754D01*
X119600536Y-23133299D01*
X119600538Y-23133300D01*
X119600539Y-23133300D01*
X119744462Y-23133300D01*
X119744462Y-23133299D01*
X119882553Y-23092753D01*
X120003628Y-23014943D01*
X120097877Y-22906173D01*
X120157665Y-22775257D01*
X120178147Y-22632800D01*
X120157665Y-22490343D01*
X120097877Y-22359427D01*
X120003628Y-22250657D01*
X119882553Y-22172847D01*
X119882551Y-22172846D01*
X119882549Y-22172845D01*
X119882550Y-22172845D01*
X119744463Y-22132300D01*
X119744461Y-22132300D01*
X119600539Y-22132300D01*
X119600536Y-22132300D01*
X119462449Y-22172845D01*
X119341373Y-22250656D01*
X119247123Y-22359426D01*
X119247122Y-22359428D01*
X119187334Y-22490343D01*
X119166853Y-22632800D01*
X110171690Y-22632800D01*
X110102053Y-22588047D01*
X110102051Y-22588046D01*
X110102049Y-22588045D01*
X110102050Y-22588045D01*
X109963963Y-22547500D01*
X109963961Y-22547500D01*
X109820039Y-22547500D01*
X109820036Y-22547500D01*
X109681949Y-22588045D01*
X109560873Y-22665856D01*
X109466623Y-22774626D01*
X109466622Y-22774628D01*
X109406834Y-22905543D01*
X109386353Y-23048000D01*
X95795000Y-23048000D01*
X95795000Y-20759000D01*
X95814685Y-20691961D01*
X95867489Y-20646206D01*
X95919000Y-20635000D01*
X99605000Y-20635000D01*
X99703181Y-20536819D01*
X99764504Y-20503334D01*
X99790862Y-20500500D01*
X100512051Y-20500500D01*
X100579090Y-20520185D01*
G37*
%TD.AperFunction*%
%TD*%
M02*
