%TF.GenerationSoftware,KiCad,Pcbnew,8.0.2*%
%TF.CreationDate,2025-03-04T10:53:31+01:00*%
%TF.ProjectId,USB-C_PD_Module_PANELIZED,5553422d-435f-4504-945f-4d6f64756c65,rev?*%
%TF.SameCoordinates,Original*%
%TF.FileFunction,Copper,L4,Bot*%
%TF.FilePolarity,Positive*%
%FSLAX46Y46*%
G04 Gerber Fmt 4.6, Leading zero omitted, Abs format (unit mm)*
G04 Created by KiCad (PCBNEW 8.0.2) date 2025-03-04 10:53:31*
%MOMM*%
%LPD*%
G01*
G04 APERTURE LIST*
%TA.AperFunction,ComponentPad*%
%ADD10C,1.700000*%
%TD*%
%TA.AperFunction,ComponentPad*%
%ADD11O,1.700000X1.700000*%
%TD*%
%TA.AperFunction,ComponentPad*%
%ADD12O,2.100000X1.000000*%
%TD*%
%TA.AperFunction,ComponentPad*%
%ADD13O,1.800000X1.000000*%
%TD*%
%TA.AperFunction,SMDPad,CuDef*%
%ADD14C,1.000000*%
%TD*%
%TA.AperFunction,ViaPad*%
%ADD15C,0.600000*%
%TD*%
%TA.AperFunction,ViaPad*%
%ADD16C,1.000000*%
%TD*%
%TA.AperFunction,Conductor*%
%ADD17C,0.609600*%
%TD*%
%TA.AperFunction,Conductor*%
%ADD18C,0.228600*%
%TD*%
%TA.AperFunction,Conductor*%
%ADD19C,0.200000*%
%TD*%
G04 APERTURE END LIST*
D10*
%TO.P,J3,1,Pin_1*%
%TO.N,Board_0-/Connector/FAULT*%
X101510000Y-20000000D03*
D11*
%TO.P,J3,2,Pin_2*%
%TO.N,Board_0-/Connector/FLIP*%
X104050000Y-20000000D03*
%TO.P,J3,3,Pin_3*%
%TO.N,Board_0-/D-*%
X106590000Y-20000000D03*
%TO.P,J3,4,Pin_4*%
%TO.N,Board_0-/D+*%
X109130000Y-20000000D03*
%TO.P,J3,5,Pin_5*%
%TO.N,Board_0-GND*%
X111670000Y-20000000D03*
%TO.P,J3,6,Pin_6*%
X114210000Y-20000000D03*
%TO.P,J3,7,Pin_7*%
%TO.N,Board_0-/Connector/ISNK_FINE*%
X116750000Y-20000000D03*
%TO.P,J3,8,Pin_8*%
%TO.N,Board_0-/Connector/ISNK_COARSE*%
X119290000Y-20000000D03*
%TO.P,J3,9,Pin_9*%
%TO.N,Board_0-/Connector/VBUS_MAX*%
X121830000Y-20000000D03*
%TO.P,J3,10,Pin_10*%
%TO.N,Board_0-/Connector/VBUS_MIN*%
X124370000Y-20000000D03*
%TD*%
D10*
%TO.P,J3,1,Pin_1*%
%TO.N,Board_1-/Connector/FAULT*%
X137070000Y-20000000D03*
D11*
%TO.P,J3,2,Pin_2*%
%TO.N,Board_1-/Connector/FLIP*%
X139610000Y-20000000D03*
%TO.P,J3,3,Pin_3*%
%TO.N,Board_1-/D-*%
X142150000Y-20000000D03*
%TO.P,J3,4,Pin_4*%
%TO.N,Board_1-/D+*%
X144690000Y-20000000D03*
%TO.P,J3,5,Pin_5*%
%TO.N,Board_1-GND*%
X147230000Y-20000000D03*
%TO.P,J3,6,Pin_6*%
X149770000Y-20000000D03*
%TO.P,J3,7,Pin_7*%
%TO.N,Board_1-/Connector/ISNK_FINE*%
X152310000Y-20000000D03*
%TO.P,J3,8,Pin_8*%
%TO.N,Board_1-/Connector/ISNK_COARSE*%
X154850000Y-20000000D03*
%TO.P,J3,9,Pin_9*%
%TO.N,Board_1-/Connector/VBUS_MAX*%
X157390000Y-20000000D03*
%TO.P,J3,10,Pin_10*%
%TO.N,Board_1-/Connector/VBUS_MIN*%
X159930000Y-20000000D03*
%TD*%
D10*
%TO.P,J2,1,Pin_1*%
%TO.N,Board_0-GND*%
X101515000Y-40320000D03*
D11*
%TO.P,J2,2,Pin_2*%
X104055000Y-40320000D03*
%TO.P,J2,3,Pin_3*%
X106595000Y-40320000D03*
%TO.P,J2,4,Pin_4*%
X109135000Y-40320000D03*
%TO.P,J2,5,Pin_5*%
X111675000Y-40320000D03*
%TO.P,J2,6,Pin_6*%
%TO.N,Board_0-VBUSOUT*%
X114215000Y-40320000D03*
%TO.P,J2,7,Pin_7*%
X116755000Y-40320000D03*
%TO.P,J2,8,Pin_8*%
X119295000Y-40320000D03*
%TO.P,J2,9,Pin_9*%
X121835000Y-40320000D03*
%TO.P,J2,10,Pin_10*%
X124375000Y-40320000D03*
%TD*%
D12*
%TO.P,J1,S1,SHIELD*%
%TO.N,Board_0-unconnected-(J1-SHIELD-PadS1)_0*%
X102010000Y-25840000D03*
D13*
%TO.N,Board_0-unconnected-(J1-SHIELD-PadS1)*%
X97830000Y-25840000D03*
D12*
%TO.N,Board_0-unconnected-(J1-SHIELD-PadS1)_2*%
X102010000Y-34480000D03*
D13*
%TO.N,Board_0-unconnected-(J1-SHIELD-PadS1)_1*%
X97830000Y-34480000D03*
%TD*%
D12*
%TO.P,J1,S1,SHIELD*%
%TO.N,Board_1-unconnected-(J1-SHIELD-PadS1)_0*%
X137570000Y-25840000D03*
D13*
%TO.N,Board_1-unconnected-(J1-SHIELD-PadS1)*%
X133390000Y-25840000D03*
D12*
%TO.N,Board_1-unconnected-(J1-SHIELD-PadS1)_2*%
X137570000Y-34480000D03*
D13*
%TO.N,Board_1-unconnected-(J1-SHIELD-PadS1)_1*%
X133390000Y-34480000D03*
%TD*%
D10*
%TO.P,J2,1,Pin_1*%
%TO.N,Board_2-GND*%
X172635000Y-40320000D03*
D11*
%TO.P,J2,2,Pin_2*%
X175175000Y-40320000D03*
%TO.P,J2,3,Pin_3*%
X177715000Y-40320000D03*
%TO.P,J2,4,Pin_4*%
X180255000Y-40320000D03*
%TO.P,J2,5,Pin_5*%
X182795000Y-40320000D03*
%TO.P,J2,6,Pin_6*%
%TO.N,Board_2-VBUSOUT*%
X185335000Y-40320000D03*
%TO.P,J2,7,Pin_7*%
X187875000Y-40320000D03*
%TO.P,J2,8,Pin_8*%
X190415000Y-40320000D03*
%TO.P,J2,9,Pin_9*%
X192955000Y-40320000D03*
%TO.P,J2,10,Pin_10*%
X195495000Y-40320000D03*
%TD*%
D12*
%TO.P,J1,S1,SHIELD*%
%TO.N,Board_2-unconnected-(J1-SHIELD-PadS1)_0*%
X173130000Y-25840000D03*
D13*
%TO.N,Board_2-unconnected-(J1-SHIELD-PadS1)*%
X168950000Y-25840000D03*
D12*
%TO.N,Board_2-unconnected-(J1-SHIELD-PadS1)_2*%
X173130000Y-34480000D03*
D13*
%TO.N,Board_2-unconnected-(J1-SHIELD-PadS1)_1*%
X168950000Y-34480000D03*
%TD*%
D10*
%TO.P,J2,1,Pin_1*%
%TO.N,Board_1-GND*%
X137075000Y-40320000D03*
D11*
%TO.P,J2,2,Pin_2*%
X139615000Y-40320000D03*
%TO.P,J2,3,Pin_3*%
X142155000Y-40320000D03*
%TO.P,J2,4,Pin_4*%
X144695000Y-40320000D03*
%TO.P,J2,5,Pin_5*%
X147235000Y-40320000D03*
%TO.P,J2,6,Pin_6*%
%TO.N,Board_1-VBUSOUT*%
X149775000Y-40320000D03*
%TO.P,J2,7,Pin_7*%
X152315000Y-40320000D03*
%TO.P,J2,8,Pin_8*%
X154855000Y-40320000D03*
%TO.P,J2,9,Pin_9*%
X157395000Y-40320000D03*
%TO.P,J2,10,Pin_10*%
X159935000Y-40320000D03*
%TD*%
D10*
%TO.P,J3,1,Pin_1*%
%TO.N,Board_2-/Connector/FAULT*%
X172630000Y-20000000D03*
D11*
%TO.P,J3,2,Pin_2*%
%TO.N,Board_2-/Connector/FLIP*%
X175170000Y-20000000D03*
%TO.P,J3,3,Pin_3*%
%TO.N,Board_2-/D-*%
X177710000Y-20000000D03*
%TO.P,J3,4,Pin_4*%
%TO.N,Board_2-/D+*%
X180250000Y-20000000D03*
%TO.P,J3,5,Pin_5*%
%TO.N,Board_2-GND*%
X182790000Y-20000000D03*
%TO.P,J3,6,Pin_6*%
X185330000Y-20000000D03*
%TO.P,J3,7,Pin_7*%
%TO.N,Board_2-/Connector/ISNK_FINE*%
X187870000Y-20000000D03*
%TO.P,J3,8,Pin_8*%
%TO.N,Board_2-/Connector/ISNK_COARSE*%
X190410000Y-20000000D03*
%TO.P,J3,9,Pin_9*%
%TO.N,Board_2-/Connector/VBUS_MAX*%
X192950000Y-20000000D03*
%TO.P,J3,10,Pin_10*%
%TO.N,Board_2-/Connector/VBUS_MIN*%
X195490000Y-20000000D03*
%TD*%
D14*
%TO.P,KiKit_FID_B_4,*%
%TO.N,*%
X208841000Y-30320000D03*
%TD*%
%TO.P,KiKit_FID_B_1,*%
%TO.N,*%
X88159000Y-30000000D03*
%TD*%
D15*
%TO.N,Board_0-+3V3*%
X109892000Y-23048000D03*
D16*
X123704321Y-24343587D03*
D15*
%TO.N,Board_0-/Connector/FAULT*%
X111923980Y-25588000D03*
X108876000Y-25207000D03*
%TO.N,Board_0-/D+*%
X107352000Y-30615997D03*
%TO.N,Board_0-/D-*%
X107352000Y-29765997D03*
%TO.N,Board_0-/Main Sheet/VBUS_FET_EN*%
X128180000Y-36764000D03*
X119672500Y-22632800D03*
%TO.N,Board_0-/USB-C Connector and Protection/CC1*%
X119544000Y-29398000D03*
X106590000Y-28890000D03*
%TO.N,Board_0-/USB-C Connector and Protection/CC2*%
X106590000Y-31430000D03*
X118274000Y-29397988D03*
%TO.N,Board_0-GND*%
X128180000Y-25080000D03*
X96430000Y-27620000D03*
X126148000Y-23048000D03*
X105320000Y-37780000D03*
X103796000Y-33462000D03*
X96430000Y-30160000D03*
X126910000Y-39050000D03*
X98905000Y-30160000D03*
X103796000Y-34224000D03*
X111670000Y-28890000D03*
X110400000Y-27620000D03*
X128180000Y-30160000D03*
X121068000Y-29652000D03*
X97700000Y-37780000D03*
X103796000Y-26096000D03*
X98970000Y-27620000D03*
X112940000Y-23810000D03*
X101510000Y-36510000D03*
X129450000Y-36510000D03*
X129450000Y-26350000D03*
X96430000Y-39050000D03*
X98970000Y-36510000D03*
X103796000Y-34986000D03*
X96430000Y-36510000D03*
X96430000Y-32700000D03*
X103796000Y-26858000D03*
X115480000Y-23810000D03*
X122592000Y-34732000D03*
X129450000Y-33970000D03*
X103796000Y-25334000D03*
X128180000Y-27620000D03*
X111416000Y-32827000D03*
X100240000Y-28890000D03*
X113448000Y-29652000D03*
X106285200Y-30190917D03*
X102780000Y-37780000D03*
X104050000Y-36510000D03*
X129450000Y-28890000D03*
X129450000Y-31430000D03*
X98970000Y-39050000D03*
X97700000Y-28890000D03*
X98970000Y-32700000D03*
X100240000Y-31430000D03*
X129450000Y-39050000D03*
X126910000Y-26350000D03*
X100240000Y-37780000D03*
X97700000Y-31430000D03*
X126910000Y-28890000D03*
X124116000Y-29652000D03*
X112547542Y-27493000D03*
X126148000Y-25588000D03*
D16*
X119477500Y-26168000D03*
D15*
X126148000Y-28128000D03*
X109892000Y-33208000D03*
X100748000Y-21270000D03*
%TO.N,Board_0-VBUSOUT*%
X115988000Y-37079997D03*
X116750000Y-36256000D03*
X115988000Y-36256000D03*
X116750000Y-37841997D03*
X116750000Y-37079997D03*
X116750000Y-35494000D03*
X115982500Y-30159994D03*
X117512000Y-37841997D03*
X116750000Y-34732000D03*
X116750000Y-33908003D03*
X115988000Y-37841997D03*
X115988000Y-34732000D03*
X115988000Y-33908003D03*
X117512000Y-37079997D03*
X116750000Y-33208000D03*
X115988000Y-33208000D03*
X115988000Y-35494000D03*
X117512000Y-36256000D03*
D16*
%TO.N,Board_1-+3V3*%
X159264321Y-24343587D03*
D15*
X145452000Y-23048000D03*
%TO.N,Board_1-/Connector/FAULT*%
X144436000Y-25207000D03*
X147483980Y-25588000D03*
%TO.N,Board_1-/D+*%
X142912000Y-30615997D03*
%TO.N,Board_1-/D-*%
X142912000Y-29765997D03*
%TO.N,Board_1-/Main Sheet/VBUS_FET_EN*%
X155232500Y-22632800D03*
X163740000Y-36764000D03*
%TO.N,Board_1-/USB-C Connector and Protection/CC1*%
X155104000Y-29398000D03*
X142150000Y-28890000D03*
%TO.N,Board_1-/USB-C Connector and Protection/CC2*%
X153834000Y-29397988D03*
X142150000Y-31430000D03*
%TO.N,Board_1-GND*%
X162470000Y-26350000D03*
X135800000Y-31430000D03*
X147230000Y-28890000D03*
X139356000Y-33462000D03*
X139356000Y-26858000D03*
X136308000Y-21270000D03*
X145452000Y-33208000D03*
X165010000Y-31430000D03*
X134530000Y-36510000D03*
X139356000Y-34224000D03*
X134465000Y-30160000D03*
X159676000Y-29652000D03*
X138340000Y-37780000D03*
X162470000Y-39050000D03*
X165010000Y-36510000D03*
X135800000Y-37780000D03*
X131990000Y-27620000D03*
X163740000Y-27620000D03*
X151040000Y-23810000D03*
X165010000Y-39050000D03*
X131990000Y-32700000D03*
X163740000Y-25080000D03*
X139356000Y-34986000D03*
X133260000Y-37780000D03*
X165010000Y-33970000D03*
X161708000Y-28128000D03*
X131990000Y-39050000D03*
X135800000Y-28890000D03*
X161708000Y-25588000D03*
X133260000Y-28890000D03*
X163740000Y-30160000D03*
X158152000Y-34732000D03*
X161708000Y-23048000D03*
D16*
X155037500Y-26168000D03*
D15*
X133260000Y-31430000D03*
X149008000Y-29652000D03*
X156628000Y-29652000D03*
X148500000Y-23810000D03*
X165010000Y-26350000D03*
X134530000Y-27620000D03*
X139610000Y-36510000D03*
X139356000Y-25334000D03*
X162470000Y-28890000D03*
X165010000Y-28890000D03*
X145960000Y-27620000D03*
X139356000Y-26096000D03*
X131990000Y-30160000D03*
X131990000Y-36510000D03*
X137070000Y-36510000D03*
X140880000Y-37780000D03*
X134530000Y-32700000D03*
X141845200Y-30190917D03*
X134530000Y-39050000D03*
X146976000Y-32827000D03*
X148107542Y-27493000D03*
%TO.N,Board_1-VBUSOUT*%
X153072000Y-37841997D03*
X151548000Y-33908003D03*
X152310000Y-35494000D03*
X152310000Y-37079997D03*
X152310000Y-33908003D03*
X151548000Y-34732000D03*
X152310000Y-37841997D03*
X151542500Y-30159994D03*
X152310000Y-36256000D03*
X151548000Y-33208000D03*
X151548000Y-35494000D03*
X151548000Y-37841997D03*
X151548000Y-36256000D03*
X152310000Y-33208000D03*
X151548000Y-37079997D03*
X153072000Y-36256000D03*
X152310000Y-34732000D03*
X153072000Y-37079997D03*
%TO.N,Board_2-+3V3*%
X181012000Y-23048000D03*
D16*
X194824321Y-24343587D03*
D15*
%TO.N,Board_2-/Connector/FAULT*%
X183043980Y-25588000D03*
X179996000Y-25207000D03*
%TO.N,Board_2-/D+*%
X178472000Y-30615997D03*
%TO.N,Board_2-/D-*%
X178472000Y-29765997D03*
%TO.N,Board_2-/Main Sheet/VBUS_FET_EN*%
X190792500Y-22632800D03*
X199300000Y-36764000D03*
%TO.N,Board_2-/USB-C Connector and Protection/CC1*%
X190664000Y-29398000D03*
X177710000Y-28890000D03*
%TO.N,Board_2-/USB-C Connector and Protection/CC2*%
X189394000Y-29397988D03*
X177710000Y-31430000D03*
%TO.N,Board_2-GND*%
X181012000Y-33208000D03*
X167550000Y-27620000D03*
X174916000Y-34224000D03*
X167550000Y-30160000D03*
X200570000Y-39050000D03*
X200570000Y-28890000D03*
X200570000Y-26350000D03*
X167550000Y-32700000D03*
X183667542Y-27493000D03*
X199300000Y-30160000D03*
X168820000Y-37780000D03*
X171360000Y-28890000D03*
X168820000Y-28890000D03*
X193712000Y-34732000D03*
X174916000Y-34986000D03*
X182536000Y-32827000D03*
X167550000Y-36510000D03*
X171868000Y-21270000D03*
X174916000Y-33462000D03*
X182790000Y-28890000D03*
X200570000Y-36510000D03*
D16*
X190597500Y-26168000D03*
D15*
X170090000Y-39050000D03*
X199300000Y-27620000D03*
X184060000Y-23810000D03*
X173900000Y-37780000D03*
X186600000Y-23810000D03*
X184568000Y-29652000D03*
X170025000Y-30160000D03*
X200570000Y-31430000D03*
X170090000Y-27620000D03*
X177405200Y-30190917D03*
X170090000Y-36510000D03*
X171360000Y-37780000D03*
X168820000Y-31430000D03*
X181520000Y-27620000D03*
X198030000Y-28890000D03*
X197268000Y-25588000D03*
X198030000Y-39050000D03*
X192188000Y-29652000D03*
X197268000Y-23048000D03*
X200570000Y-33970000D03*
X195236000Y-29652000D03*
X167550000Y-39050000D03*
X174916000Y-26858000D03*
X172630000Y-36510000D03*
X174916000Y-25334000D03*
X176440000Y-37780000D03*
X199300000Y-25080000D03*
X198030000Y-26350000D03*
X175170000Y-36510000D03*
X171360000Y-31430000D03*
X174916000Y-26096000D03*
X197268000Y-28128000D03*
X170090000Y-32700000D03*
%TO.N,Board_2-VBUSOUT*%
X187870000Y-37079997D03*
X187870000Y-35494000D03*
X188632000Y-37079997D03*
X187870000Y-37841997D03*
X187108000Y-37079997D03*
X187108000Y-36256000D03*
X187102500Y-30159994D03*
X187870000Y-34732000D03*
X187870000Y-33208000D03*
X187108000Y-37841997D03*
X187870000Y-36256000D03*
X188632000Y-37841997D03*
X187108000Y-35494000D03*
X188632000Y-36256000D03*
X187108000Y-33908003D03*
X187108000Y-34732000D03*
X187870000Y-33908003D03*
X187108000Y-33208000D03*
%TD*%
D17*
%TO.N,Board_0-+3V3*%
X122421527Y-23060793D02*
X123704321Y-24343587D01*
X110281873Y-22167873D02*
X110065330Y-22384416D01*
X111223111Y-21778000D02*
X119324590Y-21778000D01*
X109892000Y-22802873D02*
X109892000Y-23048000D01*
X122421527Y-23060793D02*
G75*
G03*
X119324590Y-21777998I-3096927J-3096907D01*
G01*
X110065330Y-22384416D02*
G75*
G03*
X109891984Y-22802873I418470J-418484D01*
G01*
X111223111Y-21778000D02*
G75*
G03*
X110281870Y-22167870I-11J-1331100D01*
G01*
D18*
%TO.N,Board_0-/Connector/FAULT*%
X109749592Y-25207000D02*
X108876000Y-25207000D01*
X110669407Y-25588000D02*
X111923980Y-25588000D01*
X110209500Y-25397500D02*
G75*
G03*
X109749592Y-25207003I-459900J-459900D01*
G01*
X110209500Y-25397500D02*
G75*
G03*
X110669407Y-25587997I459900J459900D01*
G01*
D19*
%TO.N,Board_0-/D+*%
X109130000Y-20000000D02*
X108085000Y-21045000D01*
X107658003Y-30615997D02*
X107352000Y-30615997D01*
X108085000Y-21045000D02*
X108085000Y-30189000D01*
X108085000Y-30189000D02*
X107658003Y-30615997D01*
%TO.N,Board_0-/D-*%
X107635000Y-25779677D02*
X107635000Y-25080000D01*
X107635000Y-21045000D02*
X106590000Y-20000000D01*
X107635000Y-25080000D02*
X107635000Y-21045000D01*
X107635000Y-29696600D02*
X107635000Y-28179677D01*
X107156974Y-27701651D02*
X107156974Y-27579677D01*
X107352000Y-29765997D02*
X107565603Y-29765997D01*
X107635000Y-25901615D02*
X107635000Y-25779677D01*
X107565603Y-29765997D02*
X107635000Y-29696600D01*
X107156938Y-26501615D02*
X107156938Y-26379677D01*
X107635000Y-27101651D02*
X107635000Y-26979677D01*
X107156938Y-26379677D02*
G75*
G02*
X107395969Y-26140638I239062J-23D01*
G01*
X107395969Y-26740646D02*
G75*
G02*
X107156954Y-26501615I31J239046D01*
G01*
X107395969Y-26140646D02*
G75*
G03*
X107635046Y-25901615I31J239046D01*
G01*
X107156974Y-27579677D02*
G75*
G02*
X107395987Y-27340674I239026J-23D01*
G01*
X107635000Y-26979677D02*
G75*
G03*
X107395969Y-26740700I-239000J-23D01*
G01*
X107395987Y-27940664D02*
G75*
G02*
X107157036Y-27701651I13J238964D01*
G01*
X107395987Y-27340664D02*
G75*
G03*
X107634964Y-27101651I13J238964D01*
G01*
X107635000Y-28179677D02*
G75*
G03*
X107395987Y-27940700I-239000J-23D01*
G01*
D18*
%TO.N,Board_0-/Main Sheet/VBUS_FET_EN*%
X128180000Y-34668500D02*
X128180000Y-36764000D01*
X120179035Y-24572035D02*
X126698257Y-31091257D01*
X119672500Y-23349150D02*
X119672500Y-22632800D01*
X119672500Y-23349150D02*
G75*
G03*
X120179065Y-24572005I1729400J50D01*
G01*
X126698257Y-31091257D02*
G75*
G02*
X128179995Y-34668500I-3577257J-3577243D01*
G01*
%TO.N,Board_0-/USB-C Connector and Protection/CC1*%
X113653149Y-30716849D02*
X114520400Y-29849599D01*
X105320000Y-30922000D02*
X105320000Y-31324789D01*
X105858815Y-29621184D02*
X106590000Y-28890000D01*
X116198363Y-29241700D02*
X115988000Y-29241700D01*
X117406789Y-29800789D02*
X117306850Y-29700850D01*
X110091822Y-32192000D02*
X106187210Y-32192000D01*
X119141210Y-29800789D02*
X119544000Y-29398000D01*
X115988000Y-29241700D02*
G75*
G03*
X114520400Y-29849599I0J-2075500D01*
G01*
X105320000Y-31324789D02*
G75*
G03*
X105573997Y-31938003I867200J-11D01*
G01*
X117306850Y-29700850D02*
G75*
G03*
X116198363Y-29241715I-1108450J-1108450D01*
G01*
X117406789Y-29800789D02*
G75*
G03*
X118274000Y-30160006I867211J867189D01*
G01*
X105858815Y-29621184D02*
G75*
G03*
X105319990Y-30922000I1300785J-1300816D01*
G01*
X105574000Y-31938000D02*
G75*
G03*
X106187210Y-32191996I613200J613200D01*
G01*
X119141210Y-29800789D02*
G75*
G02*
X118274000Y-30160005I-867210J867189D01*
G01*
X113653149Y-30716849D02*
G75*
G02*
X110091822Y-32192008I-3561349J3561349D01*
G01*
%TO.N,Board_0-/USB-C Connector and Protection/CC2*%
X108495000Y-31430000D02*
X106590000Y-31430000D01*
X115353006Y-28255000D02*
X116322797Y-28255000D01*
X117702506Y-28826494D02*
X118274000Y-29397988D01*
X111747038Y-30082961D02*
X112317759Y-29512240D01*
X111747038Y-30082961D02*
G75*
G02*
X108495000Y-31429993I-3252038J3252061D01*
G01*
X115353006Y-28255000D02*
G75*
G03*
X112317754Y-29512235I-6J-4292500D01*
G01*
X117702506Y-28826494D02*
G75*
G03*
X116322797Y-28255001I-1379706J-1379706D01*
G01*
D17*
%TO.N,Board_0-VBUSOUT*%
X115988000Y-33208000D02*
X115988000Y-30165494D01*
X115988000Y-30165494D02*
X115982500Y-30159994D01*
%TO.N,Board_1-+3V3*%
X145841873Y-22167873D02*
X145625330Y-22384416D01*
X157981527Y-23060793D02*
X159264321Y-24343587D01*
X145452000Y-22802873D02*
X145452000Y-23048000D01*
X146783111Y-21778000D02*
X154884590Y-21778000D01*
X157981527Y-23060793D02*
G75*
G03*
X154884590Y-21777998I-3096927J-3096907D01*
G01*
X145625330Y-22384416D02*
G75*
G03*
X145451984Y-22802873I418470J-418484D01*
G01*
X146783111Y-21778000D02*
G75*
G03*
X145841870Y-22167870I-11J-1331100D01*
G01*
D18*
%TO.N,Board_1-/Connector/FAULT*%
X146229407Y-25588000D02*
X147483980Y-25588000D01*
X145309592Y-25207000D02*
X144436000Y-25207000D01*
X145769500Y-25397500D02*
G75*
G03*
X146229407Y-25587997I459900J459900D01*
G01*
X145769500Y-25397500D02*
G75*
G03*
X145309592Y-25207003I-459900J-459900D01*
G01*
D19*
%TO.N,Board_1-/D+*%
X143645000Y-30189000D02*
X143218003Y-30615997D01*
X143645000Y-21045000D02*
X143645000Y-30189000D01*
X143218003Y-30615997D02*
X142912000Y-30615997D01*
X144690000Y-20000000D02*
X143645000Y-21045000D01*
%TO.N,Board_1-/D-*%
X143195000Y-25779677D02*
X143195000Y-25080000D01*
X143195000Y-25080000D02*
X143195000Y-21045000D01*
X142912000Y-29765997D02*
X143125603Y-29765997D01*
X143195000Y-29696600D02*
X143195000Y-28179677D01*
X143125603Y-29765997D02*
X143195000Y-29696600D01*
X143195000Y-25901615D02*
X143195000Y-25779677D01*
X143195000Y-27101651D02*
X143195000Y-26979677D01*
X142716974Y-27701651D02*
X142716974Y-27579677D01*
X143195000Y-21045000D02*
X142150000Y-20000000D01*
X142716938Y-26501615D02*
X142716938Y-26379677D01*
X142955987Y-27340664D02*
G75*
G03*
X143194964Y-27101651I13J238964D01*
G01*
X142716938Y-26379677D02*
G75*
G02*
X142955969Y-26140638I239062J-23D01*
G01*
X142955969Y-26740646D02*
G75*
G02*
X142716954Y-26501615I31J239046D01*
G01*
X143195000Y-26979677D02*
G75*
G03*
X142955969Y-26740700I-239000J-23D01*
G01*
X142955987Y-27940664D02*
G75*
G02*
X142717036Y-27701651I13J238964D01*
G01*
X143195000Y-28179677D02*
G75*
G03*
X142955987Y-27940700I-239000J-23D01*
G01*
X142955969Y-26140646D02*
G75*
G03*
X143195046Y-25901615I31J239046D01*
G01*
X142716974Y-27579677D02*
G75*
G02*
X142955987Y-27340674I239026J-23D01*
G01*
D18*
%TO.N,Board_1-/Main Sheet/VBUS_FET_EN*%
X155739035Y-24572035D02*
X162258257Y-31091257D01*
X155232500Y-23349150D02*
X155232500Y-22632800D01*
X163740000Y-34668500D02*
X163740000Y-36764000D01*
X162258257Y-31091257D02*
G75*
G02*
X163739995Y-34668500I-3577257J-3577243D01*
G01*
X155232500Y-23349150D02*
G75*
G03*
X155739065Y-24572005I1729400J50D01*
G01*
%TO.N,Board_1-/USB-C Connector and Protection/CC1*%
X151758363Y-29241700D02*
X151548000Y-29241700D01*
X149213149Y-30716849D02*
X150080400Y-29849599D01*
X140880000Y-30922000D02*
X140880000Y-31324789D01*
X145651822Y-32192000D02*
X141747210Y-32192000D01*
X141418815Y-29621184D02*
X142150000Y-28890000D01*
X152966789Y-29800789D02*
X152866850Y-29700850D01*
X154701210Y-29800789D02*
X155104000Y-29398000D01*
X149213149Y-30716849D02*
G75*
G02*
X145651822Y-32192008I-3561349J3561349D01*
G01*
X151548000Y-29241700D02*
G75*
G03*
X150080400Y-29849599I0J-2075500D01*
G01*
X152966789Y-29800789D02*
G75*
G03*
X153834000Y-30160006I867211J867189D01*
G01*
X140880000Y-31324789D02*
G75*
G03*
X141133997Y-31938003I867200J-11D01*
G01*
X141418815Y-29621184D02*
G75*
G03*
X140879990Y-30922000I1300785J-1300816D01*
G01*
X152866850Y-29700850D02*
G75*
G03*
X151758363Y-29241715I-1108450J-1108450D01*
G01*
X141134000Y-31938000D02*
G75*
G03*
X141747210Y-32191996I613200J613200D01*
G01*
X154701210Y-29800789D02*
G75*
G02*
X153834000Y-30160005I-867210J867189D01*
G01*
%TO.N,Board_1-/USB-C Connector and Protection/CC2*%
X147307038Y-30082961D02*
X147877759Y-29512240D01*
X153262506Y-28826494D02*
X153834000Y-29397988D01*
X150913006Y-28255000D02*
X151882797Y-28255000D01*
X144055000Y-31430000D02*
X142150000Y-31430000D01*
X150913006Y-28255000D02*
G75*
G03*
X147877754Y-29512235I-6J-4292500D01*
G01*
X147307038Y-30082961D02*
G75*
G02*
X144055000Y-31429993I-3252038J3252061D01*
G01*
X153262506Y-28826494D02*
G75*
G03*
X151882797Y-28255001I-1379706J-1379706D01*
G01*
D17*
%TO.N,Board_1-VBUSOUT*%
X151548000Y-33208000D02*
X151548000Y-30165494D01*
X151548000Y-30165494D02*
X151542500Y-30159994D01*
%TO.N,Board_2-+3V3*%
X193541527Y-23060793D02*
X194824321Y-24343587D01*
X182343111Y-21778000D02*
X190444590Y-21778000D01*
X181401873Y-22167873D02*
X181185330Y-22384416D01*
X181012000Y-22802873D02*
X181012000Y-23048000D01*
X182343111Y-21778000D02*
G75*
G03*
X181401870Y-22167870I-11J-1331100D01*
G01*
X193541527Y-23060793D02*
G75*
G03*
X190444590Y-21777998I-3096927J-3096907D01*
G01*
X181185330Y-22384416D02*
G75*
G03*
X181011984Y-22802873I418470J-418484D01*
G01*
D18*
%TO.N,Board_2-/Connector/FAULT*%
X181789407Y-25588000D02*
X183043980Y-25588000D01*
X180869592Y-25207000D02*
X179996000Y-25207000D01*
X181329500Y-25397500D02*
G75*
G03*
X180869592Y-25207003I-459900J-459900D01*
G01*
X181329500Y-25397500D02*
G75*
G03*
X181789407Y-25587997I459900J459900D01*
G01*
D19*
%TO.N,Board_2-/D+*%
X179205000Y-21045000D02*
X179205000Y-30189000D01*
X179205000Y-30189000D02*
X178778003Y-30615997D01*
X178778003Y-30615997D02*
X178472000Y-30615997D01*
X180250000Y-20000000D02*
X179205000Y-21045000D01*
%TO.N,Board_2-/D-*%
X178472000Y-29765997D02*
X178685603Y-29765997D01*
X178755000Y-25901615D02*
X178755000Y-25779677D01*
X178685603Y-29765997D02*
X178755000Y-29696600D01*
X178755000Y-21045000D02*
X177710000Y-20000000D01*
X178755000Y-25779677D02*
X178755000Y-25080000D01*
X178755000Y-29696600D02*
X178755000Y-28179677D01*
X178755000Y-25080000D02*
X178755000Y-21045000D01*
X178276938Y-26501615D02*
X178276938Y-26379677D01*
X178755000Y-27101651D02*
X178755000Y-26979677D01*
X178276974Y-27701651D02*
X178276974Y-27579677D01*
X178515987Y-27340664D02*
G75*
G03*
X178754964Y-27101651I13J238964D01*
G01*
X178515969Y-26140646D02*
G75*
G03*
X178755046Y-25901615I31J239046D01*
G01*
X178276974Y-27579677D02*
G75*
G02*
X178515987Y-27340674I239026J-23D01*
G01*
X178515969Y-26740646D02*
G75*
G02*
X178276954Y-26501615I31J239046D01*
G01*
X178755000Y-26979677D02*
G75*
G03*
X178515969Y-26740700I-239000J-23D01*
G01*
X178276938Y-26379677D02*
G75*
G02*
X178515969Y-26140638I239062J-23D01*
G01*
X178515987Y-27940664D02*
G75*
G02*
X178277036Y-27701651I13J238964D01*
G01*
X178755000Y-28179677D02*
G75*
G03*
X178515987Y-27940700I-239000J-23D01*
G01*
D18*
%TO.N,Board_2-/Main Sheet/VBUS_FET_EN*%
X191299035Y-24572035D02*
X197818257Y-31091257D01*
X190792500Y-23349150D02*
X190792500Y-22632800D01*
X199300000Y-34668500D02*
X199300000Y-36764000D01*
X197818257Y-31091257D02*
G75*
G02*
X199299995Y-34668500I-3577257J-3577243D01*
G01*
X190792500Y-23349150D02*
G75*
G03*
X191299065Y-24572005I1729400J50D01*
G01*
%TO.N,Board_2-/USB-C Connector and Protection/CC1*%
X181211822Y-32192000D02*
X177307210Y-32192000D01*
X176440000Y-30922000D02*
X176440000Y-31324789D01*
X187318363Y-29241700D02*
X187108000Y-29241700D01*
X184773149Y-30716849D02*
X185640400Y-29849599D01*
X190261210Y-29800789D02*
X190664000Y-29398000D01*
X176978815Y-29621184D02*
X177710000Y-28890000D01*
X188526789Y-29800789D02*
X188426850Y-29700850D01*
X188426850Y-29700850D02*
G75*
G03*
X187318363Y-29241715I-1108450J-1108450D01*
G01*
X190261210Y-29800789D02*
G75*
G02*
X189394000Y-30160005I-867210J867189D01*
G01*
X187108000Y-29241700D02*
G75*
G03*
X185640400Y-29849599I0J-2075500D01*
G01*
X176978815Y-29621184D02*
G75*
G03*
X176439990Y-30922000I1300785J-1300816D01*
G01*
X184773149Y-30716849D02*
G75*
G02*
X181211822Y-32192008I-3561349J3561349D01*
G01*
X176694000Y-31938000D02*
G75*
G03*
X177307210Y-32191996I613200J613200D01*
G01*
X188526789Y-29800789D02*
G75*
G03*
X189394000Y-30160006I867211J867189D01*
G01*
X176440000Y-31324789D02*
G75*
G03*
X176693997Y-31938003I867200J-11D01*
G01*
%TO.N,Board_2-/USB-C Connector and Protection/CC2*%
X186473006Y-28255000D02*
X187442797Y-28255000D01*
X182867038Y-30082961D02*
X183437759Y-29512240D01*
X188822506Y-28826494D02*
X189394000Y-29397988D01*
X179615000Y-31430000D02*
X177710000Y-31430000D01*
X186473006Y-28255000D02*
G75*
G03*
X183437754Y-29512235I-6J-4292500D01*
G01*
X182867038Y-30082961D02*
G75*
G02*
X179615000Y-31429993I-3252038J3252061D01*
G01*
X188822506Y-28826494D02*
G75*
G03*
X187442797Y-28255001I-1379706J-1379706D01*
G01*
D17*
%TO.N,Board_2-VBUSOUT*%
X187108000Y-30165494D02*
X187102500Y-30159994D01*
X187108000Y-33208000D02*
X187108000Y-30165494D01*
%TD*%
%TA.AperFunction,Conductor*%
%TO.N,Board_1-GND*%
G36*
X136139090Y-20520185D02*
G01*
X136181408Y-20566045D01*
X136192315Y-20586451D01*
X136323589Y-20746410D01*
X136394422Y-20804540D01*
X136483550Y-20877685D01*
X136666046Y-20975232D01*
X136864066Y-21035300D01*
X136864065Y-21035300D01*
X136882529Y-21037118D01*
X137070000Y-21055583D01*
X137275934Y-21035300D01*
X137473954Y-20975232D01*
X137656450Y-20877685D01*
X137816410Y-20746410D01*
X137947685Y-20586450D01*
X137958592Y-20566045D01*
X138007555Y-20516202D01*
X138067949Y-20500500D01*
X138612051Y-20500500D01*
X138679090Y-20520185D01*
X138721408Y-20566045D01*
X138732315Y-20586451D01*
X138863589Y-20746410D01*
X138934422Y-20804540D01*
X139023550Y-20877685D01*
X139206046Y-20975232D01*
X139404066Y-21035300D01*
X139404065Y-21035300D01*
X139422529Y-21037118D01*
X139610000Y-21055583D01*
X139815934Y-21035300D01*
X140013954Y-20975232D01*
X140196450Y-20877685D01*
X140356410Y-20746410D01*
X140487685Y-20586450D01*
X140498592Y-20566045D01*
X140547555Y-20516202D01*
X140607949Y-20500500D01*
X141152051Y-20500500D01*
X141219090Y-20520185D01*
X141261408Y-20566045D01*
X141272315Y-20586451D01*
X141403589Y-20746410D01*
X141474422Y-20804540D01*
X141563550Y-20877685D01*
X141746046Y-20975232D01*
X141944066Y-21035300D01*
X141944065Y-21035300D01*
X141962529Y-21037118D01*
X142150000Y-21055583D01*
X142355934Y-21035300D01*
X142553954Y-20975232D01*
X142568191Y-20967621D01*
X142636592Y-20953379D01*
X142701837Y-20978377D01*
X142714327Y-20989298D01*
X142858181Y-21133152D01*
X142891666Y-21194475D01*
X142894500Y-21220833D01*
X142894500Y-25741415D01*
X142874815Y-25808454D01*
X142822011Y-25854209D01*
X142798109Y-25862302D01*
X142776631Y-25867207D01*
X142776624Y-25867209D01*
X142727475Y-25890881D01*
X142667097Y-25919963D01*
X142667095Y-25919964D01*
X142667092Y-25919966D01*
X142572052Y-25995763D01*
X142496254Y-26090812D01*
X142443503Y-26200339D01*
X142416443Y-26318862D01*
X142416441Y-26333062D01*
X142416438Y-26333128D01*
X142416438Y-26379661D01*
X142416432Y-26437192D01*
X142416438Y-26437265D01*
X142416438Y-26444966D01*
X142416434Y-26445022D01*
X142416438Y-26501633D01*
X142416438Y-26548729D01*
X142416455Y-26549014D01*
X142416456Y-26562417D01*
X142443513Y-26680940D01*
X142496260Y-26790469D01*
X142572052Y-26885514D01*
X142572056Y-26885518D01*
X142645033Y-26943721D01*
X142685171Y-27000910D01*
X142688018Y-27070722D01*
X142652670Y-27130990D01*
X142645027Y-27137612D01*
X142572092Y-27195773D01*
X142496293Y-27290817D01*
X142496289Y-27290822D01*
X142443540Y-27400342D01*
X142443538Y-27400349D01*
X142416479Y-27518863D01*
X142416477Y-27533062D01*
X142416474Y-27533128D01*
X142416474Y-27579661D01*
X142416468Y-27637192D01*
X142416474Y-27637265D01*
X142416474Y-27748850D01*
X142416526Y-27749664D01*
X142416524Y-27762377D01*
X142416524Y-27762378D01*
X142443554Y-27880908D01*
X142496289Y-27990459D01*
X142572074Y-28085519D01*
X142572078Y-28085522D01*
X142667122Y-28161336D01*
X142667123Y-28161336D01*
X142667124Y-28161337D01*
X142667125Y-28161338D01*
X142723758Y-28188617D01*
X142776655Y-28214097D01*
X142798100Y-28218993D01*
X142859075Y-28253104D01*
X142891930Y-28314767D01*
X142894500Y-28339882D01*
X142894500Y-28817511D01*
X142874815Y-28884550D01*
X142822011Y-28930305D01*
X142752853Y-28940249D01*
X142689297Y-28911224D01*
X142651523Y-28852446D01*
X142647762Y-28835158D01*
X142635165Y-28747543D01*
X142596319Y-28662483D01*
X142575377Y-28616627D01*
X142481128Y-28507857D01*
X142360053Y-28430047D01*
X142360051Y-28430046D01*
X142360049Y-28430045D01*
X142360050Y-28430045D01*
X142221963Y-28389500D01*
X142221961Y-28389500D01*
X142078039Y-28389500D01*
X142078036Y-28389500D01*
X141939949Y-28430045D01*
X141818873Y-28507856D01*
X141818872Y-28507856D01*
X141818872Y-28507857D01*
X141806290Y-28522377D01*
X141724623Y-28616626D01*
X141724622Y-28616628D01*
X141664834Y-28747543D01*
X141655602Y-28811760D01*
X141644527Y-28888794D01*
X141644353Y-28890001D01*
X141644353Y-28898869D01*
X141640663Y-28898869D01*
X141633015Y-28950921D01*
X141608061Y-28986742D01*
X141214456Y-29380348D01*
X141214454Y-29380351D01*
X141196220Y-29398584D01*
X141196218Y-29398586D01*
X141196217Y-29398585D01*
X141161359Y-29433444D01*
X141161265Y-29433551D01*
X141110675Y-29484139D01*
X140959805Y-29673320D01*
X140959798Y-29673330D01*
X140831055Y-29878218D01*
X140726062Y-30096235D01*
X140726059Y-30096242D01*
X140646140Y-30324635D01*
X140646138Y-30324644D01*
X140592293Y-30560550D01*
X140592290Y-30560564D01*
X140565200Y-30801003D01*
X140565200Y-31373804D01*
X140565204Y-31373869D01*
X140565204Y-31417817D01*
X140594307Y-31601575D01*
X140594307Y-31601576D01*
X140651797Y-31778517D01*
X140651798Y-31778521D01*
X140736263Y-31944295D01*
X140790538Y-32018998D01*
X140845624Y-32094817D01*
X140845626Y-32094819D01*
X140869076Y-32118269D01*
X140869079Y-32118273D01*
X140875081Y-32124275D01*
X140875088Y-32124288D01*
X140911400Y-32160600D01*
X140977180Y-32226380D01*
X141127700Y-32335739D01*
X141293476Y-32420205D01*
X141352458Y-32439369D01*
X141470416Y-32477695D01*
X141470419Y-32477695D01*
X141470424Y-32477697D01*
X141654187Y-32506801D01*
X141747214Y-32506800D01*
X145600453Y-32506800D01*
X145600480Y-32506807D01*
X145651823Y-32506807D01*
X145651823Y-32506808D01*
X145862076Y-32506807D01*
X146281284Y-32473813D01*
X146696611Y-32408030D01*
X147105497Y-32309864D01*
X147505420Y-32179920D01*
X147893915Y-32018999D01*
X148268587Y-31828093D01*
X148627126Y-31608380D01*
X148967321Y-31361213D01*
X149287075Y-31088117D01*
X149396228Y-30978962D01*
X149396233Y-30978959D01*
X149406439Y-30968752D01*
X149406441Y-30968752D01*
X150300122Y-30075070D01*
X150306014Y-30069551D01*
X150470054Y-29925691D01*
X150482897Y-29915836D01*
X150660902Y-29796897D01*
X150674933Y-29788797D01*
X150866932Y-29694113D01*
X150881898Y-29687915D01*
X151011244Y-29644007D01*
X151081053Y-29641099D01*
X151141353Y-29676393D01*
X151172999Y-29738685D01*
X151165943Y-29808198D01*
X151142802Y-29843056D01*
X151143105Y-29843288D01*
X151139724Y-29847693D01*
X151138790Y-29849101D01*
X151138163Y-29849727D01*
X151138158Y-29849734D01*
X151071636Y-29964955D01*
X151071634Y-29964960D01*
X151060129Y-30007897D01*
X151059329Y-30010746D01*
X151056202Y-30021390D01*
X151055182Y-30026361D01*
X151037201Y-30093470D01*
X151037201Y-30093473D01*
X151037201Y-30148708D01*
X151036853Y-30153573D01*
X151036853Y-30166424D01*
X151037201Y-30171284D01*
X151037201Y-30226518D01*
X151037749Y-30228562D01*
X151038475Y-30231271D01*
X151042700Y-30263365D01*
X151042700Y-32736317D01*
X151023015Y-32803356D01*
X151006381Y-32823998D01*
X150931014Y-32899365D01*
X150931012Y-32899366D01*
X150916325Y-32915716D01*
X150916313Y-32915730D01*
X150899672Y-32936379D01*
X150862509Y-33007424D01*
X150842826Y-33074456D01*
X150842825Y-33074464D01*
X150834501Y-33132361D01*
X150834500Y-33132365D01*
X150834500Y-37008518D01*
X150814815Y-37075557D01*
X150798181Y-37096199D01*
X150102199Y-37792181D01*
X150040876Y-37825666D01*
X150014518Y-37828500D01*
X149059361Y-37828500D01*
X149037381Y-37829678D01*
X149011034Y-37832511D01*
X149011032Y-37832512D01*
X148934521Y-37856470D01*
X148934516Y-37856471D01*
X148873188Y-37889960D01*
X148826384Y-37924998D01*
X148826363Y-37925016D01*
X148391013Y-38360365D01*
X148391012Y-38360366D01*
X148376325Y-38376716D01*
X148376313Y-38376730D01*
X148359672Y-38397379D01*
X148322509Y-38468424D01*
X148302826Y-38535456D01*
X148302825Y-38535464D01*
X148294501Y-38593361D01*
X148294500Y-38593365D01*
X148294500Y-39695500D01*
X148274815Y-39762539D01*
X148222011Y-39808294D01*
X148170500Y-39819500D01*
X135350862Y-39819500D01*
X135283823Y-39799815D01*
X135263181Y-39783181D01*
X135165000Y-39685000D01*
X131479000Y-39685000D01*
X131411961Y-39665315D01*
X131366206Y-39612511D01*
X131355000Y-39561000D01*
X131355000Y-34548995D01*
X132289499Y-34548995D01*
X132316418Y-34684322D01*
X132316421Y-34684332D01*
X132369221Y-34811804D01*
X132369228Y-34811817D01*
X132445885Y-34926541D01*
X132445888Y-34926545D01*
X132543454Y-35024111D01*
X132543458Y-35024114D01*
X132658182Y-35100771D01*
X132658195Y-35100778D01*
X132728445Y-35129876D01*
X132785672Y-35153580D01*
X132785676Y-35153580D01*
X132785677Y-35153581D01*
X132921004Y-35180500D01*
X132921007Y-35180500D01*
X133858995Y-35180500D01*
X133950041Y-35162389D01*
X133994328Y-35153580D01*
X134121811Y-35100775D01*
X134236542Y-35024114D01*
X134334114Y-34926542D01*
X134410775Y-34811811D01*
X134463580Y-34684328D01*
X134490500Y-34548995D01*
X136319499Y-34548995D01*
X136346418Y-34684322D01*
X136346421Y-34684332D01*
X136399221Y-34811804D01*
X136399228Y-34811817D01*
X136475885Y-34926541D01*
X136475888Y-34926545D01*
X136573454Y-35024111D01*
X136573458Y-35024114D01*
X136688182Y-35100771D01*
X136688195Y-35100778D01*
X136758445Y-35129876D01*
X136815672Y-35153580D01*
X136815676Y-35153580D01*
X136815677Y-35153581D01*
X136951004Y-35180500D01*
X136951007Y-35180500D01*
X138188995Y-35180500D01*
X138280041Y-35162389D01*
X138324328Y-35153580D01*
X138451811Y-35100775D01*
X138566542Y-35024114D01*
X138664114Y-34926542D01*
X138740775Y-34811811D01*
X138793580Y-34684328D01*
X138820500Y-34548993D01*
X138820500Y-34411007D01*
X138820500Y-34411004D01*
X138793581Y-34275677D01*
X138793580Y-34275676D01*
X138793580Y-34275672D01*
X138793578Y-34275667D01*
X138740778Y-34148195D01*
X138740771Y-34148182D01*
X138664114Y-34033458D01*
X138664111Y-34033454D01*
X138566545Y-33935888D01*
X138566541Y-33935885D01*
X138451817Y-33859228D01*
X138451804Y-33859221D01*
X138324332Y-33806421D01*
X138324322Y-33806418D01*
X138188995Y-33779500D01*
X138188993Y-33779500D01*
X137420244Y-33779500D01*
X137353205Y-33759815D01*
X137307450Y-33707011D01*
X137297506Y-33637853D01*
X137326531Y-33574297D01*
X137358244Y-33548113D01*
X137384738Y-33532816D01*
X137423365Y-33510515D01*
X137530515Y-33403365D01*
X137606281Y-33272135D01*
X137645500Y-33125766D01*
X137645500Y-32974234D01*
X137606281Y-32827865D01*
X137530515Y-32696635D01*
X137423365Y-32589485D01*
X137357750Y-32551602D01*
X137292136Y-32513719D01*
X137218950Y-32494109D01*
X137145766Y-32474500D01*
X136994234Y-32474500D01*
X136847863Y-32513719D01*
X136716635Y-32589485D01*
X136716632Y-32589487D01*
X136609487Y-32696632D01*
X136609485Y-32696635D01*
X136533719Y-32827863D01*
X136510176Y-32915730D01*
X136494500Y-32974234D01*
X136494500Y-33125766D01*
X136496268Y-33132365D01*
X136533719Y-33272136D01*
X136571602Y-33337750D01*
X136609485Y-33403365D01*
X136716635Y-33510515D01*
X136716636Y-33510516D01*
X136716638Y-33510517D01*
X136839024Y-33581177D01*
X136887240Y-33631744D01*
X136900462Y-33700351D01*
X136874494Y-33765216D01*
X136820981Y-33803321D01*
X136821299Y-33804089D01*
X136817964Y-33805470D01*
X136817580Y-33805744D01*
X136816300Y-33806159D01*
X136688195Y-33859221D01*
X136688182Y-33859228D01*
X136573458Y-33935885D01*
X136573454Y-33935888D01*
X136475888Y-34033454D01*
X136475885Y-34033458D01*
X136399228Y-34148182D01*
X136399221Y-34148195D01*
X136346421Y-34275667D01*
X136346418Y-34275677D01*
X136319500Y-34411004D01*
X136319500Y-34411007D01*
X136319500Y-34548993D01*
X136319500Y-34548995D01*
X136319499Y-34548995D01*
X134490500Y-34548995D01*
X134490500Y-34548993D01*
X134490500Y-34411007D01*
X134490500Y-34411004D01*
X134463581Y-34275677D01*
X134463580Y-34275676D01*
X134463580Y-34275672D01*
X134463578Y-34275667D01*
X134410778Y-34148195D01*
X134410771Y-34148182D01*
X134334114Y-34033458D01*
X134334111Y-34033454D01*
X134236545Y-33935888D01*
X134236541Y-33935885D01*
X134121817Y-33859228D01*
X134121804Y-33859221D01*
X133994332Y-33806421D01*
X133994322Y-33806418D01*
X133858995Y-33779500D01*
X133858993Y-33779500D01*
X132921007Y-33779500D01*
X132921005Y-33779500D01*
X132785677Y-33806418D01*
X132785667Y-33806421D01*
X132658195Y-33859221D01*
X132658182Y-33859228D01*
X132543458Y-33935885D01*
X132543454Y-33935888D01*
X132445888Y-34033454D01*
X132445885Y-34033458D01*
X132369228Y-34148182D01*
X132369221Y-34148195D01*
X132316421Y-34275667D01*
X132316418Y-34275677D01*
X132289500Y-34411004D01*
X132289500Y-34411007D01*
X132289500Y-34548993D01*
X132289500Y-34548995D01*
X132289499Y-34548995D01*
X131355000Y-34548995D01*
X131355000Y-25908995D01*
X132289499Y-25908995D01*
X132316418Y-26044322D01*
X132316421Y-26044332D01*
X132369221Y-26171804D01*
X132369228Y-26171817D01*
X132445885Y-26286541D01*
X132445888Y-26286545D01*
X132543454Y-26384111D01*
X132543458Y-26384114D01*
X132658182Y-26460771D01*
X132658195Y-26460778D01*
X132785667Y-26513578D01*
X132785672Y-26513580D01*
X132785676Y-26513580D01*
X132785677Y-26513581D01*
X132921004Y-26540500D01*
X132921007Y-26540500D01*
X133858995Y-26540500D01*
X133982609Y-26515911D01*
X133994328Y-26513580D01*
X134121811Y-26460775D01*
X134236542Y-26384114D01*
X134334114Y-26286542D01*
X134410775Y-26171811D01*
X134463580Y-26044328D01*
X134473240Y-25995763D01*
X134490500Y-25908995D01*
X136319499Y-25908995D01*
X136346418Y-26044322D01*
X136346421Y-26044332D01*
X136399221Y-26171804D01*
X136399228Y-26171817D01*
X136475885Y-26286541D01*
X136475888Y-26286545D01*
X136573454Y-26384111D01*
X136573458Y-26384114D01*
X136688182Y-26460771D01*
X136688195Y-26460778D01*
X136821299Y-26515911D01*
X136820550Y-26517717D01*
X136871441Y-26551052D01*
X136899911Y-26614858D01*
X136889365Y-26683927D01*
X136843152Y-26736331D01*
X136839025Y-26738822D01*
X136716635Y-26809485D01*
X136716632Y-26809487D01*
X136609487Y-26916632D01*
X136609485Y-26916635D01*
X136533719Y-27047863D01*
X136494500Y-27194234D01*
X136494500Y-27345766D01*
X136509125Y-27400349D01*
X136533719Y-27492136D01*
X136549150Y-27518863D01*
X136609485Y-27623365D01*
X136716635Y-27730515D01*
X136847865Y-27806281D01*
X136994234Y-27845500D01*
X136994236Y-27845500D01*
X137145764Y-27845500D01*
X137145766Y-27845500D01*
X137292135Y-27806281D01*
X137423365Y-27730515D01*
X137530515Y-27623365D01*
X137606281Y-27492135D01*
X137645500Y-27345766D01*
X137645500Y-27194234D01*
X137606281Y-27047865D01*
X137530515Y-26916635D01*
X137423365Y-26809485D01*
X137423363Y-26809484D01*
X137423361Y-26809482D01*
X137358244Y-26771887D01*
X137310028Y-26721320D01*
X137296806Y-26652713D01*
X137322774Y-26587848D01*
X137379688Y-26547320D01*
X137420244Y-26540500D01*
X138188995Y-26540500D01*
X138312609Y-26515911D01*
X138324328Y-26513580D01*
X138451811Y-26460775D01*
X138566542Y-26384114D01*
X138664114Y-26286542D01*
X138740775Y-26171811D01*
X138793580Y-26044328D01*
X138803240Y-25995763D01*
X138820500Y-25908995D01*
X138820500Y-25771004D01*
X138793581Y-25635677D01*
X138793580Y-25635676D01*
X138793580Y-25635672D01*
X138789497Y-25625814D01*
X138740778Y-25508195D01*
X138740771Y-25508182D01*
X138664114Y-25393458D01*
X138664111Y-25393454D01*
X138566545Y-25295888D01*
X138566541Y-25295885D01*
X138451817Y-25219228D01*
X138451804Y-25219221D01*
X138324332Y-25166421D01*
X138324322Y-25166418D01*
X138188995Y-25139500D01*
X138188993Y-25139500D01*
X136951007Y-25139500D01*
X136951005Y-25139500D01*
X136815677Y-25166418D01*
X136815667Y-25166421D01*
X136688195Y-25219221D01*
X136688182Y-25219228D01*
X136573458Y-25295885D01*
X136573454Y-25295888D01*
X136475888Y-25393454D01*
X136475885Y-25393458D01*
X136399228Y-25508182D01*
X136399221Y-25508195D01*
X136346421Y-25635667D01*
X136346418Y-25635677D01*
X136319500Y-25771004D01*
X136319500Y-25771007D01*
X136319500Y-25908993D01*
X136319500Y-25908995D01*
X136319499Y-25908995D01*
X134490500Y-25908995D01*
X134490500Y-25771004D01*
X134463581Y-25635677D01*
X134463580Y-25635676D01*
X134463580Y-25635672D01*
X134459497Y-25625814D01*
X134410778Y-25508195D01*
X134410771Y-25508182D01*
X134334114Y-25393458D01*
X134334111Y-25393454D01*
X134236545Y-25295888D01*
X134236541Y-25295885D01*
X134121817Y-25219228D01*
X134121804Y-25219221D01*
X133994332Y-25166421D01*
X133994322Y-25166418D01*
X133858995Y-25139500D01*
X133858993Y-25139500D01*
X132921007Y-25139500D01*
X132921005Y-25139500D01*
X132785677Y-25166418D01*
X132785667Y-25166421D01*
X132658195Y-25219221D01*
X132658182Y-25219228D01*
X132543458Y-25295885D01*
X132543454Y-25295888D01*
X132445888Y-25393454D01*
X132445885Y-25393458D01*
X132369228Y-25508182D01*
X132369221Y-25508195D01*
X132316421Y-25635667D01*
X132316418Y-25635677D01*
X132289500Y-25771004D01*
X132289500Y-25771007D01*
X132289500Y-25908993D01*
X132289500Y-25908995D01*
X132289499Y-25908995D01*
X131355000Y-25908995D01*
X131355000Y-20759000D01*
X131374685Y-20691961D01*
X131427489Y-20646206D01*
X131479000Y-20635000D01*
X135165000Y-20635000D01*
X135263181Y-20536819D01*
X135324504Y-20503334D01*
X135350862Y-20500500D01*
X136072051Y-20500500D01*
X136139090Y-20520185D01*
G37*
%TD.AperFunction*%
%TA.AperFunction,Conductor*%
G36*
X151379090Y-20520185D02*
G01*
X151421408Y-20566045D01*
X151432315Y-20586451D01*
X151563589Y-20746410D01*
X151634422Y-20804540D01*
X151723550Y-20877685D01*
X151906046Y-20975232D01*
X152086723Y-21030039D01*
X152145162Y-21068337D01*
X152173618Y-21132149D01*
X152163058Y-21201216D01*
X152116834Y-21253610D01*
X152050728Y-21272700D01*
X146709449Y-21272700D01*
X146709381Y-21272704D01*
X146662749Y-21272704D01*
X146424075Y-21304124D01*
X146191552Y-21366428D01*
X146191536Y-21366433D01*
X145969157Y-21458545D01*
X145969142Y-21458552D01*
X145760668Y-21578914D01*
X145569690Y-21725456D01*
X145535244Y-21759901D01*
X145535192Y-21759950D01*
X145215420Y-22079722D01*
X145215270Y-22079893D01*
X145206999Y-22088163D01*
X145206996Y-22088167D01*
X145206993Y-22088170D01*
X145206993Y-22088171D01*
X145105491Y-22227871D01*
X145105488Y-22227875D01*
X145027092Y-22381725D01*
X145027091Y-22381727D01*
X145027091Y-22381728D01*
X144973724Y-22545956D01*
X144957146Y-22650600D01*
X144946703Y-22716514D01*
X144946703Y-22728725D01*
X144946700Y-22728779D01*
X144946700Y-22802849D01*
X144946697Y-22877613D01*
X144946700Y-22877658D01*
X144946700Y-23036721D01*
X144946353Y-23041572D01*
X144946353Y-23054437D01*
X144946700Y-23059283D01*
X144946700Y-23114528D01*
X144964684Y-23181647D01*
X144965703Y-23186607D01*
X144968809Y-23197175D01*
X144969614Y-23200042D01*
X144981135Y-23243036D01*
X144981137Y-23243041D01*
X145013619Y-23299300D01*
X145047660Y-23358261D01*
X145141739Y-23452340D01*
X145222728Y-23499099D01*
X145256958Y-23518862D01*
X145256959Y-23518863D01*
X145256961Y-23518863D01*
X145256962Y-23518864D01*
X145385476Y-23553300D01*
X145385478Y-23553300D01*
X145518522Y-23553300D01*
X145518524Y-23553300D01*
X145647038Y-23518864D01*
X145762261Y-23452340D01*
X145856340Y-23358261D01*
X145922864Y-23243038D01*
X145934391Y-23200015D01*
X145935185Y-23197193D01*
X145938304Y-23186583D01*
X145939322Y-23181616D01*
X145957300Y-23114524D01*
X145957300Y-23059283D01*
X145957647Y-23054437D01*
X145957647Y-23041572D01*
X145957300Y-23036721D01*
X145957300Y-22818410D01*
X145976985Y-22751371D01*
X145993614Y-22730733D01*
X146029665Y-22694684D01*
X146029665Y-22694682D01*
X146047104Y-22677244D01*
X146047108Y-22677239D01*
X146091547Y-22632800D01*
X146195724Y-22528623D01*
X146202862Y-22522026D01*
X146290292Y-22447354D01*
X146306021Y-22435924D01*
X146399888Y-22378402D01*
X146417216Y-22369575D01*
X146518904Y-22327454D01*
X146537400Y-22321444D01*
X146644440Y-22295747D01*
X146663643Y-22292706D01*
X146778321Y-22283681D01*
X146788039Y-22283300D01*
X146849631Y-22283300D01*
X154648941Y-22283300D01*
X154715980Y-22302985D01*
X154761735Y-22355789D01*
X154771679Y-22424947D01*
X154761735Y-22458812D01*
X154747334Y-22490343D01*
X154726853Y-22632800D01*
X154747334Y-22775256D01*
X154790317Y-22869374D01*
X154807123Y-22906173D01*
X154887414Y-22998834D01*
X154916438Y-23062388D01*
X154917700Y-23080035D01*
X154917700Y-23291689D01*
X154917699Y-23291707D01*
X154917699Y-23297757D01*
X154917658Y-23297896D01*
X154917661Y-23463963D01*
X154943376Y-23692123D01*
X154994473Y-23915962D01*
X154994478Y-23915979D01*
X155070310Y-24132675D01*
X155070313Y-24132681D01*
X155070314Y-24132684D01*
X155169942Y-24339548D01*
X155275751Y-24507931D01*
X155292102Y-24533952D01*
X155424679Y-24700190D01*
X155435265Y-24713463D01*
X155487131Y-24765326D01*
X155487132Y-24765327D01*
X162000404Y-31278598D01*
X162033958Y-31312153D01*
X162037308Y-31315638D01*
X162285216Y-31583824D01*
X162291532Y-31591219D01*
X162516126Y-31876116D01*
X162521841Y-31883982D01*
X162723384Y-32185613D01*
X162728472Y-32193915D01*
X162905731Y-32510436D01*
X162910151Y-32519111D01*
X163062025Y-32848553D01*
X163065751Y-32857548D01*
X163145773Y-33074456D01*
X163164702Y-33125766D01*
X163191317Y-33197907D01*
X163194317Y-33207140D01*
X163279877Y-33510515D01*
X163292790Y-33556300D01*
X163295062Y-33565767D01*
X163365835Y-33921568D01*
X163367358Y-33931184D01*
X163409997Y-34291436D01*
X163410761Y-34301143D01*
X163425104Y-34666201D01*
X163425200Y-34671069D01*
X163425200Y-36316764D01*
X163405515Y-36383803D01*
X163394913Y-36397966D01*
X163314625Y-36490622D01*
X163314622Y-36490628D01*
X163254834Y-36621543D01*
X163234353Y-36764000D01*
X163254834Y-36906456D01*
X163301445Y-37008518D01*
X163314623Y-37037373D01*
X163408872Y-37146143D01*
X163529947Y-37223953D01*
X163529950Y-37223954D01*
X163529949Y-37223954D01*
X163668036Y-37264499D01*
X163668038Y-37264500D01*
X163668039Y-37264500D01*
X163811962Y-37264500D01*
X163811962Y-37264499D01*
X163950053Y-37223953D01*
X164071128Y-37146143D01*
X164165377Y-37037373D01*
X164225165Y-36906457D01*
X164245647Y-36764000D01*
X164225165Y-36621543D01*
X164165377Y-36490627D01*
X164165375Y-36490625D01*
X164165374Y-36490622D01*
X164085087Y-36397966D01*
X164056062Y-36334411D01*
X164054800Y-36316764D01*
X164054800Y-34619107D01*
X164054795Y-34619029D01*
X164054795Y-34457371D01*
X164054795Y-34457364D01*
X164021664Y-34036392D01*
X163955606Y-33619318D01*
X163857028Y-33208713D01*
X163813408Y-33074464D01*
X163726541Y-32807112D01*
X163637030Y-32591013D01*
X163564943Y-32416978D01*
X163373235Y-32040730D01*
X163152599Y-31680683D01*
X163146288Y-31671997D01*
X162921477Y-31362569D01*
X162904394Y-31339056D01*
X162630150Y-31017957D01*
X162539441Y-30927248D01*
X162539437Y-30927241D01*
X162441280Y-30829084D01*
X162441257Y-30829063D01*
X156003957Y-24391762D01*
X156003941Y-24391743D01*
X155964490Y-24352294D01*
X155958943Y-24346372D01*
X155844974Y-24216421D01*
X155835100Y-24203554D01*
X155741322Y-24063216D01*
X155733211Y-24049168D01*
X155658551Y-23897781D01*
X155652344Y-23882797D01*
X155598085Y-23722973D01*
X155593886Y-23707305D01*
X155590865Y-23692121D01*
X155560952Y-23541755D01*
X155558835Y-23525675D01*
X155547566Y-23353822D01*
X155547300Y-23345708D01*
X155547300Y-23080035D01*
X155566985Y-23012996D01*
X155577579Y-22998841D01*
X155657877Y-22906173D01*
X155717665Y-22775257D01*
X155738147Y-22632800D01*
X155726459Y-22551510D01*
X155736402Y-22482355D01*
X155782157Y-22429551D01*
X155849196Y-22409866D01*
X155876031Y-22412804D01*
X155882081Y-22414145D01*
X155892531Y-22416945D01*
X156204568Y-22515329D01*
X156214714Y-22519022D01*
X156517002Y-22644234D01*
X156526793Y-22648800D01*
X156817009Y-22799877D01*
X156826370Y-22805282D01*
X156984736Y-22906173D01*
X157102294Y-22981066D01*
X157111155Y-22987269D01*
X157370743Y-23186459D01*
X157379006Y-23193393D01*
X157554083Y-23353822D01*
X157622277Y-23416311D01*
X157626184Y-23420052D01*
X158529655Y-24323523D01*
X158563140Y-24384846D01*
X158565070Y-24396256D01*
X158579180Y-24512457D01*
X158579181Y-24512462D01*
X158639503Y-24671517D01*
X158639503Y-24671518D01*
X158691638Y-24747047D01*
X158736138Y-24811516D01*
X158804992Y-24872515D01*
X158863471Y-24924323D01*
X159014094Y-25003376D01*
X159014096Y-25003377D01*
X159179265Y-25044087D01*
X159349377Y-25044087D01*
X159514546Y-25003377D01*
X159594013Y-24961668D01*
X159665170Y-24924323D01*
X159665171Y-24924321D01*
X159665173Y-24924321D01*
X159792504Y-24811516D01*
X159889139Y-24671517D01*
X159949461Y-24512459D01*
X159969966Y-24343587D01*
X159949461Y-24174715D01*
X159889139Y-24015657D01*
X159792504Y-23875658D01*
X159665173Y-23762853D01*
X159665170Y-23762850D01*
X159514547Y-23683797D01*
X159349377Y-23643087D01*
X159329785Y-23643087D01*
X159262746Y-23623402D01*
X159242104Y-23606768D01*
X158285958Y-22650622D01*
X158285933Y-22650600D01*
X158203105Y-22567771D01*
X157911210Y-22318468D01*
X157600663Y-22092843D01*
X157600652Y-22092835D01*
X157273378Y-21892281D01*
X157273367Y-21892274D01*
X157020687Y-21763527D01*
X156931334Y-21717999D01*
X156817712Y-21670935D01*
X156576681Y-21571097D01*
X156316924Y-21486697D01*
X156211608Y-21452478D01*
X155838347Y-21362866D01*
X155838341Y-21362865D01*
X155459214Y-21302818D01*
X155459208Y-21302817D01*
X155459206Y-21302817D01*
X155459200Y-21302816D01*
X155459195Y-21302816D01*
X155093800Y-21274059D01*
X155028512Y-21249175D01*
X154987041Y-21192944D01*
X154982554Y-21123218D01*
X155016476Y-21062136D01*
X155067529Y-21031782D01*
X155253954Y-20975232D01*
X155436450Y-20877685D01*
X155596410Y-20746410D01*
X155727685Y-20586450D01*
X155738592Y-20566045D01*
X155787555Y-20516202D01*
X155847949Y-20500500D01*
X156392051Y-20500500D01*
X156459090Y-20520185D01*
X156501408Y-20566045D01*
X156512315Y-20586451D01*
X156643589Y-20746410D01*
X156714422Y-20804540D01*
X156803550Y-20877685D01*
X156986046Y-20975232D01*
X157184066Y-21035300D01*
X157184065Y-21035300D01*
X157202529Y-21037118D01*
X157390000Y-21055583D01*
X157595934Y-21035300D01*
X157793954Y-20975232D01*
X157976450Y-20877685D01*
X158136410Y-20746410D01*
X158267685Y-20586450D01*
X158278592Y-20566045D01*
X158327555Y-20516202D01*
X158387949Y-20500500D01*
X158932051Y-20500500D01*
X158999090Y-20520185D01*
X159041408Y-20566045D01*
X159052315Y-20586451D01*
X159183589Y-20746410D01*
X159254422Y-20804540D01*
X159343550Y-20877685D01*
X159526046Y-20975232D01*
X159724066Y-21035300D01*
X159724065Y-21035300D01*
X159742529Y-21037118D01*
X159930000Y-21055583D01*
X160135934Y-21035300D01*
X160333954Y-20975232D01*
X160516450Y-20877685D01*
X160676410Y-20746410D01*
X160807685Y-20586450D01*
X160818592Y-20566045D01*
X160867555Y-20516202D01*
X160927949Y-20500500D01*
X161649138Y-20500500D01*
X161716177Y-20520185D01*
X161736819Y-20536819D01*
X161835000Y-20635000D01*
X165521000Y-20635000D01*
X165588039Y-20654685D01*
X165633794Y-20707489D01*
X165645000Y-20759000D01*
X165645000Y-39561000D01*
X165625315Y-39628039D01*
X165572511Y-39673794D01*
X165521000Y-39685000D01*
X162037500Y-39685000D01*
X161970461Y-39665315D01*
X161924706Y-39612511D01*
X161913500Y-39561000D01*
X161913500Y-38593361D01*
X161912321Y-38571381D01*
X161909488Y-38545034D01*
X161909487Y-38545032D01*
X161906491Y-38535464D01*
X161885529Y-38468518D01*
X161852044Y-38407195D01*
X161852039Y-38407188D01*
X161817001Y-38360384D01*
X161816998Y-38360381D01*
X161816991Y-38360371D01*
X161816983Y-38360363D01*
X161381634Y-37925013D01*
X161381633Y-37925012D01*
X161365283Y-37910325D01*
X161365269Y-37910313D01*
X161344620Y-37893672D01*
X161273575Y-37856509D01*
X161206543Y-37836826D01*
X161205894Y-37836732D01*
X161148638Y-37828500D01*
X161148634Y-37828500D01*
X154605482Y-37828500D01*
X154538443Y-37808815D01*
X154517801Y-37792181D01*
X153821819Y-37096199D01*
X153788334Y-37034876D01*
X153785500Y-37008518D01*
X153785500Y-36053361D01*
X153784321Y-36031381D01*
X153781488Y-36005034D01*
X153781487Y-36005032D01*
X153757529Y-35928518D01*
X153724044Y-35867195D01*
X153688991Y-35820371D01*
X153059819Y-35191199D01*
X153026334Y-35129876D01*
X153023500Y-35103518D01*
X153023500Y-33132361D01*
X153022321Y-33110381D01*
X153019488Y-33084034D01*
X153019487Y-33084032D01*
X153016491Y-33074464D01*
X152995529Y-33007518D01*
X152962044Y-32946195D01*
X152962039Y-32946188D01*
X152927001Y-32899384D01*
X152926998Y-32899381D01*
X152926991Y-32899371D01*
X152815300Y-32787680D01*
X152618634Y-32591013D01*
X152618633Y-32591012D01*
X152602283Y-32576325D01*
X152602269Y-32576313D01*
X152581620Y-32559672D01*
X152510575Y-32522509D01*
X152443543Y-32502826D01*
X152442894Y-32502732D01*
X152385638Y-32494500D01*
X152385634Y-32494500D01*
X152177300Y-32494500D01*
X152110261Y-32474815D01*
X152064506Y-32422011D01*
X152053300Y-32370500D01*
X152053300Y-30098971D01*
X152053299Y-30098967D01*
X152046125Y-30072196D01*
X152025194Y-29994081D01*
X152023467Y-29987637D01*
X152022877Y-29985434D01*
X152018864Y-29970455D01*
X151952341Y-29855232D01*
X151889777Y-29792669D01*
X151856293Y-29731347D01*
X151861277Y-29661655D01*
X151903148Y-29605721D01*
X151968612Y-29581304D01*
X152006401Y-29584413D01*
X152136028Y-29615532D01*
X152154529Y-29621543D01*
X152318134Y-29689308D01*
X152335469Y-29698140D01*
X152486454Y-29790662D01*
X152502192Y-29802097D01*
X152591320Y-29878219D01*
X152640412Y-29920148D01*
X152647561Y-29926756D01*
X152773497Y-30052691D01*
X152773499Y-30052692D01*
X152779476Y-30058669D01*
X152779519Y-30058707D01*
X152815616Y-30094805D01*
X152815620Y-30094808D01*
X152815622Y-30094810D01*
X152821045Y-30098971D01*
X152975905Y-30217802D01*
X152975908Y-30217804D01*
X153150859Y-30318814D01*
X153150863Y-30318815D01*
X153150872Y-30318821D01*
X153337527Y-30396138D01*
X153532677Y-30448429D01*
X153732983Y-30474800D01*
X153782633Y-30474800D01*
X153782650Y-30474805D01*
X153834000Y-30474805D01*
X153935010Y-30474805D01*
X153935017Y-30474805D01*
X154135324Y-30448434D01*
X154330474Y-30396142D01*
X154517130Y-30318826D01*
X154692097Y-30217807D01*
X154852380Y-30094814D01*
X154877056Y-30070135D01*
X154877061Y-30070133D01*
X155012375Y-29934819D01*
X155073698Y-29901334D01*
X155100056Y-29898500D01*
X155175962Y-29898500D01*
X155175962Y-29898499D01*
X155305845Y-29860363D01*
X155314050Y-29857954D01*
X155314050Y-29857953D01*
X155314053Y-29857953D01*
X155435128Y-29780143D01*
X155529377Y-29671373D01*
X155589165Y-29540457D01*
X155609647Y-29398000D01*
X155589165Y-29255543D01*
X155529377Y-29124627D01*
X155435128Y-29015857D01*
X155314053Y-28938047D01*
X155314051Y-28938046D01*
X155314049Y-28938045D01*
X155314050Y-28938045D01*
X155175963Y-28897500D01*
X155175961Y-28897500D01*
X155032039Y-28897500D01*
X155032036Y-28897500D01*
X154893949Y-28938045D01*
X154772873Y-29015856D01*
X154772872Y-29015856D01*
X154772872Y-29015857D01*
X154772142Y-29016700D01*
X154678623Y-29124626D01*
X154678622Y-29124628D01*
X154618834Y-29255543D01*
X154605261Y-29349953D01*
X154598355Y-29397990D01*
X154598353Y-29398001D01*
X154598353Y-29406869D01*
X154594663Y-29406869D01*
X154587015Y-29458921D01*
X154562061Y-29494742D01*
X154549491Y-29507312D01*
X154488168Y-29540797D01*
X154418476Y-29535813D01*
X154362543Y-29493941D01*
X154338126Y-29428477D01*
X154339073Y-29401980D01*
X154339647Y-29397988D01*
X154319165Y-29255531D01*
X154303786Y-29221857D01*
X154259377Y-29124615D01*
X154165128Y-29015845D01*
X154044053Y-28938035D01*
X154044051Y-28938034D01*
X154044049Y-28938033D01*
X154044050Y-28938033D01*
X153905963Y-28897488D01*
X153905961Y-28897488D01*
X153830057Y-28897488D01*
X153763018Y-28877803D01*
X153742376Y-28861169D01*
X153543690Y-28662483D01*
X153543688Y-28662480D01*
X153466857Y-28585650D01*
X153395120Y-28513913D01*
X153196134Y-28355227D01*
X152980633Y-28219819D01*
X152980630Y-28219817D01*
X152751328Y-28109391D01*
X152511106Y-28025333D01*
X152511094Y-28025329D01*
X152262967Y-27968696D01*
X152262949Y-27968693D01*
X152010059Y-27940200D01*
X152010053Y-27940200D01*
X151924241Y-27940200D01*
X150871562Y-27940200D01*
X150863533Y-27940200D01*
X150863411Y-27940208D01*
X150711844Y-27940208D01*
X150311070Y-27975271D01*
X150311050Y-27975274D01*
X149914866Y-28045130D01*
X149914850Y-28045134D01*
X149526256Y-28149256D01*
X149148199Y-28286856D01*
X149148191Y-28286859D01*
X148783589Y-28456875D01*
X148783584Y-28456877D01*
X148435155Y-28658040D01*
X148105602Y-28888794D01*
X147797407Y-29147400D01*
X147672602Y-29272202D01*
X147619905Y-29324899D01*
X147086365Y-29858438D01*
X147082457Y-29862180D01*
X146812866Y-30109212D01*
X146804579Y-30116165D01*
X146516657Y-30337094D01*
X146507796Y-30343299D01*
X146201697Y-30538305D01*
X146192329Y-30543713D01*
X145870417Y-30711289D01*
X145860613Y-30715861D01*
X145525309Y-30854748D01*
X145515143Y-30858448D01*
X145169016Y-30967581D01*
X145158567Y-30970381D01*
X144804237Y-31048934D01*
X144793584Y-31050812D01*
X144433768Y-31098182D01*
X144422992Y-31099125D01*
X144361831Y-31101795D01*
X144057510Y-31115082D01*
X144052119Y-31115200D01*
X143417132Y-31115200D01*
X143350093Y-31095515D01*
X143304338Y-31042711D01*
X143294394Y-30973553D01*
X143323419Y-30909997D01*
X143355133Y-30883813D01*
X143402507Y-30856461D01*
X143402506Y-30856461D01*
X143402514Y-30856457D01*
X143458463Y-30800508D01*
X143885460Y-30373511D01*
X143896129Y-30355032D01*
X143925021Y-30304989D01*
X143945500Y-30228562D01*
X143945500Y-25713809D01*
X143965185Y-25646770D01*
X144017989Y-25601015D01*
X144087147Y-25591071D01*
X144136537Y-25609492D01*
X144194542Y-25646770D01*
X144225948Y-25666954D01*
X144364036Y-25707499D01*
X144364038Y-25707500D01*
X144364039Y-25707500D01*
X144507962Y-25707500D01*
X144507962Y-25707499D01*
X144646053Y-25666953D01*
X144767128Y-25589143D01*
X144788398Y-25564595D01*
X144847176Y-25526823D01*
X144882110Y-25521800D01*
X145259733Y-25521800D01*
X145259736Y-25521801D01*
X145301471Y-25521800D01*
X145317655Y-25522861D01*
X145380270Y-25531104D01*
X145411536Y-25539481D01*
X145440195Y-25551351D01*
X145462316Y-25560513D01*
X145490352Y-25576700D01*
X145540420Y-25615119D01*
X145552615Y-25625814D01*
X145600609Y-25673809D01*
X145600612Y-25673811D01*
X145600615Y-25673814D01*
X145646980Y-25707500D01*
X145723522Y-25763112D01*
X145723524Y-25763113D01*
X145723527Y-25763115D01*
X145812511Y-25808454D01*
X145858896Y-25832088D01*
X146003385Y-25879035D01*
X146003389Y-25879036D01*
X146153446Y-25902801D01*
X146229410Y-25902800D01*
X147037870Y-25902800D01*
X147104909Y-25922485D01*
X147131581Y-25945595D01*
X147152852Y-25970143D01*
X147273927Y-26047953D01*
X147273930Y-26047954D01*
X147273929Y-26047954D01*
X147412016Y-26088499D01*
X147412018Y-26088500D01*
X147412019Y-26088500D01*
X147555942Y-26088500D01*
X147555942Y-26088499D01*
X147694033Y-26047953D01*
X147815108Y-25970143D01*
X147909357Y-25861373D01*
X147969145Y-25730457D01*
X147989627Y-25588000D01*
X147969145Y-25445543D01*
X147909357Y-25314627D01*
X147815108Y-25205857D01*
X147694033Y-25128047D01*
X147694031Y-25128046D01*
X147694029Y-25128045D01*
X147694030Y-25128045D01*
X147555943Y-25087500D01*
X147555941Y-25087500D01*
X147412019Y-25087500D01*
X147412016Y-25087500D01*
X147273929Y-25128045D01*
X147152852Y-25205856D01*
X147131582Y-25230404D01*
X147072804Y-25268177D01*
X147037870Y-25273200D01*
X146289263Y-25273200D01*
X146289251Y-25273199D01*
X146237528Y-25273199D01*
X146221344Y-25272138D01*
X146158729Y-25263895D01*
X146127463Y-25255518D01*
X146076686Y-25234487D01*
X146048649Y-25218300D01*
X145998575Y-25179876D01*
X145986380Y-25169181D01*
X145938390Y-25121190D01*
X145938385Y-25121186D01*
X145815475Y-25031887D01*
X145815474Y-25031886D01*
X145815472Y-25031885D01*
X145759520Y-25003376D01*
X145680103Y-24962910D01*
X145680097Y-24962908D01*
X145535616Y-24915965D01*
X145535608Y-24915963D01*
X145385556Y-24892199D01*
X145385552Y-24892199D01*
X145309588Y-24892200D01*
X144882110Y-24892200D01*
X144815071Y-24872515D01*
X144788398Y-24849404D01*
X144767127Y-24824856D01*
X144720502Y-24794892D01*
X144646053Y-24747047D01*
X144646051Y-24747046D01*
X144646049Y-24747045D01*
X144646050Y-24747045D01*
X144507963Y-24706500D01*
X144507961Y-24706500D01*
X144364039Y-24706500D01*
X144364036Y-24706500D01*
X144225949Y-24747045D01*
X144147384Y-24797535D01*
X144136541Y-24804505D01*
X144136539Y-24804506D01*
X144069500Y-24824190D01*
X144002460Y-24804505D01*
X143956706Y-24751701D01*
X143945500Y-24700190D01*
X143945500Y-21220832D01*
X143965185Y-21153793D01*
X143981815Y-21133155D01*
X144125672Y-20989297D01*
X144186995Y-20955813D01*
X144256687Y-20960797D01*
X144271805Y-20967620D01*
X144286046Y-20975232D01*
X144484066Y-21035300D01*
X144484065Y-21035300D01*
X144502529Y-21037118D01*
X144690000Y-21055583D01*
X144895934Y-21035300D01*
X145093954Y-20975232D01*
X145276450Y-20877685D01*
X145436410Y-20746410D01*
X145567685Y-20586450D01*
X145578592Y-20566045D01*
X145627555Y-20516202D01*
X145687949Y-20500500D01*
X151312051Y-20500500D01*
X151379090Y-20520185D01*
G37*
%TD.AperFunction*%
%TA.AperFunction,Conductor*%
G36*
X151886839Y-28570065D02*
G01*
X151906551Y-28571356D01*
X152088298Y-28583268D01*
X152104354Y-28585383D01*
X152298369Y-28623975D01*
X152314020Y-28628169D01*
X152501330Y-28691752D01*
X152516301Y-28697953D01*
X152616860Y-28747543D01*
X152693707Y-28785440D01*
X152707753Y-28793549D01*
X152863328Y-28897500D01*
X152872220Y-28903441D01*
X152885089Y-28913316D01*
X153036836Y-29046394D01*
X153042758Y-29051941D01*
X153292061Y-29301244D01*
X153325546Y-29362567D01*
X153326564Y-29389120D01*
X153328353Y-29389120D01*
X153328353Y-29397990D01*
X153328924Y-29401962D01*
X153328353Y-29405932D01*
X153328353Y-29406857D01*
X153328220Y-29406857D01*
X153318980Y-29471120D01*
X153273224Y-29523923D01*
X153206184Y-29543607D01*
X153139145Y-29523922D01*
X153118505Y-29507289D01*
X153089458Y-29478242D01*
X153002213Y-29390998D01*
X153002208Y-29390994D01*
X153002206Y-29390992D01*
X152838656Y-29265497D01*
X152806440Y-29240777D01*
X152592734Y-29117396D01*
X152434706Y-29051941D01*
X152364745Y-29022963D01*
X152126392Y-28959101D01*
X152126388Y-28959100D01*
X151881740Y-28926897D01*
X151881738Y-28926897D01*
X151758356Y-28926900D01*
X151413760Y-28926900D01*
X151146991Y-28956958D01*
X151146975Y-28956960D01*
X150885238Y-29016699D01*
X150885226Y-29016703D01*
X150631837Y-29105368D01*
X150631823Y-29105374D01*
X150389948Y-29221855D01*
X150162624Y-29364692D01*
X149952728Y-29532078D01*
X149952723Y-29532083D01*
X149900391Y-29584414D01*
X149869667Y-29615137D01*
X149869666Y-29615138D01*
X149008367Y-30476436D01*
X148992276Y-30492527D01*
X148988766Y-30495902D01*
X148721884Y-30742605D01*
X148714481Y-30748928D01*
X148430980Y-30972423D01*
X148423103Y-30978146D01*
X148122937Y-31178711D01*
X148114635Y-31183798D01*
X147799677Y-31360183D01*
X147791002Y-31364604D01*
X147463154Y-31515744D01*
X147454159Y-31519470D01*
X147115461Y-31644424D01*
X147106201Y-31647432D01*
X146758765Y-31745420D01*
X146749298Y-31747693D01*
X146395229Y-31818123D01*
X146385612Y-31819646D01*
X146027117Y-31862078D01*
X146017411Y-31862842D01*
X145654468Y-31877104D01*
X145649599Y-31877200D01*
X145132745Y-31877200D01*
X145065706Y-31857515D01*
X145019951Y-31804711D01*
X145010007Y-31735553D01*
X145039032Y-31671997D01*
X145097810Y-31634223D01*
X145103777Y-31632631D01*
X145389852Y-31563951D01*
X145757087Y-31444630D01*
X146113827Y-31296864D01*
X146457875Y-31121564D01*
X146787107Y-30919811D01*
X147099496Y-30692849D01*
X147393115Y-30442077D01*
X147490123Y-30345068D01*
X147490128Y-30345065D01*
X147500328Y-30334864D01*
X147500330Y-30334864D01*
X148080691Y-29754502D01*
X148098451Y-29736742D01*
X148102317Y-29733040D01*
X148352213Y-29504054D01*
X148360497Y-29497105D01*
X148363577Y-29494742D01*
X148627210Y-29292449D01*
X148636049Y-29286259D01*
X148919612Y-29105611D01*
X148928958Y-29100216D01*
X149227172Y-28944976D01*
X149236946Y-28940418D01*
X149547572Y-28811753D01*
X149557704Y-28808066D01*
X149878356Y-28706966D01*
X149888770Y-28704175D01*
X150217027Y-28631403D01*
X150227638Y-28629532D01*
X150560981Y-28585647D01*
X150571711Y-28584708D01*
X150910495Y-28569917D01*
X150915886Y-28569800D01*
X150962865Y-28569800D01*
X151832938Y-28569800D01*
X151878730Y-28569800D01*
X151886839Y-28570065D01*
G37*
%TD.AperFunction*%
%TA.AperFunction,Conductor*%
G36*
X142449593Y-29399210D02*
G01*
X142478618Y-29462766D01*
X142468674Y-29531924D01*
X142426835Y-29623538D01*
X142426834Y-29623539D01*
X142406353Y-29765997D01*
X142426834Y-29908453D01*
X142480682Y-30026361D01*
X142486623Y-30039370D01*
X142538264Y-30098967D01*
X142547646Y-30109795D01*
X142576670Y-30173351D01*
X142566726Y-30242509D01*
X142547646Y-30272199D01*
X142486623Y-30342624D01*
X142486622Y-30342625D01*
X142426834Y-30473540D01*
X142406353Y-30615997D01*
X142426834Y-30758453D01*
X142435978Y-30778474D01*
X142445922Y-30847633D01*
X142416897Y-30911188D01*
X142358119Y-30948963D01*
X142288250Y-30948963D01*
X142221964Y-30929500D01*
X142221961Y-30929500D01*
X142078039Y-30929500D01*
X142078036Y-30929500D01*
X141939949Y-30970045D01*
X141818873Y-31047856D01*
X141818872Y-31047856D01*
X141818872Y-31047857D01*
X141806290Y-31062377D01*
X141724623Y-31156626D01*
X141724622Y-31156628D01*
X141664834Y-31287543D01*
X141644353Y-31430000D01*
X141664834Y-31572456D01*
X141710705Y-31672898D01*
X141720649Y-31742057D01*
X141691624Y-31805613D01*
X141632846Y-31843387D01*
X141562976Y-31843387D01*
X141561915Y-31843070D01*
X141547493Y-31838695D01*
X141525037Y-31829394D01*
X141451074Y-31789861D01*
X141430861Y-31776355D01*
X141366057Y-31723172D01*
X141348872Y-31705988D01*
X141295642Y-31641128D01*
X141282145Y-31620928D01*
X141242604Y-31546950D01*
X141233306Y-31524500D01*
X141208963Y-31444247D01*
X141204221Y-31420407D01*
X141199638Y-31373869D01*
X141195396Y-31330802D01*
X141194800Y-31318651D01*
X141194800Y-31312129D01*
X141194801Y-31274934D01*
X141194800Y-31274930D01*
X141194800Y-30926066D01*
X141195065Y-30917957D01*
X141199072Y-30856820D01*
X141207314Y-30731064D01*
X141209429Y-30715007D01*
X141245173Y-30535311D01*
X141249370Y-30519651D01*
X141257992Y-30494252D01*
X141308260Y-30346168D01*
X141314461Y-30331197D01*
X141395502Y-30166865D01*
X141403600Y-30152840D01*
X141505396Y-30000495D01*
X141515254Y-29987647D01*
X141638848Y-29846719D01*
X141644353Y-29840840D01*
X141676666Y-29808528D01*
X142058375Y-29426819D01*
X142119698Y-29393334D01*
X142146056Y-29390500D01*
X142221961Y-29390500D01*
X142320945Y-29361436D01*
X142390815Y-29361436D01*
X142449593Y-29399210D01*
G37*
%TD.AperFunction*%
%TD*%
%TA.AperFunction,Conductor*%
%TO.N,Board_2-GND*%
G36*
X171699090Y-20520185D02*
G01*
X171741408Y-20566045D01*
X171752315Y-20586451D01*
X171883589Y-20746410D01*
X171954422Y-20804540D01*
X172043550Y-20877685D01*
X172226046Y-20975232D01*
X172424066Y-21035300D01*
X172424065Y-21035300D01*
X172442529Y-21037118D01*
X172630000Y-21055583D01*
X172835934Y-21035300D01*
X173033954Y-20975232D01*
X173216450Y-20877685D01*
X173376410Y-20746410D01*
X173507685Y-20586450D01*
X173518592Y-20566045D01*
X173567555Y-20516202D01*
X173627949Y-20500500D01*
X174172051Y-20500500D01*
X174239090Y-20520185D01*
X174281408Y-20566045D01*
X174292315Y-20586451D01*
X174423589Y-20746410D01*
X174494422Y-20804540D01*
X174583550Y-20877685D01*
X174766046Y-20975232D01*
X174964066Y-21035300D01*
X174964065Y-21035300D01*
X174982529Y-21037118D01*
X175170000Y-21055583D01*
X175375934Y-21035300D01*
X175573954Y-20975232D01*
X175756450Y-20877685D01*
X175916410Y-20746410D01*
X176047685Y-20586450D01*
X176058592Y-20566045D01*
X176107555Y-20516202D01*
X176167949Y-20500500D01*
X176712051Y-20500500D01*
X176779090Y-20520185D01*
X176821408Y-20566045D01*
X176832315Y-20586451D01*
X176963589Y-20746410D01*
X177034422Y-20804540D01*
X177123550Y-20877685D01*
X177306046Y-20975232D01*
X177504066Y-21035300D01*
X177504065Y-21035300D01*
X177522529Y-21037118D01*
X177710000Y-21055583D01*
X177915934Y-21035300D01*
X178113954Y-20975232D01*
X178128191Y-20967621D01*
X178196592Y-20953379D01*
X178261837Y-20978377D01*
X178274327Y-20989298D01*
X178418181Y-21133152D01*
X178451666Y-21194475D01*
X178454500Y-21220833D01*
X178454500Y-25741415D01*
X178434815Y-25808454D01*
X178382011Y-25854209D01*
X178358109Y-25862302D01*
X178336631Y-25867207D01*
X178336624Y-25867209D01*
X178287475Y-25890881D01*
X178227097Y-25919963D01*
X178227095Y-25919964D01*
X178227092Y-25919966D01*
X178132052Y-25995763D01*
X178056254Y-26090812D01*
X178003503Y-26200339D01*
X177976443Y-26318862D01*
X177976441Y-26333062D01*
X177976438Y-26333128D01*
X177976438Y-26379661D01*
X177976432Y-26437192D01*
X177976438Y-26437265D01*
X177976438Y-26444966D01*
X177976434Y-26445022D01*
X177976438Y-26501633D01*
X177976438Y-26548729D01*
X177976455Y-26549014D01*
X177976456Y-26562417D01*
X178003513Y-26680940D01*
X178056260Y-26790469D01*
X178132052Y-26885514D01*
X178132056Y-26885518D01*
X178205033Y-26943721D01*
X178245171Y-27000910D01*
X178248018Y-27070722D01*
X178212670Y-27130990D01*
X178205027Y-27137612D01*
X178132092Y-27195773D01*
X178056293Y-27290817D01*
X178056289Y-27290822D01*
X178003540Y-27400342D01*
X178003538Y-27400349D01*
X177976479Y-27518863D01*
X177976477Y-27533062D01*
X177976474Y-27533128D01*
X177976474Y-27579661D01*
X177976468Y-27637192D01*
X177976474Y-27637265D01*
X177976474Y-27748850D01*
X177976526Y-27749664D01*
X177976524Y-27762377D01*
X177976524Y-27762378D01*
X178003554Y-27880908D01*
X178056289Y-27990459D01*
X178132074Y-28085519D01*
X178132078Y-28085522D01*
X178227122Y-28161336D01*
X178227123Y-28161336D01*
X178227124Y-28161337D01*
X178227125Y-28161338D01*
X178283758Y-28188617D01*
X178336655Y-28214097D01*
X178358100Y-28218993D01*
X178419075Y-28253104D01*
X178451930Y-28314767D01*
X178454500Y-28339882D01*
X178454500Y-28817511D01*
X178434815Y-28884550D01*
X178382011Y-28930305D01*
X178312853Y-28940249D01*
X178249297Y-28911224D01*
X178211523Y-28852446D01*
X178207762Y-28835158D01*
X178195165Y-28747543D01*
X178156319Y-28662483D01*
X178135377Y-28616627D01*
X178041128Y-28507857D01*
X177920053Y-28430047D01*
X177920051Y-28430046D01*
X177920049Y-28430045D01*
X177920050Y-28430045D01*
X177781963Y-28389500D01*
X177781961Y-28389500D01*
X177638039Y-28389500D01*
X177638036Y-28389500D01*
X177499949Y-28430045D01*
X177378873Y-28507856D01*
X177378872Y-28507856D01*
X177378872Y-28507857D01*
X177366290Y-28522377D01*
X177284623Y-28616626D01*
X177284622Y-28616628D01*
X177224834Y-28747543D01*
X177215602Y-28811760D01*
X177204527Y-28888794D01*
X177204353Y-28890001D01*
X177204353Y-28898869D01*
X177200663Y-28898869D01*
X177193015Y-28950921D01*
X177168061Y-28986742D01*
X176774456Y-29380348D01*
X176774454Y-29380351D01*
X176756220Y-29398584D01*
X176756218Y-29398586D01*
X176756217Y-29398585D01*
X176721359Y-29433444D01*
X176721265Y-29433551D01*
X176670675Y-29484139D01*
X176519805Y-29673320D01*
X176519798Y-29673330D01*
X176391055Y-29878218D01*
X176286062Y-30096235D01*
X176286059Y-30096242D01*
X176206140Y-30324635D01*
X176206138Y-30324644D01*
X176152293Y-30560550D01*
X176152290Y-30560564D01*
X176125200Y-30801003D01*
X176125200Y-31373804D01*
X176125204Y-31373869D01*
X176125204Y-31417817D01*
X176154307Y-31601575D01*
X176154307Y-31601576D01*
X176211797Y-31778517D01*
X176211798Y-31778521D01*
X176296263Y-31944295D01*
X176350538Y-32018998D01*
X176405624Y-32094817D01*
X176405626Y-32094819D01*
X176429076Y-32118269D01*
X176429079Y-32118273D01*
X176435081Y-32124275D01*
X176435088Y-32124288D01*
X176471400Y-32160600D01*
X176537180Y-32226380D01*
X176687700Y-32335739D01*
X176853476Y-32420205D01*
X176912458Y-32439369D01*
X177030416Y-32477695D01*
X177030419Y-32477695D01*
X177030424Y-32477697D01*
X177214187Y-32506801D01*
X177307214Y-32506800D01*
X181160453Y-32506800D01*
X181160480Y-32506807D01*
X181211823Y-32506807D01*
X181211823Y-32506808D01*
X181422076Y-32506807D01*
X181841284Y-32473813D01*
X182256611Y-32408030D01*
X182665497Y-32309864D01*
X183065420Y-32179920D01*
X183453915Y-32018999D01*
X183828587Y-31828093D01*
X184187126Y-31608380D01*
X184527321Y-31361213D01*
X184847075Y-31088117D01*
X184956228Y-30978962D01*
X184956233Y-30978959D01*
X184966439Y-30968752D01*
X184966441Y-30968752D01*
X185860122Y-30075070D01*
X185866014Y-30069551D01*
X186030054Y-29925691D01*
X186042897Y-29915836D01*
X186220902Y-29796897D01*
X186234933Y-29788797D01*
X186426932Y-29694113D01*
X186441898Y-29687915D01*
X186571244Y-29644007D01*
X186641053Y-29641099D01*
X186701353Y-29676393D01*
X186732999Y-29738685D01*
X186725943Y-29808198D01*
X186702802Y-29843056D01*
X186703105Y-29843288D01*
X186699724Y-29847693D01*
X186698790Y-29849101D01*
X186698163Y-29849727D01*
X186698158Y-29849734D01*
X186631636Y-29964955D01*
X186631634Y-29964960D01*
X186620129Y-30007897D01*
X186619329Y-30010746D01*
X186616202Y-30021390D01*
X186615182Y-30026361D01*
X186597201Y-30093470D01*
X186597201Y-30093473D01*
X186597201Y-30148708D01*
X186596853Y-30153573D01*
X186596853Y-30166424D01*
X186597201Y-30171284D01*
X186597201Y-30226518D01*
X186597749Y-30228562D01*
X186598475Y-30231271D01*
X186602700Y-30263365D01*
X186602700Y-32736317D01*
X186583015Y-32803356D01*
X186566381Y-32823998D01*
X186491014Y-32899365D01*
X186491012Y-32899366D01*
X186476325Y-32915716D01*
X186476313Y-32915730D01*
X186459672Y-32936379D01*
X186422509Y-33007424D01*
X186402826Y-33074456D01*
X186402825Y-33074464D01*
X186394501Y-33132361D01*
X186394500Y-33132365D01*
X186394500Y-37008518D01*
X186374815Y-37075557D01*
X186358181Y-37096199D01*
X185662199Y-37792181D01*
X185600876Y-37825666D01*
X185574518Y-37828500D01*
X184619361Y-37828500D01*
X184597381Y-37829678D01*
X184571034Y-37832511D01*
X184571032Y-37832512D01*
X184494521Y-37856470D01*
X184494516Y-37856471D01*
X184433188Y-37889960D01*
X184386384Y-37924998D01*
X184386363Y-37925016D01*
X183951013Y-38360365D01*
X183951012Y-38360366D01*
X183936325Y-38376716D01*
X183936313Y-38376730D01*
X183919672Y-38397379D01*
X183882509Y-38468424D01*
X183862826Y-38535456D01*
X183862825Y-38535464D01*
X183854501Y-38593361D01*
X183854500Y-38593365D01*
X183854500Y-39695500D01*
X183834815Y-39762539D01*
X183782011Y-39808294D01*
X183730500Y-39819500D01*
X170910862Y-39819500D01*
X170843823Y-39799815D01*
X170823181Y-39783181D01*
X170725000Y-39685000D01*
X167039000Y-39685000D01*
X166971961Y-39665315D01*
X166926206Y-39612511D01*
X166915000Y-39561000D01*
X166915000Y-34548995D01*
X167849499Y-34548995D01*
X167876418Y-34684322D01*
X167876421Y-34684332D01*
X167929221Y-34811804D01*
X167929228Y-34811817D01*
X168005885Y-34926541D01*
X168005888Y-34926545D01*
X168103454Y-35024111D01*
X168103458Y-35024114D01*
X168218182Y-35100771D01*
X168218195Y-35100778D01*
X168288445Y-35129876D01*
X168345672Y-35153580D01*
X168345676Y-35153580D01*
X168345677Y-35153581D01*
X168481004Y-35180500D01*
X168481007Y-35180500D01*
X169418995Y-35180500D01*
X169510041Y-35162389D01*
X169554328Y-35153580D01*
X169681811Y-35100775D01*
X169796542Y-35024114D01*
X169894114Y-34926542D01*
X169970775Y-34811811D01*
X170023580Y-34684328D01*
X170050500Y-34548995D01*
X171879499Y-34548995D01*
X171906418Y-34684322D01*
X171906421Y-34684332D01*
X171959221Y-34811804D01*
X171959228Y-34811817D01*
X172035885Y-34926541D01*
X172035888Y-34926545D01*
X172133454Y-35024111D01*
X172133458Y-35024114D01*
X172248182Y-35100771D01*
X172248195Y-35100778D01*
X172318445Y-35129876D01*
X172375672Y-35153580D01*
X172375676Y-35153580D01*
X172375677Y-35153581D01*
X172511004Y-35180500D01*
X172511007Y-35180500D01*
X173748995Y-35180500D01*
X173840041Y-35162389D01*
X173884328Y-35153580D01*
X174011811Y-35100775D01*
X174126542Y-35024114D01*
X174224114Y-34926542D01*
X174300775Y-34811811D01*
X174353580Y-34684328D01*
X174380500Y-34548993D01*
X174380500Y-34411007D01*
X174380500Y-34411004D01*
X174353581Y-34275677D01*
X174353580Y-34275676D01*
X174353580Y-34275672D01*
X174353578Y-34275667D01*
X174300778Y-34148195D01*
X174300771Y-34148182D01*
X174224114Y-34033458D01*
X174224111Y-34033454D01*
X174126545Y-33935888D01*
X174126541Y-33935885D01*
X174011817Y-33859228D01*
X174011804Y-33859221D01*
X173884332Y-33806421D01*
X173884322Y-33806418D01*
X173748995Y-33779500D01*
X173748993Y-33779500D01*
X172980244Y-33779500D01*
X172913205Y-33759815D01*
X172867450Y-33707011D01*
X172857506Y-33637853D01*
X172886531Y-33574297D01*
X172918244Y-33548113D01*
X172944738Y-33532816D01*
X172983365Y-33510515D01*
X173090515Y-33403365D01*
X173166281Y-33272135D01*
X173205500Y-33125766D01*
X173205500Y-32974234D01*
X173166281Y-32827865D01*
X173090515Y-32696635D01*
X172983365Y-32589485D01*
X172917750Y-32551602D01*
X172852136Y-32513719D01*
X172778950Y-32494109D01*
X172705766Y-32474500D01*
X172554234Y-32474500D01*
X172407863Y-32513719D01*
X172276635Y-32589485D01*
X172276632Y-32589487D01*
X172169487Y-32696632D01*
X172169485Y-32696635D01*
X172093719Y-32827863D01*
X172070176Y-32915730D01*
X172054500Y-32974234D01*
X172054500Y-33125766D01*
X172056268Y-33132365D01*
X172093719Y-33272136D01*
X172131602Y-33337750D01*
X172169485Y-33403365D01*
X172276635Y-33510515D01*
X172276636Y-33510516D01*
X172276638Y-33510517D01*
X172399024Y-33581177D01*
X172447240Y-33631744D01*
X172460462Y-33700351D01*
X172434494Y-33765216D01*
X172380981Y-33803321D01*
X172381299Y-33804089D01*
X172377964Y-33805470D01*
X172377580Y-33805744D01*
X172376300Y-33806159D01*
X172248195Y-33859221D01*
X172248182Y-33859228D01*
X172133458Y-33935885D01*
X172133454Y-33935888D01*
X172035888Y-34033454D01*
X172035885Y-34033458D01*
X171959228Y-34148182D01*
X171959221Y-34148195D01*
X171906421Y-34275667D01*
X171906418Y-34275677D01*
X171879500Y-34411004D01*
X171879500Y-34411007D01*
X171879500Y-34548993D01*
X171879500Y-34548995D01*
X171879499Y-34548995D01*
X170050500Y-34548995D01*
X170050500Y-34548993D01*
X170050500Y-34411007D01*
X170050500Y-34411004D01*
X170023581Y-34275677D01*
X170023580Y-34275676D01*
X170023580Y-34275672D01*
X170023578Y-34275667D01*
X169970778Y-34148195D01*
X169970771Y-34148182D01*
X169894114Y-34033458D01*
X169894111Y-34033454D01*
X169796545Y-33935888D01*
X169796541Y-33935885D01*
X169681817Y-33859228D01*
X169681804Y-33859221D01*
X169554332Y-33806421D01*
X169554322Y-33806418D01*
X169418995Y-33779500D01*
X169418993Y-33779500D01*
X168481007Y-33779500D01*
X168481005Y-33779500D01*
X168345677Y-33806418D01*
X168345667Y-33806421D01*
X168218195Y-33859221D01*
X168218182Y-33859228D01*
X168103458Y-33935885D01*
X168103454Y-33935888D01*
X168005888Y-34033454D01*
X168005885Y-34033458D01*
X167929228Y-34148182D01*
X167929221Y-34148195D01*
X167876421Y-34275667D01*
X167876418Y-34275677D01*
X167849500Y-34411004D01*
X167849500Y-34411007D01*
X167849500Y-34548993D01*
X167849500Y-34548995D01*
X167849499Y-34548995D01*
X166915000Y-34548995D01*
X166915000Y-25908995D01*
X167849499Y-25908995D01*
X167876418Y-26044322D01*
X167876421Y-26044332D01*
X167929221Y-26171804D01*
X167929228Y-26171817D01*
X168005885Y-26286541D01*
X168005888Y-26286545D01*
X168103454Y-26384111D01*
X168103458Y-26384114D01*
X168218182Y-26460771D01*
X168218195Y-26460778D01*
X168345667Y-26513578D01*
X168345672Y-26513580D01*
X168345676Y-26513580D01*
X168345677Y-26513581D01*
X168481004Y-26540500D01*
X168481007Y-26540500D01*
X169418995Y-26540500D01*
X169542609Y-26515911D01*
X169554328Y-26513580D01*
X169681811Y-26460775D01*
X169796542Y-26384114D01*
X169894114Y-26286542D01*
X169970775Y-26171811D01*
X170023580Y-26044328D01*
X170033240Y-25995763D01*
X170050500Y-25908995D01*
X171879499Y-25908995D01*
X171906418Y-26044322D01*
X171906421Y-26044332D01*
X171959221Y-26171804D01*
X171959228Y-26171817D01*
X172035885Y-26286541D01*
X172035888Y-26286545D01*
X172133454Y-26384111D01*
X172133458Y-26384114D01*
X172248182Y-26460771D01*
X172248195Y-26460778D01*
X172381299Y-26515911D01*
X172380550Y-26517717D01*
X172431441Y-26551052D01*
X172459911Y-26614858D01*
X172449365Y-26683927D01*
X172403152Y-26736331D01*
X172399025Y-26738822D01*
X172276635Y-26809485D01*
X172276632Y-26809487D01*
X172169487Y-26916632D01*
X172169485Y-26916635D01*
X172093719Y-27047863D01*
X172054500Y-27194234D01*
X172054500Y-27345766D01*
X172069125Y-27400349D01*
X172093719Y-27492136D01*
X172109150Y-27518863D01*
X172169485Y-27623365D01*
X172276635Y-27730515D01*
X172407865Y-27806281D01*
X172554234Y-27845500D01*
X172554236Y-27845500D01*
X172705764Y-27845500D01*
X172705766Y-27845500D01*
X172852135Y-27806281D01*
X172983365Y-27730515D01*
X173090515Y-27623365D01*
X173166281Y-27492135D01*
X173205500Y-27345766D01*
X173205500Y-27194234D01*
X173166281Y-27047865D01*
X173090515Y-26916635D01*
X172983365Y-26809485D01*
X172983363Y-26809484D01*
X172983361Y-26809482D01*
X172918244Y-26771887D01*
X172870028Y-26721320D01*
X172856806Y-26652713D01*
X172882774Y-26587848D01*
X172939688Y-26547320D01*
X172980244Y-26540500D01*
X173748995Y-26540500D01*
X173872609Y-26515911D01*
X173884328Y-26513580D01*
X174011811Y-26460775D01*
X174126542Y-26384114D01*
X174224114Y-26286542D01*
X174300775Y-26171811D01*
X174353580Y-26044328D01*
X174363240Y-25995763D01*
X174380500Y-25908995D01*
X174380500Y-25771004D01*
X174353581Y-25635677D01*
X174353580Y-25635676D01*
X174353580Y-25635672D01*
X174349497Y-25625814D01*
X174300778Y-25508195D01*
X174300771Y-25508182D01*
X174224114Y-25393458D01*
X174224111Y-25393454D01*
X174126545Y-25295888D01*
X174126541Y-25295885D01*
X174011817Y-25219228D01*
X174011804Y-25219221D01*
X173884332Y-25166421D01*
X173884322Y-25166418D01*
X173748995Y-25139500D01*
X173748993Y-25139500D01*
X172511007Y-25139500D01*
X172511005Y-25139500D01*
X172375677Y-25166418D01*
X172375667Y-25166421D01*
X172248195Y-25219221D01*
X172248182Y-25219228D01*
X172133458Y-25295885D01*
X172133454Y-25295888D01*
X172035888Y-25393454D01*
X172035885Y-25393458D01*
X171959228Y-25508182D01*
X171959221Y-25508195D01*
X171906421Y-25635667D01*
X171906418Y-25635677D01*
X171879500Y-25771004D01*
X171879500Y-25771007D01*
X171879500Y-25908993D01*
X171879500Y-25908995D01*
X171879499Y-25908995D01*
X170050500Y-25908995D01*
X170050500Y-25771004D01*
X170023581Y-25635677D01*
X170023580Y-25635676D01*
X170023580Y-25635672D01*
X170019497Y-25625814D01*
X169970778Y-25508195D01*
X169970771Y-25508182D01*
X169894114Y-25393458D01*
X169894111Y-25393454D01*
X169796545Y-25295888D01*
X169796541Y-25295885D01*
X169681817Y-25219228D01*
X169681804Y-25219221D01*
X169554332Y-25166421D01*
X169554322Y-25166418D01*
X169418995Y-25139500D01*
X169418993Y-25139500D01*
X168481007Y-25139500D01*
X168481005Y-25139500D01*
X168345677Y-25166418D01*
X168345667Y-25166421D01*
X168218195Y-25219221D01*
X168218182Y-25219228D01*
X168103458Y-25295885D01*
X168103454Y-25295888D01*
X168005888Y-25393454D01*
X168005885Y-25393458D01*
X167929228Y-25508182D01*
X167929221Y-25508195D01*
X167876421Y-25635667D01*
X167876418Y-25635677D01*
X167849500Y-25771004D01*
X167849500Y-25771007D01*
X167849500Y-25908993D01*
X167849500Y-25908995D01*
X167849499Y-25908995D01*
X166915000Y-25908995D01*
X166915000Y-20759000D01*
X166934685Y-20691961D01*
X166987489Y-20646206D01*
X167039000Y-20635000D01*
X170725000Y-20635000D01*
X170823181Y-20536819D01*
X170884504Y-20503334D01*
X170910862Y-20500500D01*
X171632051Y-20500500D01*
X171699090Y-20520185D01*
G37*
%TD.AperFunction*%
%TA.AperFunction,Conductor*%
G36*
X186939090Y-20520185D02*
G01*
X186981408Y-20566045D01*
X186992315Y-20586451D01*
X187123589Y-20746410D01*
X187194422Y-20804540D01*
X187283550Y-20877685D01*
X187466046Y-20975232D01*
X187646723Y-21030039D01*
X187705162Y-21068337D01*
X187733618Y-21132149D01*
X187723058Y-21201216D01*
X187676834Y-21253610D01*
X187610728Y-21272700D01*
X182269449Y-21272700D01*
X182269381Y-21272704D01*
X182222749Y-21272704D01*
X181984075Y-21304124D01*
X181751552Y-21366428D01*
X181751536Y-21366433D01*
X181529157Y-21458545D01*
X181529142Y-21458552D01*
X181320668Y-21578914D01*
X181129690Y-21725456D01*
X181095244Y-21759901D01*
X181095192Y-21759950D01*
X180775420Y-22079722D01*
X180775270Y-22079893D01*
X180766999Y-22088163D01*
X180766996Y-22088167D01*
X180766993Y-22088170D01*
X180766993Y-22088171D01*
X180665491Y-22227871D01*
X180665488Y-22227875D01*
X180587092Y-22381725D01*
X180587091Y-22381727D01*
X180587091Y-22381728D01*
X180533724Y-22545956D01*
X180517146Y-22650600D01*
X180506703Y-22716514D01*
X180506703Y-22728725D01*
X180506700Y-22728779D01*
X180506700Y-22802849D01*
X180506697Y-22877613D01*
X180506700Y-22877658D01*
X180506700Y-23036721D01*
X180506353Y-23041572D01*
X180506353Y-23054437D01*
X180506700Y-23059283D01*
X180506700Y-23114528D01*
X180524684Y-23181647D01*
X180525703Y-23186607D01*
X180528809Y-23197175D01*
X180529614Y-23200042D01*
X180541135Y-23243036D01*
X180541137Y-23243041D01*
X180573619Y-23299300D01*
X180607660Y-23358261D01*
X180701739Y-23452340D01*
X180782728Y-23499099D01*
X180816958Y-23518862D01*
X180816959Y-23518863D01*
X180816961Y-23518863D01*
X180816962Y-23518864D01*
X180945476Y-23553300D01*
X180945478Y-23553300D01*
X181078522Y-23553300D01*
X181078524Y-23553300D01*
X181207038Y-23518864D01*
X181322261Y-23452340D01*
X181416340Y-23358261D01*
X181482864Y-23243038D01*
X181494391Y-23200015D01*
X181495185Y-23197193D01*
X181498304Y-23186583D01*
X181499322Y-23181616D01*
X181517300Y-23114524D01*
X181517300Y-23059283D01*
X181517647Y-23054437D01*
X181517647Y-23041572D01*
X181517300Y-23036721D01*
X181517300Y-22818410D01*
X181536985Y-22751371D01*
X181553614Y-22730733D01*
X181589665Y-22694684D01*
X181589665Y-22694682D01*
X181607104Y-22677244D01*
X181607108Y-22677239D01*
X181651547Y-22632800D01*
X181755724Y-22528623D01*
X181762862Y-22522026D01*
X181850292Y-22447354D01*
X181866021Y-22435924D01*
X181959888Y-22378402D01*
X181977216Y-22369575D01*
X182078904Y-22327454D01*
X182097400Y-22321444D01*
X182204440Y-22295747D01*
X182223643Y-22292706D01*
X182338321Y-22283681D01*
X182348039Y-22283300D01*
X182409631Y-22283300D01*
X190208941Y-22283300D01*
X190275980Y-22302985D01*
X190321735Y-22355789D01*
X190331679Y-22424947D01*
X190321735Y-22458812D01*
X190307334Y-22490343D01*
X190286853Y-22632800D01*
X190307334Y-22775256D01*
X190350317Y-22869374D01*
X190367123Y-22906173D01*
X190447414Y-22998834D01*
X190476438Y-23062388D01*
X190477700Y-23080035D01*
X190477700Y-23291689D01*
X190477699Y-23291707D01*
X190477699Y-23297757D01*
X190477658Y-23297896D01*
X190477661Y-23463963D01*
X190503376Y-23692123D01*
X190554473Y-23915962D01*
X190554478Y-23915979D01*
X190630310Y-24132675D01*
X190630313Y-24132681D01*
X190630314Y-24132684D01*
X190729942Y-24339548D01*
X190835751Y-24507931D01*
X190852102Y-24533952D01*
X190984679Y-24700190D01*
X190995265Y-24713463D01*
X191047131Y-24765326D01*
X191047132Y-24765327D01*
X197560404Y-31278598D01*
X197593958Y-31312153D01*
X197597308Y-31315638D01*
X197845216Y-31583824D01*
X197851532Y-31591219D01*
X198076126Y-31876116D01*
X198081841Y-31883982D01*
X198283384Y-32185613D01*
X198288472Y-32193915D01*
X198465731Y-32510436D01*
X198470151Y-32519111D01*
X198622025Y-32848553D01*
X198625751Y-32857548D01*
X198705773Y-33074456D01*
X198724702Y-33125766D01*
X198751317Y-33197907D01*
X198754317Y-33207140D01*
X198839877Y-33510515D01*
X198852790Y-33556300D01*
X198855062Y-33565767D01*
X198925835Y-33921568D01*
X198927358Y-33931184D01*
X198969997Y-34291436D01*
X198970761Y-34301143D01*
X198985104Y-34666201D01*
X198985200Y-34671069D01*
X198985200Y-36316764D01*
X198965515Y-36383803D01*
X198954913Y-36397966D01*
X198874625Y-36490622D01*
X198874622Y-36490628D01*
X198814834Y-36621543D01*
X198794353Y-36764000D01*
X198814834Y-36906456D01*
X198861445Y-37008518D01*
X198874623Y-37037373D01*
X198968872Y-37146143D01*
X199089947Y-37223953D01*
X199089950Y-37223954D01*
X199089949Y-37223954D01*
X199228036Y-37264499D01*
X199228038Y-37264500D01*
X199228039Y-37264500D01*
X199371962Y-37264500D01*
X199371962Y-37264499D01*
X199510053Y-37223953D01*
X199631128Y-37146143D01*
X199725377Y-37037373D01*
X199785165Y-36906457D01*
X199805647Y-36764000D01*
X199785165Y-36621543D01*
X199725377Y-36490627D01*
X199725375Y-36490625D01*
X199725374Y-36490622D01*
X199645087Y-36397966D01*
X199616062Y-36334411D01*
X199614800Y-36316764D01*
X199614800Y-34619107D01*
X199614795Y-34619029D01*
X199614795Y-34457371D01*
X199614795Y-34457364D01*
X199581664Y-34036392D01*
X199515606Y-33619318D01*
X199417028Y-33208713D01*
X199373408Y-33074464D01*
X199286541Y-32807112D01*
X199197030Y-32591013D01*
X199124943Y-32416978D01*
X198933235Y-32040730D01*
X198712599Y-31680683D01*
X198706288Y-31671997D01*
X198481477Y-31362569D01*
X198464394Y-31339056D01*
X198190150Y-31017957D01*
X198099441Y-30927248D01*
X198099437Y-30927241D01*
X198001280Y-30829084D01*
X198001257Y-30829063D01*
X191563957Y-24391762D01*
X191563941Y-24391743D01*
X191524490Y-24352294D01*
X191518943Y-24346372D01*
X191404974Y-24216421D01*
X191395100Y-24203554D01*
X191301322Y-24063216D01*
X191293211Y-24049168D01*
X191218551Y-23897781D01*
X191212344Y-23882797D01*
X191158085Y-23722973D01*
X191153886Y-23707305D01*
X191150865Y-23692121D01*
X191120952Y-23541755D01*
X191118835Y-23525675D01*
X191107566Y-23353822D01*
X191107300Y-23345708D01*
X191107300Y-23080035D01*
X191126985Y-23012996D01*
X191137579Y-22998841D01*
X191217877Y-22906173D01*
X191277665Y-22775257D01*
X191298147Y-22632800D01*
X191286459Y-22551510D01*
X191296402Y-22482355D01*
X191342157Y-22429551D01*
X191409196Y-22409866D01*
X191436031Y-22412804D01*
X191442081Y-22414145D01*
X191452531Y-22416945D01*
X191764568Y-22515329D01*
X191774714Y-22519022D01*
X192077002Y-22644234D01*
X192086793Y-22648800D01*
X192377009Y-22799877D01*
X192386370Y-22805282D01*
X192544736Y-22906173D01*
X192662294Y-22981066D01*
X192671155Y-22987269D01*
X192930743Y-23186459D01*
X192939006Y-23193393D01*
X193114083Y-23353822D01*
X193182277Y-23416311D01*
X193186184Y-23420052D01*
X194089655Y-24323523D01*
X194123140Y-24384846D01*
X194125070Y-24396256D01*
X194139180Y-24512457D01*
X194139181Y-24512462D01*
X194199503Y-24671517D01*
X194199503Y-24671518D01*
X194251638Y-24747047D01*
X194296138Y-24811516D01*
X194364992Y-24872515D01*
X194423471Y-24924323D01*
X194574094Y-25003376D01*
X194574096Y-25003377D01*
X194739265Y-25044087D01*
X194909377Y-25044087D01*
X195074546Y-25003377D01*
X195154013Y-24961668D01*
X195225170Y-24924323D01*
X195225171Y-24924321D01*
X195225173Y-24924321D01*
X195352504Y-24811516D01*
X195449139Y-24671517D01*
X195509461Y-24512459D01*
X195529966Y-24343587D01*
X195509461Y-24174715D01*
X195449139Y-24015657D01*
X195352504Y-23875658D01*
X195225173Y-23762853D01*
X195225170Y-23762850D01*
X195074547Y-23683797D01*
X194909377Y-23643087D01*
X194889785Y-23643087D01*
X194822746Y-23623402D01*
X194802104Y-23606768D01*
X193845958Y-22650622D01*
X193845933Y-22650600D01*
X193763105Y-22567771D01*
X193471210Y-22318468D01*
X193160663Y-22092843D01*
X193160652Y-22092835D01*
X192833378Y-21892281D01*
X192833367Y-21892274D01*
X192580687Y-21763527D01*
X192491334Y-21717999D01*
X192377712Y-21670935D01*
X192136681Y-21571097D01*
X191876924Y-21486697D01*
X191771608Y-21452478D01*
X191398347Y-21362866D01*
X191398341Y-21362865D01*
X191019214Y-21302818D01*
X191019208Y-21302817D01*
X191019206Y-21302817D01*
X191019200Y-21302816D01*
X191019195Y-21302816D01*
X190653800Y-21274059D01*
X190588512Y-21249175D01*
X190547041Y-21192944D01*
X190542554Y-21123218D01*
X190576476Y-21062136D01*
X190627529Y-21031782D01*
X190813954Y-20975232D01*
X190996450Y-20877685D01*
X191156410Y-20746410D01*
X191287685Y-20586450D01*
X191298592Y-20566045D01*
X191347555Y-20516202D01*
X191407949Y-20500500D01*
X191952051Y-20500500D01*
X192019090Y-20520185D01*
X192061408Y-20566045D01*
X192072315Y-20586451D01*
X192203589Y-20746410D01*
X192274422Y-20804540D01*
X192363550Y-20877685D01*
X192546046Y-20975232D01*
X192744066Y-21035300D01*
X192744065Y-21035300D01*
X192762529Y-21037118D01*
X192950000Y-21055583D01*
X193155934Y-21035300D01*
X193353954Y-20975232D01*
X193536450Y-20877685D01*
X193696410Y-20746410D01*
X193827685Y-20586450D01*
X193838592Y-20566045D01*
X193887555Y-20516202D01*
X193947949Y-20500500D01*
X194492051Y-20500500D01*
X194559090Y-20520185D01*
X194601408Y-20566045D01*
X194612315Y-20586451D01*
X194743589Y-20746410D01*
X194814422Y-20804540D01*
X194903550Y-20877685D01*
X195086046Y-20975232D01*
X195284066Y-21035300D01*
X195284065Y-21035300D01*
X195302529Y-21037118D01*
X195490000Y-21055583D01*
X195695934Y-21035300D01*
X195893954Y-20975232D01*
X196076450Y-20877685D01*
X196236410Y-20746410D01*
X196367685Y-20586450D01*
X196378592Y-20566045D01*
X196427555Y-20516202D01*
X196487949Y-20500500D01*
X197209138Y-20500500D01*
X197276177Y-20520185D01*
X197296819Y-20536819D01*
X197395000Y-20635000D01*
X201081000Y-20635000D01*
X201148039Y-20654685D01*
X201193794Y-20707489D01*
X201205000Y-20759000D01*
X201205000Y-39561000D01*
X201185315Y-39628039D01*
X201132511Y-39673794D01*
X201081000Y-39685000D01*
X197597500Y-39685000D01*
X197530461Y-39665315D01*
X197484706Y-39612511D01*
X197473500Y-39561000D01*
X197473500Y-38593361D01*
X197472321Y-38571381D01*
X197469488Y-38545034D01*
X197469487Y-38545032D01*
X197466491Y-38535464D01*
X197445529Y-38468518D01*
X197412044Y-38407195D01*
X197412039Y-38407188D01*
X197377001Y-38360384D01*
X197376998Y-38360381D01*
X197376991Y-38360371D01*
X197376983Y-38360363D01*
X196941634Y-37925013D01*
X196941633Y-37925012D01*
X196925283Y-37910325D01*
X196925269Y-37910313D01*
X196904620Y-37893672D01*
X196833575Y-37856509D01*
X196766543Y-37836826D01*
X196765894Y-37836732D01*
X196708638Y-37828500D01*
X196708634Y-37828500D01*
X190165482Y-37828500D01*
X190098443Y-37808815D01*
X190077801Y-37792181D01*
X189381819Y-37096199D01*
X189348334Y-37034876D01*
X189345500Y-37008518D01*
X189345500Y-36053361D01*
X189344321Y-36031381D01*
X189341488Y-36005034D01*
X189341487Y-36005032D01*
X189317529Y-35928518D01*
X189284044Y-35867195D01*
X189248991Y-35820371D01*
X188619819Y-35191199D01*
X188586334Y-35129876D01*
X188583500Y-35103518D01*
X188583500Y-33132361D01*
X188582321Y-33110381D01*
X188579488Y-33084034D01*
X188579487Y-33084032D01*
X188576491Y-33074464D01*
X188555529Y-33007518D01*
X188522044Y-32946195D01*
X188522039Y-32946188D01*
X188487001Y-32899384D01*
X188486998Y-32899381D01*
X188486991Y-32899371D01*
X188375300Y-32787680D01*
X188178634Y-32591013D01*
X188178633Y-32591012D01*
X188162283Y-32576325D01*
X188162269Y-32576313D01*
X188141620Y-32559672D01*
X188070575Y-32522509D01*
X188003543Y-32502826D01*
X188002894Y-32502732D01*
X187945638Y-32494500D01*
X187945634Y-32494500D01*
X187737300Y-32494500D01*
X187670261Y-32474815D01*
X187624506Y-32422011D01*
X187613300Y-32370500D01*
X187613300Y-30098971D01*
X187613299Y-30098967D01*
X187606125Y-30072196D01*
X187585194Y-29994081D01*
X187583467Y-29987637D01*
X187582877Y-29985434D01*
X187578864Y-29970455D01*
X187512341Y-29855232D01*
X187449777Y-29792669D01*
X187416293Y-29731347D01*
X187421277Y-29661655D01*
X187463148Y-29605721D01*
X187528612Y-29581304D01*
X187566401Y-29584413D01*
X187696028Y-29615532D01*
X187714529Y-29621543D01*
X187878134Y-29689308D01*
X187895469Y-29698140D01*
X188046454Y-29790662D01*
X188062192Y-29802097D01*
X188151320Y-29878219D01*
X188200412Y-29920148D01*
X188207561Y-29926756D01*
X188333497Y-30052691D01*
X188333499Y-30052692D01*
X188339476Y-30058669D01*
X188339519Y-30058707D01*
X188375616Y-30094805D01*
X188375620Y-30094808D01*
X188375622Y-30094810D01*
X188381045Y-30098971D01*
X188535905Y-30217802D01*
X188535908Y-30217804D01*
X188710859Y-30318814D01*
X188710863Y-30318815D01*
X188710872Y-30318821D01*
X188897527Y-30396138D01*
X189092677Y-30448429D01*
X189292983Y-30474800D01*
X189342633Y-30474800D01*
X189342650Y-30474805D01*
X189394000Y-30474805D01*
X189495010Y-30474805D01*
X189495017Y-30474805D01*
X189695324Y-30448434D01*
X189890474Y-30396142D01*
X190077130Y-30318826D01*
X190252097Y-30217807D01*
X190412380Y-30094814D01*
X190437056Y-30070135D01*
X190437061Y-30070133D01*
X190572375Y-29934819D01*
X190633698Y-29901334D01*
X190660056Y-29898500D01*
X190735962Y-29898500D01*
X190735962Y-29898499D01*
X190865845Y-29860363D01*
X190874050Y-29857954D01*
X190874050Y-29857953D01*
X190874053Y-29857953D01*
X190995128Y-29780143D01*
X191089377Y-29671373D01*
X191149165Y-29540457D01*
X191169647Y-29398000D01*
X191149165Y-29255543D01*
X191089377Y-29124627D01*
X190995128Y-29015857D01*
X190874053Y-28938047D01*
X190874051Y-28938046D01*
X190874049Y-28938045D01*
X190874050Y-28938045D01*
X190735963Y-28897500D01*
X190735961Y-28897500D01*
X190592039Y-28897500D01*
X190592036Y-28897500D01*
X190453949Y-28938045D01*
X190332873Y-29015856D01*
X190332872Y-29015856D01*
X190332872Y-29015857D01*
X190332142Y-29016700D01*
X190238623Y-29124626D01*
X190238622Y-29124628D01*
X190178834Y-29255543D01*
X190158353Y-29398000D01*
X190158353Y-29406869D01*
X190154663Y-29406869D01*
X190147015Y-29458921D01*
X190122061Y-29494742D01*
X190109491Y-29507312D01*
X190048168Y-29540797D01*
X189978476Y-29535813D01*
X189922543Y-29493941D01*
X189898126Y-29428477D01*
X189899073Y-29401980D01*
X189899647Y-29397988D01*
X189879165Y-29255531D01*
X189863786Y-29221857D01*
X189819377Y-29124615D01*
X189725128Y-29015845D01*
X189604053Y-28938035D01*
X189604051Y-28938034D01*
X189604049Y-28938033D01*
X189604050Y-28938033D01*
X189465963Y-28897488D01*
X189465961Y-28897488D01*
X189390057Y-28897488D01*
X189323018Y-28877803D01*
X189302376Y-28861169D01*
X189103690Y-28662483D01*
X189103688Y-28662480D01*
X189026857Y-28585650D01*
X188955120Y-28513913D01*
X188756134Y-28355227D01*
X188540633Y-28219819D01*
X188540630Y-28219817D01*
X188311328Y-28109391D01*
X188071106Y-28025333D01*
X188071094Y-28025329D01*
X187822967Y-27968696D01*
X187822949Y-27968693D01*
X187570059Y-27940200D01*
X187570053Y-27940200D01*
X187484241Y-27940200D01*
X186431562Y-27940200D01*
X186423533Y-27940200D01*
X186423411Y-27940208D01*
X186271844Y-27940208D01*
X185871070Y-27975271D01*
X185871050Y-27975274D01*
X185474866Y-28045130D01*
X185474850Y-28045134D01*
X185086256Y-28149256D01*
X184708199Y-28286856D01*
X184708191Y-28286859D01*
X184343589Y-28456875D01*
X184343584Y-28456877D01*
X183995155Y-28658040D01*
X183665602Y-28888794D01*
X183357407Y-29147400D01*
X183232602Y-29272202D01*
X183179905Y-29324899D01*
X182646365Y-29858438D01*
X182642457Y-29862180D01*
X182372866Y-30109212D01*
X182364579Y-30116165D01*
X182076657Y-30337094D01*
X182067796Y-30343299D01*
X181761697Y-30538305D01*
X181752329Y-30543713D01*
X181430417Y-30711289D01*
X181420613Y-30715861D01*
X181085309Y-30854748D01*
X181075143Y-30858448D01*
X180729016Y-30967581D01*
X180718567Y-30970381D01*
X180364237Y-31048934D01*
X180353584Y-31050812D01*
X179993768Y-31098182D01*
X179982992Y-31099125D01*
X179921831Y-31101795D01*
X179617510Y-31115082D01*
X179612119Y-31115200D01*
X178977132Y-31115200D01*
X178910093Y-31095515D01*
X178864338Y-31042711D01*
X178854394Y-30973553D01*
X178883419Y-30909997D01*
X178915133Y-30883813D01*
X178962507Y-30856461D01*
X178962506Y-30856461D01*
X178962514Y-30856457D01*
X179018463Y-30800508D01*
X179445460Y-30373511D01*
X179456129Y-30355032D01*
X179485021Y-30304989D01*
X179505500Y-30228562D01*
X179505500Y-25713809D01*
X179525185Y-25646770D01*
X179577989Y-25601015D01*
X179647147Y-25591071D01*
X179696537Y-25609492D01*
X179754542Y-25646770D01*
X179785948Y-25666954D01*
X179924036Y-25707499D01*
X179924038Y-25707500D01*
X179924039Y-25707500D01*
X180067962Y-25707500D01*
X180067962Y-25707499D01*
X180206053Y-25666953D01*
X180327128Y-25589143D01*
X180348398Y-25564595D01*
X180407176Y-25526823D01*
X180442110Y-25521800D01*
X180819733Y-25521800D01*
X180819736Y-25521801D01*
X180861471Y-25521800D01*
X180877655Y-25522861D01*
X180940270Y-25531104D01*
X180971536Y-25539481D01*
X181000195Y-25551351D01*
X181022316Y-25560513D01*
X181050352Y-25576700D01*
X181100420Y-25615119D01*
X181112615Y-25625814D01*
X181160609Y-25673809D01*
X181160612Y-25673811D01*
X181160615Y-25673814D01*
X181206980Y-25707500D01*
X181283522Y-25763112D01*
X181283524Y-25763113D01*
X181283527Y-25763115D01*
X181372511Y-25808454D01*
X181418896Y-25832088D01*
X181563385Y-25879035D01*
X181563389Y-25879036D01*
X181713446Y-25902801D01*
X181789410Y-25902800D01*
X182597870Y-25902800D01*
X182664909Y-25922485D01*
X182691581Y-25945595D01*
X182712852Y-25970143D01*
X182833927Y-26047953D01*
X182833930Y-26047954D01*
X182833929Y-26047954D01*
X182972016Y-26088499D01*
X182972018Y-26088500D01*
X182972019Y-26088500D01*
X183115942Y-26088500D01*
X183115942Y-26088499D01*
X183254033Y-26047953D01*
X183375108Y-25970143D01*
X183469357Y-25861373D01*
X183529145Y-25730457D01*
X183549627Y-25588000D01*
X183529145Y-25445543D01*
X183469357Y-25314627D01*
X183375108Y-25205857D01*
X183254033Y-25128047D01*
X183254031Y-25128046D01*
X183254029Y-25128045D01*
X183254030Y-25128045D01*
X183115943Y-25087500D01*
X183115941Y-25087500D01*
X182972019Y-25087500D01*
X182972016Y-25087500D01*
X182833929Y-25128045D01*
X182712852Y-25205856D01*
X182691582Y-25230404D01*
X182632804Y-25268177D01*
X182597870Y-25273200D01*
X181849263Y-25273200D01*
X181849251Y-25273199D01*
X181797528Y-25273199D01*
X181781344Y-25272138D01*
X181718729Y-25263895D01*
X181687463Y-25255518D01*
X181636686Y-25234487D01*
X181608649Y-25218300D01*
X181558575Y-25179876D01*
X181546380Y-25169181D01*
X181498390Y-25121190D01*
X181498385Y-25121186D01*
X181375475Y-25031887D01*
X181375474Y-25031886D01*
X181375472Y-25031885D01*
X181319520Y-25003376D01*
X181240103Y-24962910D01*
X181240097Y-24962908D01*
X181095616Y-24915965D01*
X181095608Y-24915963D01*
X180945556Y-24892199D01*
X180945552Y-24892199D01*
X180869588Y-24892200D01*
X180442110Y-24892200D01*
X180375071Y-24872515D01*
X180348398Y-24849404D01*
X180327127Y-24824856D01*
X180280502Y-24794892D01*
X180206053Y-24747047D01*
X180206051Y-24747046D01*
X180206049Y-24747045D01*
X180206050Y-24747045D01*
X180067963Y-24706500D01*
X180067961Y-24706500D01*
X179924039Y-24706500D01*
X179924036Y-24706500D01*
X179785949Y-24747045D01*
X179707384Y-24797535D01*
X179696541Y-24804505D01*
X179696539Y-24804506D01*
X179629500Y-24824190D01*
X179562460Y-24804505D01*
X179516706Y-24751701D01*
X179505500Y-24700190D01*
X179505500Y-21220832D01*
X179525185Y-21153793D01*
X179541815Y-21133155D01*
X179685672Y-20989297D01*
X179746995Y-20955813D01*
X179816687Y-20960797D01*
X179831805Y-20967620D01*
X179846046Y-20975232D01*
X180044066Y-21035300D01*
X180044065Y-21035300D01*
X180062529Y-21037118D01*
X180250000Y-21055583D01*
X180455934Y-21035300D01*
X180653954Y-20975232D01*
X180836450Y-20877685D01*
X180996410Y-20746410D01*
X181127685Y-20586450D01*
X181138592Y-20566045D01*
X181187555Y-20516202D01*
X181247949Y-20500500D01*
X186872051Y-20500500D01*
X186939090Y-20520185D01*
G37*
%TD.AperFunction*%
%TA.AperFunction,Conductor*%
G36*
X187446839Y-28570065D02*
G01*
X187466551Y-28571356D01*
X187648298Y-28583268D01*
X187664354Y-28585383D01*
X187858369Y-28623975D01*
X187874020Y-28628169D01*
X188061330Y-28691752D01*
X188076301Y-28697953D01*
X188176860Y-28747543D01*
X188253707Y-28785440D01*
X188267753Y-28793549D01*
X188423328Y-28897500D01*
X188432220Y-28903441D01*
X188445089Y-28913316D01*
X188596836Y-29046394D01*
X188602758Y-29051941D01*
X188852061Y-29301244D01*
X188885546Y-29362567D01*
X188886564Y-29389120D01*
X188888353Y-29389120D01*
X188888353Y-29397990D01*
X188888924Y-29401962D01*
X188888353Y-29405932D01*
X188888353Y-29406857D01*
X188888220Y-29406857D01*
X188878980Y-29471120D01*
X188833224Y-29523923D01*
X188766184Y-29543607D01*
X188699145Y-29523922D01*
X188678505Y-29507289D01*
X188649458Y-29478242D01*
X188562213Y-29390998D01*
X188562208Y-29390994D01*
X188562206Y-29390992D01*
X188398656Y-29265497D01*
X188366440Y-29240777D01*
X188152734Y-29117396D01*
X187994706Y-29051941D01*
X187924745Y-29022963D01*
X187686392Y-28959101D01*
X187686388Y-28959100D01*
X187441740Y-28926897D01*
X187441738Y-28926897D01*
X187318356Y-28926900D01*
X186973760Y-28926900D01*
X186706991Y-28956958D01*
X186706975Y-28956960D01*
X186445238Y-29016699D01*
X186445226Y-29016703D01*
X186191837Y-29105368D01*
X186191823Y-29105374D01*
X185949948Y-29221855D01*
X185722624Y-29364692D01*
X185512728Y-29532078D01*
X185512723Y-29532083D01*
X185460391Y-29584414D01*
X185429667Y-29615137D01*
X185429666Y-29615138D01*
X184568367Y-30476436D01*
X184552276Y-30492527D01*
X184548766Y-30495902D01*
X184281884Y-30742605D01*
X184274481Y-30748928D01*
X183990980Y-30972423D01*
X183983103Y-30978146D01*
X183682937Y-31178711D01*
X183674635Y-31183798D01*
X183359677Y-31360183D01*
X183351002Y-31364604D01*
X183023154Y-31515744D01*
X183014159Y-31519470D01*
X182675461Y-31644424D01*
X182666201Y-31647432D01*
X182318765Y-31745420D01*
X182309298Y-31747693D01*
X181955229Y-31818123D01*
X181945612Y-31819646D01*
X181587117Y-31862078D01*
X181577411Y-31862842D01*
X181214468Y-31877104D01*
X181209599Y-31877200D01*
X180692745Y-31877200D01*
X180625706Y-31857515D01*
X180579951Y-31804711D01*
X180570007Y-31735553D01*
X180599032Y-31671997D01*
X180657810Y-31634223D01*
X180663777Y-31632631D01*
X180949852Y-31563951D01*
X181317087Y-31444630D01*
X181673827Y-31296864D01*
X182017875Y-31121564D01*
X182347107Y-30919811D01*
X182659496Y-30692849D01*
X182953115Y-30442077D01*
X183050123Y-30345068D01*
X183050128Y-30345065D01*
X183060328Y-30334864D01*
X183060330Y-30334864D01*
X183640691Y-29754502D01*
X183658451Y-29736742D01*
X183662317Y-29733040D01*
X183912213Y-29504054D01*
X183920497Y-29497105D01*
X183923577Y-29494742D01*
X184187210Y-29292449D01*
X184196049Y-29286259D01*
X184479612Y-29105611D01*
X184488958Y-29100216D01*
X184787172Y-28944976D01*
X184796946Y-28940418D01*
X185107572Y-28811753D01*
X185117704Y-28808066D01*
X185438356Y-28706966D01*
X185448770Y-28704175D01*
X185777027Y-28631403D01*
X185787638Y-28629532D01*
X186120981Y-28585647D01*
X186131711Y-28584708D01*
X186470495Y-28569917D01*
X186475886Y-28569800D01*
X186522865Y-28569800D01*
X187392938Y-28569800D01*
X187438730Y-28569800D01*
X187446839Y-28570065D01*
G37*
%TD.AperFunction*%
%TA.AperFunction,Conductor*%
G36*
X178009593Y-29399210D02*
G01*
X178038618Y-29462766D01*
X178028674Y-29531924D01*
X177986835Y-29623538D01*
X177986834Y-29623539D01*
X177966353Y-29765997D01*
X177986834Y-29908453D01*
X178040682Y-30026361D01*
X178046623Y-30039370D01*
X178098264Y-30098967D01*
X178107646Y-30109795D01*
X178136670Y-30173351D01*
X178126726Y-30242509D01*
X178107646Y-30272199D01*
X178046623Y-30342624D01*
X178046622Y-30342625D01*
X177986834Y-30473540D01*
X177966353Y-30615997D01*
X177986834Y-30758453D01*
X177995978Y-30778474D01*
X178005922Y-30847633D01*
X177976897Y-30911188D01*
X177918119Y-30948963D01*
X177848250Y-30948963D01*
X177781964Y-30929500D01*
X177781961Y-30929500D01*
X177638039Y-30929500D01*
X177638036Y-30929500D01*
X177499949Y-30970045D01*
X177378873Y-31047856D01*
X177378872Y-31047856D01*
X177378872Y-31047857D01*
X177366290Y-31062377D01*
X177284623Y-31156626D01*
X177284622Y-31156628D01*
X177224834Y-31287543D01*
X177204353Y-31430000D01*
X177224834Y-31572456D01*
X177270705Y-31672898D01*
X177280649Y-31742057D01*
X177251624Y-31805613D01*
X177192846Y-31843387D01*
X177122976Y-31843387D01*
X177121915Y-31843070D01*
X177107493Y-31838695D01*
X177085037Y-31829394D01*
X177011074Y-31789861D01*
X176990861Y-31776355D01*
X176926057Y-31723172D01*
X176908872Y-31705988D01*
X176855642Y-31641128D01*
X176842145Y-31620928D01*
X176802604Y-31546950D01*
X176793306Y-31524500D01*
X176768963Y-31444247D01*
X176764221Y-31420407D01*
X176759638Y-31373869D01*
X176755396Y-31330802D01*
X176754800Y-31318651D01*
X176754800Y-31312129D01*
X176754801Y-31274934D01*
X176754800Y-31274930D01*
X176754800Y-30926066D01*
X176755065Y-30917957D01*
X176759072Y-30856820D01*
X176767314Y-30731064D01*
X176769429Y-30715007D01*
X176805173Y-30535311D01*
X176809370Y-30519651D01*
X176817992Y-30494252D01*
X176868260Y-30346168D01*
X176874461Y-30331197D01*
X176955502Y-30166865D01*
X176963600Y-30152840D01*
X177065396Y-30000495D01*
X177075254Y-29987647D01*
X177198848Y-29846719D01*
X177204353Y-29840840D01*
X177236666Y-29808528D01*
X177618375Y-29426819D01*
X177679698Y-29393334D01*
X177706056Y-29390500D01*
X177781961Y-29390500D01*
X177880945Y-29361436D01*
X177950815Y-29361436D01*
X178009593Y-29399210D01*
G37*
%TD.AperFunction*%
%TD*%
%TA.AperFunction,Conductor*%
%TO.N,Board_0-GND*%
G36*
X100579090Y-20520185D02*
G01*
X100621408Y-20566045D01*
X100632315Y-20586451D01*
X100763589Y-20746410D01*
X100834422Y-20804540D01*
X100923550Y-20877685D01*
X101106046Y-20975232D01*
X101304066Y-21035300D01*
X101304065Y-21035300D01*
X101322529Y-21037118D01*
X101510000Y-21055583D01*
X101715934Y-21035300D01*
X101913954Y-20975232D01*
X102096450Y-20877685D01*
X102256410Y-20746410D01*
X102387685Y-20586450D01*
X102398592Y-20566045D01*
X102447555Y-20516202D01*
X102507949Y-20500500D01*
X103052051Y-20500500D01*
X103119090Y-20520185D01*
X103161408Y-20566045D01*
X103172315Y-20586451D01*
X103303589Y-20746410D01*
X103374422Y-20804540D01*
X103463550Y-20877685D01*
X103646046Y-20975232D01*
X103844066Y-21035300D01*
X103844065Y-21035300D01*
X103862529Y-21037118D01*
X104050000Y-21055583D01*
X104255934Y-21035300D01*
X104453954Y-20975232D01*
X104636450Y-20877685D01*
X104796410Y-20746410D01*
X104927685Y-20586450D01*
X104938592Y-20566045D01*
X104987555Y-20516202D01*
X105047949Y-20500500D01*
X105592051Y-20500500D01*
X105659090Y-20520185D01*
X105701408Y-20566045D01*
X105712315Y-20586451D01*
X105843589Y-20746410D01*
X105914422Y-20804540D01*
X106003550Y-20877685D01*
X106186046Y-20975232D01*
X106384066Y-21035300D01*
X106384065Y-21035300D01*
X106402529Y-21037118D01*
X106590000Y-21055583D01*
X106795934Y-21035300D01*
X106993954Y-20975232D01*
X107008191Y-20967621D01*
X107076592Y-20953379D01*
X107141837Y-20978377D01*
X107154327Y-20989298D01*
X107298181Y-21133152D01*
X107331666Y-21194475D01*
X107334500Y-21220833D01*
X107334500Y-25741415D01*
X107314815Y-25808454D01*
X107262011Y-25854209D01*
X107238109Y-25862302D01*
X107216631Y-25867207D01*
X107216624Y-25867209D01*
X107167475Y-25890881D01*
X107107097Y-25919963D01*
X107107095Y-25919964D01*
X107107092Y-25919966D01*
X107012052Y-25995763D01*
X106936254Y-26090812D01*
X106883503Y-26200339D01*
X106856443Y-26318862D01*
X106856441Y-26333062D01*
X106856438Y-26333128D01*
X106856438Y-26379661D01*
X106856432Y-26437192D01*
X106856438Y-26437265D01*
X106856438Y-26444966D01*
X106856434Y-26445022D01*
X106856438Y-26501633D01*
X106856438Y-26548729D01*
X106856455Y-26549014D01*
X106856456Y-26562417D01*
X106883513Y-26680940D01*
X106936260Y-26790469D01*
X107012052Y-26885514D01*
X107012056Y-26885518D01*
X107085033Y-26943721D01*
X107125171Y-27000910D01*
X107128018Y-27070722D01*
X107092670Y-27130990D01*
X107085027Y-27137612D01*
X107012092Y-27195773D01*
X106936293Y-27290817D01*
X106936289Y-27290822D01*
X106883540Y-27400342D01*
X106883538Y-27400349D01*
X106856479Y-27518863D01*
X106856477Y-27533062D01*
X106856474Y-27533128D01*
X106856474Y-27579661D01*
X106856468Y-27637192D01*
X106856474Y-27637265D01*
X106856474Y-27748850D01*
X106856526Y-27749664D01*
X106856524Y-27762377D01*
X106856524Y-27762378D01*
X106883554Y-27880908D01*
X106936289Y-27990459D01*
X107012074Y-28085519D01*
X107012078Y-28085522D01*
X107107122Y-28161336D01*
X107107123Y-28161336D01*
X107107124Y-28161337D01*
X107107125Y-28161338D01*
X107163758Y-28188617D01*
X107216655Y-28214097D01*
X107238100Y-28218993D01*
X107299075Y-28253104D01*
X107331930Y-28314767D01*
X107334500Y-28339882D01*
X107334500Y-28817511D01*
X107314815Y-28884550D01*
X107262011Y-28930305D01*
X107192853Y-28940249D01*
X107129297Y-28911224D01*
X107091523Y-28852446D01*
X107087762Y-28835158D01*
X107075165Y-28747543D01*
X107036319Y-28662483D01*
X107015377Y-28616627D01*
X106921128Y-28507857D01*
X106800053Y-28430047D01*
X106800051Y-28430046D01*
X106800049Y-28430045D01*
X106800050Y-28430045D01*
X106661963Y-28389500D01*
X106661961Y-28389500D01*
X106518039Y-28389500D01*
X106518036Y-28389500D01*
X106379949Y-28430045D01*
X106258873Y-28507856D01*
X106258872Y-28507856D01*
X106258872Y-28507857D01*
X106246290Y-28522377D01*
X106164623Y-28616626D01*
X106164622Y-28616628D01*
X106104834Y-28747543D01*
X106095602Y-28811760D01*
X106084527Y-28888794D01*
X106084353Y-28890001D01*
X106084353Y-28898869D01*
X106080663Y-28898869D01*
X106073015Y-28950921D01*
X106048061Y-28986742D01*
X105654456Y-29380348D01*
X105654454Y-29380351D01*
X105636220Y-29398584D01*
X105636218Y-29398586D01*
X105636217Y-29398585D01*
X105601359Y-29433444D01*
X105601265Y-29433551D01*
X105550675Y-29484139D01*
X105399805Y-29673320D01*
X105399798Y-29673330D01*
X105271055Y-29878218D01*
X105166062Y-30096235D01*
X105166059Y-30096242D01*
X105086140Y-30324635D01*
X105086138Y-30324644D01*
X105032293Y-30560550D01*
X105032290Y-30560564D01*
X105005200Y-30801003D01*
X105005200Y-31373804D01*
X105005204Y-31373869D01*
X105005204Y-31417817D01*
X105034307Y-31601575D01*
X105034307Y-31601576D01*
X105091797Y-31778517D01*
X105091798Y-31778521D01*
X105176263Y-31944295D01*
X105230538Y-32018998D01*
X105285624Y-32094817D01*
X105285626Y-32094819D01*
X105309076Y-32118269D01*
X105309079Y-32118273D01*
X105315081Y-32124275D01*
X105315088Y-32124288D01*
X105351400Y-32160600D01*
X105417180Y-32226380D01*
X105567700Y-32335739D01*
X105733476Y-32420205D01*
X105792458Y-32439369D01*
X105910416Y-32477695D01*
X105910419Y-32477695D01*
X105910424Y-32477697D01*
X106094187Y-32506801D01*
X106187214Y-32506800D01*
X110040453Y-32506800D01*
X110040480Y-32506807D01*
X110091823Y-32506807D01*
X110091823Y-32506808D01*
X110302076Y-32506807D01*
X110721284Y-32473813D01*
X111136611Y-32408030D01*
X111545497Y-32309864D01*
X111945420Y-32179920D01*
X112333915Y-32018999D01*
X112708587Y-31828093D01*
X113067126Y-31608380D01*
X113407321Y-31361213D01*
X113727075Y-31088117D01*
X113836228Y-30978962D01*
X113836233Y-30978959D01*
X113846439Y-30968752D01*
X113846441Y-30968752D01*
X114740122Y-30075070D01*
X114746014Y-30069551D01*
X114910054Y-29925691D01*
X114922897Y-29915836D01*
X115100902Y-29796897D01*
X115114933Y-29788797D01*
X115306932Y-29694113D01*
X115321898Y-29687915D01*
X115451244Y-29644007D01*
X115521053Y-29641099D01*
X115581353Y-29676393D01*
X115612999Y-29738685D01*
X115605943Y-29808198D01*
X115582802Y-29843056D01*
X115583105Y-29843288D01*
X115579724Y-29847693D01*
X115578790Y-29849101D01*
X115578163Y-29849727D01*
X115578158Y-29849734D01*
X115511636Y-29964955D01*
X115511634Y-29964960D01*
X115500129Y-30007897D01*
X115499329Y-30010746D01*
X115496202Y-30021390D01*
X115495182Y-30026361D01*
X115477201Y-30093470D01*
X115477201Y-30093473D01*
X115477201Y-30148708D01*
X115476853Y-30153573D01*
X115476853Y-30166424D01*
X115477201Y-30171284D01*
X115477201Y-30226518D01*
X115477749Y-30228562D01*
X115478475Y-30231271D01*
X115482700Y-30263365D01*
X115482700Y-32736317D01*
X115463015Y-32803356D01*
X115446381Y-32823998D01*
X115371014Y-32899365D01*
X115371012Y-32899366D01*
X115356325Y-32915716D01*
X115356313Y-32915730D01*
X115339672Y-32936379D01*
X115302509Y-33007424D01*
X115282826Y-33074456D01*
X115282825Y-33074464D01*
X115274501Y-33132361D01*
X115274500Y-33132365D01*
X115274500Y-37008518D01*
X115254815Y-37075557D01*
X115238181Y-37096199D01*
X114542199Y-37792181D01*
X114480876Y-37825666D01*
X114454518Y-37828500D01*
X113499361Y-37828500D01*
X113477381Y-37829678D01*
X113451034Y-37832511D01*
X113451032Y-37832512D01*
X113374521Y-37856470D01*
X113374516Y-37856471D01*
X113313188Y-37889960D01*
X113266384Y-37924998D01*
X113266363Y-37925016D01*
X112831013Y-38360365D01*
X112831012Y-38360366D01*
X112816325Y-38376716D01*
X112816313Y-38376730D01*
X112799672Y-38397379D01*
X112762509Y-38468424D01*
X112742826Y-38535456D01*
X112742825Y-38535464D01*
X112734501Y-38593361D01*
X112734500Y-38593365D01*
X112734500Y-39695500D01*
X112714815Y-39762539D01*
X112662011Y-39808294D01*
X112610500Y-39819500D01*
X99790862Y-39819500D01*
X99723823Y-39799815D01*
X99703181Y-39783181D01*
X99605000Y-39685000D01*
X95919000Y-39685000D01*
X95851961Y-39665315D01*
X95806206Y-39612511D01*
X95795000Y-39561000D01*
X95795000Y-34548995D01*
X96729499Y-34548995D01*
X96756418Y-34684322D01*
X96756421Y-34684332D01*
X96809221Y-34811804D01*
X96809228Y-34811817D01*
X96885885Y-34926541D01*
X96885888Y-34926545D01*
X96983454Y-35024111D01*
X96983458Y-35024114D01*
X97098182Y-35100771D01*
X97098195Y-35100778D01*
X97168445Y-35129876D01*
X97225672Y-35153580D01*
X97225676Y-35153580D01*
X97225677Y-35153581D01*
X97361004Y-35180500D01*
X97361007Y-35180500D01*
X98298995Y-35180500D01*
X98390041Y-35162389D01*
X98434328Y-35153580D01*
X98561811Y-35100775D01*
X98676542Y-35024114D01*
X98774114Y-34926542D01*
X98850775Y-34811811D01*
X98903580Y-34684328D01*
X98930500Y-34548995D01*
X100759499Y-34548995D01*
X100786418Y-34684322D01*
X100786421Y-34684332D01*
X100839221Y-34811804D01*
X100839228Y-34811817D01*
X100915885Y-34926541D01*
X100915888Y-34926545D01*
X101013454Y-35024111D01*
X101013458Y-35024114D01*
X101128182Y-35100771D01*
X101128195Y-35100778D01*
X101198445Y-35129876D01*
X101255672Y-35153580D01*
X101255676Y-35153580D01*
X101255677Y-35153581D01*
X101391004Y-35180500D01*
X101391007Y-35180500D01*
X102628995Y-35180500D01*
X102720041Y-35162389D01*
X102764328Y-35153580D01*
X102891811Y-35100775D01*
X103006542Y-35024114D01*
X103104114Y-34926542D01*
X103180775Y-34811811D01*
X103233580Y-34684328D01*
X103260500Y-34548993D01*
X103260500Y-34411007D01*
X103260500Y-34411004D01*
X103233581Y-34275677D01*
X103233580Y-34275676D01*
X103233580Y-34275672D01*
X103233578Y-34275667D01*
X103180778Y-34148195D01*
X103180771Y-34148182D01*
X103104114Y-34033458D01*
X103104111Y-34033454D01*
X103006545Y-33935888D01*
X103006541Y-33935885D01*
X102891817Y-33859228D01*
X102891804Y-33859221D01*
X102764332Y-33806421D01*
X102764322Y-33806418D01*
X102628995Y-33779500D01*
X102628993Y-33779500D01*
X101860244Y-33779500D01*
X101793205Y-33759815D01*
X101747450Y-33707011D01*
X101737506Y-33637853D01*
X101766531Y-33574297D01*
X101798244Y-33548113D01*
X101824738Y-33532816D01*
X101863365Y-33510515D01*
X101970515Y-33403365D01*
X102046281Y-33272135D01*
X102085500Y-33125766D01*
X102085500Y-32974234D01*
X102046281Y-32827865D01*
X101970515Y-32696635D01*
X101863365Y-32589485D01*
X101797750Y-32551602D01*
X101732136Y-32513719D01*
X101658950Y-32494109D01*
X101585766Y-32474500D01*
X101434234Y-32474500D01*
X101287863Y-32513719D01*
X101156635Y-32589485D01*
X101156632Y-32589487D01*
X101049487Y-32696632D01*
X101049485Y-32696635D01*
X100973719Y-32827863D01*
X100950176Y-32915730D01*
X100934500Y-32974234D01*
X100934500Y-33125766D01*
X100936268Y-33132365D01*
X100973719Y-33272136D01*
X101011602Y-33337750D01*
X101049485Y-33403365D01*
X101156635Y-33510515D01*
X101156636Y-33510516D01*
X101156638Y-33510517D01*
X101279024Y-33581177D01*
X101327240Y-33631744D01*
X101340462Y-33700351D01*
X101314494Y-33765216D01*
X101260981Y-33803321D01*
X101261299Y-33804089D01*
X101257964Y-33805470D01*
X101257580Y-33805744D01*
X101256300Y-33806159D01*
X101128195Y-33859221D01*
X101128182Y-33859228D01*
X101013458Y-33935885D01*
X101013454Y-33935888D01*
X100915888Y-34033454D01*
X100915885Y-34033458D01*
X100839228Y-34148182D01*
X100839221Y-34148195D01*
X100786421Y-34275667D01*
X100786418Y-34275677D01*
X100759500Y-34411004D01*
X100759500Y-34411007D01*
X100759500Y-34548993D01*
X100759500Y-34548995D01*
X100759499Y-34548995D01*
X98930500Y-34548995D01*
X98930500Y-34548993D01*
X98930500Y-34411007D01*
X98930500Y-34411004D01*
X98903581Y-34275677D01*
X98903580Y-34275676D01*
X98903580Y-34275672D01*
X98903578Y-34275667D01*
X98850778Y-34148195D01*
X98850771Y-34148182D01*
X98774114Y-34033458D01*
X98774111Y-34033454D01*
X98676545Y-33935888D01*
X98676541Y-33935885D01*
X98561817Y-33859228D01*
X98561804Y-33859221D01*
X98434332Y-33806421D01*
X98434322Y-33806418D01*
X98298995Y-33779500D01*
X98298993Y-33779500D01*
X97361007Y-33779500D01*
X97361005Y-33779500D01*
X97225677Y-33806418D01*
X97225667Y-33806421D01*
X97098195Y-33859221D01*
X97098182Y-33859228D01*
X96983458Y-33935885D01*
X96983454Y-33935888D01*
X96885888Y-34033454D01*
X96885885Y-34033458D01*
X96809228Y-34148182D01*
X96809221Y-34148195D01*
X96756421Y-34275667D01*
X96756418Y-34275677D01*
X96729500Y-34411004D01*
X96729500Y-34411007D01*
X96729500Y-34548993D01*
X96729500Y-34548995D01*
X96729499Y-34548995D01*
X95795000Y-34548995D01*
X95795000Y-25908995D01*
X96729499Y-25908995D01*
X96756418Y-26044322D01*
X96756421Y-26044332D01*
X96809221Y-26171804D01*
X96809228Y-26171817D01*
X96885885Y-26286541D01*
X96885888Y-26286545D01*
X96983454Y-26384111D01*
X96983458Y-26384114D01*
X97098182Y-26460771D01*
X97098195Y-26460778D01*
X97225667Y-26513578D01*
X97225672Y-26513580D01*
X97225676Y-26513580D01*
X97225677Y-26513581D01*
X97361004Y-26540500D01*
X97361007Y-26540500D01*
X98298995Y-26540500D01*
X98422609Y-26515911D01*
X98434328Y-26513580D01*
X98561811Y-26460775D01*
X98676542Y-26384114D01*
X98774114Y-26286542D01*
X98850775Y-26171811D01*
X98903580Y-26044328D01*
X98913240Y-25995763D01*
X98930500Y-25908995D01*
X100759499Y-25908995D01*
X100786418Y-26044322D01*
X100786421Y-26044332D01*
X100839221Y-26171804D01*
X100839228Y-26171817D01*
X100915885Y-26286541D01*
X100915888Y-26286545D01*
X101013454Y-26384111D01*
X101013458Y-26384114D01*
X101128182Y-26460771D01*
X101128195Y-26460778D01*
X101261299Y-26515911D01*
X101260550Y-26517717D01*
X101311441Y-26551052D01*
X101339911Y-26614858D01*
X101329365Y-26683927D01*
X101283152Y-26736331D01*
X101279025Y-26738822D01*
X101156635Y-26809485D01*
X101156632Y-26809487D01*
X101049487Y-26916632D01*
X101049485Y-26916635D01*
X100973719Y-27047863D01*
X100934500Y-27194234D01*
X100934500Y-27345766D01*
X100949125Y-27400349D01*
X100973719Y-27492136D01*
X100989150Y-27518863D01*
X101049485Y-27623365D01*
X101156635Y-27730515D01*
X101287865Y-27806281D01*
X101434234Y-27845500D01*
X101434236Y-27845500D01*
X101585764Y-27845500D01*
X101585766Y-27845500D01*
X101732135Y-27806281D01*
X101863365Y-27730515D01*
X101970515Y-27623365D01*
X102046281Y-27492135D01*
X102085500Y-27345766D01*
X102085500Y-27194234D01*
X102046281Y-27047865D01*
X101970515Y-26916635D01*
X101863365Y-26809485D01*
X101863363Y-26809484D01*
X101863361Y-26809482D01*
X101798244Y-26771887D01*
X101750028Y-26721320D01*
X101736806Y-26652713D01*
X101762774Y-26587848D01*
X101819688Y-26547320D01*
X101860244Y-26540500D01*
X102628995Y-26540500D01*
X102752609Y-26515911D01*
X102764328Y-26513580D01*
X102891811Y-26460775D01*
X103006542Y-26384114D01*
X103104114Y-26286542D01*
X103180775Y-26171811D01*
X103233580Y-26044328D01*
X103243240Y-25995763D01*
X103260500Y-25908995D01*
X103260500Y-25771004D01*
X103233581Y-25635677D01*
X103233580Y-25635676D01*
X103233580Y-25635672D01*
X103229497Y-25625814D01*
X103180778Y-25508195D01*
X103180771Y-25508182D01*
X103104114Y-25393458D01*
X103104111Y-25393454D01*
X103006545Y-25295888D01*
X103006541Y-25295885D01*
X102891817Y-25219228D01*
X102891804Y-25219221D01*
X102764332Y-25166421D01*
X102764322Y-25166418D01*
X102628995Y-25139500D01*
X102628993Y-25139500D01*
X101391007Y-25139500D01*
X101391005Y-25139500D01*
X101255677Y-25166418D01*
X101255667Y-25166421D01*
X101128195Y-25219221D01*
X101128182Y-25219228D01*
X101013458Y-25295885D01*
X101013454Y-25295888D01*
X100915888Y-25393454D01*
X100915885Y-25393458D01*
X100839228Y-25508182D01*
X100839221Y-25508195D01*
X100786421Y-25635667D01*
X100786418Y-25635677D01*
X100759500Y-25771004D01*
X100759500Y-25771007D01*
X100759500Y-25908993D01*
X100759500Y-25908995D01*
X100759499Y-25908995D01*
X98930500Y-25908995D01*
X98930500Y-25771004D01*
X98903581Y-25635677D01*
X98903580Y-25635676D01*
X98903580Y-25635672D01*
X98899497Y-25625814D01*
X98850778Y-25508195D01*
X98850771Y-25508182D01*
X98774114Y-25393458D01*
X98774111Y-25393454D01*
X98676545Y-25295888D01*
X98676541Y-25295885D01*
X98561817Y-25219228D01*
X98561804Y-25219221D01*
X98434332Y-25166421D01*
X98434322Y-25166418D01*
X98298995Y-25139500D01*
X98298993Y-25139500D01*
X97361007Y-25139500D01*
X97361005Y-25139500D01*
X97225677Y-25166418D01*
X97225667Y-25166421D01*
X97098195Y-25219221D01*
X97098182Y-25219228D01*
X96983458Y-25295885D01*
X96983454Y-25295888D01*
X96885888Y-25393454D01*
X96885885Y-25393458D01*
X96809228Y-25508182D01*
X96809221Y-25508195D01*
X96756421Y-25635667D01*
X96756418Y-25635677D01*
X96729500Y-25771004D01*
X96729500Y-25771007D01*
X96729500Y-25908993D01*
X96729500Y-25908995D01*
X96729499Y-25908995D01*
X95795000Y-25908995D01*
X95795000Y-20759000D01*
X95814685Y-20691961D01*
X95867489Y-20646206D01*
X95919000Y-20635000D01*
X99605000Y-20635000D01*
X99703181Y-20536819D01*
X99764504Y-20503334D01*
X99790862Y-20500500D01*
X100512051Y-20500500D01*
X100579090Y-20520185D01*
G37*
%TD.AperFunction*%
%TA.AperFunction,Conductor*%
G36*
X115819090Y-20520185D02*
G01*
X115861408Y-20566045D01*
X115872315Y-20586451D01*
X116003589Y-20746410D01*
X116074422Y-20804540D01*
X116163550Y-20877685D01*
X116346046Y-20975232D01*
X116526723Y-21030039D01*
X116585162Y-21068337D01*
X116613618Y-21132149D01*
X116603058Y-21201216D01*
X116556834Y-21253610D01*
X116490728Y-21272700D01*
X111149449Y-21272700D01*
X111149381Y-21272704D01*
X111102749Y-21272704D01*
X110864075Y-21304124D01*
X110631552Y-21366428D01*
X110631536Y-21366433D01*
X110409157Y-21458545D01*
X110409142Y-21458552D01*
X110200668Y-21578914D01*
X110009690Y-21725456D01*
X109975244Y-21759901D01*
X109975192Y-21759950D01*
X109655420Y-22079722D01*
X109655270Y-22079893D01*
X109646999Y-22088163D01*
X109646996Y-22088167D01*
X109646993Y-22088170D01*
X109646993Y-22088171D01*
X109545491Y-22227871D01*
X109545488Y-22227875D01*
X109467092Y-22381725D01*
X109467091Y-22381727D01*
X109467091Y-22381728D01*
X109413724Y-22545956D01*
X109397146Y-22650600D01*
X109386703Y-22716514D01*
X109386703Y-22728725D01*
X109386700Y-22728779D01*
X109386700Y-22802849D01*
X109386697Y-22877613D01*
X109386700Y-22877658D01*
X109386700Y-23036721D01*
X109386353Y-23041572D01*
X109386353Y-23054437D01*
X109386700Y-23059283D01*
X109386700Y-23114528D01*
X109404684Y-23181647D01*
X109405703Y-23186607D01*
X109408809Y-23197175D01*
X109409614Y-23200042D01*
X109421135Y-23243036D01*
X109421137Y-23243041D01*
X109453619Y-23299300D01*
X109487660Y-23358261D01*
X109581739Y-23452340D01*
X109662728Y-23499099D01*
X109696958Y-23518862D01*
X109696959Y-23518863D01*
X109696961Y-23518863D01*
X109696962Y-23518864D01*
X109825476Y-23553300D01*
X109825478Y-23553300D01*
X109958522Y-23553300D01*
X109958524Y-23553300D01*
X110087038Y-23518864D01*
X110202261Y-23452340D01*
X110296340Y-23358261D01*
X110362864Y-23243038D01*
X110374391Y-23200015D01*
X110375185Y-23197193D01*
X110378304Y-23186583D01*
X110379322Y-23181616D01*
X110397300Y-23114524D01*
X110397300Y-23059283D01*
X110397647Y-23054437D01*
X110397647Y-23041572D01*
X110397300Y-23036721D01*
X110397300Y-22818410D01*
X110416985Y-22751371D01*
X110433614Y-22730733D01*
X110469665Y-22694684D01*
X110469665Y-22694682D01*
X110487104Y-22677244D01*
X110487108Y-22677239D01*
X110531547Y-22632800D01*
X110635724Y-22528623D01*
X110642862Y-22522026D01*
X110730292Y-22447354D01*
X110746021Y-22435924D01*
X110839888Y-22378402D01*
X110857216Y-22369575D01*
X110958904Y-22327454D01*
X110977400Y-22321444D01*
X111084440Y-22295747D01*
X111103643Y-22292706D01*
X111218321Y-22283681D01*
X111228039Y-22283300D01*
X111289631Y-22283300D01*
X119088941Y-22283300D01*
X119155980Y-22302985D01*
X119201735Y-22355789D01*
X119211679Y-22424947D01*
X119201735Y-22458812D01*
X119187334Y-22490343D01*
X119166853Y-22632800D01*
X119187334Y-22775256D01*
X119230317Y-22869374D01*
X119247123Y-22906173D01*
X119327414Y-22998834D01*
X119356438Y-23062388D01*
X119357700Y-23080035D01*
X119357700Y-23291689D01*
X119357699Y-23291707D01*
X119357699Y-23297757D01*
X119357658Y-23297896D01*
X119357661Y-23463963D01*
X119383376Y-23692123D01*
X119434473Y-23915962D01*
X119434478Y-23915979D01*
X119510310Y-24132675D01*
X119510313Y-24132681D01*
X119510314Y-24132684D01*
X119609942Y-24339548D01*
X119715751Y-24507931D01*
X119732102Y-24533952D01*
X119864679Y-24700190D01*
X119875265Y-24713463D01*
X119927131Y-24765326D01*
X119927132Y-24765327D01*
X126440404Y-31278598D01*
X126473958Y-31312153D01*
X126477308Y-31315638D01*
X126725216Y-31583824D01*
X126731532Y-31591219D01*
X126956126Y-31876116D01*
X126961841Y-31883982D01*
X127163384Y-32185613D01*
X127168472Y-32193915D01*
X127345731Y-32510436D01*
X127350151Y-32519111D01*
X127502025Y-32848553D01*
X127505751Y-32857548D01*
X127585773Y-33074456D01*
X127604702Y-33125766D01*
X127631317Y-33197907D01*
X127634317Y-33207140D01*
X127719877Y-33510515D01*
X127732790Y-33556300D01*
X127735062Y-33565767D01*
X127805835Y-33921568D01*
X127807358Y-33931184D01*
X127849997Y-34291436D01*
X127850761Y-34301143D01*
X127865104Y-34666201D01*
X127865200Y-34671069D01*
X127865200Y-36316764D01*
X127845515Y-36383803D01*
X127834913Y-36397966D01*
X127754625Y-36490622D01*
X127754622Y-36490628D01*
X127694834Y-36621543D01*
X127674353Y-36764000D01*
X127694834Y-36906456D01*
X127741445Y-37008518D01*
X127754623Y-37037373D01*
X127848872Y-37146143D01*
X127969947Y-37223953D01*
X127969950Y-37223954D01*
X127969949Y-37223954D01*
X128108036Y-37264499D01*
X128108038Y-37264500D01*
X128108039Y-37264500D01*
X128251962Y-37264500D01*
X128251962Y-37264499D01*
X128390053Y-37223953D01*
X128511128Y-37146143D01*
X128605377Y-37037373D01*
X128665165Y-36906457D01*
X128685647Y-36764000D01*
X128665165Y-36621543D01*
X128605377Y-36490627D01*
X128605375Y-36490625D01*
X128605374Y-36490622D01*
X128525087Y-36397966D01*
X128496062Y-36334411D01*
X128494800Y-36316764D01*
X128494800Y-34619107D01*
X128494795Y-34619029D01*
X128494795Y-34457371D01*
X128494795Y-34457364D01*
X128461664Y-34036392D01*
X128395606Y-33619318D01*
X128297028Y-33208713D01*
X128253408Y-33074464D01*
X128166541Y-32807112D01*
X128077030Y-32591013D01*
X128004943Y-32416978D01*
X127813235Y-32040730D01*
X127592599Y-31680683D01*
X127586288Y-31671997D01*
X127361477Y-31362569D01*
X127344394Y-31339056D01*
X127070150Y-31017957D01*
X126979441Y-30927248D01*
X126979437Y-30927241D01*
X126881280Y-30829084D01*
X126881257Y-30829063D01*
X120443957Y-24391762D01*
X120443941Y-24391743D01*
X120404490Y-24352294D01*
X120398943Y-24346372D01*
X120284974Y-24216421D01*
X120275100Y-24203554D01*
X120181322Y-24063216D01*
X120173211Y-24049168D01*
X120098551Y-23897781D01*
X120092344Y-23882797D01*
X120038085Y-23722973D01*
X120033886Y-23707305D01*
X120030865Y-23692121D01*
X120000952Y-23541755D01*
X119998835Y-23525675D01*
X119987566Y-23353822D01*
X119987300Y-23345708D01*
X119987300Y-23080035D01*
X120006985Y-23012996D01*
X120017579Y-22998841D01*
X120097877Y-22906173D01*
X120157665Y-22775257D01*
X120178147Y-22632800D01*
X120166459Y-22551510D01*
X120176402Y-22482355D01*
X120222157Y-22429551D01*
X120289196Y-22409866D01*
X120316031Y-22412804D01*
X120322081Y-22414145D01*
X120332531Y-22416945D01*
X120644568Y-22515329D01*
X120654714Y-22519022D01*
X120957002Y-22644234D01*
X120966793Y-22648800D01*
X121257009Y-22799877D01*
X121266370Y-22805282D01*
X121424736Y-22906173D01*
X121542294Y-22981066D01*
X121551155Y-22987269D01*
X121810743Y-23186459D01*
X121819006Y-23193393D01*
X121994083Y-23353822D01*
X122062277Y-23416311D01*
X122066184Y-23420052D01*
X122969655Y-24323523D01*
X123003140Y-24384846D01*
X123005070Y-24396256D01*
X123019180Y-24512457D01*
X123019181Y-24512462D01*
X123079503Y-24671517D01*
X123079503Y-24671518D01*
X123131638Y-24747047D01*
X123176138Y-24811516D01*
X123244992Y-24872515D01*
X123303471Y-24924323D01*
X123454094Y-25003376D01*
X123454096Y-25003377D01*
X123619265Y-25044087D01*
X123789377Y-25044087D01*
X123954546Y-25003377D01*
X124034013Y-24961668D01*
X124105170Y-24924323D01*
X124105171Y-24924321D01*
X124105173Y-24924321D01*
X124232504Y-24811516D01*
X124329139Y-24671517D01*
X124389461Y-24512459D01*
X124409966Y-24343587D01*
X124389461Y-24174715D01*
X124329139Y-24015657D01*
X124232504Y-23875658D01*
X124105173Y-23762853D01*
X124105170Y-23762850D01*
X123954547Y-23683797D01*
X123789377Y-23643087D01*
X123769785Y-23643087D01*
X123702746Y-23623402D01*
X123682104Y-23606768D01*
X122725958Y-22650622D01*
X122725933Y-22650600D01*
X122643105Y-22567771D01*
X122351210Y-22318468D01*
X122040663Y-22092843D01*
X122040652Y-22092835D01*
X121713378Y-21892281D01*
X121713367Y-21892274D01*
X121460687Y-21763527D01*
X121371334Y-21717999D01*
X121257712Y-21670935D01*
X121016681Y-21571097D01*
X120756924Y-21486697D01*
X120651608Y-21452478D01*
X120278347Y-21362866D01*
X120278341Y-21362865D01*
X119899214Y-21302818D01*
X119899208Y-21302817D01*
X119899206Y-21302817D01*
X119899200Y-21302816D01*
X119899195Y-21302816D01*
X119533800Y-21274059D01*
X119468512Y-21249175D01*
X119427041Y-21192944D01*
X119422554Y-21123218D01*
X119456476Y-21062136D01*
X119507529Y-21031782D01*
X119693954Y-20975232D01*
X119876450Y-20877685D01*
X120036410Y-20746410D01*
X120167685Y-20586450D01*
X120178592Y-20566045D01*
X120227555Y-20516202D01*
X120287949Y-20500500D01*
X120832051Y-20500500D01*
X120899090Y-20520185D01*
X120941408Y-20566045D01*
X120952315Y-20586451D01*
X121083589Y-20746410D01*
X121154422Y-20804540D01*
X121243550Y-20877685D01*
X121426046Y-20975232D01*
X121624066Y-21035300D01*
X121624065Y-21035300D01*
X121642529Y-21037118D01*
X121830000Y-21055583D01*
X122035934Y-21035300D01*
X122233954Y-20975232D01*
X122416450Y-20877685D01*
X122576410Y-20746410D01*
X122707685Y-20586450D01*
X122718592Y-20566045D01*
X122767555Y-20516202D01*
X122827949Y-20500500D01*
X123372051Y-20500500D01*
X123439090Y-20520185D01*
X123481408Y-20566045D01*
X123492315Y-20586451D01*
X123623589Y-20746410D01*
X123694422Y-20804540D01*
X123783550Y-20877685D01*
X123966046Y-20975232D01*
X124164066Y-21035300D01*
X124164065Y-21035300D01*
X124182529Y-21037118D01*
X124370000Y-21055583D01*
X124575934Y-21035300D01*
X124773954Y-20975232D01*
X124956450Y-20877685D01*
X125116410Y-20746410D01*
X125247685Y-20586450D01*
X125258592Y-20566045D01*
X125307555Y-20516202D01*
X125367949Y-20500500D01*
X126089138Y-20500500D01*
X126156177Y-20520185D01*
X126176819Y-20536819D01*
X126275000Y-20635000D01*
X129961000Y-20635000D01*
X130028039Y-20654685D01*
X130073794Y-20707489D01*
X130085000Y-20759000D01*
X130085000Y-39561000D01*
X130065315Y-39628039D01*
X130012511Y-39673794D01*
X129961000Y-39685000D01*
X126477500Y-39685000D01*
X126410461Y-39665315D01*
X126364706Y-39612511D01*
X126353500Y-39561000D01*
X126353500Y-38593361D01*
X126352321Y-38571381D01*
X126349488Y-38545034D01*
X126349487Y-38545032D01*
X126346491Y-38535464D01*
X126325529Y-38468518D01*
X126292044Y-38407195D01*
X126292039Y-38407188D01*
X126257001Y-38360384D01*
X126256998Y-38360381D01*
X126256991Y-38360371D01*
X126256983Y-38360363D01*
X125821634Y-37925013D01*
X125821633Y-37925012D01*
X125805283Y-37910325D01*
X125805269Y-37910313D01*
X125784620Y-37893672D01*
X125713575Y-37856509D01*
X125646543Y-37836826D01*
X125645894Y-37836732D01*
X125588638Y-37828500D01*
X125588634Y-37828500D01*
X119045482Y-37828500D01*
X118978443Y-37808815D01*
X118957801Y-37792181D01*
X118261819Y-37096199D01*
X118228334Y-37034876D01*
X118225500Y-37008518D01*
X118225500Y-36053361D01*
X118224321Y-36031381D01*
X118221488Y-36005034D01*
X118221487Y-36005032D01*
X118197529Y-35928518D01*
X118164044Y-35867195D01*
X118128991Y-35820371D01*
X117499819Y-35191199D01*
X117466334Y-35129876D01*
X117463500Y-35103518D01*
X117463500Y-33132361D01*
X117462321Y-33110381D01*
X117459488Y-33084034D01*
X117459487Y-33084032D01*
X117456491Y-33074464D01*
X117435529Y-33007518D01*
X117402044Y-32946195D01*
X117402039Y-32946188D01*
X117367001Y-32899384D01*
X117366998Y-32899381D01*
X117366991Y-32899371D01*
X117255300Y-32787680D01*
X117058634Y-32591013D01*
X117058633Y-32591012D01*
X117042283Y-32576325D01*
X117042269Y-32576313D01*
X117021620Y-32559672D01*
X116950575Y-32522509D01*
X116883543Y-32502826D01*
X116882894Y-32502732D01*
X116825638Y-32494500D01*
X116825634Y-32494500D01*
X116617300Y-32494500D01*
X116550261Y-32474815D01*
X116504506Y-32422011D01*
X116493300Y-32370500D01*
X116493300Y-30098971D01*
X116493299Y-30098967D01*
X116486125Y-30072196D01*
X116465194Y-29994081D01*
X116463467Y-29987637D01*
X116462877Y-29985434D01*
X116458864Y-29970455D01*
X116392341Y-29855232D01*
X116329777Y-29792669D01*
X116296293Y-29731347D01*
X116301277Y-29661655D01*
X116343148Y-29605721D01*
X116408612Y-29581304D01*
X116446401Y-29584413D01*
X116576028Y-29615532D01*
X116594529Y-29621543D01*
X116758134Y-29689308D01*
X116775469Y-29698140D01*
X116926454Y-29790662D01*
X116942192Y-29802097D01*
X117031320Y-29878219D01*
X117080412Y-29920148D01*
X117087561Y-29926756D01*
X117213497Y-30052691D01*
X117213499Y-30052692D01*
X117219476Y-30058669D01*
X117219519Y-30058707D01*
X117255616Y-30094805D01*
X117255620Y-30094808D01*
X117255622Y-30094810D01*
X117261045Y-30098971D01*
X117415905Y-30217802D01*
X117415908Y-30217804D01*
X117590859Y-30318814D01*
X117590863Y-30318815D01*
X117590872Y-30318821D01*
X117777527Y-30396138D01*
X117972677Y-30448429D01*
X118172983Y-30474800D01*
X118222633Y-30474800D01*
X118222650Y-30474805D01*
X118274000Y-30474805D01*
X118375010Y-30474805D01*
X118375017Y-30474805D01*
X118575324Y-30448434D01*
X118770474Y-30396142D01*
X118957130Y-30318826D01*
X119132097Y-30217807D01*
X119292380Y-30094814D01*
X119317056Y-30070135D01*
X119317061Y-30070133D01*
X119452375Y-29934819D01*
X119513698Y-29901334D01*
X119540056Y-29898500D01*
X119615962Y-29898500D01*
X119615962Y-29898499D01*
X119745845Y-29860363D01*
X119754050Y-29857954D01*
X119754050Y-29857953D01*
X119754053Y-29857953D01*
X119875128Y-29780143D01*
X119969377Y-29671373D01*
X120029165Y-29540457D01*
X120049647Y-29398000D01*
X120029165Y-29255543D01*
X119969377Y-29124627D01*
X119875128Y-29015857D01*
X119754053Y-28938047D01*
X119754051Y-28938046D01*
X119754049Y-28938045D01*
X119754050Y-28938045D01*
X119615963Y-28897500D01*
X119615961Y-28897500D01*
X119472039Y-28897500D01*
X119472036Y-28897500D01*
X119333949Y-28938045D01*
X119212873Y-29015856D01*
X119212872Y-29015856D01*
X119212872Y-29015857D01*
X119212142Y-29016700D01*
X119118623Y-29124626D01*
X119118622Y-29124628D01*
X119058834Y-29255543D01*
X119045261Y-29349953D01*
X119038355Y-29397990D01*
X119038353Y-29398001D01*
X119038353Y-29406869D01*
X119034663Y-29406869D01*
X119027015Y-29458921D01*
X119002061Y-29494742D01*
X118989491Y-29507312D01*
X118928168Y-29540797D01*
X118858476Y-29535813D01*
X118802543Y-29493941D01*
X118778126Y-29428477D01*
X118779073Y-29401980D01*
X118779647Y-29397988D01*
X118759165Y-29255531D01*
X118743786Y-29221857D01*
X118699377Y-29124615D01*
X118605128Y-29015845D01*
X118484053Y-28938035D01*
X118484051Y-28938034D01*
X118484049Y-28938033D01*
X118484050Y-28938033D01*
X118345963Y-28897488D01*
X118345961Y-28897488D01*
X118270057Y-28897488D01*
X118203018Y-28877803D01*
X118182376Y-28861169D01*
X117983690Y-28662483D01*
X117983688Y-28662480D01*
X117906857Y-28585650D01*
X117835120Y-28513913D01*
X117636134Y-28355227D01*
X117420633Y-28219819D01*
X117420630Y-28219817D01*
X117191328Y-28109391D01*
X116951106Y-28025333D01*
X116951094Y-28025329D01*
X116702967Y-27968696D01*
X116702949Y-27968693D01*
X116450059Y-27940200D01*
X116450053Y-27940200D01*
X116364241Y-27940200D01*
X115311562Y-27940200D01*
X115303533Y-27940200D01*
X115303411Y-27940208D01*
X115151844Y-27940208D01*
X114751070Y-27975271D01*
X114751050Y-27975274D01*
X114354866Y-28045130D01*
X114354850Y-28045134D01*
X113966256Y-28149256D01*
X113588199Y-28286856D01*
X113588191Y-28286859D01*
X113223589Y-28456875D01*
X113223584Y-28456877D01*
X112875155Y-28658040D01*
X112545602Y-28888794D01*
X112237407Y-29147400D01*
X112112602Y-29272202D01*
X112059905Y-29324899D01*
X111526365Y-29858438D01*
X111522457Y-29862180D01*
X111252866Y-30109212D01*
X111244579Y-30116165D01*
X110956657Y-30337094D01*
X110947796Y-30343299D01*
X110641697Y-30538305D01*
X110632329Y-30543713D01*
X110310417Y-30711289D01*
X110300613Y-30715861D01*
X109965309Y-30854748D01*
X109955143Y-30858448D01*
X109609016Y-30967581D01*
X109598567Y-30970381D01*
X109244237Y-31048934D01*
X109233584Y-31050812D01*
X108873768Y-31098182D01*
X108862992Y-31099125D01*
X108801831Y-31101795D01*
X108497510Y-31115082D01*
X108492119Y-31115200D01*
X107857132Y-31115200D01*
X107790093Y-31095515D01*
X107744338Y-31042711D01*
X107734394Y-30973553D01*
X107763419Y-30909997D01*
X107795133Y-30883813D01*
X107842507Y-30856461D01*
X107842506Y-30856461D01*
X107842514Y-30856457D01*
X107898463Y-30800508D01*
X108325460Y-30373511D01*
X108336129Y-30355032D01*
X108365021Y-30304989D01*
X108385500Y-30228562D01*
X108385500Y-25713809D01*
X108405185Y-25646770D01*
X108457989Y-25601015D01*
X108527147Y-25591071D01*
X108576537Y-25609492D01*
X108634542Y-25646770D01*
X108665948Y-25666954D01*
X108804036Y-25707499D01*
X108804038Y-25707500D01*
X108804039Y-25707500D01*
X108947962Y-25707500D01*
X108947962Y-25707499D01*
X109086053Y-25666953D01*
X109207128Y-25589143D01*
X109228398Y-25564595D01*
X109287176Y-25526823D01*
X109322110Y-25521800D01*
X109699733Y-25521800D01*
X109699736Y-25521801D01*
X109741471Y-25521800D01*
X109757655Y-25522861D01*
X109820270Y-25531104D01*
X109851536Y-25539481D01*
X109880195Y-25551351D01*
X109902316Y-25560513D01*
X109930352Y-25576700D01*
X109980420Y-25615119D01*
X109992615Y-25625814D01*
X110040609Y-25673809D01*
X110040612Y-25673811D01*
X110040615Y-25673814D01*
X110086980Y-25707500D01*
X110163522Y-25763112D01*
X110163524Y-25763113D01*
X110163527Y-25763115D01*
X110252511Y-25808454D01*
X110298896Y-25832088D01*
X110443385Y-25879035D01*
X110443389Y-25879036D01*
X110593446Y-25902801D01*
X110669410Y-25902800D01*
X111477870Y-25902800D01*
X111544909Y-25922485D01*
X111571581Y-25945595D01*
X111592852Y-25970143D01*
X111713927Y-26047953D01*
X111713930Y-26047954D01*
X111713929Y-26047954D01*
X111852016Y-26088499D01*
X111852018Y-26088500D01*
X111852019Y-26088500D01*
X111995942Y-26088500D01*
X111995942Y-26088499D01*
X112134033Y-26047953D01*
X112255108Y-25970143D01*
X112349357Y-25861373D01*
X112409145Y-25730457D01*
X112429627Y-25588000D01*
X112409145Y-25445543D01*
X112349357Y-25314627D01*
X112255108Y-25205857D01*
X112134033Y-25128047D01*
X112134031Y-25128046D01*
X112134029Y-25128045D01*
X112134030Y-25128045D01*
X111995943Y-25087500D01*
X111995941Y-25087500D01*
X111852019Y-25087500D01*
X111852016Y-25087500D01*
X111713929Y-25128045D01*
X111592852Y-25205856D01*
X111571582Y-25230404D01*
X111512804Y-25268177D01*
X111477870Y-25273200D01*
X110729263Y-25273200D01*
X110729251Y-25273199D01*
X110677528Y-25273199D01*
X110661344Y-25272138D01*
X110598729Y-25263895D01*
X110567463Y-25255518D01*
X110516686Y-25234487D01*
X110488649Y-25218300D01*
X110438575Y-25179876D01*
X110426380Y-25169181D01*
X110378390Y-25121190D01*
X110378385Y-25121186D01*
X110255475Y-25031887D01*
X110255474Y-25031886D01*
X110255472Y-25031885D01*
X110199520Y-25003376D01*
X110120103Y-24962910D01*
X110120097Y-24962908D01*
X109975616Y-24915965D01*
X109975608Y-24915963D01*
X109825556Y-24892199D01*
X109825552Y-24892199D01*
X109749588Y-24892200D01*
X109322110Y-24892200D01*
X109255071Y-24872515D01*
X109228398Y-24849404D01*
X109207127Y-24824856D01*
X109160502Y-24794892D01*
X109086053Y-24747047D01*
X109086051Y-24747046D01*
X109086049Y-24747045D01*
X109086050Y-24747045D01*
X108947963Y-24706500D01*
X108947961Y-24706500D01*
X108804039Y-24706500D01*
X108804036Y-24706500D01*
X108665949Y-24747045D01*
X108587384Y-24797535D01*
X108576541Y-24804505D01*
X108576539Y-24804506D01*
X108509500Y-24824190D01*
X108442460Y-24804505D01*
X108396706Y-24751701D01*
X108385500Y-24700190D01*
X108385500Y-21220832D01*
X108405185Y-21153793D01*
X108421815Y-21133155D01*
X108565672Y-20989297D01*
X108626995Y-20955813D01*
X108696687Y-20960797D01*
X108711805Y-20967620D01*
X108726046Y-20975232D01*
X108924066Y-21035300D01*
X108924065Y-21035300D01*
X108942529Y-21037118D01*
X109130000Y-21055583D01*
X109335934Y-21035300D01*
X109533954Y-20975232D01*
X109716450Y-20877685D01*
X109876410Y-20746410D01*
X110007685Y-20586450D01*
X110018592Y-20566045D01*
X110067555Y-20516202D01*
X110127949Y-20500500D01*
X115752051Y-20500500D01*
X115819090Y-20520185D01*
G37*
%TD.AperFunction*%
%TA.AperFunction,Conductor*%
G36*
X116326839Y-28570065D02*
G01*
X116346551Y-28571356D01*
X116528298Y-28583268D01*
X116544354Y-28585383D01*
X116738369Y-28623975D01*
X116754020Y-28628169D01*
X116941330Y-28691752D01*
X116956301Y-28697953D01*
X117056860Y-28747543D01*
X117133707Y-28785440D01*
X117147753Y-28793549D01*
X117303328Y-28897500D01*
X117312220Y-28903441D01*
X117325089Y-28913316D01*
X117476836Y-29046394D01*
X117482758Y-29051941D01*
X117732061Y-29301244D01*
X117765546Y-29362567D01*
X117766564Y-29389120D01*
X117768353Y-29389120D01*
X117768353Y-29397990D01*
X117768924Y-29401962D01*
X117768353Y-29405932D01*
X117768353Y-29406857D01*
X117768220Y-29406857D01*
X117758980Y-29471120D01*
X117713224Y-29523923D01*
X117646184Y-29543607D01*
X117579145Y-29523922D01*
X117558505Y-29507289D01*
X117529458Y-29478242D01*
X117442213Y-29390998D01*
X117442208Y-29390994D01*
X117442206Y-29390992D01*
X117278656Y-29265497D01*
X117246440Y-29240777D01*
X117032734Y-29117396D01*
X116874706Y-29051941D01*
X116804745Y-29022963D01*
X116566392Y-28959101D01*
X116566388Y-28959100D01*
X116321740Y-28926897D01*
X116321738Y-28926897D01*
X116198356Y-28926900D01*
X115853760Y-28926900D01*
X115586991Y-28956958D01*
X115586975Y-28956960D01*
X115325238Y-29016699D01*
X115325226Y-29016703D01*
X115071837Y-29105368D01*
X115071823Y-29105374D01*
X114829948Y-29221855D01*
X114602624Y-29364692D01*
X114392728Y-29532078D01*
X114392723Y-29532083D01*
X114340391Y-29584414D01*
X114309667Y-29615137D01*
X114309666Y-29615138D01*
X113448367Y-30476436D01*
X113432276Y-30492527D01*
X113428766Y-30495902D01*
X113161884Y-30742605D01*
X113154481Y-30748928D01*
X112870980Y-30972423D01*
X112863103Y-30978146D01*
X112562937Y-31178711D01*
X112554635Y-31183798D01*
X112239677Y-31360183D01*
X112231002Y-31364604D01*
X111903154Y-31515744D01*
X111894159Y-31519470D01*
X111555461Y-31644424D01*
X111546201Y-31647432D01*
X111198765Y-31745420D01*
X111189298Y-31747693D01*
X110835229Y-31818123D01*
X110825612Y-31819646D01*
X110467117Y-31862078D01*
X110457411Y-31862842D01*
X110094468Y-31877104D01*
X110089599Y-31877200D01*
X109572745Y-31877200D01*
X109505706Y-31857515D01*
X109459951Y-31804711D01*
X109450007Y-31735553D01*
X109479032Y-31671997D01*
X109537810Y-31634223D01*
X109543777Y-31632631D01*
X109829852Y-31563951D01*
X110197087Y-31444630D01*
X110553827Y-31296864D01*
X110897875Y-31121564D01*
X111227107Y-30919811D01*
X111539496Y-30692849D01*
X111833115Y-30442077D01*
X111930123Y-30345068D01*
X111930128Y-30345065D01*
X111940328Y-30334864D01*
X111940330Y-30334864D01*
X112520691Y-29754502D01*
X112538451Y-29736742D01*
X112542317Y-29733040D01*
X112792213Y-29504054D01*
X112800497Y-29497105D01*
X112803577Y-29494742D01*
X113067210Y-29292449D01*
X113076049Y-29286259D01*
X113359612Y-29105611D01*
X113368958Y-29100216D01*
X113667172Y-28944976D01*
X113676946Y-28940418D01*
X113987572Y-28811753D01*
X113997704Y-28808066D01*
X114318356Y-28706966D01*
X114328770Y-28704175D01*
X114657027Y-28631403D01*
X114667638Y-28629532D01*
X115000981Y-28585647D01*
X115011711Y-28584708D01*
X115350495Y-28569917D01*
X115355886Y-28569800D01*
X115402865Y-28569800D01*
X116272938Y-28569800D01*
X116318730Y-28569800D01*
X116326839Y-28570065D01*
G37*
%TD.AperFunction*%
%TA.AperFunction,Conductor*%
G36*
X106889593Y-29399210D02*
G01*
X106918618Y-29462766D01*
X106908674Y-29531924D01*
X106866835Y-29623538D01*
X106866834Y-29623539D01*
X106846353Y-29765997D01*
X106866834Y-29908453D01*
X106920682Y-30026361D01*
X106926623Y-30039370D01*
X106978264Y-30098967D01*
X106987646Y-30109795D01*
X107016670Y-30173351D01*
X107006726Y-30242509D01*
X106987646Y-30272199D01*
X106926623Y-30342624D01*
X106926622Y-30342625D01*
X106866834Y-30473540D01*
X106846353Y-30615997D01*
X106866834Y-30758453D01*
X106875978Y-30778474D01*
X106885922Y-30847633D01*
X106856897Y-30911188D01*
X106798119Y-30948963D01*
X106728250Y-30948963D01*
X106661964Y-30929500D01*
X106661961Y-30929500D01*
X106518039Y-30929500D01*
X106518036Y-30929500D01*
X106379949Y-30970045D01*
X106258873Y-31047856D01*
X106258872Y-31047856D01*
X106258872Y-31047857D01*
X106246290Y-31062377D01*
X106164623Y-31156626D01*
X106164622Y-31156628D01*
X106104834Y-31287543D01*
X106084353Y-31430000D01*
X106104834Y-31572456D01*
X106150705Y-31672898D01*
X106160649Y-31742057D01*
X106131624Y-31805613D01*
X106072846Y-31843387D01*
X106002976Y-31843387D01*
X106001915Y-31843070D01*
X105987493Y-31838695D01*
X105965037Y-31829394D01*
X105891074Y-31789861D01*
X105870861Y-31776355D01*
X105806057Y-31723172D01*
X105788872Y-31705988D01*
X105735642Y-31641128D01*
X105722145Y-31620928D01*
X105682604Y-31546950D01*
X105673306Y-31524500D01*
X105648963Y-31444247D01*
X105644221Y-31420407D01*
X105639638Y-31373869D01*
X105635396Y-31330802D01*
X105634800Y-31318651D01*
X105634800Y-31312129D01*
X105634801Y-31274934D01*
X105634800Y-31274930D01*
X105634800Y-30926066D01*
X105635065Y-30917957D01*
X105639072Y-30856820D01*
X105647314Y-30731064D01*
X105649429Y-30715007D01*
X105685173Y-30535311D01*
X105689370Y-30519651D01*
X105697992Y-30494252D01*
X105748260Y-30346168D01*
X105754461Y-30331197D01*
X105835502Y-30166865D01*
X105843600Y-30152840D01*
X105945396Y-30000495D01*
X105955254Y-29987647D01*
X106078848Y-29846719D01*
X106084353Y-29840840D01*
X106116666Y-29808528D01*
X106498375Y-29426819D01*
X106559698Y-29393334D01*
X106586056Y-29390500D01*
X106661961Y-29390500D01*
X106760945Y-29361436D01*
X106830815Y-29361436D01*
X106889593Y-29399210D01*
G37*
%TD.AperFunction*%
%TD*%
%TA.AperFunction,Conductor*%
%TO.N,Board_1-VBUSOUT*%
G36*
X152452677Y-32719685D02*
G01*
X152473319Y-32736319D01*
X152781681Y-33044681D01*
X152815166Y-33106004D01*
X152818000Y-33132362D01*
X152818000Y-35240000D01*
X153543681Y-35965681D01*
X153577166Y-36027004D01*
X153580000Y-36053362D01*
X153580000Y-37145000D01*
X154469000Y-38034000D01*
X161148638Y-38034000D01*
X161215677Y-38053685D01*
X161236319Y-38070319D01*
X161671681Y-38505681D01*
X161705166Y-38567004D01*
X161708000Y-38593362D01*
X161708000Y-39695500D01*
X161688315Y-39762539D01*
X161635511Y-39808294D01*
X161584000Y-39819500D01*
X148624000Y-39819500D01*
X148556961Y-39799815D01*
X148511206Y-39747011D01*
X148500000Y-39695500D01*
X148500000Y-38593362D01*
X148519685Y-38526323D01*
X148536319Y-38505681D01*
X148971681Y-38070319D01*
X149033004Y-38036834D01*
X149059362Y-38034000D01*
X150151000Y-38034000D01*
X151040000Y-37145000D01*
X151040000Y-34986000D01*
X151040000Y-34859000D01*
X151040000Y-33132362D01*
X151059685Y-33065323D01*
X151076319Y-33044681D01*
X151384681Y-32736319D01*
X151446004Y-32702834D01*
X151472362Y-32700000D01*
X152385638Y-32700000D01*
X152452677Y-32719685D01*
G37*
%TD.AperFunction*%
%TD*%
%TA.AperFunction,Conductor*%
%TO.N,Board_2-VBUSOUT*%
G36*
X188012677Y-32719685D02*
G01*
X188033319Y-32736319D01*
X188341681Y-33044681D01*
X188375166Y-33106004D01*
X188378000Y-33132362D01*
X188378000Y-35240000D01*
X189103681Y-35965681D01*
X189137166Y-36027004D01*
X189140000Y-36053362D01*
X189140000Y-37145000D01*
X190029000Y-38034000D01*
X196708638Y-38034000D01*
X196775677Y-38053685D01*
X196796319Y-38070319D01*
X197231681Y-38505681D01*
X197265166Y-38567004D01*
X197268000Y-38593362D01*
X197268000Y-39695500D01*
X197248315Y-39762539D01*
X197195511Y-39808294D01*
X197144000Y-39819500D01*
X184184000Y-39819500D01*
X184116961Y-39799815D01*
X184071206Y-39747011D01*
X184060000Y-39695500D01*
X184060000Y-38593362D01*
X184079685Y-38526323D01*
X184096319Y-38505681D01*
X184531681Y-38070319D01*
X184593004Y-38036834D01*
X184619362Y-38034000D01*
X185711000Y-38034000D01*
X186600000Y-37145000D01*
X186600000Y-34986000D01*
X186600000Y-34859000D01*
X186600000Y-33132362D01*
X186619685Y-33065323D01*
X186636319Y-33044681D01*
X186944681Y-32736319D01*
X187006004Y-32702834D01*
X187032362Y-32700000D01*
X187945638Y-32700000D01*
X188012677Y-32719685D01*
G37*
%TD.AperFunction*%
%TD*%
%TA.AperFunction,Conductor*%
%TO.N,Board_0-VBUSOUT*%
G36*
X116892677Y-32719685D02*
G01*
X116913319Y-32736319D01*
X117221681Y-33044681D01*
X117255166Y-33106004D01*
X117258000Y-33132362D01*
X117258000Y-35240000D01*
X117983681Y-35965681D01*
X118017166Y-36027004D01*
X118020000Y-36053362D01*
X118020000Y-37145000D01*
X118909000Y-38034000D01*
X125588638Y-38034000D01*
X125655677Y-38053685D01*
X125676319Y-38070319D01*
X126111681Y-38505681D01*
X126145166Y-38567004D01*
X126148000Y-38593362D01*
X126148000Y-39695500D01*
X126128315Y-39762539D01*
X126075511Y-39808294D01*
X126024000Y-39819500D01*
X113064000Y-39819500D01*
X112996961Y-39799815D01*
X112951206Y-39747011D01*
X112940000Y-39695500D01*
X112940000Y-38593362D01*
X112959685Y-38526323D01*
X112976319Y-38505681D01*
X113411681Y-38070319D01*
X113473004Y-38036834D01*
X113499362Y-38034000D01*
X114591000Y-38034000D01*
X115480000Y-37145000D01*
X115480000Y-34986000D01*
X115480000Y-34859000D01*
X115480000Y-33132362D01*
X115499685Y-33065323D01*
X115516319Y-33044681D01*
X115824681Y-32736319D01*
X115886004Y-32702834D01*
X115912362Y-32700000D01*
X116825638Y-32700000D01*
X116892677Y-32719685D01*
G37*
%TD.AperFunction*%
%TD*%
M02*
