%TF.GenerationSoftware,KiCad,Pcbnew,8.0.2*%
%TF.CreationDate,2025-03-04T10:53:31+01:00*%
%TF.ProjectId,USB-C_PD_Module_PANELIZED,5553422d-435f-4504-945f-4d6f64756c65,rev?*%
%TF.SameCoordinates,Original*%
%TF.FileFunction,Paste,Top*%
%TF.FilePolarity,Positive*%
%FSLAX46Y46*%
G04 Gerber Fmt 4.6, Leading zero omitted, Abs format (unit mm)*
G04 Created by KiCad (PCBNEW 8.0.2) date 2025-03-04 10:53:31*
%MOMM*%
%LPD*%
G01*
G04 APERTURE LIST*
G04 Aperture macros list*
%AMRoundRect*
0 Rectangle with rounded corners*
0 $1 Rounding radius*
0 $2 $3 $4 $5 $6 $7 $8 $9 X,Y pos of 4 corners*
0 Add a 4 corners polygon primitive as box body*
4,1,4,$2,$3,$4,$5,$6,$7,$8,$9,$2,$3,0*
0 Add four circle primitives for the rounded corners*
1,1,$1+$1,$2,$3*
1,1,$1+$1,$4,$5*
1,1,$1+$1,$6,$7*
1,1,$1+$1,$8,$9*
0 Add four rect primitives between the rounded corners*
20,1,$1+$1,$2,$3,$4,$5,0*
20,1,$1+$1,$4,$5,$6,$7,0*
20,1,$1+$1,$6,$7,$8,$9,0*
20,1,$1+$1,$8,$9,$2,$3,0*%
G04 Aperture macros list end*
%ADD10RoundRect,0.250000X0.262500X0.450000X-0.262500X0.450000X-0.262500X-0.450000X0.262500X-0.450000X0*%
%ADD11RoundRect,0.075000X-0.200000X0.075000X-0.200000X-0.075000X0.200000X-0.075000X0.200000X0.075000X0*%
%ADD12RoundRect,0.250000X-0.250000X-0.475000X0.250000X-0.475000X0.250000X0.475000X-0.250000X0.475000X0*%
%ADD13RoundRect,0.218750X-0.218750X-0.256250X0.218750X-0.256250X0.218750X0.256250X-0.218750X0.256250X0*%
%ADD14RoundRect,0.250000X0.475000X-0.250000X0.475000X0.250000X-0.475000X0.250000X-0.475000X-0.250000X0*%
%ADD15RoundRect,0.250000X0.450000X-0.262500X0.450000X0.262500X-0.450000X0.262500X-0.450000X-0.262500X0*%
%ADD16RoundRect,0.250000X-0.262500X-0.450000X0.262500X-0.450000X0.262500X0.450000X-0.262500X0.450000X0*%
%ADD17RoundRect,0.250000X-0.450000X0.262500X-0.450000X-0.262500X0.450000X-0.262500X0.450000X0.262500X0*%
%ADD18RoundRect,0.150000X-0.425000X0.150000X-0.425000X-0.150000X0.425000X-0.150000X0.425000X0.150000X0*%
%ADD19RoundRect,0.075000X-0.500000X0.075000X-0.500000X-0.075000X0.500000X-0.075000X0.500000X0.075000X0*%
%ADD20O,2.100000X1.000000*%
%ADD21O,1.800000X1.000000*%
%ADD22RoundRect,0.250000X0.250000X0.475000X-0.250000X0.475000X-0.250000X-0.475000X0.250000X-0.475000X0*%
%ADD23RoundRect,0.225000X0.375000X-0.225000X0.375000X0.225000X-0.375000X0.225000X-0.375000X-0.225000X0*%
%ADD24RoundRect,0.160000X-0.160000X0.245000X-0.160000X-0.245000X0.160000X-0.245000X0.160000X0.245000X0*%
%ADD25RoundRect,0.093750X-0.106250X0.093750X-0.106250X-0.093750X0.106250X-0.093750X0.106250X0.093750X0*%
%ADD26RoundRect,0.160000X0.160000X-0.245000X0.160000X0.245000X-0.160000X0.245000X-0.160000X-0.245000X0*%
%ADD27RoundRect,0.093750X0.106250X-0.093750X0.106250X0.093750X-0.106250X0.093750X-0.106250X-0.093750X0*%
%ADD28RoundRect,0.250000X-0.305000X0.305000X-0.305000X-0.305000X0.305000X-0.305000X0.305000X0.305000X0*%
%ADD29RoundRect,0.062500X-0.062500X0.337500X-0.062500X-0.337500X0.062500X-0.337500X0.062500X0.337500X0*%
%ADD30RoundRect,0.062500X-0.337500X0.062500X-0.337500X-0.062500X0.337500X-0.062500X0.337500X0.062500X0*%
%ADD31RoundRect,0.150000X0.725000X0.150000X-0.725000X0.150000X-0.725000X-0.150000X0.725000X-0.150000X0*%
G04 APERTURE END LIST*
D10*
%TO.C,R1*%
X108518500Y-23048000D03*
X106693500Y-23048000D03*
%TD*%
D11*
%TO.C,U1*%
X175805000Y-29190000D03*
X175805000Y-29690000D03*
X175805000Y-30190000D03*
X175805000Y-30690000D03*
X175805000Y-31190000D03*
X176575000Y-31190000D03*
X176575000Y-30690000D03*
X176575000Y-30190000D03*
X176575000Y-29690000D03*
X176575000Y-29190000D03*
%TD*%
D12*
%TO.C,C2*%
X194092500Y-23048000D03*
X195992500Y-23048000D03*
%TD*%
D13*
%TO.C,D2*%
X132068000Y-23048000D03*
X133643000Y-23048000D03*
%TD*%
D14*
%TO.C,C5*%
X147738000Y-36317000D03*
X147738000Y-34417000D03*
%TD*%
D10*
%TO.C,R1*%
X144078500Y-23048000D03*
X142253500Y-23048000D03*
%TD*%
D14*
%TO.C,C5*%
X183298000Y-36317000D03*
X183298000Y-34417000D03*
%TD*%
D15*
%TO.C,R3*%
X145706000Y-36279500D03*
X145706000Y-34454500D03*
%TD*%
D16*
%TO.C,R2*%
X135245000Y-23048000D03*
X137070000Y-23048000D03*
%TD*%
D13*
%TO.C,D2*%
X96508000Y-23048000D03*
X98083000Y-23048000D03*
%TD*%
D16*
%TO.C,R5*%
X195466500Y-32573000D03*
X197291500Y-32573000D03*
%TD*%
D17*
%TO.C,R6*%
X126529000Y-34835500D03*
X126529000Y-36660500D03*
%TD*%
D12*
%TO.C,C3*%
X122972500Y-25588000D03*
X124872500Y-25588000D03*
%TD*%
D16*
%TO.C,R5*%
X159906500Y-32573000D03*
X161731500Y-32573000D03*
%TD*%
D15*
%TO.C,R4*%
X160184000Y-36660500D03*
X160184000Y-34835500D03*
%TD*%
D18*
%TO.C,J1*%
X102585000Y-26960000D03*
X102585000Y-27760000D03*
D19*
X102585000Y-28910000D03*
X102585000Y-29910000D03*
X102585000Y-30410000D03*
X102585000Y-31410000D03*
D18*
X102585000Y-32560000D03*
X102585000Y-33360000D03*
X102585000Y-33360000D03*
X102585000Y-32560000D03*
D19*
X102585000Y-31910000D03*
X102585000Y-30910000D03*
X102585000Y-29410000D03*
X102585000Y-28410000D03*
D18*
X102585000Y-27760000D03*
X102585000Y-26960000D03*
D20*
X102010000Y-25840000D03*
D21*
X97830000Y-25840000D03*
D20*
X102010000Y-34480000D03*
D21*
X97830000Y-34480000D03*
%TD*%
D22*
%TO.C,C4*%
X115982500Y-27493000D03*
X114082500Y-27493000D03*
%TD*%
D11*
%TO.C,U1*%
X104685000Y-29190000D03*
X104685000Y-29690000D03*
X104685000Y-30190000D03*
X104685000Y-30690000D03*
X104685000Y-31190000D03*
X105455000Y-31190000D03*
X105455000Y-30690000D03*
X105455000Y-30190000D03*
X105455000Y-29690000D03*
X105455000Y-29190000D03*
%TD*%
D12*
%TO.C,C1*%
X158532500Y-28128000D03*
X160432500Y-28128000D03*
%TD*%
D15*
%TO.C,R4*%
X124624000Y-36660500D03*
X124624000Y-34835500D03*
%TD*%
D18*
%TO.C,J1*%
X138145000Y-26960000D03*
X138145000Y-27760000D03*
D19*
X138145000Y-28910000D03*
X138145000Y-29910000D03*
X138145000Y-30410000D03*
X138145000Y-31410000D03*
D18*
X138145000Y-32560000D03*
X138145000Y-33360000D03*
X138145000Y-33360000D03*
X138145000Y-32560000D03*
D19*
X138145000Y-31910000D03*
X138145000Y-30910000D03*
X138145000Y-29410000D03*
X138145000Y-28410000D03*
D18*
X138145000Y-27760000D03*
X138145000Y-26960000D03*
D20*
X137570000Y-25840000D03*
D21*
X133390000Y-25840000D03*
D20*
X137570000Y-34480000D03*
D21*
X133390000Y-34480000D03*
%TD*%
D17*
%TO.C,R6*%
X162089000Y-34835500D03*
X162089000Y-36660500D03*
%TD*%
D22*
%TO.C,C4*%
X151542500Y-27493000D03*
X149642500Y-27493000D03*
%TD*%
D15*
%TO.C,R3*%
X181266000Y-36279500D03*
X181266000Y-34454500D03*
%TD*%
D23*
%TO.C,D1*%
X157644000Y-36763000D03*
X157644000Y-33463000D03*
%TD*%
D15*
%TO.C,R3*%
X110146000Y-36279500D03*
X110146000Y-34454500D03*
%TD*%
D24*
%TO.C,U3*%
X141280000Y-26731000D03*
X140480000Y-26731000D03*
D25*
X141530000Y-25843500D03*
X140880000Y-25843500D03*
X140230000Y-25843500D03*
X140230000Y-27618500D03*
X140880000Y-27618500D03*
X141530000Y-27618500D03*
%TD*%
D12*
%TO.C,C2*%
X158532500Y-23048000D03*
X160432500Y-23048000D03*
%TD*%
D17*
%TO.C,R6*%
X197649000Y-34835500D03*
X197649000Y-36660500D03*
%TD*%
D16*
%TO.C,R5*%
X124346500Y-32573000D03*
X126171500Y-32573000D03*
%TD*%
D26*
%TO.C,U2*%
X140480000Y-33558000D03*
X141280000Y-33558000D03*
D27*
X140230000Y-34445500D03*
X140880000Y-34445500D03*
X141530000Y-34445500D03*
X141530000Y-32670500D03*
X140880000Y-32670500D03*
X140230000Y-32670500D03*
%TD*%
D23*
%TO.C,D1*%
X193204000Y-36763000D03*
X193204000Y-33463000D03*
%TD*%
D24*
%TO.C,U3*%
X105720000Y-26731000D03*
X104920000Y-26731000D03*
D25*
X105970000Y-25843500D03*
X105320000Y-25843500D03*
X104670000Y-25843500D03*
X104670000Y-27618500D03*
X105320000Y-27618500D03*
X105970000Y-27618500D03*
%TD*%
D11*
%TO.C,U1*%
X140245000Y-29190000D03*
X140245000Y-29690000D03*
X140245000Y-30190000D03*
X140245000Y-30690000D03*
X140245000Y-31190000D03*
X141015000Y-31190000D03*
X141015000Y-30690000D03*
X141015000Y-30190000D03*
X141015000Y-29690000D03*
X141015000Y-29190000D03*
%TD*%
D10*
%TO.C,R1*%
X179638500Y-23048000D03*
X177813500Y-23048000D03*
%TD*%
D18*
%TO.C,J1*%
X173705000Y-26960000D03*
X173705000Y-27760000D03*
D19*
X173705000Y-28910000D03*
X173705000Y-29910000D03*
X173705000Y-30410000D03*
X173705000Y-31410000D03*
D18*
X173705000Y-32560000D03*
X173705000Y-33360000D03*
X173705000Y-33360000D03*
X173705000Y-32560000D03*
D19*
X173705000Y-31910000D03*
X173705000Y-30910000D03*
X173705000Y-29410000D03*
X173705000Y-28410000D03*
D18*
X173705000Y-27760000D03*
X173705000Y-26960000D03*
D20*
X173130000Y-25840000D03*
D21*
X168950000Y-25840000D03*
D20*
X173130000Y-34480000D03*
D21*
X168950000Y-34480000D03*
%TD*%
D12*
%TO.C,C3*%
X194092500Y-25588000D03*
X195992500Y-25588000D03*
%TD*%
%TO.C,C2*%
X122972500Y-23048000D03*
X124872500Y-23048000D03*
%TD*%
D28*
%TO.C,U4*%
X120112500Y-25533000D03*
X118732500Y-25533000D03*
X120112500Y-26913000D03*
X118732500Y-26913000D03*
D29*
X120672500Y-24248000D03*
X120172500Y-24248000D03*
X119672500Y-24248000D03*
X119172500Y-24248000D03*
X118672500Y-24248000D03*
X118172500Y-24248000D03*
D30*
X117447500Y-24973000D03*
X117447500Y-25473000D03*
X117447500Y-25973000D03*
X117447500Y-26473000D03*
X117447500Y-26973000D03*
X117447500Y-27473000D03*
D29*
X118172500Y-28198000D03*
X118672500Y-28198000D03*
X119172500Y-28198000D03*
X119672500Y-28198000D03*
X120172500Y-28198000D03*
X120672500Y-28198000D03*
D30*
X121397500Y-27473000D03*
X121397500Y-26973000D03*
X121397500Y-26473000D03*
X121397500Y-25973000D03*
X121397500Y-25473000D03*
X121397500Y-24973000D03*
%TD*%
D26*
%TO.C,U2*%
X104920000Y-33558000D03*
X105720000Y-33558000D03*
D27*
X104670000Y-34445500D03*
X105320000Y-34445500D03*
X105970000Y-34445500D03*
X105970000Y-32670500D03*
X105320000Y-32670500D03*
X104670000Y-32670500D03*
%TD*%
D16*
%TO.C,R2*%
X99685000Y-23048000D03*
X101510000Y-23048000D03*
%TD*%
D26*
%TO.C,U2*%
X176040000Y-33558000D03*
X176840000Y-33558000D03*
D27*
X175790000Y-34445500D03*
X176440000Y-34445500D03*
X177090000Y-34445500D03*
X177090000Y-32670500D03*
X176440000Y-32670500D03*
X175790000Y-32670500D03*
%TD*%
D22*
%TO.C,C4*%
X187102500Y-27493000D03*
X185202500Y-27493000D03*
%TD*%
D13*
%TO.C,D2*%
X167628000Y-23048000D03*
X169203000Y-23048000D03*
%TD*%
D28*
%TO.C,U4*%
X191232500Y-25533000D03*
X189852500Y-25533000D03*
X191232500Y-26913000D03*
X189852500Y-26913000D03*
D29*
X191792500Y-24248000D03*
X191292500Y-24248000D03*
X190792500Y-24248000D03*
X190292500Y-24248000D03*
X189792500Y-24248000D03*
X189292500Y-24248000D03*
D30*
X188567500Y-24973000D03*
X188567500Y-25473000D03*
X188567500Y-25973000D03*
X188567500Y-26473000D03*
X188567500Y-26973000D03*
X188567500Y-27473000D03*
D29*
X189292500Y-28198000D03*
X189792500Y-28198000D03*
X190292500Y-28198000D03*
X190792500Y-28198000D03*
X191292500Y-28198000D03*
X191792500Y-28198000D03*
D30*
X192517500Y-27473000D03*
X192517500Y-26973000D03*
X192517500Y-26473000D03*
X192517500Y-25973000D03*
X192517500Y-25473000D03*
X192517500Y-24973000D03*
%TD*%
D14*
%TO.C,C5*%
X112178000Y-36317000D03*
X112178000Y-34417000D03*
%TD*%
D28*
%TO.C,U4*%
X155672500Y-25533000D03*
X154292500Y-25533000D03*
X155672500Y-26913000D03*
X154292500Y-26913000D03*
D29*
X156232500Y-24248000D03*
X155732500Y-24248000D03*
X155232500Y-24248000D03*
X154732500Y-24248000D03*
X154232500Y-24248000D03*
X153732500Y-24248000D03*
D30*
X153007500Y-24973000D03*
X153007500Y-25473000D03*
X153007500Y-25973000D03*
X153007500Y-26473000D03*
X153007500Y-26973000D03*
X153007500Y-27473000D03*
D29*
X153732500Y-28198000D03*
X154232500Y-28198000D03*
X154732500Y-28198000D03*
X155232500Y-28198000D03*
X155732500Y-28198000D03*
X156232500Y-28198000D03*
D30*
X156957500Y-27473000D03*
X156957500Y-26973000D03*
X156957500Y-26473000D03*
X156957500Y-25973000D03*
X156957500Y-25473000D03*
X156957500Y-24973000D03*
%TD*%
D12*
%TO.C,C3*%
X158532500Y-25588000D03*
X160432500Y-25588000D03*
%TD*%
D31*
%TO.C,Q1*%
X119579000Y-37018000D03*
X119579000Y-35748000D03*
X119579000Y-34478000D03*
X119579000Y-33208000D03*
X114429000Y-33208000D03*
X114429000Y-34478000D03*
X114429000Y-35748000D03*
X114429000Y-37018000D03*
%TD*%
D16*
%TO.C,R2*%
X170805000Y-23048000D03*
X172630000Y-23048000D03*
%TD*%
D31*
%TO.C,Q1*%
X190699000Y-37018000D03*
X190699000Y-35748000D03*
X190699000Y-34478000D03*
X190699000Y-33208000D03*
X185549000Y-33208000D03*
X185549000Y-34478000D03*
X185549000Y-35748000D03*
X185549000Y-37018000D03*
%TD*%
D24*
%TO.C,U3*%
X176840000Y-26731000D03*
X176040000Y-26731000D03*
D25*
X177090000Y-25843500D03*
X176440000Y-25843500D03*
X175790000Y-25843500D03*
X175790000Y-27618500D03*
X176440000Y-27618500D03*
X177090000Y-27618500D03*
%TD*%
D15*
%TO.C,R4*%
X195744000Y-36660500D03*
X195744000Y-34835500D03*
%TD*%
D31*
%TO.C,Q1*%
X155139000Y-37018000D03*
X155139000Y-35748000D03*
X155139000Y-34478000D03*
X155139000Y-33208000D03*
X149989000Y-33208000D03*
X149989000Y-34478000D03*
X149989000Y-35748000D03*
X149989000Y-37018000D03*
%TD*%
D23*
%TO.C,D1*%
X122084000Y-36763000D03*
X122084000Y-33463000D03*
%TD*%
D12*
%TO.C,C1*%
X194092500Y-28128000D03*
X195992500Y-28128000D03*
%TD*%
%TO.C,C1*%
X122972500Y-28128000D03*
X124872500Y-28128000D03*
%TD*%
M02*
