%TF.GenerationSoftware,KiCad,Pcbnew,8.0.2*%
%TF.CreationDate,2025-03-04T10:53:31+01:00*%
%TF.ProjectId,USB-C_PD_Module_PANELIZED,5553422d-435f-4504-945f-4d6f64756c65,rev?*%
%TF.SameCoordinates,Original*%
%TF.FileFunction,Profile,NP*%
%FSLAX46Y46*%
G04 Gerber Fmt 4.6, Leading zero omitted, Abs format (unit mm)*
G04 Created by KiCad (PCBNEW 8.0.2) date 2025-03-04 10:53:31*
%MOMM*%
%LPD*%
G01*
G04 APERTURE LIST*
%TA.AperFunction,Profile*%
%ADD10C,0.100000*%
%TD*%
G04 APERTURE END LIST*
D10*
X166280000Y-40320000D02*
X130720000Y-40320000D01*
X93159000Y-31660000D02*
X94960000Y-31660000D01*
X130720000Y-20000000D02*
X166280000Y-20000000D01*
X95160000Y-40320000D02*
X95160000Y-20000000D01*
X166280000Y-20000000D02*
X201840000Y-20000000D01*
X203841000Y-28660000D02*
X202037799Y-28660000D01*
X93159000Y-20000000D02*
X83159000Y-20000000D01*
X83159000Y-20000000D02*
X83159000Y-40320000D01*
X166280000Y-40320000D02*
X166280000Y-20000000D01*
X202037799Y-28660000D02*
X202038365Y-31660000D01*
X130720000Y-40320000D02*
X130720000Y-20000000D01*
X93159000Y-28660000D02*
X93159000Y-20000000D01*
X201840000Y-40320000D02*
X166280000Y-40320000D01*
X83159000Y-40320000D02*
X93159000Y-40320000D01*
X203841000Y-31660000D02*
X203841000Y-40320000D01*
X94960000Y-31660000D02*
X94960000Y-28660000D01*
X201840000Y-20000000D02*
X201840000Y-40320000D01*
X93159000Y-40320000D02*
X93159000Y-31660000D01*
X202038365Y-31660000D02*
X203841000Y-31660000D01*
X213841000Y-20000000D02*
X203841000Y-20000000D01*
X94960000Y-28660000D02*
X93159000Y-28660000D01*
X130720000Y-20000000D02*
X130720000Y-40320000D01*
X203841000Y-20000000D02*
X203841000Y-28660000D01*
X130720000Y-40320000D02*
X95160000Y-40320000D01*
X95160000Y-20000000D02*
X130720000Y-20000000D01*
X203841000Y-40320000D02*
X213841000Y-40320000D01*
X213841000Y-40320000D02*
X213841000Y-20000000D01*
X166280000Y-20000000D02*
X166280000Y-40320000D01*
M02*
